M48
; DRILL file {KiCad (5.99.0-12112-g0cd8a4d846)} date Thu Oct 21 21:26:28 2021
; FORMAT={-:-/ absolute / inch / decimal}
; #@! TF.CreationDate,2021-10-21T21:26:28-04:00
; #@! TF.GenerationSoftware,Kicad,Pcbnew,(5.99.0-12112-g0cd8a4d846)
; #@! TF.FileFunction,Plated,1,2,PTH
FMAT,2
INCH
; #@! TA.AperFunction,Plated,PTH,ViaDrill
T1C0.0118
; #@! TA.AperFunction,Plated,PTH,ComponentDrill
T2C0.0394
%
G90
G05
T1
X2.7711Y-3.2603
X2.7793Y-3.3314
X2.8147Y-3.3516
X2.8462Y-3.3516
X2.8723Y-3.1823
X2.8777Y-3.3516
X2.9038Y-3.279
X2.92Y-3.2574
X2.9329Y-3.1425
X2.9644Y-3.1385
X3.0207Y-3.2125
X3.0549Y-3.3713
X3.0589Y-3.2566
X3.0628Y-3.2291
X3.0628Y-3.4466
X3.0667Y-3.3319
X3.0864Y-3.3594
X3.0864Y-3.2173
X3.1021Y-3.3201
X3.1389Y-3.3009
X3.1407Y-3.1671
X3.1447Y-3.419
X3.1959Y-3.108
X3.1959Y-3.4545
X3.2234Y-3.108
X3.2234Y-3.4545
X3.251Y-3.108
X3.251Y-3.4545
X3.2785Y-3.108
X3.2785Y-3.4545
X3.3061Y-3.108
X3.3061Y-3.2812
X3.3061Y-3.4545
X3.3337Y-3.108
X3.3337Y-3.4545
X3.3573Y-3.2287
X3.3612Y-3.108
X3.3612Y-3.4545
X3.3888Y-3.108
X3.3888Y-3.4545
X3.4163Y-3.108
X3.4163Y-3.4545
X3.4545Y-3.4181
X3.4703Y-3.139
X3.4727Y-3.3959
X3.5018Y-3.1937
X3.5541Y-3.1671
X3.5652Y-3.3398
X3.5659Y-3.3127
X3.5817Y-3.2891
X3.6435Y-3.1346
X3.6435Y-3.4181
X3.6907Y-3.2094
X3.6907Y-3.237
X3.6907Y-3.2645
X3.6947Y-3.4181
X3.6949Y-3.39
X3.7026Y-3.3078
X3.7464Y-3.2855
X3.7577Y-3.1779
X3.7813Y-3.2803
X3.8526Y-3.4028
X3.8565Y-3.2335
X3.9747Y-3.328
X3.9791Y-3.4064
T2
X2.3809Y-3.4688
X2.3816Y-3.2812
X2.3816Y-3.3252
X2.3816Y-3.4252
X2.4809Y-3.4688
X2.4816Y-3.2812
X2.4816Y-3.3252
X2.4816Y-3.4252
X2.5809Y-3.4688
X2.5816Y-3.2812
X2.5816Y-3.3252
X2.5816Y-3.4252
X2.6809Y-3.4688
X2.6816Y-3.2812
X2.6816Y-3.3252
X2.6816Y-3.4252
X2.9062Y-2.7559
X2.9062Y-2.8559
X2.9062Y-2.9559
X2.9062Y-3.0559
X2.9498Y-2.7566
X2.9498Y-2.8566
X2.9498Y-2.9566
X2.9498Y-3.0566
X3.0498Y-2.7566
X3.0498Y-2.8566
X3.0498Y-2.9566
X3.0498Y-3.0566
X3.0938Y-2.7566
X3.0938Y-2.8566
X3.0938Y-2.9566
X3.0938Y-3.0566
X3.6562Y-2.7559
X3.6562Y-2.8559
X3.6562Y-2.9559
X3.6562Y-3.0559
X3.6998Y-2.7566
X3.6998Y-2.8566
X3.6998Y-2.9566
X3.6998Y-3.0566
X3.7998Y-2.7566
X3.7998Y-2.8566
X3.7998Y-2.9566
X3.7998Y-3.0566
X3.8438Y-2.7566
X3.8438Y-2.8566
X3.8438Y-2.9566
X3.8438Y-3.0566
X4.0684Y-3.4688
X4.0691Y-3.2812
X4.0691Y-3.3252
X4.0691Y-3.4252
X4.1684Y-3.4688
X4.1691Y-3.2812
X4.1691Y-3.3252
X4.1691Y-3.4252
X4.2684Y-3.4688
X4.2691Y-3.2812
X4.2691Y-3.3252
X4.2691Y-3.4252
X4.3684Y-3.4688
X4.3691Y-3.2812
X4.3691Y-3.3252
X4.3691Y-3.4252
T0
M30
