%TF.GenerationSoftware,KiCad,Pcbnew,(5.99.0-12112-g0cd8a4d846)*%
%TF.CreationDate,2021-10-21T21:26:21-04:00*%
%TF.ProjectId,Piggyback_1_0_PCB,50696767-7962-4616-936b-5f315f305f50,rev?*%
%TF.SameCoordinates,Original*%
%TF.FileFunction,Legend,Bot*%
%TF.FilePolarity,Positive*%
%FSLAX46Y46*%
G04 Gerber Fmt 4.6, Leading zero omitted, Abs format (unit mm)*
G04 Created by KiCad (PCBNEW (5.99.0-12112-g0cd8a4d846)) date 2021-10-21 21:26:21*
%MOMM*%
%LPD*%
G01*
G04 APERTURE LIST*
%ADD10C,0.250000*%
%ADD11C,0.787400*%
%ADD12O,1.700000X1.700000*%
%ADD13C,1.700000*%
%ADD14O,3.000000X1.700000*%
%ADD15O,1.700000X3.000000*%
G04 APERTURE END LIST*
D10*
X101358333Y-85403571D02*
X101358333Y-86617857D01*
X101425000Y-86760714D01*
X101491666Y-86832142D01*
X101625000Y-86903571D01*
X101825000Y-86903571D01*
X101958333Y-86832142D01*
X101358333Y-86332142D02*
X101491666Y-86403571D01*
X101758333Y-86403571D01*
X101891666Y-86332142D01*
X101958333Y-86260714D01*
X102025000Y-86117857D01*
X102025000Y-85689285D01*
X101958333Y-85546428D01*
X101891666Y-85475000D01*
X101758333Y-85403571D01*
X101491666Y-85403571D01*
X101358333Y-85475000D01*
X100691666Y-86403571D02*
X100691666Y-85403571D01*
X100691666Y-84903571D02*
X100758333Y-84975000D01*
X100691666Y-85046428D01*
X100625000Y-84975000D01*
X100691666Y-84903571D01*
X100691666Y-85046428D01*
X100225000Y-85403571D02*
X99691666Y-85403571D01*
X100025000Y-84903571D02*
X100025000Y-86189285D01*
X99958333Y-86332142D01*
X99825000Y-86403571D01*
X99691666Y-86403571D01*
X99225000Y-86403571D02*
X99225000Y-84903571D01*
X98625000Y-86403571D02*
X98625000Y-85617857D01*
X98691666Y-85475000D01*
X98825000Y-85403571D01*
X99025000Y-85403571D01*
X99158333Y-85475000D01*
X99225000Y-85546428D01*
X97358333Y-85403571D02*
X97358333Y-86403571D01*
X97958333Y-85403571D02*
X97958333Y-86189285D01*
X97891666Y-86332142D01*
X97758333Y-86403571D01*
X97558333Y-86403571D01*
X97425000Y-86332142D01*
X97358333Y-86260714D01*
X96691666Y-86403571D02*
X96691666Y-84903571D01*
X96691666Y-85475000D02*
X96558333Y-85403571D01*
X96291666Y-85403571D01*
X96158333Y-85475000D01*
X96091666Y-85546428D01*
X96025000Y-85689285D01*
X96025000Y-86117857D01*
X96091666Y-86260714D01*
X96158333Y-86332142D01*
X96291666Y-86403571D01*
X96558333Y-86403571D01*
X96691666Y-86332142D01*
X95425000Y-86260714D02*
X95358333Y-86332142D01*
X95425000Y-86403571D01*
X95491666Y-86332142D01*
X95425000Y-86260714D01*
X95425000Y-86403571D01*
X94158333Y-86332142D02*
X94291666Y-86403571D01*
X94558333Y-86403571D01*
X94691666Y-86332142D01*
X94758333Y-86260714D01*
X94824999Y-86117857D01*
X94824999Y-85689285D01*
X94758333Y-85546428D01*
X94691666Y-85475000D01*
X94558333Y-85403571D01*
X94291666Y-85403571D01*
X94158333Y-85475000D01*
X93358333Y-86403571D02*
X93491666Y-86332142D01*
X93558333Y-86260714D01*
X93624999Y-86117857D01*
X93624999Y-85689285D01*
X93558333Y-85546428D01*
X93491666Y-85475000D01*
X93358333Y-85403571D01*
X93158333Y-85403571D01*
X93024999Y-85475000D01*
X92958333Y-85546428D01*
X92891666Y-85689285D01*
X92891666Y-86117857D01*
X92958333Y-86260714D01*
X93024999Y-86332142D01*
X93158333Y-86403571D01*
X93358333Y-86403571D01*
X92291666Y-86403571D02*
X92291666Y-85403571D01*
X92291666Y-85546428D02*
X92224999Y-85475000D01*
X92091666Y-85403571D01*
X91891666Y-85403571D01*
X91758333Y-85475000D01*
X91691666Y-85617857D01*
X91691666Y-86403571D01*
X91691666Y-85617857D02*
X91624999Y-85475000D01*
X91491666Y-85403571D01*
X91291666Y-85403571D01*
X91158333Y-85475000D01*
X91091666Y-85617857D01*
X91091666Y-86403571D01*
X89424999Y-84832142D02*
X90624999Y-86760714D01*
X88958333Y-86403571D02*
X88958333Y-84903571D01*
X88158333Y-86403571D01*
X88158333Y-84903571D01*
X86691666Y-86260714D02*
X86758333Y-86332142D01*
X86958333Y-86403571D01*
X87091666Y-86403571D01*
X87291666Y-86332142D01*
X87424999Y-86189285D01*
X87491666Y-86046428D01*
X87558333Y-85760714D01*
X87558333Y-85546428D01*
X87491666Y-85260714D01*
X87424999Y-85117857D01*
X87291666Y-84975000D01*
X87091666Y-84903571D01*
X86958333Y-84903571D01*
X86758333Y-84975000D01*
X86691666Y-85046428D01*
X86091666Y-86403571D02*
X86091666Y-84903571D01*
X85291666Y-86403571D02*
X85891666Y-85546428D01*
X85291666Y-84903571D02*
X86091666Y-85760714D01*
X84691666Y-86403571D02*
X84691666Y-85403571D01*
X84691666Y-84903571D02*
X84758333Y-84975000D01*
X84691666Y-85046428D01*
X84624999Y-84975000D01*
X84691666Y-84903571D01*
X84691666Y-85046428D01*
X84091666Y-86332142D02*
X83958333Y-86403571D01*
X83691666Y-86403571D01*
X83558333Y-86332142D01*
X83491666Y-86189285D01*
X83491666Y-86117857D01*
X83558333Y-85975000D01*
X83691666Y-85903571D01*
X83891666Y-85903571D01*
X84024999Y-85832142D01*
X84091666Y-85689285D01*
X84091666Y-85617857D01*
X84024999Y-85475000D01*
X83891666Y-85403571D01*
X83691666Y-85403571D01*
X83558333Y-85475000D01*
X82358333Y-86332142D02*
X82491666Y-86403571D01*
X82758333Y-86403571D01*
X82891666Y-86332142D01*
X82958333Y-86189285D01*
X82958333Y-85617857D01*
X82891666Y-85475000D01*
X82758333Y-85403571D01*
X82491666Y-85403571D01*
X82358333Y-85475000D01*
X82291666Y-85617857D01*
X82291666Y-85760714D01*
X82958333Y-85903571D01*
X81691666Y-86403571D02*
X81691666Y-85403571D01*
X81691666Y-85689285D02*
X81624999Y-85546428D01*
X81558333Y-85475000D01*
X81424999Y-85403571D01*
X81291666Y-85403571D01*
X79824999Y-84832142D02*
X81024999Y-86760714D01*
X79358333Y-86403571D02*
X79358333Y-84903571D01*
X78824999Y-84903571D01*
X78691666Y-84975000D01*
X78624999Y-85046428D01*
X78558333Y-85189285D01*
X78558333Y-85403571D01*
X78624999Y-85546428D01*
X78691666Y-85617857D01*
X78824999Y-85689285D01*
X79358333Y-85689285D01*
X77958333Y-86403571D02*
X77958333Y-85403571D01*
X77958333Y-84903571D02*
X78024999Y-84975000D01*
X77958333Y-85046428D01*
X77891666Y-84975000D01*
X77958333Y-84903571D01*
X77958333Y-85046428D01*
X76691666Y-85403571D02*
X76691666Y-86617857D01*
X76758333Y-86760714D01*
X76824999Y-86832142D01*
X76958333Y-86903571D01*
X77158333Y-86903571D01*
X77291666Y-86832142D01*
X76691666Y-86332142D02*
X76824999Y-86403571D01*
X77091666Y-86403571D01*
X77224999Y-86332142D01*
X77291666Y-86260714D01*
X77358333Y-86117857D01*
X77358333Y-85689285D01*
X77291666Y-85546428D01*
X77224999Y-85475000D01*
X77091666Y-85403571D01*
X76824999Y-85403571D01*
X76691666Y-85475000D01*
X75424999Y-85403571D02*
X75424999Y-86617857D01*
X75491666Y-86760714D01*
X75558333Y-86832142D01*
X75691666Y-86903571D01*
X75891666Y-86903571D01*
X76024999Y-86832142D01*
X75424999Y-86332142D02*
X75558333Y-86403571D01*
X75824999Y-86403571D01*
X75958333Y-86332142D01*
X76024999Y-86260714D01*
X76091666Y-86117857D01*
X76091666Y-85689285D01*
X76024999Y-85546428D01*
X75958333Y-85475000D01*
X75824999Y-85403571D01*
X75558333Y-85403571D01*
X75424999Y-85475000D01*
X74891666Y-85403571D02*
X74558333Y-86403571D01*
X74224999Y-85403571D02*
X74558333Y-86403571D01*
X74691666Y-86760714D01*
X74758333Y-86832142D01*
X74891666Y-86903571D01*
X73691666Y-86403571D02*
X73691666Y-84903571D01*
X73691666Y-85475000D02*
X73558333Y-85403571D01*
X73291666Y-85403571D01*
X73158333Y-85475000D01*
X73091666Y-85546428D01*
X73024999Y-85689285D01*
X73024999Y-86117857D01*
X73091666Y-86260714D01*
X73158333Y-86332142D01*
X73291666Y-86403571D01*
X73558333Y-86403571D01*
X73691666Y-86332142D01*
X71824999Y-86403571D02*
X71824999Y-85617857D01*
X71891666Y-85475000D01*
X72024999Y-85403571D01*
X72291666Y-85403571D01*
X72424999Y-85475000D01*
X71824999Y-86332142D02*
X71958333Y-86403571D01*
X72291666Y-86403571D01*
X72424999Y-86332142D01*
X72491666Y-86189285D01*
X72491666Y-86046428D01*
X72424999Y-85903571D01*
X72291666Y-85832142D01*
X71958333Y-85832142D01*
X71824999Y-85760714D01*
X70558333Y-86332142D02*
X70691666Y-86403571D01*
X70958333Y-86403571D01*
X71091666Y-86332142D01*
X71158333Y-86260714D01*
X71224999Y-86117857D01*
X71224999Y-85689285D01*
X71158333Y-85546428D01*
X71091666Y-85475000D01*
X70958333Y-85403571D01*
X70691666Y-85403571D01*
X70558333Y-85475000D01*
X69958333Y-86403571D02*
X69958333Y-84903571D01*
X69824999Y-85832142D02*
X69424999Y-86403571D01*
X69424999Y-85403571D02*
X69958333Y-85975000D01*
%TO.C,G\u002A\u002A\u002A*%
G36*
X83122740Y-81770137D02*
G01*
X83137137Y-81790603D01*
X83144936Y-81822139D01*
X83140710Y-81854245D01*
X83125327Y-81882028D01*
X83099652Y-81900591D01*
X83091303Y-81902341D01*
X83067103Y-81904640D01*
X83031459Y-81906534D01*
X82987636Y-81907863D01*
X82938896Y-81908468D01*
X82883642Y-81908301D01*
X82836009Y-81906824D01*
X82800867Y-81903427D01*
X82775864Y-81897530D01*
X82758647Y-81888554D01*
X82746864Y-81875920D01*
X82738161Y-81859048D01*
X82731843Y-81824706D01*
X82739764Y-81791377D01*
X82760776Y-81764840D01*
X82768103Y-81759692D01*
X82778311Y-81755026D01*
X82792536Y-81751759D01*
X82813369Y-81749643D01*
X82843401Y-81748435D01*
X82885223Y-81747890D01*
X82941426Y-81747763D01*
X83100367Y-81747763D01*
X83122740Y-81770137D01*
G37*
G36*
X82971114Y-80720908D02*
G01*
X83019910Y-80721078D01*
X83055496Y-80721698D01*
X83080414Y-80723059D01*
X83097209Y-80725451D01*
X83108423Y-80729167D01*
X83116600Y-80734496D01*
X83124283Y-80741731D01*
X83138463Y-80762639D01*
X83145308Y-80794294D01*
X83140484Y-80826826D01*
X83124947Y-80855104D01*
X83099652Y-80874001D01*
X83088740Y-80876028D01*
X83062733Y-80877974D01*
X83025535Y-80879315D01*
X82980283Y-80879944D01*
X82930115Y-80879756D01*
X82778765Y-80877900D01*
X82753100Y-80849154D01*
X82737945Y-80829988D01*
X82731135Y-80811905D01*
X82732312Y-80789749D01*
X82740725Y-80764723D01*
X82759166Y-80739995D01*
X82761153Y-80738289D01*
X82769532Y-80732067D01*
X82779460Y-80727538D01*
X82793506Y-80724434D01*
X82814243Y-80722486D01*
X82844239Y-80721426D01*
X82886068Y-80720987D01*
X82942298Y-80720901D01*
X82971114Y-80720908D01*
G37*
G36*
X81552929Y-80210431D02*
G01*
X81580817Y-80226090D01*
X81599942Y-80252612D01*
X81600877Y-80255174D01*
X81604834Y-80276452D01*
X81607228Y-80311638D01*
X81608103Y-80361733D01*
X81607502Y-80427738D01*
X81604820Y-80578138D01*
X81581009Y-80598600D01*
X81566804Y-80608603D01*
X81533392Y-80619229D01*
X81499654Y-80615232D01*
X81470194Y-80596689D01*
X81447820Y-80574316D01*
X81447820Y-80415375D01*
X81447911Y-80365198D01*
X81448382Y-80321826D01*
X81449482Y-80290546D01*
X81451462Y-80268759D01*
X81454569Y-80253869D01*
X81459052Y-80243278D01*
X81465161Y-80234389D01*
X81490028Y-80214294D01*
X81521069Y-80206283D01*
X81552929Y-80210431D01*
G37*
G36*
X80776681Y-82777186D02*
G01*
X80808740Y-82795090D01*
X80832551Y-82815553D01*
X80835189Y-82977686D01*
X80837826Y-83139818D01*
X80812504Y-83165140D01*
X80795792Y-83178828D01*
X80763663Y-83190907D01*
X80731108Y-83186520D01*
X80700358Y-83165656D01*
X80675552Y-83140850D01*
X80675552Y-82824239D01*
X80700358Y-82799432D01*
X80711153Y-82790067D01*
X80743165Y-82775551D01*
X80776681Y-82777186D01*
G37*
G36*
X82180344Y-81172260D02*
G01*
X82180879Y-81265325D01*
X82181311Y-81366376D01*
X82181632Y-81474201D01*
X82181831Y-81587589D01*
X82181900Y-81705331D01*
X82181872Y-81820205D01*
X82181752Y-81951153D01*
X82181527Y-82066674D01*
X82181185Y-82167629D01*
X82180717Y-82254882D01*
X82180111Y-82329295D01*
X82179356Y-82391733D01*
X82178441Y-82443057D01*
X82177357Y-82484131D01*
X82176090Y-82515818D01*
X82174632Y-82538981D01*
X82172971Y-82554482D01*
X82171095Y-82563186D01*
X82158829Y-82587936D01*
X82128679Y-82623128D01*
X82088549Y-82650983D01*
X82085904Y-82652257D01*
X82074537Y-82656040D01*
X82058158Y-82658962D01*
X82034772Y-82661125D01*
X82002386Y-82662633D01*
X81959009Y-82663587D01*
X81902646Y-82664092D01*
X81831306Y-82664249D01*
X81599522Y-82664302D01*
X81479117Y-82625082D01*
X81462096Y-82619494D01*
X81418411Y-82604753D01*
X81379938Y-82591226D01*
X81350333Y-82580218D01*
X81333253Y-82573034D01*
X81328251Y-82569996D01*
X81309094Y-82555279D01*
X81282054Y-82532056D01*
X81249987Y-82502830D01*
X81215755Y-82470105D01*
X81207512Y-82462026D01*
X81173189Y-82427776D01*
X81147547Y-82400197D01*
X81127529Y-82375155D01*
X81110080Y-82348518D01*
X81092141Y-82316152D01*
X81070656Y-82273924D01*
X81067861Y-82268321D01*
X81048437Y-82228027D01*
X81032557Y-82191567D01*
X81018796Y-82154855D01*
X81005731Y-82113806D01*
X80991938Y-82064335D01*
X80975993Y-82002357D01*
X80965374Y-81959989D01*
X80953942Y-81913024D01*
X80945737Y-81875734D01*
X80940224Y-81844189D01*
X80936868Y-81814457D01*
X80935134Y-81782610D01*
X80934486Y-81744716D01*
X80934389Y-81696844D01*
X81261527Y-81696844D01*
X81261827Y-81740901D01*
X81263243Y-81778804D01*
X81266468Y-81812366D01*
X81272194Y-81846756D01*
X81281115Y-81887146D01*
X81293923Y-81938709D01*
X81307959Y-81991080D01*
X81329046Y-82057908D01*
X81351373Y-82112864D01*
X81376439Y-82158984D01*
X81405738Y-82199308D01*
X81440767Y-82236874D01*
X81459267Y-82254395D01*
X81483264Y-82274474D01*
X81506839Y-82289148D01*
X81535596Y-82301690D01*
X81575138Y-82315374D01*
X81611085Y-82326626D01*
X81642846Y-82334597D01*
X81673479Y-82339197D01*
X81709013Y-82341309D01*
X81755476Y-82341816D01*
X81855171Y-82341816D01*
X81855171Y-81051873D01*
X81755476Y-81051873D01*
X81711733Y-81052305D01*
X81675652Y-81054281D01*
X81644878Y-81058685D01*
X81613383Y-81066402D01*
X81575138Y-81078315D01*
X81547897Y-81087516D01*
X81516009Y-81100085D01*
X81491261Y-81113642D01*
X81468048Y-81131461D01*
X81440767Y-81156815D01*
X81416815Y-81181578D01*
X81385754Y-81220634D01*
X81359431Y-81264464D01*
X81336349Y-81316107D01*
X81315012Y-81378599D01*
X81293923Y-81454980D01*
X81281799Y-81503682D01*
X81272654Y-81544623D01*
X81266747Y-81579238D01*
X81263385Y-81612699D01*
X81261876Y-81650178D01*
X81261527Y-81696844D01*
X80934389Y-81696844D01*
X80934427Y-81660959D01*
X80934871Y-81620715D01*
X80936253Y-81587598D01*
X80939111Y-81557677D01*
X80943978Y-81527020D01*
X80951390Y-81491697D01*
X80961883Y-81447778D01*
X80975991Y-81391332D01*
X80990220Y-81335930D01*
X81004680Y-81283675D01*
X81018281Y-81240436D01*
X81032427Y-81202132D01*
X81048521Y-81164683D01*
X81067967Y-81124008D01*
X81087872Y-81084596D01*
X81105959Y-81051955D01*
X81124033Y-81024425D01*
X81145157Y-80997790D01*
X81172399Y-80967835D01*
X81208824Y-80930346D01*
X81223051Y-80916055D01*
X81256196Y-80883854D01*
X81286075Y-80856251D01*
X81309872Y-80835803D01*
X81324766Y-80825072D01*
X81330223Y-80822477D01*
X81352967Y-80813219D01*
X81386732Y-80800590D01*
X81427926Y-80785911D01*
X81472961Y-80770505D01*
X81595697Y-80729387D01*
X81827544Y-80729387D01*
X81852489Y-80729407D01*
X81922864Y-80729774D01*
X81978471Y-80730658D01*
X82020991Y-80732134D01*
X82052103Y-80734275D01*
X82073490Y-80737157D01*
X82086832Y-80740853D01*
X82105484Y-80751156D01*
X82136175Y-80778139D01*
X82161096Y-80811754D01*
X82175116Y-80845894D01*
X82175528Y-80849358D01*
X82176475Y-80869087D01*
X82177376Y-80904065D01*
X82178224Y-80953082D01*
X82179007Y-81014928D01*
X82179364Y-81051873D01*
X82179717Y-81088391D01*
X82180344Y-81172260D01*
G37*
G36*
X80786441Y-80211946D02*
G01*
X80787809Y-80212520D01*
X80804191Y-80221177D01*
X80816504Y-80232900D01*
X80825314Y-80250006D01*
X80831183Y-80274809D01*
X80834677Y-80309625D01*
X80836359Y-80356770D01*
X80836794Y-80418558D01*
X80836794Y-80429317D01*
X80836686Y-80480025D01*
X80836147Y-80517019D01*
X80834831Y-80543060D01*
X80832389Y-80560912D01*
X80828472Y-80573336D01*
X80822733Y-80583095D01*
X80814824Y-80592952D01*
X80801329Y-80606982D01*
X80782779Y-80616677D01*
X80756173Y-80619063D01*
X80735452Y-80617860D01*
X80715607Y-80610463D01*
X80697522Y-80592952D01*
X80694025Y-80588763D01*
X80687204Y-80579552D01*
X80682311Y-80569340D01*
X80679024Y-80555466D01*
X80677025Y-80535268D01*
X80675993Y-80506084D01*
X80675609Y-80465251D01*
X80675552Y-80410108D01*
X80675555Y-80390535D01*
X80675697Y-80340284D01*
X80676269Y-80303585D01*
X80677570Y-80277853D01*
X80679898Y-80260502D01*
X80683553Y-80248948D01*
X80688833Y-80240605D01*
X80696037Y-80232888D01*
X80717678Y-80216059D01*
X80751274Y-80205691D01*
X80786441Y-80211946D01*
G37*
G36*
X81048408Y-80213919D02*
G01*
X81074048Y-80234389D01*
X81078589Y-80240678D01*
X81083607Y-80250717D01*
X81087117Y-80264374D01*
X81089385Y-80284321D01*
X81090675Y-80313228D01*
X81091254Y-80353765D01*
X81091388Y-80408604D01*
X81091201Y-80456437D01*
X81090192Y-80504850D01*
X81087935Y-80540706D01*
X81084019Y-80566486D01*
X81078029Y-80584672D01*
X81069553Y-80597744D01*
X81058178Y-80608185D01*
X81045836Y-80614779D01*
X81016636Y-80618995D01*
X80985104Y-80613380D01*
X80958200Y-80598600D01*
X80934389Y-80578138D01*
X80931707Y-80427738D01*
X80931480Y-80413872D01*
X80931157Y-80350979D01*
X80932319Y-80303806D01*
X80935007Y-80271350D01*
X80939267Y-80252612D01*
X80957750Y-80226656D01*
X80985467Y-80210701D01*
X81017284Y-80206239D01*
X81048408Y-80213919D01*
G37*
G36*
X85551563Y-80848250D02*
G01*
X85552012Y-80928540D01*
X85552414Y-81022439D01*
X85552801Y-81131068D01*
X85553201Y-81255548D01*
X85553334Y-81298129D01*
X85553691Y-81417294D01*
X85553956Y-81520986D01*
X85554105Y-81610334D01*
X85554115Y-81686468D01*
X85553963Y-81750517D01*
X85553626Y-81803612D01*
X85553081Y-81846880D01*
X85552303Y-81881453D01*
X85551271Y-81908459D01*
X85549961Y-81929028D01*
X85548350Y-81944290D01*
X85546414Y-81955374D01*
X85544130Y-81963409D01*
X85541476Y-81969526D01*
X85538427Y-81974854D01*
X85537825Y-81975820D01*
X85517822Y-81999850D01*
X85493822Y-82019376D01*
X85480056Y-82026389D01*
X85439249Y-82035918D01*
X85396768Y-82032763D01*
X85359215Y-82017039D01*
X85345355Y-82007370D01*
X85332467Y-81996314D01*
X85322330Y-81983390D01*
X85314614Y-81966708D01*
X85308989Y-81944381D01*
X85305126Y-81914521D01*
X85302694Y-81875240D01*
X85301364Y-81824650D01*
X85300806Y-81760864D01*
X85300690Y-81681993D01*
X85300677Y-81425277D01*
X85185894Y-81425277D01*
X84983604Y-81714455D01*
X84961696Y-81745700D01*
X84906281Y-81823952D01*
X84858895Y-81889623D01*
X84819785Y-81942386D01*
X84789198Y-81981912D01*
X84767380Y-82007871D01*
X84754577Y-82019936D01*
X84737743Y-82028527D01*
X84696952Y-82037623D01*
X84656703Y-82032716D01*
X84620061Y-82015580D01*
X84590086Y-81987990D01*
X84569840Y-81951720D01*
X84562386Y-81908546D01*
X84562405Y-81900924D01*
X84562951Y-81889806D01*
X84564937Y-81878710D01*
X84569287Y-81866090D01*
X84576924Y-81850400D01*
X84588770Y-81830093D01*
X84605749Y-81803623D01*
X84628783Y-81769444D01*
X84658796Y-81726008D01*
X84696710Y-81671770D01*
X84743449Y-81605184D01*
X84745489Y-81602278D01*
X84780241Y-81552647D01*
X84811491Y-81507765D01*
X84837984Y-81469456D01*
X84858463Y-81439545D01*
X84871671Y-81419856D01*
X84876353Y-81412212D01*
X84874508Y-81410432D01*
X84861086Y-81402213D01*
X84837510Y-81389343D01*
X84807163Y-81373706D01*
X84792508Y-81366132D01*
X84732071Y-81328797D01*
X84683093Y-81285933D01*
X84641806Y-81233726D01*
X84604446Y-81168362D01*
X84562354Y-81084282D01*
X84562354Y-80954278D01*
X84816948Y-80954278D01*
X84817256Y-80970554D01*
X84825083Y-81028566D01*
X84844233Y-81075217D01*
X84875736Y-81112373D01*
X84920625Y-81141898D01*
X84926035Y-81144605D01*
X84940001Y-81150863D01*
X84954486Y-81155430D01*
X84972231Y-81158573D01*
X84995979Y-81160556D01*
X85028473Y-81161644D01*
X85072454Y-81162103D01*
X85130665Y-81162197D01*
X85300677Y-81162197D01*
X85300677Y-80746360D01*
X85130665Y-80746360D01*
X85107973Y-80746368D01*
X85055182Y-80746563D01*
X85015637Y-80747217D01*
X84986597Y-80748595D01*
X84965318Y-80750964D01*
X84949058Y-80754587D01*
X84935074Y-80759731D01*
X84920625Y-80766659D01*
X84908250Y-80773336D01*
X84866759Y-80804570D01*
X84838399Y-80843895D01*
X84822139Y-80893176D01*
X84816948Y-80954278D01*
X84562354Y-80954278D01*
X84562354Y-80825749D01*
X84600471Y-80747434D01*
X84618567Y-80712394D01*
X84655301Y-80654887D01*
X84697310Y-80608145D01*
X84748483Y-80568205D01*
X84812705Y-80531106D01*
X84897570Y-80487523D01*
X85181866Y-80487523D01*
X85225496Y-80487528D01*
X85298391Y-80487679D01*
X85357076Y-80488248D01*
X85403378Y-80489514D01*
X85439121Y-80491755D01*
X85466130Y-80495250D01*
X85486231Y-80500277D01*
X85501249Y-80507114D01*
X85513009Y-80516042D01*
X85523336Y-80527337D01*
X85534055Y-80541279D01*
X85534980Y-80542532D01*
X85537921Y-80547135D01*
X85540485Y-80553012D01*
X85542702Y-80561284D01*
X85544603Y-80573073D01*
X85546217Y-80589499D01*
X85547574Y-80611685D01*
X85548705Y-80640752D01*
X85549639Y-80677820D01*
X85550407Y-80724012D01*
X85550657Y-80746360D01*
X85551038Y-80780448D01*
X85551563Y-80848250D01*
G37*
G36*
X80391408Y-81234337D02*
G01*
X80441923Y-81234490D01*
X80478931Y-81235075D01*
X80505003Y-81236378D01*
X80522711Y-81238685D01*
X80534627Y-81242282D01*
X80543324Y-81247455D01*
X80551374Y-81254492D01*
X80551389Y-81254507D01*
X80568070Y-81275725D01*
X80578055Y-81298427D01*
X80579007Y-81305150D01*
X80575012Y-81334263D01*
X80561488Y-81362600D01*
X80541890Y-81382165D01*
X80533127Y-81384447D01*
X80508508Y-81387078D01*
X80471385Y-81389147D01*
X80424303Y-81390523D01*
X80369805Y-81391073D01*
X80331271Y-81391057D01*
X80279477Y-81390397D01*
X80240958Y-81388417D01*
X80213408Y-81384507D01*
X80194519Y-81378057D01*
X80181985Y-81368457D01*
X80173501Y-81355096D01*
X80166758Y-81337366D01*
X80162123Y-81313611D01*
X80168650Y-81280899D01*
X80191740Y-81251305D01*
X80198607Y-81245901D01*
X80208040Y-81241361D01*
X80221760Y-81238187D01*
X80242304Y-81236139D01*
X80272208Y-81234974D01*
X80314009Y-81234452D01*
X80370246Y-81234332D01*
X80391408Y-81234337D01*
G37*
G36*
X80449882Y-81485835D02*
G01*
X80487976Y-81488831D01*
X80516481Y-81494316D01*
X80537862Y-81502609D01*
X80554585Y-81514028D01*
X80561692Y-81520670D01*
X80574203Y-81540529D01*
X80577571Y-81567969D01*
X80571746Y-81601505D01*
X80552242Y-81628532D01*
X80519242Y-81645288D01*
X80514061Y-81646405D01*
X80490718Y-81649046D01*
X80455697Y-81651269D01*
X80412792Y-81652867D01*
X80365795Y-81653633D01*
X80350963Y-81653702D01*
X80302682Y-81653463D01*
X80267444Y-81652208D01*
X80242131Y-81649657D01*
X80223624Y-81645530D01*
X80208805Y-81639548D01*
X80185013Y-81623035D01*
X80166036Y-81595455D01*
X80161049Y-81564426D01*
X80170445Y-81533633D01*
X80194620Y-81506762D01*
X80201193Y-81502247D01*
X80213632Y-81496273D01*
X80230304Y-81492121D01*
X80254394Y-81489329D01*
X80289086Y-81487434D01*
X80337566Y-81485971D01*
X80399731Y-81485009D01*
X80449882Y-81485835D01*
G37*
G36*
X87148168Y-82264008D02*
G01*
X87182255Y-82266382D01*
X87226629Y-82270149D01*
X87282939Y-82275405D01*
X87352832Y-82282245D01*
X87437957Y-82290765D01*
X87462118Y-82293197D01*
X87540619Y-82301044D01*
X87607008Y-82307474D01*
X87664194Y-82312626D01*
X87715087Y-82316643D01*
X87762594Y-82319667D01*
X87809623Y-82321837D01*
X87859083Y-82323296D01*
X87913882Y-82324185D01*
X87976929Y-82324645D01*
X88051133Y-82324817D01*
X88139401Y-82324843D01*
X88165308Y-82324842D01*
X88249408Y-82324790D01*
X88320245Y-82324553D01*
X88380727Y-82323989D01*
X88433764Y-82322957D01*
X88482264Y-82321316D01*
X88529134Y-82318924D01*
X88577284Y-82315641D01*
X88629621Y-82311325D01*
X88689055Y-82305834D01*
X88758493Y-82299028D01*
X88840844Y-82290765D01*
X88925156Y-82282326D01*
X88995201Y-82275468D01*
X89051645Y-82270196D01*
X89096136Y-82266414D01*
X89130322Y-82264026D01*
X89155852Y-82262935D01*
X89174373Y-82263047D01*
X89187534Y-82264265D01*
X89196983Y-82266493D01*
X89204367Y-82269637D01*
X89214276Y-82275544D01*
X89237956Y-82300451D01*
X89247504Y-82330876D01*
X89242389Y-82363096D01*
X89222078Y-82393388D01*
X89216894Y-82398279D01*
X89197354Y-82412677D01*
X89181767Y-82418738D01*
X89170009Y-82419722D01*
X89143362Y-82422282D01*
X89103818Y-82426218D01*
X89053369Y-82431328D01*
X88994007Y-82437409D01*
X88927722Y-82444261D01*
X88856507Y-82451682D01*
X88805858Y-82456970D01*
X88740480Y-82463693D01*
X88684212Y-82469208D01*
X88634444Y-82473641D01*
X88588569Y-82477116D01*
X88543979Y-82479757D01*
X88498065Y-82481690D01*
X88448219Y-82483039D01*
X88391833Y-82483928D01*
X88326298Y-82484482D01*
X88249007Y-82484825D01*
X88157352Y-82485083D01*
X87767953Y-82486086D01*
X87428685Y-82451929D01*
X87403971Y-82449423D01*
X87330765Y-82441785D01*
X87263081Y-82434411D01*
X87202814Y-82427526D01*
X87151861Y-82421359D01*
X87112115Y-82416136D01*
X87085474Y-82412085D01*
X87073832Y-82409431D01*
X87054340Y-82393997D01*
X87037248Y-82364846D01*
X87032114Y-82331248D01*
X87040654Y-82298914D01*
X87054095Y-82283654D01*
X87074434Y-82269637D01*
X87081733Y-82266522D01*
X87091151Y-82264283D01*
X87104265Y-82263054D01*
X87122721Y-82262930D01*
X87148168Y-82264008D01*
G37*
G36*
X83118407Y-80996963D02*
G01*
X83133067Y-81011046D01*
X83142753Y-81029595D01*
X83145114Y-81056116D01*
X83143911Y-81076837D01*
X83136514Y-81096682D01*
X83119003Y-81114767D01*
X83117105Y-81116361D01*
X83107468Y-81123855D01*
X83097434Y-81129241D01*
X83084240Y-81132868D01*
X83065123Y-81135083D01*
X83037320Y-81136234D01*
X82998070Y-81136670D01*
X82944609Y-81136737D01*
X82939560Y-81136736D01*
X82878918Y-81136228D01*
X82832750Y-81134433D01*
X82798742Y-81130785D01*
X82774578Y-81124721D01*
X82757943Y-81115675D01*
X82746521Y-81103084D01*
X82737997Y-81086384D01*
X82732628Y-81068307D01*
X82734826Y-81033884D01*
X82753862Y-80999905D01*
X82756244Y-80997017D01*
X82762603Y-80990713D01*
X82771018Y-80986096D01*
X82783975Y-80982846D01*
X82803959Y-80980642D01*
X82833458Y-80979166D01*
X82874955Y-80978097D01*
X82930938Y-80977114D01*
X83091700Y-80974491D01*
X83118407Y-80996963D01*
G37*
G36*
X76993084Y-81269421D02*
G01*
X77042210Y-81282421D01*
X77082480Y-81309761D01*
X77113189Y-81351030D01*
X77132451Y-81387088D01*
X77134869Y-81938058D01*
X77135080Y-81990704D01*
X77135384Y-82112292D01*
X77135352Y-82217593D01*
X77134980Y-82307095D01*
X77134260Y-82381287D01*
X77133188Y-82440659D01*
X77131757Y-82485700D01*
X77129962Y-82516898D01*
X77127796Y-82534743D01*
X77112313Y-82578973D01*
X77082383Y-82620611D01*
X77041311Y-82650746D01*
X77035283Y-82653545D01*
X77003678Y-82661364D01*
X76960916Y-82662075D01*
X76952689Y-82661585D01*
X76921793Y-82657636D01*
X76898898Y-82649186D01*
X76876648Y-82633765D01*
X76869817Y-82627827D01*
X76845857Y-82601783D01*
X76827535Y-82574742D01*
X76827431Y-82574542D01*
X76824005Y-82567636D01*
X76821059Y-82560119D01*
X76818556Y-82550734D01*
X76816462Y-82538221D01*
X76814738Y-82521321D01*
X76813350Y-82498777D01*
X76812261Y-82469330D01*
X76811435Y-82431720D01*
X76810835Y-82384689D01*
X76810425Y-82326979D01*
X76810170Y-82257330D01*
X76810032Y-82174485D01*
X76809976Y-82077183D01*
X76809965Y-81964168D01*
X76809965Y-81387088D01*
X76833228Y-81347516D01*
X76846034Y-81327979D01*
X76879683Y-81294006D01*
X76920853Y-81274557D01*
X76971828Y-81268327D01*
X76993084Y-81269421D01*
G37*
G36*
X94368651Y-80491764D02*
G01*
X94410918Y-80509168D01*
X94444847Y-80541279D01*
X94445771Y-80542532D01*
X94448712Y-80547135D01*
X94451277Y-80553012D01*
X94453494Y-80561284D01*
X94455395Y-80573073D01*
X94457009Y-80589499D01*
X94458366Y-80611685D01*
X94459497Y-80640752D01*
X94460431Y-80677820D01*
X94461198Y-80724012D01*
X94461830Y-80780448D01*
X94462355Y-80848250D01*
X94462804Y-80928540D01*
X94463206Y-81022439D01*
X94463592Y-81131068D01*
X94463993Y-81255548D01*
X94464126Y-81298129D01*
X94464483Y-81417294D01*
X94464748Y-81520986D01*
X94464897Y-81610334D01*
X94464907Y-81686468D01*
X94464755Y-81750517D01*
X94464418Y-81803612D01*
X94463873Y-81846880D01*
X94463095Y-81881453D01*
X94462063Y-81908459D01*
X94460753Y-81929028D01*
X94459141Y-81944290D01*
X94457206Y-81955374D01*
X94454922Y-81963409D01*
X94452267Y-81969526D01*
X94449219Y-81974854D01*
X94448617Y-81975820D01*
X94428614Y-81999850D01*
X94404613Y-82019376D01*
X94371005Y-82033252D01*
X94328767Y-82036151D01*
X94287818Y-82025492D01*
X94252295Y-82002460D01*
X94226333Y-81968242D01*
X94225481Y-81966475D01*
X94222884Y-81959747D01*
X94220628Y-81950827D01*
X94218690Y-81938578D01*
X94217044Y-81921862D01*
X94215669Y-81899543D01*
X94214538Y-81870484D01*
X94213630Y-81833548D01*
X94212919Y-81787597D01*
X94212383Y-81731495D01*
X94211997Y-81664105D01*
X94211738Y-81584290D01*
X94211581Y-81490913D01*
X94211504Y-81382837D01*
X94211482Y-81258925D01*
X94211469Y-80579141D01*
X94230563Y-80551085D01*
X94233852Y-80546354D01*
X94263845Y-80512916D01*
X94297053Y-80494281D01*
X94336782Y-80488502D01*
X94368651Y-80491764D01*
G37*
G36*
X84023550Y-82262253D02*
G01*
X84054441Y-82263966D01*
X84097825Y-82267104D01*
X84151804Y-82271516D01*
X84214479Y-82277048D01*
X84283952Y-82283547D01*
X84358323Y-82290861D01*
X84373251Y-82292364D01*
X84453532Y-82300400D01*
X84521298Y-82306987D01*
X84579498Y-82312270D01*
X84631080Y-82316392D01*
X84678994Y-82319498D01*
X84726188Y-82321731D01*
X84775611Y-82323235D01*
X84830212Y-82324154D01*
X84892940Y-82324633D01*
X84966742Y-82324814D01*
X85054569Y-82324843D01*
X85072351Y-82324843D01*
X85157248Y-82324797D01*
X85228686Y-82324573D01*
X85289617Y-82324025D01*
X85342996Y-82323007D01*
X85391778Y-82321377D01*
X85438917Y-82318988D01*
X85487368Y-82315696D01*
X85540085Y-82311356D01*
X85600023Y-82305824D01*
X85670136Y-82298955D01*
X85753379Y-82290603D01*
X85791001Y-82286820D01*
X85874165Y-82278562D01*
X85942623Y-82272086D01*
X85997933Y-82267430D01*
X86041652Y-82264631D01*
X86075337Y-82263726D01*
X86100547Y-82264753D01*
X86118838Y-82267748D01*
X86131768Y-82272749D01*
X86140895Y-82279793D01*
X86147775Y-82288917D01*
X86153967Y-82300158D01*
X86162489Y-82320926D01*
X86166265Y-82339273D01*
X86162712Y-82356368D01*
X86149534Y-82381330D01*
X86131033Y-82402889D01*
X86111926Y-82414511D01*
X86111853Y-82414529D01*
X86098589Y-82416601D01*
X86070495Y-82420144D01*
X86029599Y-82424928D01*
X85977930Y-82430727D01*
X85917517Y-82437314D01*
X85850387Y-82444459D01*
X85778569Y-82451935D01*
X85723398Y-82457604D01*
X85658411Y-82464168D01*
X85602335Y-82469555D01*
X85552580Y-82473886D01*
X85506560Y-82477281D01*
X85461685Y-82479863D01*
X85415367Y-82481752D01*
X85365018Y-82483069D01*
X85308049Y-82483936D01*
X85241872Y-82484474D01*
X85163900Y-82484805D01*
X85071542Y-82485049D01*
X84676921Y-82485996D01*
X84341706Y-82452140D01*
X84318540Y-82449802D01*
X84246366Y-82442531D01*
X84180090Y-82435877D01*
X84121543Y-82430022D01*
X84072558Y-82425148D01*
X84034965Y-82421438D01*
X84010596Y-82419074D01*
X84001283Y-82418239D01*
X84000191Y-82417956D01*
X83989548Y-82410413D01*
X83973702Y-82395821D01*
X83957230Y-82372272D01*
X83950089Y-82340056D01*
X83956368Y-82308158D01*
X83975060Y-82280855D01*
X84005156Y-82262423D01*
X84007051Y-82262120D01*
X84023550Y-82262253D01*
G37*
G36*
X83007410Y-81485560D02*
G01*
X83042842Y-81486742D01*
X83065671Y-81488659D01*
X83081603Y-81491860D01*
X83116501Y-81507545D01*
X83137864Y-81532874D01*
X83145114Y-81567273D01*
X83140100Y-81600387D01*
X83122194Y-81628485D01*
X83091693Y-81645368D01*
X83081698Y-81647199D01*
X83054832Y-81649496D01*
X83016855Y-81651132D01*
X82971284Y-81651970D01*
X82921633Y-81651877D01*
X82778774Y-81650169D01*
X82754026Y-81622454D01*
X82744130Y-81610046D01*
X82730497Y-81578956D01*
X82733759Y-81548176D01*
X82753917Y-81516779D01*
X82778557Y-81489201D01*
X82902543Y-81485995D01*
X82916163Y-81485683D01*
X82963731Y-81485183D01*
X83007410Y-81485560D01*
G37*
G36*
X78265394Y-81315087D02*
G01*
X78274840Y-81319766D01*
X78314777Y-81340271D01*
X78349890Y-81359396D01*
X78376672Y-81375179D01*
X78391618Y-81385662D01*
X78394268Y-81388473D01*
X78407089Y-81406611D01*
X78424604Y-81435714D01*
X78444852Y-81472414D01*
X78465875Y-81513341D01*
X78478457Y-81538797D01*
X78495933Y-81575044D01*
X78507655Y-81602136D01*
X78514774Y-81623967D01*
X78518436Y-81644433D01*
X78519792Y-81667427D01*
X78519989Y-81696844D01*
X78519948Y-81715039D01*
X78519217Y-81740133D01*
X78516668Y-81761140D01*
X78511162Y-81781919D01*
X78501560Y-81806334D01*
X78486723Y-81838245D01*
X78465512Y-81881515D01*
X78462360Y-81887899D01*
X78439695Y-81932747D01*
X78420366Y-81966668D01*
X78401277Y-81992728D01*
X78379331Y-82013993D01*
X78351433Y-82033529D01*
X78314486Y-82054402D01*
X78265394Y-82079678D01*
X78176287Y-82124868D01*
X78057476Y-82127529D01*
X78048458Y-82127748D01*
X77986863Y-82130608D01*
X77939447Y-82136084D01*
X77903804Y-82144993D01*
X77877532Y-82158158D01*
X77858226Y-82176397D01*
X77843484Y-82200531D01*
X77826416Y-82235735D01*
X77843368Y-82270664D01*
X77845222Y-82274389D01*
X77860651Y-82298500D01*
X77880486Y-82316339D01*
X77907215Y-82328748D01*
X77943326Y-82336569D01*
X77991307Y-82340645D01*
X78053648Y-82341816D01*
X78172420Y-82341816D01*
X78238603Y-82308540D01*
X78260135Y-82297998D01*
X78303350Y-82279614D01*
X78338428Y-82269987D01*
X78369310Y-82268264D01*
X78399938Y-82273590D01*
X78419084Y-82280066D01*
X78460435Y-82305157D01*
X78491492Y-82340431D01*
X78511111Y-82382750D01*
X78518150Y-82428973D01*
X78511463Y-82475962D01*
X78489909Y-82520576D01*
X78489620Y-82520992D01*
X78476954Y-82536531D01*
X78460200Y-82551238D01*
X78436494Y-82567025D01*
X78402972Y-82585806D01*
X78356770Y-82609492D01*
X78247267Y-82664302D01*
X77852069Y-82664302D01*
X77759584Y-82618891D01*
X77724642Y-82601078D01*
X77687871Y-82580928D01*
X77657881Y-82563010D01*
X77638977Y-82549790D01*
X77630081Y-82540772D01*
X77609658Y-82513159D01*
X77585281Y-82473258D01*
X77558403Y-82423350D01*
X77505951Y-82320600D01*
X77505951Y-82150870D01*
X77558403Y-82048121D01*
X77573180Y-82019990D01*
X77598884Y-81975217D01*
X77621301Y-81941687D01*
X77638977Y-81921680D01*
X77655180Y-81910190D01*
X77684161Y-81892668D01*
X77720396Y-81872643D01*
X77759584Y-81852579D01*
X77852069Y-81807168D01*
X77974075Y-81807168D01*
X78020557Y-81806960D01*
X78053864Y-81806027D01*
X78077545Y-81803865D01*
X78095149Y-81799967D01*
X78110224Y-81793830D01*
X78126319Y-81784946D01*
X78157372Y-81761105D01*
X78180898Y-81730068D01*
X78197558Y-81697412D01*
X78179419Y-81660077D01*
X78168729Y-81641410D01*
X78144631Y-81615785D01*
X78111857Y-81598811D01*
X78067937Y-81589414D01*
X78010404Y-81586520D01*
X78002346Y-81586528D01*
X77968765Y-81587157D01*
X77943344Y-81589836D01*
X77920284Y-81596019D01*
X77893784Y-81607158D01*
X77858044Y-81624709D01*
X77848597Y-81629361D01*
X77790227Y-81652949D01*
X77740125Y-81662828D01*
X77696625Y-81658889D01*
X77658061Y-81641020D01*
X77622769Y-81609112D01*
X77594365Y-81565651D01*
X77582072Y-81518367D01*
X77586436Y-81468526D01*
X77593884Y-81443939D01*
X77606461Y-81418168D01*
X77625037Y-81395409D01*
X77652059Y-81373347D01*
X77689972Y-81349669D01*
X77741221Y-81322060D01*
X77845314Y-81268278D01*
X78002314Y-81265594D01*
X78159314Y-81262911D01*
X78265394Y-81315087D01*
G37*
G36*
X81786418Y-82774675D02*
G01*
X81813979Y-82780745D01*
X81838850Y-82799432D01*
X81863657Y-82824239D01*
X81863657Y-83140850D01*
X81838850Y-83165656D01*
X81836123Y-83168323D01*
X81811342Y-83185515D01*
X81783036Y-83190463D01*
X81779654Y-83190414D01*
X81752092Y-83184343D01*
X81727221Y-83165656D01*
X81702414Y-83140850D01*
X81702414Y-82824239D01*
X81727221Y-82799432D01*
X81729948Y-82796766D01*
X81754729Y-82779573D01*
X81783036Y-82774626D01*
X81786418Y-82774675D01*
G37*
G36*
X82327207Y-82780979D02*
G01*
X82354123Y-82798010D01*
X82371925Y-82826553D01*
X82374493Y-82838057D01*
X82377557Y-82866711D01*
X82379684Y-82905622D01*
X82380866Y-82950904D01*
X82381099Y-82998671D01*
X82380376Y-83045037D01*
X82378690Y-83086116D01*
X82376037Y-83118022D01*
X82372409Y-83136870D01*
X82361955Y-83156156D01*
X82344828Y-83175423D01*
X82321417Y-83186988D01*
X82288742Y-83189039D01*
X82256702Y-83178825D01*
X82230967Y-83157252D01*
X82228007Y-83150188D01*
X82224650Y-83129394D01*
X82222301Y-83095051D01*
X82220894Y-83046023D01*
X82220359Y-82981177D01*
X82220089Y-82818567D01*
X82246199Y-82796596D01*
X82262893Y-82785470D01*
X82295392Y-82776464D01*
X82327207Y-82780979D01*
G37*
G36*
X76998527Y-80731144D02*
G01*
X77032182Y-80738324D01*
X77046354Y-80746601D01*
X77070264Y-80765264D01*
X77098899Y-80790495D01*
X77128789Y-80818971D01*
X77156461Y-80847368D01*
X77178444Y-80872362D01*
X77191266Y-80890630D01*
X77197553Y-80904477D01*
X77208467Y-80954402D01*
X77203202Y-81007177D01*
X77197309Y-81023352D01*
X77177259Y-81057284D01*
X77148101Y-81094018D01*
X77113344Y-81129745D01*
X77076503Y-81160658D01*
X77041088Y-81182947D01*
X77024490Y-81190661D01*
X76985478Y-81202322D01*
X76949160Y-81201303D01*
X76909550Y-81187826D01*
X76887092Y-81175189D01*
X76850993Y-81148165D01*
X76814079Y-81114449D01*
X76781153Y-81078539D01*
X76757018Y-81044934D01*
X76745968Y-81021088D01*
X76736159Y-80977160D01*
X76736958Y-80932852D01*
X76748725Y-80894674D01*
X76758978Y-80879377D01*
X76780214Y-80854138D01*
X76807627Y-80825150D01*
X76837775Y-80795744D01*
X76867220Y-80769251D01*
X76892519Y-80749001D01*
X76910234Y-80738324D01*
X76921303Y-80734970D01*
X76958430Y-80730025D01*
X76998527Y-80731144D01*
G37*
G36*
X82971114Y-82520039D02*
G01*
X83019910Y-82520210D01*
X83055496Y-82520830D01*
X83080414Y-82522190D01*
X83097209Y-82524583D01*
X83108423Y-82528298D01*
X83116600Y-82533628D01*
X83124283Y-82540862D01*
X83138305Y-82560017D01*
X83145114Y-82592339D01*
X83141518Y-82624094D01*
X83127092Y-82650817D01*
X83099892Y-82669186D01*
X83084747Y-82673859D01*
X83062118Y-82677067D01*
X83029683Y-82678920D01*
X82985061Y-82679554D01*
X82925872Y-82679103D01*
X82778765Y-82677031D01*
X82753099Y-82648285D01*
X82737945Y-82629120D01*
X82731135Y-82611037D01*
X82732312Y-82588880D01*
X82740725Y-82563854D01*
X82759166Y-82539126D01*
X82761153Y-82537420D01*
X82769532Y-82531199D01*
X82779460Y-82526670D01*
X82793506Y-82523565D01*
X82814243Y-82521617D01*
X82844239Y-82520558D01*
X82886068Y-82520119D01*
X82942298Y-82520032D01*
X82971114Y-82520039D01*
G37*
G36*
X81290976Y-80207708D02*
G01*
X81322373Y-80227866D01*
X81349950Y-80252506D01*
X81353156Y-80376492D01*
X81353409Y-80386695D01*
X81354257Y-80450160D01*
X81353231Y-80499333D01*
X81350035Y-80536505D01*
X81344373Y-80563966D01*
X81335951Y-80584005D01*
X81324472Y-80598912D01*
X81323897Y-80599482D01*
X81300664Y-80614603D01*
X81269604Y-80619063D01*
X81255014Y-80618067D01*
X81223013Y-80605858D01*
X81200883Y-80579926D01*
X81188846Y-80540487D01*
X81188211Y-80535310D01*
X81186529Y-80508595D01*
X81185558Y-80470516D01*
X81185372Y-80425374D01*
X81186045Y-80377472D01*
X81188983Y-80252731D01*
X81216698Y-80227978D01*
X81229110Y-80218079D01*
X81260198Y-80204445D01*
X81290976Y-80207708D01*
G37*
G36*
X79862317Y-82405754D02*
G01*
X79860869Y-82408735D01*
X79836507Y-82457871D01*
X79816082Y-82494914D01*
X79796570Y-82523013D01*
X79774946Y-82545316D01*
X79748187Y-82564974D01*
X79713267Y-82585134D01*
X79667163Y-82608944D01*
X79559581Y-82663417D01*
X79362140Y-82663859D01*
X79164699Y-82664302D01*
X79060870Y-82612468D01*
X79052267Y-82608152D01*
X79013382Y-82588132D01*
X78979683Y-82569984D01*
X78954532Y-82555557D01*
X78941287Y-82546698D01*
X78930729Y-82535847D01*
X78908608Y-82498819D01*
X78896203Y-82454362D01*
X78894593Y-82407873D01*
X78904859Y-82364749D01*
X78912990Y-82349515D01*
X78938878Y-82318545D01*
X78972542Y-82291608D01*
X79008103Y-82273877D01*
X79009792Y-82273332D01*
X79042615Y-82267548D01*
X79078800Y-82270977D01*
X79121490Y-82284265D01*
X79173827Y-82308061D01*
X79240962Y-82341816D01*
X79360299Y-82341816D01*
X79380750Y-82341778D01*
X79424734Y-82341184D01*
X79456509Y-82339568D01*
X79479530Y-82336545D01*
X79497252Y-82331727D01*
X79513129Y-82324729D01*
X79520892Y-82320484D01*
X79548720Y-82297835D01*
X79567261Y-82266763D01*
X79577593Y-82224788D01*
X79580797Y-82169433D01*
X79580797Y-82098212D01*
X79252023Y-82032472D01*
X79233611Y-82028780D01*
X79161365Y-82014082D01*
X79094189Y-82000092D01*
X79034014Y-81987234D01*
X78982772Y-81975931D01*
X78942394Y-81966609D01*
X78914812Y-81959690D01*
X78901957Y-81955600D01*
X78899302Y-81954157D01*
X78869853Y-81931929D01*
X78843311Y-81902346D01*
X78826041Y-81872386D01*
X78825287Y-81869983D01*
X78822048Y-81849665D01*
X78819420Y-81817178D01*
X78817658Y-81776471D01*
X78817015Y-81731493D01*
X78817015Y-81665651D01*
X79150020Y-81665651D01*
X79151650Y-81677877D01*
X79157236Y-81679726D01*
X79177533Y-81684674D01*
X79210422Y-81692022D01*
X79253598Y-81701269D01*
X79304754Y-81711913D01*
X79361584Y-81723455D01*
X79405064Y-81732153D01*
X79458089Y-81742671D01*
X79503835Y-81751642D01*
X79539963Y-81758614D01*
X79564134Y-81763130D01*
X79574009Y-81764736D01*
X79575613Y-81764276D01*
X79579981Y-81753653D01*
X79580840Y-81732722D01*
X79578563Y-81706484D01*
X79573521Y-81679937D01*
X79566085Y-81658081D01*
X79545356Y-81629818D01*
X79511205Y-81606875D01*
X79501708Y-81602229D01*
X79484136Y-81595184D01*
X79465061Y-81590612D01*
X79440615Y-81587992D01*
X79406933Y-81586801D01*
X79360149Y-81586520D01*
X79333987Y-81586584D01*
X79294526Y-81587267D01*
X79266150Y-81589128D01*
X79244985Y-81592691D01*
X79227158Y-81598482D01*
X79208797Y-81607025D01*
X79200667Y-81611537D01*
X79177551Y-81628734D01*
X79159661Y-81648021D01*
X79150020Y-81665651D01*
X78817015Y-81665651D01*
X78817015Y-81614491D01*
X78864349Y-81517763D01*
X78864372Y-81517716D01*
X78884536Y-81478251D01*
X78904452Y-81442280D01*
X78921826Y-81413773D01*
X78934363Y-81396698D01*
X78937607Y-81393619D01*
X78957300Y-81379293D01*
X78987806Y-81360482D01*
X79025610Y-81339278D01*
X79067192Y-81317768D01*
X79177343Y-81263175D01*
X79369534Y-81265726D01*
X79561724Y-81268278D01*
X79658677Y-81316540D01*
X79659176Y-81316789D01*
X79698566Y-81337359D01*
X79734373Y-81357760D01*
X79762668Y-81375647D01*
X79779522Y-81388675D01*
X79780831Y-81390049D01*
X79794496Y-81408318D01*
X79813000Y-81437627D01*
X79834079Y-81474231D01*
X79855471Y-81514385D01*
X79907526Y-81616223D01*
X79907526Y-82312693D01*
X79862317Y-82405754D01*
G37*
G36*
X82955368Y-82002358D02*
G01*
X83006076Y-82002466D01*
X83043070Y-82003004D01*
X83069111Y-82004321D01*
X83086963Y-82006763D01*
X83099387Y-82010680D01*
X83109146Y-82016419D01*
X83119003Y-82024328D01*
X83133033Y-82037823D01*
X83142728Y-82056373D01*
X83145114Y-82082979D01*
X83143911Y-82103700D01*
X83136514Y-82123544D01*
X83119003Y-82141630D01*
X83114814Y-82145127D01*
X83105603Y-82151947D01*
X83095391Y-82156841D01*
X83081517Y-82160127D01*
X83061319Y-82162126D01*
X83032135Y-82163158D01*
X82991302Y-82163543D01*
X82936158Y-82163600D01*
X82916586Y-82163597D01*
X82866335Y-82163455D01*
X82829636Y-82162883D01*
X82803904Y-82161582D01*
X82786553Y-82159253D01*
X82774999Y-82155599D01*
X82766656Y-82150319D01*
X82758939Y-82143115D01*
X82742110Y-82121473D01*
X82731742Y-82087878D01*
X82737997Y-82052711D01*
X82738571Y-82051343D01*
X82747228Y-82034961D01*
X82758951Y-82022647D01*
X82776057Y-82013838D01*
X82800860Y-82007969D01*
X82835676Y-82004475D01*
X82882821Y-82002793D01*
X82944609Y-82002357D01*
X82955368Y-82002358D01*
G37*
G36*
X81811560Y-80211164D02*
G01*
X81843172Y-80232888D01*
X81845730Y-80235472D01*
X81852279Y-80243109D01*
X81857001Y-80252207D01*
X81860194Y-80265353D01*
X81862157Y-80285130D01*
X81863190Y-80314125D01*
X81863590Y-80354922D01*
X81863657Y-80410108D01*
X81863653Y-80435064D01*
X81863497Y-80483903D01*
X81862881Y-80519544D01*
X81861484Y-80544649D01*
X81858986Y-80561880D01*
X81855067Y-80573900D01*
X81849407Y-80583370D01*
X81841687Y-80592952D01*
X81828192Y-80606982D01*
X81809642Y-80616677D01*
X81783036Y-80619063D01*
X81762314Y-80617860D01*
X81742470Y-80610463D01*
X81724385Y-80592952D01*
X81722791Y-80591054D01*
X81715297Y-80581417D01*
X81709910Y-80571383D01*
X81706284Y-80558189D01*
X81704069Y-80539072D01*
X81702917Y-80511269D01*
X81702482Y-80472019D01*
X81702414Y-80418558D01*
X81702416Y-80413509D01*
X81702923Y-80352867D01*
X81704719Y-80306699D01*
X81708366Y-80272691D01*
X81714431Y-80248527D01*
X81723477Y-80231892D01*
X81736068Y-80220470D01*
X81752768Y-80211946D01*
X81777326Y-80205819D01*
X81811560Y-80211164D01*
G37*
G36*
X80407303Y-80721136D02*
G01*
X80457111Y-80722230D01*
X80497560Y-80724097D01*
X80526115Y-80726610D01*
X80540238Y-80729639D01*
X80546664Y-80733845D01*
X80565489Y-80756302D01*
X80577107Y-80785526D01*
X80578055Y-80813805D01*
X80569394Y-80834358D01*
X80548512Y-80859653D01*
X80522795Y-80876419D01*
X80513542Y-80877703D01*
X80489357Y-80878894D01*
X80453742Y-80879650D01*
X80409716Y-80879912D01*
X80360298Y-80879621D01*
X80328265Y-80879214D01*
X80282097Y-80878308D01*
X80248809Y-80876935D01*
X80225762Y-80874803D01*
X80210322Y-80871619D01*
X80199852Y-80867091D01*
X80191716Y-80860927D01*
X80174627Y-80841704D01*
X80162500Y-80810146D01*
X80166758Y-80774866D01*
X80170440Y-80764414D01*
X80177919Y-80749145D01*
X80188462Y-80737928D01*
X80204385Y-80730143D01*
X80228007Y-80725168D01*
X80261645Y-80722383D01*
X80307617Y-80721168D01*
X80368242Y-80720901D01*
X80407303Y-80721136D01*
G37*
G36*
X80407697Y-82520257D02*
G01*
X80457260Y-82521345D01*
X80497590Y-82523214D01*
X80526109Y-82525733D01*
X80540238Y-82528770D01*
X80546664Y-82532977D01*
X80565489Y-82555434D01*
X80577107Y-82584658D01*
X80578055Y-82612937D01*
X80569394Y-82633489D01*
X80548512Y-82658784D01*
X80522795Y-82675551D01*
X80513485Y-82676839D01*
X80489257Y-82678027D01*
X80453604Y-82678782D01*
X80409544Y-82679043D01*
X80360091Y-82678753D01*
X80358821Y-82678738D01*
X80305198Y-82678026D01*
X80265814Y-82677080D01*
X80237989Y-82675558D01*
X80219042Y-82673119D01*
X80206295Y-82669419D01*
X80197067Y-82664117D01*
X80188681Y-82656871D01*
X80188678Y-82656869D01*
X80172006Y-82635648D01*
X80162022Y-82612937D01*
X80160987Y-82605146D01*
X80165444Y-82575786D01*
X80179550Y-82547757D01*
X80199839Y-82528770D01*
X80207757Y-82526655D01*
X80231952Y-82523956D01*
X80268782Y-82521864D01*
X80315671Y-82520512D01*
X80370039Y-82520032D01*
X80407697Y-82520257D01*
G37*
G36*
X97056557Y-80492218D02*
G01*
X97065189Y-80495203D01*
X97076595Y-80501157D01*
X97090711Y-80510817D01*
X97108686Y-80525230D01*
X97131673Y-80545444D01*
X97160823Y-80572505D01*
X97197286Y-80607462D01*
X97242215Y-80651362D01*
X97296759Y-80705251D01*
X97362070Y-80770178D01*
X97631515Y-81038545D01*
X97631515Y-80815802D01*
X97631516Y-80812573D01*
X97631694Y-80739271D01*
X97632450Y-80680807D01*
X97634142Y-80635127D01*
X97637126Y-80600176D01*
X97641760Y-80573901D01*
X97648401Y-80554249D01*
X97657406Y-80539167D01*
X97669133Y-80526600D01*
X97683940Y-80514495D01*
X97684072Y-80514394D01*
X97723663Y-80493922D01*
X97766173Y-80488100D01*
X97807798Y-80496192D01*
X97844737Y-80517462D01*
X97873186Y-80551171D01*
X97875544Y-80555433D01*
X97878433Y-80561837D01*
X97880931Y-80569916D01*
X97883072Y-80580846D01*
X97884891Y-80595805D01*
X97886422Y-80615969D01*
X97887700Y-80642515D01*
X97888759Y-80676620D01*
X97889633Y-80719460D01*
X97890357Y-80772212D01*
X97890966Y-80836054D01*
X97891493Y-80912161D01*
X97891974Y-81001711D01*
X97892442Y-81105880D01*
X97892933Y-81225845D01*
X97892954Y-81231177D01*
X97893291Y-81335342D01*
X97893476Y-81435380D01*
X97893513Y-81529864D01*
X97893409Y-81617366D01*
X97893170Y-81696459D01*
X97892801Y-81765716D01*
X97892308Y-81823710D01*
X97891696Y-81869013D01*
X97890973Y-81900198D01*
X97890142Y-81915838D01*
X97885567Y-81937977D01*
X97868742Y-81976397D01*
X97843875Y-82008176D01*
X97814438Y-82028165D01*
X97806082Y-82031041D01*
X97767919Y-82035940D01*
X97727345Y-82031357D01*
X97693042Y-82018019D01*
X97678226Y-82008217D01*
X97665139Y-81996979D01*
X97654770Y-81983295D01*
X97646803Y-81965349D01*
X97640922Y-81941326D01*
X97636808Y-81909410D01*
X97634147Y-81867785D01*
X97632619Y-81814636D01*
X97631910Y-81748146D01*
X97631702Y-81666499D01*
X97631515Y-81402777D01*
X97591621Y-81365297D01*
X97352484Y-81684102D01*
X97339196Y-81701796D01*
X97282086Y-81777313D01*
X97230820Y-81844221D01*
X97186079Y-81901661D01*
X97148546Y-81948775D01*
X97118903Y-81984704D01*
X97097831Y-82008590D01*
X97086013Y-82019573D01*
X97058321Y-82032246D01*
X97017335Y-82037812D01*
X96978051Y-82029802D01*
X96943356Y-82010051D01*
X96916138Y-81980392D01*
X96899288Y-81942661D01*
X96895692Y-81898692D01*
X96896930Y-81889215D01*
X96899712Y-81878516D01*
X96904859Y-81865942D01*
X96913244Y-81850195D01*
X96925742Y-81829980D01*
X96943227Y-81804000D01*
X96966573Y-81770959D01*
X96996654Y-81729561D01*
X97034344Y-81678509D01*
X97080518Y-81616508D01*
X97136050Y-81542261D01*
X97178325Y-81485743D01*
X97224758Y-81423532D01*
X97267542Y-81366068D01*
X97305585Y-81314824D01*
X97337798Y-81271270D01*
X97363091Y-81236876D01*
X97380375Y-81213115D01*
X97388558Y-81201457D01*
X97404149Y-81177069D01*
X97153774Y-80925647D01*
X97124836Y-80896550D01*
X97065230Y-80836290D01*
X97016439Y-80786377D01*
X96977510Y-80745770D01*
X96947492Y-80713432D01*
X96925431Y-80688322D01*
X96910376Y-80669403D01*
X96901375Y-80655636D01*
X96897476Y-80645980D01*
X96896056Y-80638159D01*
X96896572Y-80593176D01*
X96910832Y-80553316D01*
X96936397Y-80520934D01*
X96970831Y-80498387D01*
X97011697Y-80488030D01*
X97056557Y-80492218D01*
G37*
G36*
X81305730Y-82783716D02*
G01*
X81309399Y-82785450D01*
X81324545Y-82795015D01*
X81335548Y-82808307D01*
X81343155Y-82827972D01*
X81348112Y-82856661D01*
X81351165Y-82897021D01*
X81353060Y-82951700D01*
X81353616Y-82976463D01*
X81354120Y-83034185D01*
X81352847Y-83078339D01*
X81349458Y-83111386D01*
X81343613Y-83135787D01*
X81334974Y-83154004D01*
X81323202Y-83168497D01*
X81310493Y-83179064D01*
X81280358Y-83191134D01*
X81249834Y-83189061D01*
X81222213Y-83174231D01*
X81200785Y-83148032D01*
X81188841Y-83111852D01*
X81188007Y-83105604D01*
X81185546Y-83072840D01*
X81184567Y-83031679D01*
X81184918Y-82985745D01*
X81186450Y-82938661D01*
X81189011Y-82894051D01*
X81192450Y-82855538D01*
X81196616Y-82826746D01*
X81201359Y-82811297D01*
X81208032Y-82802551D01*
X81236038Y-82782289D01*
X81270113Y-82775613D01*
X81305730Y-82783716D01*
G37*
G36*
X80391538Y-82261199D02*
G01*
X80442011Y-82261354D01*
X80478988Y-82261941D01*
X80505038Y-82263245D01*
X80522732Y-82265553D01*
X80534639Y-82269150D01*
X80543330Y-82274322D01*
X80551374Y-82281355D01*
X80551389Y-82281369D01*
X80568070Y-82302587D01*
X80578055Y-82325289D01*
X80579007Y-82332013D01*
X80575012Y-82361125D01*
X80561488Y-82389463D01*
X80541890Y-82409028D01*
X80528651Y-82412078D01*
X80501568Y-82414556D01*
X80464207Y-82416352D01*
X80419961Y-82417461D01*
X80372220Y-82417879D01*
X80324378Y-82417602D01*
X80279826Y-82416625D01*
X80241958Y-82414945D01*
X80214165Y-82412557D01*
X80199839Y-82409456D01*
X80193413Y-82405249D01*
X80174589Y-82382792D01*
X80162970Y-82353568D01*
X80162022Y-82325289D01*
X80162026Y-82325272D01*
X80172020Y-82302566D01*
X80188704Y-82281355D01*
X80191628Y-82278644D01*
X80199606Y-82272301D01*
X80209138Y-82267716D01*
X80222793Y-82264607D01*
X80243140Y-82262685D01*
X80272750Y-82261667D01*
X80314193Y-82261265D01*
X80370039Y-82261195D01*
X80391538Y-82261199D01*
G37*
G36*
X91488065Y-80526290D02*
G01*
X91549682Y-80559248D01*
X91599678Y-80593933D01*
X91640606Y-80633461D01*
X91676352Y-80681600D01*
X91710804Y-80742117D01*
X91754636Y-80826981D01*
X91754441Y-80924576D01*
X91754245Y-81022170D01*
X91713404Y-81101945D01*
X91712456Y-81103792D01*
X91676438Y-81165645D01*
X91636127Y-81217928D01*
X91589415Y-81262079D01*
X91534191Y-81299535D01*
X91468348Y-81331733D01*
X91389776Y-81360110D01*
X91296367Y-81386102D01*
X91248909Y-81398659D01*
X91194900Y-81414933D01*
X91150056Y-81430753D01*
X91118151Y-81444875D01*
X91101432Y-81454140D01*
X91076470Y-81471535D01*
X91058038Y-81492370D01*
X91039890Y-81522872D01*
X91022410Y-81560407D01*
X91013849Y-81597015D01*
X91017281Y-81631691D01*
X91032446Y-81669545D01*
X91033131Y-81670884D01*
X91057581Y-81710041D01*
X91087422Y-81739118D01*
X91128421Y-81763778D01*
X91139900Y-81769111D01*
X91156265Y-81774644D01*
X91176092Y-81778297D01*
X91202760Y-81780442D01*
X91239643Y-81781455D01*
X91290118Y-81781709D01*
X91311381Y-81781692D01*
X91355510Y-81781294D01*
X91388907Y-81779882D01*
X91416049Y-81776824D01*
X91441416Y-81771491D01*
X91469487Y-81763252D01*
X91504739Y-81751474D01*
X91526035Y-81744498D01*
X91585128Y-81729165D01*
X91632928Y-81724028D01*
X91671117Y-81729025D01*
X91701375Y-81744091D01*
X91729717Y-81772760D01*
X91748588Y-81811606D01*
X91753065Y-81853962D01*
X91742863Y-81896485D01*
X91717699Y-81935831D01*
X91714479Y-81939231D01*
X91697823Y-81952427D01*
X91673206Y-81965788D01*
X91637807Y-81980687D01*
X91588804Y-81998494D01*
X91483069Y-82035235D01*
X91289848Y-82035769D01*
X91096626Y-82036303D01*
X91014037Y-81994583D01*
X90986616Y-81980075D01*
X90924955Y-81940375D01*
X90875141Y-81895275D01*
X90833466Y-81841016D01*
X90796221Y-81773839D01*
X90784322Y-81749118D01*
X90771255Y-81719960D01*
X90763313Y-81696373D01*
X90759220Y-81672721D01*
X90757699Y-81643369D01*
X90757476Y-81602680D01*
X90757476Y-81511526D01*
X90803815Y-81418959D01*
X90816054Y-81395092D01*
X90842080Y-81349391D01*
X90866561Y-81314679D01*
X90891942Y-81287305D01*
X90893141Y-81286189D01*
X90950115Y-81242980D01*
X91022897Y-81203979D01*
X91110789Y-81169504D01*
X91213091Y-81139878D01*
X91228140Y-81136094D01*
X91304016Y-81114977D01*
X91363951Y-81094313D01*
X91408804Y-81073773D01*
X91439432Y-81053027D01*
X91459368Y-81028345D01*
X91477509Y-80993914D01*
X91490702Y-80956913D01*
X91495799Y-80924520D01*
X91494833Y-80911306D01*
X91485253Y-80873668D01*
X91467937Y-80834924D01*
X91446013Y-80802726D01*
X91439065Y-80796282D01*
X91418004Y-80781425D01*
X91392122Y-80766659D01*
X91386800Y-80764001D01*
X91370937Y-80757018D01*
X91354525Y-80752162D01*
X91334279Y-80749050D01*
X91306915Y-80747301D01*
X91269149Y-80746531D01*
X91217695Y-80746360D01*
X91181894Y-80746409D01*
X91139676Y-80746926D01*
X91107464Y-80748469D01*
X91081079Y-80751597D01*
X91056342Y-80756867D01*
X91029074Y-80764836D01*
X90995097Y-80776063D01*
X90968172Y-80784951D01*
X90926760Y-80797180D01*
X90895438Y-80803394D01*
X90870520Y-80803866D01*
X90848318Y-80798869D01*
X90825144Y-80788678D01*
X90825129Y-80788670D01*
X90791691Y-80762998D01*
X90769707Y-80728405D01*
X90759564Y-80688761D01*
X90761651Y-80647935D01*
X90776354Y-80609797D01*
X90804062Y-80578217D01*
X90807707Y-80575742D01*
X90828488Y-80565265D01*
X90860670Y-80551771D01*
X90900590Y-80536735D01*
X90944590Y-80521630D01*
X91061934Y-80483279D01*
X91399709Y-80483279D01*
X91488065Y-80526290D01*
G37*
G36*
X76384409Y-82346059D02*
G01*
X76362699Y-82387334D01*
X76341581Y-82423547D01*
X76321101Y-82452835D01*
X76298006Y-82479793D01*
X76269042Y-82509019D01*
X76261095Y-82516627D01*
X76228170Y-82545872D01*
X76195616Y-82569925D01*
X76158002Y-82592477D01*
X76109897Y-82617222D01*
X76013969Y-82664302D01*
X75841252Y-82664302D01*
X75805592Y-82664278D01*
X75752368Y-82664471D01*
X75713597Y-82665747D01*
X75687647Y-82669018D01*
X75672891Y-82675199D01*
X75667697Y-82685203D01*
X75670435Y-82699943D01*
X75679477Y-82720333D01*
X75693193Y-82747287D01*
X75701775Y-82763367D01*
X75729834Y-82804190D01*
X75764284Y-82835608D01*
X75810401Y-82862822D01*
X75814272Y-82864736D01*
X75838554Y-82875175D01*
X75862304Y-82881315D01*
X75891347Y-82884219D01*
X75931503Y-82884950D01*
X75940059Y-82884941D01*
X75973693Y-82884308D01*
X75999131Y-82881624D01*
X76022183Y-82875439D01*
X76048660Y-82864302D01*
X76084372Y-82846761D01*
X76093820Y-82842109D01*
X76152189Y-82818522D01*
X76202291Y-82808642D01*
X76245791Y-82812581D01*
X76284355Y-82830450D01*
X76319647Y-82862358D01*
X76329308Y-82874326D01*
X76353248Y-82919570D01*
X76361534Y-82967723D01*
X76354014Y-83016030D01*
X76330538Y-83061738D01*
X76329079Y-83063712D01*
X76312838Y-83081384D01*
X76289686Y-83099279D01*
X76256670Y-83119421D01*
X76210842Y-83143833D01*
X76209381Y-83144580D01*
X76170931Y-83163899D01*
X76136286Y-83180716D01*
X76109194Y-83193247D01*
X76093402Y-83199709D01*
X76081280Y-83201569D01*
X76054011Y-83203318D01*
X76015717Y-83204510D01*
X75969605Y-83205048D01*
X75918886Y-83204840D01*
X75766130Y-83203037D01*
X75664292Y-83150778D01*
X75616762Y-83125086D01*
X75558814Y-83087958D01*
X75511326Y-83048119D01*
X75470890Y-83002078D01*
X75434101Y-82946343D01*
X75397551Y-82877425D01*
X75346049Y-82772307D01*
X75346236Y-82083941D01*
X75346265Y-81998846D01*
X75346286Y-81967802D01*
X75668535Y-81967802D01*
X75668535Y-81968663D01*
X75668589Y-82057342D01*
X75668786Y-82130542D01*
X75669179Y-82189746D01*
X75669822Y-82236433D01*
X75670770Y-82272085D01*
X75672076Y-82298184D01*
X75673794Y-82316210D01*
X75675978Y-82327645D01*
X75678681Y-82333969D01*
X75681959Y-82336665D01*
X75684440Y-82337281D01*
X75702155Y-82339019D01*
X75732246Y-82340371D01*
X75771229Y-82341213D01*
X75815621Y-82341421D01*
X75862618Y-82341076D01*
X75898086Y-82340050D01*
X75923744Y-82337854D01*
X75943235Y-82333990D01*
X75960203Y-82327964D01*
X75978291Y-82319279D01*
X75990888Y-82312584D01*
X76033664Y-82284006D01*
X76066139Y-82249641D01*
X76093660Y-82204153D01*
X76118318Y-82155598D01*
X76118318Y-81781225D01*
X76091937Y-81728427D01*
X76085512Y-81715797D01*
X76064156Y-81678845D01*
X76042475Y-81652153D01*
X76016098Y-81631117D01*
X75980655Y-81611129D01*
X75979512Y-81610550D01*
X75959273Y-81600783D01*
X75941447Y-81594096D01*
X75922156Y-81589909D01*
X75897525Y-81587638D01*
X75863676Y-81586703D01*
X75816732Y-81586520D01*
X75807019Y-81586551D01*
X75763971Y-81587433D01*
X75726815Y-81589350D01*
X75699244Y-81592056D01*
X75684950Y-81595305D01*
X75681238Y-81597768D01*
X75677913Y-81602052D01*
X75675225Y-81609522D01*
X75673106Y-81621710D01*
X75671488Y-81640148D01*
X75670305Y-81666367D01*
X75669488Y-81701899D01*
X75668970Y-81748277D01*
X75668683Y-81807032D01*
X75668561Y-81879697D01*
X75668535Y-81967802D01*
X75346286Y-81967802D01*
X75346343Y-81885024D01*
X75346482Y-81786272D01*
X75346707Y-81701447D01*
X75347043Y-81629409D01*
X75347515Y-81569016D01*
X75348149Y-81519129D01*
X75348968Y-81478605D01*
X75349999Y-81446304D01*
X75351265Y-81421085D01*
X75352791Y-81401806D01*
X75354603Y-81387327D01*
X75356726Y-81376507D01*
X75359183Y-81368204D01*
X75362001Y-81361278D01*
X75367980Y-81349421D01*
X75397904Y-81310623D01*
X75436755Y-81282895D01*
X75481068Y-81268184D01*
X75527376Y-81268436D01*
X75530921Y-81269039D01*
X75564342Y-81272222D01*
X75596400Y-81272009D01*
X75602169Y-81271654D01*
X75626707Y-81270835D01*
X75663986Y-81270091D01*
X75711021Y-81269466D01*
X75764829Y-81269003D01*
X75822425Y-81268744D01*
X76014504Y-81268278D01*
X76119452Y-81320552D01*
X76162086Y-81342823D01*
X76222381Y-81379990D01*
X76271627Y-81419949D01*
X76313276Y-81466186D01*
X76350782Y-81522193D01*
X76387599Y-81591457D01*
X76436561Y-81691735D01*
X76436561Y-82244222D01*
X76384409Y-82346059D01*
G37*
G36*
X82585968Y-80212110D02*
G01*
X82587758Y-80212864D01*
X82603860Y-80221495D01*
X82615966Y-80233268D01*
X82624628Y-80250485D01*
X82630401Y-80275451D01*
X82633840Y-80310467D01*
X82635497Y-80357836D01*
X82635926Y-80419862D01*
X82635926Y-80569450D01*
X82611119Y-80594256D01*
X82588298Y-80611368D01*
X82555953Y-80620493D01*
X82524253Y-80614342D01*
X82496653Y-80592952D01*
X82493479Y-80589155D01*
X82486544Y-80579880D01*
X82481567Y-80569709D01*
X82478223Y-80555963D01*
X82476187Y-80535963D01*
X82475135Y-80507028D01*
X82474742Y-80466480D01*
X82474683Y-80411638D01*
X82474749Y-80369259D01*
X82475180Y-80324597D01*
X82476233Y-80292337D01*
X82478164Y-80269851D01*
X82481226Y-80254507D01*
X82485673Y-80243675D01*
X82491759Y-80234725D01*
X82517964Y-80213872D01*
X82551249Y-80205803D01*
X82585968Y-80212110D01*
G37*
G36*
X81036335Y-82779158D02*
G01*
X81066582Y-82799432D01*
X81091388Y-82824239D01*
X81091388Y-83140850D01*
X81066582Y-83165656D01*
X81057809Y-83173460D01*
X81026569Y-83189073D01*
X80994514Y-83189714D01*
X80965395Y-83175913D01*
X80942963Y-83148200D01*
X80942763Y-83147809D01*
X80937703Y-83133606D01*
X80934105Y-83112490D01*
X80931776Y-83081948D01*
X80930521Y-83039470D01*
X80930146Y-82982544D01*
X80930146Y-82980343D01*
X80930548Y-82923950D01*
X80931836Y-82881920D01*
X80934205Y-82851740D01*
X80937850Y-82830900D01*
X80942963Y-82816888D01*
X80948857Y-82807014D01*
X80973721Y-82783478D01*
X81004131Y-82774017D01*
X81036335Y-82779158D01*
G37*
G36*
X82063857Y-82779972D02*
G01*
X82093445Y-82799432D01*
X82118251Y-82824239D01*
X82118251Y-83146522D01*
X82092141Y-83168492D01*
X82087332Y-83172318D01*
X82054433Y-83188421D01*
X82021585Y-83189388D01*
X81992233Y-83175791D01*
X81969826Y-83148200D01*
X81965912Y-83134919D01*
X81961935Y-83105984D01*
X81959015Y-83066843D01*
X81957196Y-83021241D01*
X81956522Y-82972923D01*
X81957035Y-82925632D01*
X81958779Y-82883114D01*
X81961796Y-82849112D01*
X81966130Y-82827371D01*
X81977350Y-82805681D01*
X82001741Y-82783989D01*
X82031933Y-82775122D01*
X82063857Y-82779972D01*
G37*
G36*
X81573814Y-82789175D02*
G01*
X81596246Y-82816888D01*
X81596446Y-82817280D01*
X81601506Y-82831483D01*
X81605104Y-82852599D01*
X81607433Y-82883141D01*
X81608688Y-82925619D01*
X81609063Y-82982544D01*
X81608986Y-83008312D01*
X81607929Y-83063343D01*
X81605255Y-83104730D01*
X81600481Y-83134846D01*
X81593127Y-83156064D01*
X81582711Y-83170756D01*
X81568753Y-83181296D01*
X81567505Y-83182005D01*
X81535615Y-83190723D01*
X81502186Y-83184980D01*
X81472627Y-83165656D01*
X81447820Y-83140850D01*
X81447820Y-82824239D01*
X81472627Y-82799432D01*
X81481400Y-82791629D01*
X81512639Y-82776016D01*
X81544695Y-82775375D01*
X81573814Y-82789175D01*
G37*
G36*
X73254407Y-81313486D02*
G01*
X73290112Y-81331334D01*
X73326494Y-81350565D01*
X73355897Y-81367208D01*
X73374121Y-81378967D01*
X73379249Y-81383435D01*
X73399428Y-81408563D01*
X73424638Y-81449566D01*
X73454742Y-81506231D01*
X73508729Y-81613223D01*
X73508729Y-81777466D01*
X73450599Y-81890339D01*
X73437855Y-81915020D01*
X73417271Y-81953353D01*
X73399145Y-81982439D01*
X73380521Y-82005055D01*
X73358445Y-82023974D01*
X73329961Y-82041974D01*
X73292116Y-82061828D01*
X73241953Y-82086314D01*
X73161144Y-82125411D01*
X73033667Y-82129851D01*
X72984458Y-82131897D01*
X72939002Y-82135234D01*
X72905540Y-82140450D01*
X72881363Y-82148501D01*
X72863759Y-82160348D01*
X72850018Y-82176948D01*
X72837429Y-82199261D01*
X72816766Y-82240036D01*
X72834011Y-82273839D01*
X72836196Y-82278016D01*
X72851450Y-82301179D01*
X72870462Y-82318157D01*
X72895857Y-82329829D01*
X72930258Y-82337075D01*
X72976290Y-82340778D01*
X73036577Y-82341816D01*
X73154910Y-82341816D01*
X73229982Y-82305748D01*
X73268165Y-82288290D01*
X73298891Y-82276979D01*
X73325104Y-82271370D01*
X73351968Y-82269946D01*
X73391383Y-82274792D01*
X73434753Y-82292853D01*
X73469389Y-82321714D01*
X73494080Y-82358659D01*
X73507617Y-82400975D01*
X73508789Y-82445946D01*
X73496386Y-82490856D01*
X73469199Y-82532992D01*
X73463292Y-82539011D01*
X73435679Y-82560222D01*
X73394507Y-82585443D01*
X73341629Y-82613502D01*
X73240146Y-82664302D01*
X72844860Y-82664302D01*
X72743985Y-82614537D01*
X72740271Y-82612697D01*
X72700222Y-82591839D01*
X72664034Y-82571299D01*
X72635551Y-82553354D01*
X72618617Y-82540281D01*
X72617686Y-82539316D01*
X72604074Y-82521168D01*
X72585798Y-82491822D01*
X72565134Y-82455122D01*
X72544360Y-82414913D01*
X72494596Y-82314037D01*
X72494596Y-82157433D01*
X72544360Y-82056557D01*
X72546201Y-82052843D01*
X72567059Y-82012795D01*
X72587599Y-81976606D01*
X72605544Y-81948123D01*
X72618617Y-81931189D01*
X72619582Y-81930258D01*
X72637729Y-81916646D01*
X72667075Y-81898370D01*
X72703775Y-81877706D01*
X72743985Y-81856933D01*
X72844860Y-81807168D01*
X72958550Y-81807168D01*
X72990028Y-81807078D01*
X73028594Y-81806341D01*
X73056364Y-81804430D01*
X73077129Y-81800842D01*
X73094678Y-81795072D01*
X73112803Y-81786614D01*
X73127399Y-81778569D01*
X73152328Y-81758333D01*
X73168972Y-81731452D01*
X73174683Y-81718453D01*
X73180122Y-81700520D01*
X73178218Y-81684681D01*
X73168972Y-81662237D01*
X73167233Y-81658538D01*
X73143656Y-81626246D01*
X73108768Y-81603828D01*
X73061405Y-81590760D01*
X73000403Y-81586520D01*
X72995877Y-81586524D01*
X72963192Y-81587153D01*
X72937889Y-81589859D01*
X72914349Y-81596069D01*
X72886959Y-81607210D01*
X72850102Y-81624709D01*
X72812650Y-81641782D01*
X72767543Y-81657365D01*
X72729210Y-81662817D01*
X72693924Y-81658531D01*
X72657958Y-81644897D01*
X72655573Y-81643716D01*
X72617112Y-81615561D01*
X72590224Y-81577911D01*
X72575543Y-81534102D01*
X72573706Y-81487467D01*
X72585347Y-81441342D01*
X72611102Y-81399061D01*
X72627015Y-81385190D01*
X72655403Y-81365970D01*
X72692687Y-81343803D01*
X72735548Y-81320777D01*
X72838298Y-81268278D01*
X73161327Y-81268278D01*
X73254407Y-81313486D01*
G37*
G36*
X80378656Y-80975500D02*
G01*
X80438252Y-80976082D01*
X80483458Y-80978051D01*
X80516558Y-80982022D01*
X80539836Y-80988607D01*
X80555573Y-80998421D01*
X80566053Y-81012076D01*
X80573559Y-81030186D01*
X80577016Y-81042092D01*
X80578226Y-81064275D01*
X80569576Y-81088641D01*
X80568093Y-81091611D01*
X80553308Y-81112981D01*
X80537200Y-81126579D01*
X80531773Y-81128301D01*
X80509139Y-81131504D01*
X80474750Y-81133885D01*
X80432185Y-81135438D01*
X80385018Y-81136158D01*
X80336827Y-81136040D01*
X80291190Y-81135078D01*
X80251682Y-81133266D01*
X80221880Y-81130601D01*
X80205361Y-81127075D01*
X80193194Y-81119659D01*
X80172927Y-81094917D01*
X80163270Y-81063183D01*
X80166519Y-81030186D01*
X80167377Y-81027645D01*
X80175131Y-81010128D01*
X80186146Y-80996990D01*
X80202704Y-80987615D01*
X80227090Y-80981392D01*
X80261586Y-80977707D01*
X80308475Y-80975945D01*
X80370039Y-80975495D01*
X80378656Y-80975500D01*
G37*
G36*
X95357862Y-82261423D02*
G01*
X95375528Y-82272231D01*
X95395040Y-82292619D01*
X95410341Y-82315996D01*
X95416515Y-82336102D01*
X95413294Y-82353898D01*
X95400475Y-82380148D01*
X95381963Y-82402479D01*
X95362177Y-82414511D01*
X95362103Y-82414529D01*
X95348839Y-82416601D01*
X95320745Y-82420144D01*
X95279850Y-82424928D01*
X95228181Y-82430727D01*
X95167768Y-82437314D01*
X95100638Y-82444459D01*
X95028820Y-82451935D01*
X94975551Y-82457409D01*
X94910178Y-82464017D01*
X94853801Y-82469440D01*
X94803824Y-82473802D01*
X94757651Y-82477223D01*
X94712683Y-82479826D01*
X94666324Y-82481733D01*
X94615977Y-82483066D01*
X94559046Y-82483946D01*
X94492932Y-82484497D01*
X94415040Y-82484838D01*
X94322771Y-82485094D01*
X93929129Y-82486086D01*
X93590253Y-82451969D01*
X93509681Y-82443797D01*
X93434367Y-82435912D01*
X93373069Y-82429035D01*
X93324269Y-82422855D01*
X93286445Y-82417060D01*
X93258080Y-82411339D01*
X93237652Y-82405379D01*
X93223641Y-82398870D01*
X93214529Y-82391498D01*
X93208796Y-82382953D01*
X93204921Y-82372922D01*
X93200015Y-82349392D01*
X93203590Y-82313238D01*
X93221003Y-82283970D01*
X93251052Y-82264417D01*
X93252839Y-82263941D01*
X93271190Y-82263091D01*
X93306152Y-82264393D01*
X93357542Y-82267833D01*
X93425179Y-82273399D01*
X93508880Y-82281076D01*
X93608462Y-82290850D01*
X93623474Y-82292361D01*
X93703766Y-82300398D01*
X93771541Y-82306986D01*
X93829747Y-82312269D01*
X93881334Y-82316392D01*
X93929251Y-82319498D01*
X93976446Y-82321731D01*
X94025869Y-82323235D01*
X94080469Y-82324155D01*
X94143195Y-82324633D01*
X94216995Y-82324815D01*
X94304820Y-82324843D01*
X94322093Y-82324843D01*
X94407088Y-82324798D01*
X94478605Y-82324574D01*
X94539595Y-82324027D01*
X94593013Y-82323013D01*
X94641810Y-82321386D01*
X94688941Y-82319002D01*
X94737358Y-82315717D01*
X94790014Y-82311386D01*
X94849862Y-82305864D01*
X94919855Y-82299008D01*
X95002946Y-82290672D01*
X95028025Y-82288165D01*
X95101188Y-82281056D01*
X95168824Y-82274784D01*
X95229040Y-82269503D01*
X95279944Y-82265371D01*
X95319643Y-82262543D01*
X95346247Y-82261175D01*
X95357862Y-82261423D01*
G37*
G36*
X99014814Y-82164798D02*
G01*
X99014828Y-82313937D01*
X99014818Y-82447444D01*
X99014744Y-82566199D01*
X99014566Y-82671082D01*
X99014246Y-82762974D01*
X99013743Y-82842756D01*
X99013018Y-82911308D01*
X99012031Y-82969510D01*
X99010744Y-83018244D01*
X99009116Y-83058389D01*
X99007108Y-83090826D01*
X99004680Y-83116436D01*
X99001794Y-83136099D01*
X98998409Y-83150695D01*
X98994486Y-83161106D01*
X98989985Y-83168211D01*
X98984868Y-83172892D01*
X98979093Y-83176029D01*
X98972623Y-83178502D01*
X98965417Y-83181191D01*
X98953671Y-83184846D01*
X98926799Y-83191689D01*
X98889119Y-83200469D01*
X98843839Y-83210443D01*
X98794162Y-83220868D01*
X98769305Y-83225875D01*
X98735058Y-83232382D01*
X98701317Y-83238163D01*
X98666144Y-83243429D01*
X98627601Y-83248388D01*
X98583752Y-83253253D01*
X98532658Y-83258233D01*
X98472381Y-83263538D01*
X98400985Y-83269379D01*
X98316531Y-83275966D01*
X98217082Y-83283510D01*
X98212350Y-83283866D01*
X98112574Y-83291301D01*
X98026737Y-83297492D01*
X97951989Y-83302558D01*
X97885476Y-83306614D01*
X97824346Y-83309778D01*
X97765747Y-83312167D01*
X97706825Y-83313897D01*
X97644729Y-83315087D01*
X97576606Y-83315852D01*
X97499603Y-83316309D01*
X97410867Y-83316576D01*
X97330997Y-83316712D01*
X97257098Y-83316675D01*
X97192038Y-83316351D01*
X97133242Y-83315638D01*
X97078132Y-83314436D01*
X97024133Y-83312641D01*
X96968668Y-83310154D01*
X96909161Y-83306871D01*
X96843037Y-83302692D01*
X96767718Y-83297514D01*
X96680629Y-83291237D01*
X96579193Y-83283757D01*
X96574256Y-83283391D01*
X96472729Y-83275803D01*
X96386239Y-83269173D01*
X96312972Y-83263310D01*
X96251114Y-83258023D01*
X96198850Y-83253120D01*
X96154366Y-83248409D01*
X96115848Y-83243700D01*
X96081480Y-83238800D01*
X96049449Y-83233518D01*
X96017941Y-83227663D01*
X95985141Y-83221042D01*
X95845114Y-83191979D01*
X95679628Y-83224636D01*
X95672148Y-83226109D01*
X95634143Y-83233419D01*
X95598909Y-83239763D01*
X95564476Y-83245349D01*
X95528873Y-83250384D01*
X95490128Y-83255076D01*
X95446271Y-83259633D01*
X95395332Y-83264261D01*
X95335339Y-83269169D01*
X95264322Y-83274563D01*
X95180310Y-83280653D01*
X95081332Y-83287644D01*
X95035061Y-83290875D01*
X94937913Y-83297517D01*
X94853654Y-83302992D01*
X94779460Y-83307409D01*
X94712509Y-83310879D01*
X94649978Y-83313513D01*
X94589044Y-83315421D01*
X94526885Y-83316712D01*
X94460676Y-83317498D01*
X94387595Y-83317889D01*
X94304820Y-83317994D01*
X94267983Y-83317977D01*
X94189708Y-83317763D01*
X94119917Y-83317216D01*
X94055789Y-83316227D01*
X93994500Y-83314685D01*
X93933228Y-83312480D01*
X93869148Y-83309501D01*
X93799440Y-83305639D01*
X93721279Y-83300782D01*
X93631842Y-83294820D01*
X93528308Y-83287644D01*
X93508810Y-83286275D01*
X93412745Y-83279466D01*
X93331281Y-83273521D01*
X93262448Y-83268232D01*
X93204276Y-83263391D01*
X93154793Y-83258792D01*
X93112029Y-83254226D01*
X93074013Y-83249486D01*
X93038774Y-83244365D01*
X93004341Y-83238655D01*
X92968744Y-83232148D01*
X92930012Y-83224636D01*
X92764526Y-83191979D01*
X92624499Y-83221136D01*
X92592288Y-83227664D01*
X92560618Y-83233582D01*
X92528471Y-83238915D01*
X92494017Y-83243858D01*
X92455429Y-83248605D01*
X92410878Y-83253352D01*
X92358536Y-83258292D01*
X92296575Y-83263621D01*
X92223165Y-83269532D01*
X92136480Y-83276220D01*
X92034690Y-83283880D01*
X91981644Y-83287830D01*
X91886971Y-83294778D01*
X91805299Y-83300550D01*
X91734015Y-83305255D01*
X91670507Y-83309002D01*
X91612163Y-83311897D01*
X91556370Y-83314051D01*
X91500515Y-83315570D01*
X91441987Y-83316564D01*
X91378172Y-83317140D01*
X91306457Y-83317406D01*
X91224232Y-83317472D01*
X91176942Y-83317455D01*
X91101240Y-83317294D01*
X91034486Y-83316873D01*
X90974093Y-83316085D01*
X90917475Y-83314824D01*
X90862044Y-83312981D01*
X90805214Y-83310450D01*
X90744397Y-83307123D01*
X90677007Y-83302894D01*
X90600458Y-83297655D01*
X90512161Y-83291298D01*
X90409531Y-83283718D01*
X90314204Y-83276578D01*
X90225701Y-83269792D01*
X90150652Y-83263794D01*
X90087249Y-83258397D01*
X90033682Y-83253408D01*
X89988145Y-83248637D01*
X89948828Y-83243895D01*
X89913923Y-83238991D01*
X89881623Y-83233733D01*
X89850118Y-83227933D01*
X89817600Y-83221400D01*
X89679695Y-83192842D01*
X89541789Y-83221473D01*
X89510364Y-83227814D01*
X89478996Y-83233634D01*
X89446964Y-83238896D01*
X89412459Y-83243791D01*
X89373674Y-83248509D01*
X89328802Y-83253241D01*
X89276035Y-83258176D01*
X89213564Y-83263505D01*
X89139583Y-83269419D01*
X89052284Y-83276106D01*
X88949858Y-83283757D01*
X88897853Y-83287601D01*
X88802284Y-83294564D01*
X88719794Y-83300354D01*
X88647797Y-83305079D01*
X88583709Y-83308845D01*
X88524944Y-83311762D01*
X88468918Y-83313935D01*
X88413045Y-83315473D01*
X88354743Y-83316482D01*
X88291424Y-83317069D01*
X88220505Y-83317343D01*
X88139401Y-83317411D01*
X88098502Y-83317397D01*
X88022677Y-83317243D01*
X87955779Y-83316829D01*
X87895223Y-83316050D01*
X87838426Y-83314797D01*
X87782802Y-83312964D01*
X87725766Y-83310442D01*
X87664734Y-83307125D01*
X87597120Y-83302906D01*
X87520340Y-83297676D01*
X87431809Y-83291329D01*
X87328943Y-83283757D01*
X87229576Y-83276337D01*
X87141817Y-83269621D01*
X87067435Y-83263686D01*
X87004621Y-83258341D01*
X86951569Y-83253396D01*
X86906470Y-83248661D01*
X86867517Y-83243945D01*
X86832902Y-83239059D01*
X86800818Y-83233811D01*
X86769457Y-83228013D01*
X86737012Y-83221473D01*
X86599106Y-83192842D01*
X86461201Y-83221400D01*
X86431090Y-83227466D01*
X86399571Y-83233315D01*
X86367394Y-83238607D01*
X86332750Y-83243531D01*
X86293831Y-83248279D01*
X86248828Y-83253041D01*
X86195934Y-83258007D01*
X86133339Y-83263367D01*
X86059236Y-83269312D01*
X85971815Y-83276032D01*
X85869270Y-83283718D01*
X85809850Y-83288122D01*
X85715570Y-83295004D01*
X85634173Y-83300721D01*
X85563074Y-83305381D01*
X85499686Y-83309091D01*
X85441421Y-83311959D01*
X85385694Y-83314091D01*
X85329916Y-83315595D01*
X85271502Y-83316578D01*
X85207864Y-83317147D01*
X85136415Y-83317409D01*
X85054569Y-83317472D01*
X85011862Y-83317457D01*
X84935238Y-83317305D01*
X84867817Y-83316896D01*
X84806986Y-83316125D01*
X84750133Y-83314882D01*
X84694645Y-83313058D01*
X84637911Y-83310547D01*
X84577318Y-83307239D01*
X84510253Y-83303026D01*
X84434106Y-83297799D01*
X84346263Y-83291452D01*
X84244111Y-83283874D01*
X84183096Y-83279304D01*
X84091659Y-83272364D01*
X84014163Y-83266297D01*
X83948725Y-83260898D01*
X83893462Y-83255959D01*
X83846491Y-83251275D01*
X83805929Y-83246638D01*
X83769894Y-83241844D01*
X83736503Y-83236685D01*
X83703872Y-83230955D01*
X83670119Y-83224449D01*
X83633361Y-83216959D01*
X83596636Y-83209291D01*
X83549042Y-83198945D01*
X83514172Y-83190536D01*
X83489580Y-83183305D01*
X83472822Y-83176497D01*
X83461452Y-83169353D01*
X83453024Y-83161117D01*
X83433654Y-83138598D01*
X83433654Y-81077120D01*
X83594897Y-81077120D01*
X83594897Y-83043880D01*
X83732802Y-83070421D01*
X83761153Y-83075699D01*
X83796126Y-83081613D01*
X83832736Y-83087020D01*
X83872896Y-83092111D01*
X83918520Y-83097077D01*
X83971520Y-83102111D01*
X84033810Y-83107402D01*
X84107303Y-83113143D01*
X84193912Y-83119525D01*
X84295550Y-83126740D01*
X84377147Y-83132417D01*
X84466367Y-83138447D01*
X84543789Y-83143371D01*
X84612264Y-83147294D01*
X84674644Y-83150321D01*
X84733779Y-83152555D01*
X84792519Y-83154101D01*
X84853715Y-83155065D01*
X84920218Y-83155549D01*
X84994879Y-83155658D01*
X85080548Y-83155498D01*
X85144394Y-83155275D01*
X85222054Y-83154802D01*
X85290825Y-83154026D01*
X85353573Y-83152826D01*
X85413166Y-83151082D01*
X85472470Y-83148671D01*
X85534354Y-83145474D01*
X85601684Y-83141369D01*
X85677328Y-83136235D01*
X85764153Y-83129952D01*
X85865027Y-83122397D01*
X85871896Y-83121878D01*
X85975074Y-83113946D01*
X86063146Y-83106889D01*
X86137839Y-83100528D01*
X86200881Y-83094687D01*
X86254001Y-83089186D01*
X86298924Y-83083846D01*
X86337380Y-83078491D01*
X86371094Y-83072941D01*
X86401796Y-83067019D01*
X86514242Y-83043722D01*
X86514242Y-81077106D01*
X86675485Y-81077106D01*
X86675485Y-83043880D01*
X86813390Y-83070421D01*
X86841741Y-83075699D01*
X86876714Y-83081613D01*
X86913324Y-83087020D01*
X86953484Y-83092111D01*
X86999108Y-83097077D01*
X87052108Y-83102111D01*
X87114398Y-83107402D01*
X87187891Y-83113143D01*
X87274500Y-83119525D01*
X87376138Y-83126740D01*
X87461824Y-83132699D01*
X87550324Y-83138672D01*
X87627168Y-83143546D01*
X87695214Y-83147426D01*
X87757322Y-83150415D01*
X87816351Y-83152619D01*
X87875160Y-83154142D01*
X87936608Y-83155087D01*
X88003555Y-83155558D01*
X88078859Y-83155660D01*
X88165379Y-83155498D01*
X88234193Y-83155258D01*
X88311973Y-83154781D01*
X88380802Y-83154001D01*
X88443555Y-83152798D01*
X88503105Y-83151051D01*
X88562326Y-83148640D01*
X88624094Y-83145444D01*
X88691281Y-83141342D01*
X88766762Y-83136214D01*
X88853411Y-83129940D01*
X88954101Y-83122397D01*
X88960971Y-83121878D01*
X89064148Y-83113946D01*
X89152220Y-83106889D01*
X89226913Y-83100528D01*
X89289956Y-83094687D01*
X89343075Y-83089186D01*
X89387999Y-83083846D01*
X89426454Y-83078491D01*
X89460169Y-83072941D01*
X89490871Y-83067019D01*
X89603316Y-83043722D01*
X89603316Y-81077106D01*
X89599064Y-81068619D01*
X89764559Y-81068619D01*
X89764559Y-83043880D01*
X89902464Y-83070421D01*
X89930816Y-83075699D01*
X89965788Y-83081613D01*
X90002398Y-83087020D01*
X90042559Y-83092111D01*
X90088182Y-83097077D01*
X90141183Y-83102111D01*
X90203473Y-83107402D01*
X90276966Y-83113143D01*
X90363575Y-83119525D01*
X90465212Y-83126740D01*
X90546810Y-83132417D01*
X90636029Y-83138447D01*
X90713451Y-83143371D01*
X90781927Y-83147294D01*
X90844307Y-83150321D01*
X90903441Y-83152555D01*
X90962181Y-83154101D01*
X91023377Y-83155065D01*
X91089881Y-83155549D01*
X91164541Y-83155658D01*
X91250210Y-83155498D01*
X91314056Y-83155275D01*
X91391717Y-83154802D01*
X91460488Y-83154026D01*
X91523236Y-83152826D01*
X91582828Y-83151082D01*
X91642133Y-83148671D01*
X91704017Y-83145474D01*
X91771347Y-83141369D01*
X91846991Y-83136235D01*
X91933816Y-83129952D01*
X92034690Y-83122397D01*
X92041559Y-83121878D01*
X92144737Y-83113946D01*
X92232808Y-83106889D01*
X92307501Y-83100528D01*
X92370544Y-83094687D01*
X92423663Y-83089186D01*
X92468587Y-83083846D01*
X92507042Y-83078491D01*
X92540757Y-83072941D01*
X92571459Y-83067019D01*
X92683904Y-83043722D01*
X92683904Y-81077120D01*
X92845147Y-81077120D01*
X92845147Y-83043880D01*
X92983052Y-83070421D01*
X93011404Y-83075699D01*
X93046376Y-83081613D01*
X93082986Y-83087020D01*
X93123147Y-83092111D01*
X93168770Y-83097077D01*
X93221771Y-83102111D01*
X93284061Y-83107402D01*
X93357554Y-83113143D01*
X93444163Y-83119525D01*
X93545800Y-83126740D01*
X93627398Y-83132417D01*
X93716617Y-83138447D01*
X93794039Y-83143371D01*
X93862515Y-83147294D01*
X93924895Y-83150321D01*
X93984029Y-83152555D01*
X94042769Y-83154101D01*
X94103965Y-83155065D01*
X94170469Y-83155549D01*
X94245129Y-83155658D01*
X94330799Y-83155498D01*
X94394644Y-83155275D01*
X94472305Y-83154802D01*
X94541076Y-83154026D01*
X94603824Y-83152826D01*
X94663416Y-83151082D01*
X94722721Y-83148671D01*
X94784605Y-83145474D01*
X94851935Y-83141369D01*
X94927579Y-83136235D01*
X95014404Y-83129952D01*
X95115278Y-83122397D01*
X95122147Y-83121878D01*
X95225325Y-83113946D01*
X95313396Y-83106889D01*
X95388089Y-83100528D01*
X95451132Y-83094687D01*
X95504251Y-83089186D01*
X95549175Y-83083846D01*
X95587630Y-83078491D01*
X95621345Y-83072941D01*
X95652047Y-83067019D01*
X95764492Y-83043722D01*
X95764492Y-81077106D01*
X95925735Y-81077106D01*
X95925735Y-83043880D01*
X96063640Y-83070421D01*
X96091992Y-83075699D01*
X96126964Y-83081613D01*
X96163574Y-83087020D01*
X96203735Y-83092111D01*
X96249359Y-83097077D01*
X96302359Y-83102111D01*
X96364649Y-83107402D01*
X96438142Y-83113143D01*
X96524751Y-83119525D01*
X96626388Y-83126740D01*
X96712075Y-83132699D01*
X96800575Y-83138672D01*
X96877419Y-83143546D01*
X96945465Y-83147426D01*
X97007573Y-83150415D01*
X97066602Y-83152619D01*
X97125411Y-83154142D01*
X97186859Y-83155087D01*
X97253805Y-83155558D01*
X97329109Y-83155660D01*
X97415630Y-83155498D01*
X97484444Y-83155258D01*
X97562224Y-83154781D01*
X97631053Y-83154001D01*
X97693805Y-83152798D01*
X97753355Y-83151051D01*
X97812577Y-83148640D01*
X97874344Y-83145444D01*
X97941531Y-83141342D01*
X98017012Y-83136214D01*
X98103661Y-83129940D01*
X98204352Y-83122397D01*
X98211222Y-83121878D01*
X98314399Y-83113946D01*
X98402471Y-83106889D01*
X98477164Y-83100528D01*
X98540206Y-83094687D01*
X98593326Y-83089186D01*
X98638249Y-83083846D01*
X98676705Y-83078491D01*
X98710419Y-83072941D01*
X98741121Y-83067019D01*
X98853567Y-83043722D01*
X98853567Y-81077106D01*
X98793440Y-80957082D01*
X98776929Y-80924820D01*
X98732748Y-80844977D01*
X98683640Y-80765510D01*
X98627657Y-80683517D01*
X98562851Y-80596091D01*
X98487276Y-80500328D01*
X98374081Y-80360378D01*
X98064325Y-80329021D01*
X98056159Y-80328195D01*
X97981732Y-80320712D01*
X97918532Y-80314564D01*
X97863739Y-80309619D01*
X97814533Y-80305747D01*
X97768095Y-80302816D01*
X97721603Y-80300696D01*
X97672239Y-80299255D01*
X97617181Y-80298363D01*
X97553611Y-80297888D01*
X97478707Y-80297699D01*
X97389651Y-80297665D01*
X97380031Y-80297665D01*
X97292517Y-80297709D01*
X97218873Y-80297920D01*
X97156281Y-80298431D01*
X97101919Y-80299373D01*
X97052969Y-80300875D01*
X97006609Y-80303071D01*
X96960021Y-80306089D01*
X96910383Y-80310063D01*
X96854877Y-80315122D01*
X96790681Y-80321398D01*
X96714977Y-80329021D01*
X96405221Y-80360378D01*
X96292027Y-80500328D01*
X96260781Y-80539313D01*
X96189690Y-80631438D01*
X96128600Y-80716372D01*
X96075563Y-80797021D01*
X96028633Y-80876289D01*
X95985862Y-80957082D01*
X95929987Y-81068619D01*
X95925735Y-81077106D01*
X95764492Y-81077106D01*
X95764492Y-81068619D01*
X95704225Y-80948315D01*
X95693321Y-80926749D01*
X95663592Y-80870406D01*
X95633642Y-80817934D01*
X95601627Y-80766575D01*
X95565704Y-80713570D01*
X95524029Y-80656161D01*
X95474758Y-80591589D01*
X95416049Y-80517095D01*
X95290845Y-80359966D01*
X94965440Y-80327998D01*
X94932268Y-80324744D01*
X94854119Y-80317185D01*
X94787981Y-80311084D01*
X94730634Y-80306287D01*
X94678856Y-80302638D01*
X94629428Y-80299982D01*
X94579130Y-80298163D01*
X94524740Y-80297027D01*
X94463039Y-80296419D01*
X94390806Y-80296182D01*
X94304820Y-80296163D01*
X94296013Y-80296167D01*
X94210533Y-80296284D01*
X94138504Y-80296642D01*
X94076701Y-80297394D01*
X94021906Y-80298689D01*
X93970894Y-80300679D01*
X93920446Y-80303512D01*
X93867339Y-80307341D01*
X93808351Y-80312315D01*
X93740261Y-80318585D01*
X93659848Y-80326302D01*
X93589276Y-80333253D01*
X93522588Y-80340044D01*
X93462695Y-80346366D01*
X93411618Y-80351997D01*
X93371376Y-80356713D01*
X93343992Y-80360292D01*
X93331486Y-80362510D01*
X93330152Y-80363120D01*
X93317221Y-80374023D01*
X93296149Y-80396181D01*
X93268579Y-80427559D01*
X93236151Y-80466120D01*
X93200509Y-80509828D01*
X93163295Y-80556647D01*
X93126151Y-80604542D01*
X93090720Y-80651478D01*
X93058642Y-80695417D01*
X93031562Y-80734324D01*
X93022600Y-80747983D01*
X92995847Y-80791480D01*
X92966071Y-80842942D01*
X92936301Y-80897055D01*
X92909564Y-80948501D01*
X92845147Y-81077120D01*
X92683904Y-81077120D01*
X92619487Y-80948501D01*
X92609612Y-80929090D01*
X92581332Y-80875971D01*
X92551199Y-80822260D01*
X92522243Y-80773272D01*
X92497490Y-80734324D01*
X92493065Y-80727794D01*
X92464966Y-80687833D01*
X92432165Y-80643206D01*
X92396304Y-80595948D01*
X92359027Y-80548096D01*
X92321974Y-80501685D01*
X92286789Y-80458752D01*
X92255113Y-80421332D01*
X92228589Y-80391461D01*
X92208859Y-80371175D01*
X92197565Y-80362510D01*
X92185305Y-80360327D01*
X92158089Y-80356764D01*
X92117992Y-80352060D01*
X92067034Y-80346439D01*
X92007236Y-80340124D01*
X91940619Y-80333338D01*
X91869203Y-80326302D01*
X91861065Y-80325514D01*
X91781942Y-80317939D01*
X91714841Y-80311797D01*
X91656541Y-80306936D01*
X91603819Y-80303207D01*
X91553455Y-80300459D01*
X91502226Y-80298541D01*
X91446911Y-80297303D01*
X91384288Y-80296595D01*
X91311135Y-80296265D01*
X91224232Y-80296163D01*
X91189601Y-80296155D01*
X91109258Y-80296238D01*
X91041437Y-80296598D01*
X90982915Y-80297388D01*
X90930470Y-80298766D01*
X90880882Y-80300886D01*
X90830927Y-80303903D01*
X90777384Y-80307974D01*
X90717031Y-80313253D01*
X90646645Y-80319896D01*
X90563006Y-80328058D01*
X90236996Y-80360086D01*
X90121129Y-80504426D01*
X90112871Y-80514732D01*
X90047143Y-80598553D01*
X89991182Y-80673742D01*
X89942974Y-80743313D01*
X89900507Y-80810282D01*
X89861769Y-80877663D01*
X89824748Y-80948472D01*
X89764559Y-81068619D01*
X89599064Y-81068619D01*
X89543190Y-80957082D01*
X89526678Y-80924820D01*
X89482498Y-80844977D01*
X89433389Y-80765510D01*
X89377406Y-80683517D01*
X89312600Y-80596091D01*
X89237025Y-80500328D01*
X89123831Y-80360378D01*
X88814075Y-80329021D01*
X88805909Y-80328195D01*
X88731481Y-80320712D01*
X88668282Y-80314564D01*
X88613489Y-80309619D01*
X88564283Y-80305747D01*
X88517844Y-80302816D01*
X88471353Y-80300696D01*
X88421988Y-80299255D01*
X88366930Y-80298363D01*
X88303360Y-80297888D01*
X88228457Y-80297699D01*
X88139401Y-80297665D01*
X88129781Y-80297665D01*
X88042266Y-80297709D01*
X87968623Y-80297920D01*
X87906030Y-80298431D01*
X87851669Y-80299373D01*
X87802718Y-80300875D01*
X87756359Y-80303071D01*
X87709770Y-80306089D01*
X87660133Y-80310063D01*
X87604626Y-80315122D01*
X87540431Y-80321398D01*
X87464726Y-80329021D01*
X87154970Y-80360378D01*
X87041776Y-80500328D01*
X87010531Y-80539313D01*
X86939440Y-80631438D01*
X86878349Y-80716372D01*
X86825312Y-80797021D01*
X86778382Y-80876289D01*
X86735611Y-80957082D01*
X86679737Y-81068619D01*
X86675485Y-81077106D01*
X86514242Y-81077106D01*
X86514242Y-81068619D01*
X86453975Y-80948315D01*
X86443070Y-80926749D01*
X86413341Y-80870406D01*
X86383391Y-80817934D01*
X86351376Y-80766575D01*
X86315453Y-80713570D01*
X86273778Y-80656161D01*
X86224507Y-80591589D01*
X86165798Y-80517095D01*
X86040594Y-80359966D01*
X85715189Y-80327998D01*
X85682017Y-80324744D01*
X85603868Y-80317185D01*
X85537731Y-80311084D01*
X85480383Y-80306287D01*
X85428606Y-80302638D01*
X85379178Y-80299982D01*
X85328879Y-80298163D01*
X85274490Y-80297027D01*
X85212788Y-80296419D01*
X85140555Y-80296182D01*
X85054569Y-80296163D01*
X85045762Y-80296167D01*
X84960283Y-80296284D01*
X84888253Y-80296642D01*
X84826451Y-80297394D01*
X84771655Y-80298689D01*
X84720644Y-80300679D01*
X84670195Y-80303512D01*
X84617088Y-80307341D01*
X84558100Y-80312315D01*
X84490011Y-80318585D01*
X84409598Y-80326302D01*
X84339025Y-80333253D01*
X84272337Y-80340044D01*
X84212444Y-80346366D01*
X84161367Y-80351997D01*
X84121126Y-80356713D01*
X84093742Y-80360292D01*
X84081236Y-80362510D01*
X84079902Y-80363120D01*
X84066971Y-80374023D01*
X84045899Y-80396181D01*
X84018328Y-80427559D01*
X83985901Y-80466120D01*
X83950259Y-80509828D01*
X83913045Y-80556647D01*
X83875901Y-80604542D01*
X83840469Y-80651478D01*
X83808392Y-80695417D01*
X83781311Y-80734324D01*
X83772349Y-80747983D01*
X83745596Y-80791480D01*
X83715821Y-80842942D01*
X83686050Y-80897055D01*
X83659314Y-80948501D01*
X83594897Y-81077120D01*
X83433654Y-81077120D01*
X83433654Y-81034700D01*
X83502239Y-80897731D01*
X83515062Y-80872631D01*
X83545673Y-80815557D01*
X83578712Y-80757037D01*
X83610972Y-80702679D01*
X83639248Y-80658088D01*
X83644448Y-80650361D01*
X83670416Y-80613255D01*
X83702195Y-80569640D01*
X83738194Y-80521531D01*
X83776825Y-80470944D01*
X83816497Y-80419895D01*
X83855620Y-80370400D01*
X83892603Y-80324474D01*
X83925857Y-80284134D01*
X83953792Y-80251396D01*
X83974818Y-80228274D01*
X83987344Y-80216785D01*
X83993626Y-80214258D01*
X84015269Y-80209422D01*
X84051466Y-80203644D01*
X84102691Y-80196862D01*
X84169420Y-80189015D01*
X84252127Y-80180041D01*
X84351286Y-80169880D01*
X84369158Y-80168090D01*
X84450660Y-80159972D01*
X84519407Y-80153320D01*
X84578373Y-80147988D01*
X84630530Y-80143830D01*
X84678850Y-80140700D01*
X84726307Y-80138452D01*
X84775873Y-80136940D01*
X84830521Y-80136019D01*
X84893224Y-80135541D01*
X84966954Y-80135362D01*
X85054685Y-80135334D01*
X85069221Y-80135334D01*
X85154726Y-80135378D01*
X85226679Y-80135599D01*
X85288046Y-80136141D01*
X85341792Y-80137149D01*
X85390883Y-80138768D01*
X85438283Y-80141141D01*
X85486959Y-80144414D01*
X85539876Y-80148730D01*
X85599999Y-80154235D01*
X85670293Y-80161072D01*
X85753724Y-80169387D01*
X85778303Y-80171863D01*
X85852062Y-80179504D01*
X85920562Y-80186909D01*
X85981863Y-80193848D01*
X86034024Y-80200091D01*
X86075108Y-80205408D01*
X86103174Y-80209569D01*
X86116284Y-80212345D01*
X86116644Y-80212496D01*
X86132029Y-80223938D01*
X86155493Y-80247603D01*
X86185690Y-80281689D01*
X86221272Y-80324395D01*
X86260895Y-80373918D01*
X86303211Y-80428456D01*
X86346874Y-80486208D01*
X86390538Y-80545373D01*
X86432857Y-80604147D01*
X86472483Y-80660729D01*
X86508070Y-80713318D01*
X86538273Y-80760111D01*
X86561745Y-80799306D01*
X86577139Y-80829103D01*
X86582410Y-80840301D01*
X86592413Y-80858135D01*
X86598945Y-80865170D01*
X86603443Y-80860789D01*
X86613260Y-80844614D01*
X86625237Y-80820617D01*
X86626725Y-80817436D01*
X86648595Y-80776476D01*
X86680016Y-80724956D01*
X86719550Y-80664947D01*
X86765762Y-80598520D01*
X86817212Y-80527745D01*
X86872465Y-80454694D01*
X86930082Y-80381437D01*
X86960970Y-80343318D01*
X86996250Y-80300715D01*
X87027432Y-80264075D01*
X87052916Y-80235242D01*
X87071101Y-80216057D01*
X87080387Y-80208365D01*
X87082512Y-80207911D01*
X87099370Y-80205541D01*
X87130589Y-80201789D01*
X87174280Y-80196859D01*
X87228555Y-80190959D01*
X87291526Y-80184295D01*
X87361305Y-80177073D01*
X87436002Y-80169500D01*
X87460203Y-80167072D01*
X87539173Y-80159202D01*
X87605947Y-80152755D01*
X87663443Y-80147587D01*
X87714577Y-80143559D01*
X87762267Y-80140526D01*
X87809428Y-80138350D01*
X87858977Y-80136886D01*
X87913833Y-80135995D01*
X87976910Y-80135533D01*
X88051127Y-80135360D01*
X88139401Y-80135334D01*
X88165201Y-80135335D01*
X88249325Y-80135387D01*
X88320193Y-80135625D01*
X88380723Y-80136191D01*
X88433832Y-80137225D01*
X88482435Y-80138870D01*
X88529451Y-80141268D01*
X88577795Y-80144559D01*
X88630385Y-80148887D01*
X88690138Y-80154391D01*
X88759970Y-80161215D01*
X88842799Y-80169500D01*
X88868640Y-80172102D01*
X88941876Y-80179579D01*
X89009551Y-80186635D01*
X89069777Y-80193062D01*
X89120664Y-80198655D01*
X89160325Y-80203208D01*
X89186871Y-80206513D01*
X89198414Y-80208365D01*
X89205332Y-80213778D01*
X89222039Y-80231036D01*
X89246332Y-80258275D01*
X89276609Y-80293650D01*
X89311272Y-80335318D01*
X89348719Y-80381437D01*
X89354106Y-80388162D01*
X89411564Y-80461487D01*
X89466526Y-80534415D01*
X89517553Y-80604874D01*
X89563207Y-80670794D01*
X89602052Y-80730106D01*
X89632650Y-80780736D01*
X89653564Y-80820617D01*
X89662988Y-80839827D01*
X89673504Y-80858108D01*
X89679856Y-80865170D01*
X89682437Y-80863380D01*
X89691041Y-80850439D01*
X89701662Y-80829103D01*
X89702032Y-80828276D01*
X89717719Y-80798136D01*
X89741438Y-80758656D01*
X89771843Y-80711640D01*
X89807588Y-80658889D01*
X89847326Y-80602204D01*
X89889711Y-80543387D01*
X89933396Y-80484241D01*
X89977036Y-80426568D01*
X90019284Y-80372168D01*
X90058793Y-80322844D01*
X90094217Y-80280398D01*
X90124210Y-80246632D01*
X90147426Y-80223347D01*
X90162517Y-80212345D01*
X90164991Y-80211616D01*
X90183134Y-80208368D01*
X90215608Y-80203809D01*
X90260475Y-80198168D01*
X90315794Y-80191676D01*
X90379627Y-80184562D01*
X90450034Y-80177055D01*
X90525077Y-80169387D01*
X90538877Y-80168007D01*
X90620096Y-80159929D01*
X90688634Y-80153306D01*
X90747456Y-80147993D01*
X90799527Y-80143846D01*
X90847814Y-80140721D01*
X90895282Y-80138473D01*
X90944895Y-80136958D01*
X90999620Y-80136031D01*
X91062422Y-80135548D01*
X91136265Y-80135363D01*
X91224117Y-80135334D01*
X91242704Y-80135334D01*
X91327432Y-80135380D01*
X91398747Y-80135607D01*
X91459623Y-80136161D01*
X91513031Y-80137188D01*
X91561945Y-80138833D01*
X91609337Y-80141244D01*
X91658179Y-80144565D01*
X91711446Y-80148943D01*
X91772109Y-80154525D01*
X91843141Y-80161455D01*
X91927515Y-80169880D01*
X91990355Y-80176261D01*
X92079359Y-80185686D01*
X92152202Y-80193961D01*
X92209359Y-80201147D01*
X92251304Y-80207306D01*
X92278512Y-80212498D01*
X92291457Y-80216785D01*
X92297781Y-80222415D01*
X92314605Y-80240458D01*
X92339039Y-80268458D01*
X92369387Y-80304424D01*
X92403948Y-80346361D01*
X92441027Y-80392279D01*
X92450704Y-80404429D01*
X92506022Y-80475580D01*
X92559309Y-80546871D01*
X92609063Y-80616128D01*
X92653785Y-80681179D01*
X92691975Y-80739849D01*
X92722133Y-80789967D01*
X92742759Y-80829360D01*
X92763424Y-80874171D01*
X92802261Y-80799657D01*
X92813371Y-80779065D01*
X92839179Y-80734261D01*
X92868065Y-80686967D01*
X92895612Y-80644522D01*
X92903920Y-80632467D01*
X92928672Y-80598102D01*
X92959416Y-80556957D01*
X92994528Y-80511064D01*
X93032384Y-80462452D01*
X93071359Y-80413155D01*
X93109829Y-80365201D01*
X93146171Y-80320622D01*
X93178760Y-80281448D01*
X93205973Y-80249711D01*
X93226184Y-80227442D01*
X93237770Y-80216670D01*
X93242682Y-80214596D01*
X93263514Y-80209789D01*
X93299450Y-80203986D01*
X93350856Y-80197140D01*
X93418096Y-80189206D01*
X93501534Y-80180135D01*
X93601537Y-80169880D01*
X93619168Y-80168114D01*
X93700723Y-80159990D01*
X93769512Y-80153334D01*
X93828508Y-80147998D01*
X93880686Y-80143837D01*
X93929019Y-80140704D01*
X93976481Y-80138455D01*
X94026046Y-80136942D01*
X94080689Y-80136019D01*
X94143383Y-80135541D01*
X94217102Y-80135362D01*
X94304820Y-80135334D01*
X94324838Y-80135335D01*
X94409268Y-80135381D01*
X94480325Y-80135609D01*
X94540979Y-80136166D01*
X94594198Y-80137197D01*
X94642948Y-80138848D01*
X94690199Y-80141267D01*
X94738919Y-80144599D01*
X94792076Y-80148990D01*
X94852637Y-80154588D01*
X94923571Y-80161538D01*
X95007846Y-80169986D01*
X95036560Y-80172902D01*
X95110314Y-80180651D01*
X95178576Y-80188188D01*
X95239445Y-80195281D01*
X95291022Y-80201695D01*
X95331405Y-80207199D01*
X95358694Y-80211558D01*
X95370986Y-80214540D01*
X95385384Y-80226045D01*
X95408613Y-80250200D01*
X95438670Y-80284837D01*
X95474182Y-80328109D01*
X95513777Y-80378166D01*
X95556082Y-80433161D01*
X95599725Y-80491246D01*
X95643333Y-80550572D01*
X95685534Y-80609292D01*
X95724955Y-80665557D01*
X95760224Y-80717518D01*
X95789967Y-80763329D01*
X95812814Y-80801140D01*
X95827390Y-80829103D01*
X95832658Y-80840306D01*
X95842620Y-80858137D01*
X95849086Y-80865170D01*
X95849197Y-80865161D01*
X95855546Y-80857605D01*
X95866452Y-80838665D01*
X95879621Y-80812312D01*
X95892033Y-80788155D01*
X95912746Y-80751481D01*
X95937364Y-80710425D01*
X95962854Y-80670164D01*
X95967117Y-80663718D01*
X95990262Y-80630373D01*
X96019695Y-80589923D01*
X96053919Y-80544251D01*
X96091437Y-80495235D01*
X96130752Y-80444756D01*
X96170367Y-80394696D01*
X96208785Y-80346933D01*
X96244508Y-80303349D01*
X96276038Y-80265823D01*
X96301880Y-80236238D01*
X96320536Y-80216472D01*
X96330507Y-80208406D01*
X96332640Y-80207949D01*
X96349521Y-80205572D01*
X96380764Y-80201811D01*
X96424477Y-80196875D01*
X96478772Y-80190969D01*
X96541759Y-80184300D01*
X96611549Y-80177075D01*
X96686253Y-80169500D01*
X96710453Y-80167072D01*
X96789423Y-80159202D01*
X96856198Y-80152755D01*
X96913694Y-80147587D01*
X96964828Y-80143559D01*
X97012517Y-80140526D01*
X97059678Y-80138350D01*
X97109228Y-80136886D01*
X97164083Y-80135995D01*
X97227161Y-80135533D01*
X97301378Y-80135360D01*
X97389651Y-80135334D01*
X97415452Y-80135335D01*
X97499576Y-80135387D01*
X97570444Y-80135625D01*
X97630974Y-80136191D01*
X97684082Y-80137225D01*
X97732686Y-80138870D01*
X97779701Y-80141268D01*
X97828046Y-80144559D01*
X97880636Y-80148887D01*
X97940389Y-80154391D01*
X98010221Y-80161215D01*
X98093050Y-80169500D01*
X98118890Y-80172102D01*
X98192127Y-80179579D01*
X98259802Y-80186635D01*
X98320027Y-80193062D01*
X98370915Y-80198655D01*
X98410575Y-80203208D01*
X98437122Y-80206513D01*
X98448664Y-80208365D01*
X98453415Y-80211502D01*
X98468845Y-80226629D01*
X98492038Y-80252397D01*
X98521486Y-80286915D01*
X98555682Y-80328290D01*
X98593116Y-80374628D01*
X98632282Y-80424038D01*
X98671670Y-80474626D01*
X98709774Y-80524501D01*
X98745084Y-80571768D01*
X98776093Y-80614537D01*
X98801292Y-80650914D01*
X98818064Y-80676857D01*
X98848897Y-80727713D01*
X98881979Y-80785379D01*
X98914302Y-80844565D01*
X98942860Y-80899982D01*
X99014810Y-81045065D01*
X99014810Y-82080414D01*
X99014814Y-82164798D01*
G37*
G36*
X83018599Y-82258152D02*
G01*
X83057717Y-82260150D01*
X83086277Y-82264318D01*
X83106690Y-82271067D01*
X83121368Y-82280809D01*
X83132722Y-82293955D01*
X83139084Y-82305599D01*
X83145378Y-82337614D01*
X83140247Y-82370624D01*
X83124283Y-82397364D01*
X83120502Y-82401087D01*
X83112899Y-82407373D01*
X83103583Y-82411892D01*
X83090012Y-82414937D01*
X83069641Y-82416799D01*
X83039927Y-82417768D01*
X82998327Y-82418136D01*
X82942298Y-82418194D01*
X82927895Y-82418191D01*
X82875220Y-82418047D01*
X82836354Y-82417488D01*
X82808724Y-82416247D01*
X82789761Y-82414056D01*
X82776895Y-82410646D01*
X82767553Y-82405750D01*
X82759166Y-82399100D01*
X82743289Y-82379122D01*
X82732312Y-82349346D01*
X82730934Y-82329145D01*
X82736798Y-82311003D01*
X82753099Y-82289941D01*
X82778764Y-82261195D01*
X82924853Y-82258500D01*
X82966511Y-82257913D01*
X83018599Y-82258152D01*
G37*
G36*
X80413009Y-82002423D02*
G01*
X80456216Y-82002856D01*
X80487230Y-82003940D01*
X80508758Y-82005959D01*
X80523507Y-82009194D01*
X80534186Y-82013929D01*
X80543501Y-82020445D01*
X80562089Y-82039441D01*
X80574602Y-82059856D01*
X80577411Y-82070544D01*
X80575622Y-82101280D01*
X80562679Y-82130345D01*
X80541202Y-82150620D01*
X80541070Y-82150691D01*
X80527506Y-82155544D01*
X80506061Y-82159058D01*
X80474465Y-82161402D01*
X80430447Y-82162747D01*
X80371739Y-82163260D01*
X80361968Y-82163276D01*
X80302304Y-82162820D01*
X80257009Y-82160954D01*
X80223820Y-82157089D01*
X80200472Y-82150632D01*
X80184698Y-82140994D01*
X80174234Y-82127583D01*
X80166816Y-82109808D01*
X80162062Y-82080539D01*
X80171074Y-82048663D01*
X80196577Y-82020445D01*
X80203680Y-82015289D01*
X80213795Y-82010162D01*
X80227344Y-82006599D01*
X80247036Y-82004320D01*
X80275577Y-82003041D01*
X80315675Y-82002481D01*
X80370039Y-82002357D01*
X80413009Y-82002423D01*
G37*
G36*
X87998974Y-80484165D02*
G01*
X88067935Y-80484547D01*
X88152130Y-80485131D01*
X88217623Y-80485608D01*
X88290093Y-80486213D01*
X88348592Y-80486884D01*
X88394826Y-80487723D01*
X88430499Y-80488831D01*
X88457317Y-80490308D01*
X88476985Y-80492254D01*
X88491209Y-80494771D01*
X88501694Y-80497959D01*
X88510144Y-80501919D01*
X88518266Y-80506751D01*
X88526622Y-80511782D01*
X88535843Y-80517424D01*
X88543853Y-80523424D01*
X88550737Y-80530890D01*
X88556581Y-80540929D01*
X88561468Y-80554650D01*
X88565484Y-80573159D01*
X88568714Y-80597565D01*
X88571243Y-80628975D01*
X88573156Y-80668496D01*
X88574538Y-80717237D01*
X88575472Y-80776305D01*
X88576046Y-80846808D01*
X88576342Y-80929853D01*
X88576447Y-81026547D01*
X88576446Y-81138000D01*
X88576422Y-81265317D01*
X88576421Y-81283479D01*
X88576402Y-81404779D01*
X88576342Y-81510404D01*
X88576214Y-81601490D01*
X88575992Y-81679176D01*
X88575647Y-81744600D01*
X88575153Y-81798900D01*
X88574483Y-81843215D01*
X88573610Y-81878684D01*
X88572506Y-81906443D01*
X88571145Y-81927632D01*
X88569499Y-81943388D01*
X88567541Y-81954850D01*
X88565245Y-81963156D01*
X88562582Y-81969445D01*
X88559527Y-81974854D01*
X88558946Y-81975790D01*
X88538997Y-81999834D01*
X88515004Y-82019376D01*
X88511350Y-82021523D01*
X88503425Y-82025341D01*
X88493533Y-82028437D01*
X88480007Y-82030885D01*
X88461179Y-82032761D01*
X88435383Y-82034143D01*
X88400950Y-82035104D01*
X88356214Y-82035722D01*
X88299507Y-82036072D01*
X88229162Y-82036230D01*
X88143511Y-82036271D01*
X88064420Y-82036268D01*
X87986937Y-82036085D01*
X87923472Y-82035464D01*
X87872436Y-82034147D01*
X87832242Y-82031875D01*
X87801300Y-82028390D01*
X87778022Y-82023432D01*
X87760821Y-82016744D01*
X87748107Y-82008067D01*
X87738292Y-81997142D01*
X87729787Y-81983712D01*
X87721005Y-81967517D01*
X87715576Y-81956376D01*
X87704709Y-81913267D01*
X87710397Y-81872242D01*
X87732319Y-81834390D01*
X87770153Y-81800804D01*
X87773999Y-81798225D01*
X87782265Y-81793383D01*
X87791841Y-81789594D01*
X87804686Y-81786728D01*
X87822758Y-81784657D01*
X87848014Y-81783252D01*
X87882412Y-81782384D01*
X87927909Y-81781923D01*
X87986464Y-81781741D01*
X88060034Y-81781709D01*
X88321860Y-81781709D01*
X88321860Y-81357386D01*
X88149142Y-81357386D01*
X88121691Y-81357374D01*
X88069710Y-81357173D01*
X88031049Y-81356534D01*
X88003161Y-81355215D01*
X87983503Y-81352973D01*
X87969528Y-81349566D01*
X87958692Y-81344753D01*
X87948451Y-81338291D01*
X87943225Y-81334491D01*
X87915576Y-81305554D01*
X87896293Y-81270269D01*
X87889050Y-81235022D01*
X87890129Y-81220986D01*
X87902532Y-81182111D01*
X87925758Y-81146723D01*
X87955976Y-81121327D01*
X87957132Y-81120680D01*
X87969506Y-81114434D01*
X87982714Y-81109835D01*
X87999446Y-81106633D01*
X88022392Y-81104577D01*
X88054241Y-81103419D01*
X88097683Y-81102907D01*
X88155407Y-81102792D01*
X88321860Y-81102792D01*
X88321860Y-80746360D01*
X88069387Y-80746174D01*
X88037810Y-80746138D01*
X87970919Y-80745920D01*
X87918116Y-80745423D01*
X87877346Y-80744533D01*
X87846556Y-80743135D01*
X87823693Y-80741117D01*
X87806703Y-80738362D01*
X87793533Y-80734758D01*
X87782129Y-80730190D01*
X87750578Y-80710533D01*
X87723214Y-80678639D01*
X87708607Y-80641303D01*
X87706807Y-80601752D01*
X87717861Y-80563215D01*
X87741818Y-80528923D01*
X87778726Y-80502104D01*
X87787267Y-80497866D01*
X87796892Y-80493787D01*
X87807854Y-80490542D01*
X87821889Y-80488052D01*
X87840735Y-80486239D01*
X87866129Y-80485022D01*
X87899809Y-80484323D01*
X87943511Y-80484064D01*
X87998974Y-80484165D01*
G37*
G36*
X82575824Y-82777191D02*
G01*
X82607871Y-82795107D01*
X82631682Y-82815589D01*
X82631682Y-83149500D01*
X82607871Y-83169981D01*
X82596433Y-83178475D01*
X82563504Y-83190389D01*
X82530204Y-83186077D01*
X82499489Y-83165656D01*
X82474683Y-83140850D01*
X82474683Y-82824239D01*
X82499489Y-82799432D01*
X82510306Y-82790051D01*
X82542316Y-82775545D01*
X82575824Y-82777191D01*
G37*
G36*
X82049403Y-80206261D02*
G01*
X82074429Y-80214674D01*
X82099157Y-80233115D01*
X82100559Y-80234744D01*
X82106886Y-80243159D01*
X82111493Y-80253022D01*
X82114652Y-80266921D01*
X82116635Y-80287443D01*
X82117714Y-80317175D01*
X82118162Y-80358706D01*
X82118251Y-80414622D01*
X82118245Y-80439406D01*
X82118085Y-80488923D01*
X82117480Y-80525113D01*
X82116135Y-80550560D01*
X82113754Y-80567848D01*
X82110042Y-80579562D01*
X82104702Y-80588287D01*
X82097440Y-80596607D01*
X82087189Y-80605412D01*
X82057193Y-80617716D01*
X82023851Y-80618358D01*
X81994012Y-80606671D01*
X81985112Y-80599595D01*
X81974212Y-80586370D01*
X81966449Y-80568265D01*
X81961414Y-80542867D01*
X81958695Y-80507765D01*
X81957879Y-80460547D01*
X81958557Y-80398802D01*
X81961251Y-80252713D01*
X81989998Y-80227048D01*
X82009163Y-80211895D01*
X82027246Y-80205084D01*
X82049403Y-80206261D01*
G37*
G36*
X82952800Y-81231544D02*
G01*
X83104189Y-81234332D01*
X83124651Y-81258143D01*
X83134654Y-81272348D01*
X83145280Y-81305760D01*
X83141283Y-81339497D01*
X83122740Y-81368958D01*
X83100367Y-81391332D01*
X82941426Y-81391332D01*
X82893406Y-81391247D01*
X82849398Y-81390788D01*
X82817606Y-81389706D01*
X82795438Y-81387757D01*
X82780305Y-81384695D01*
X82769614Y-81380276D01*
X82760776Y-81374255D01*
X82744760Y-81357161D01*
X82732719Y-81327031D01*
X82733966Y-81294984D01*
X82748030Y-81265525D01*
X82774444Y-81243159D01*
X82775252Y-81242732D01*
X82787455Y-81237590D01*
X82802975Y-81233995D01*
X82824541Y-81231771D01*
X82854881Y-81230740D01*
X82896725Y-81230723D01*
X82952800Y-81231544D01*
G37*
G36*
X82317540Y-80207547D02*
G01*
X82349374Y-80227968D01*
X82377088Y-80252711D01*
X82379832Y-80386685D01*
X82380570Y-80430633D01*
X82380622Y-80482111D01*
X82379159Y-80520868D01*
X82375846Y-80549408D01*
X82370347Y-80570239D01*
X82362328Y-80585866D01*
X82351452Y-80598795D01*
X82333712Y-80611470D01*
X82301827Y-80619762D01*
X82268875Y-80615339D01*
X82240919Y-80598232D01*
X82236991Y-80594237D01*
X82230778Y-80586648D01*
X82226312Y-80577280D01*
X82223303Y-80563600D01*
X82221465Y-80543077D01*
X82220508Y-80513177D01*
X82220146Y-80471369D01*
X82220089Y-80415121D01*
X82220089Y-80252839D01*
X82244895Y-80228033D01*
X82256933Y-80217523D01*
X82286739Y-80204065D01*
X82317540Y-80207547D01*
G37*
G36*
X98424624Y-82263047D02*
G01*
X98437785Y-82264265D01*
X98447233Y-82266493D01*
X98454618Y-82269637D01*
X98464526Y-82275544D01*
X98488206Y-82300451D01*
X98497755Y-82330876D01*
X98492640Y-82363096D01*
X98472329Y-82393388D01*
X98467144Y-82398279D01*
X98447605Y-82412677D01*
X98432018Y-82418738D01*
X98420260Y-82419722D01*
X98393613Y-82422282D01*
X98354069Y-82426218D01*
X98303620Y-82431328D01*
X98244257Y-82437409D01*
X98177973Y-82444261D01*
X98106758Y-82451682D01*
X98056108Y-82456970D01*
X97990731Y-82463693D01*
X97934462Y-82469208D01*
X97884695Y-82473641D01*
X97838820Y-82477116D01*
X97794229Y-82479757D01*
X97748315Y-82481690D01*
X97698469Y-82483039D01*
X97642083Y-82483928D01*
X97576549Y-82484482D01*
X97499258Y-82484825D01*
X97407602Y-82485083D01*
X97018203Y-82486086D01*
X96678936Y-82451929D01*
X96654221Y-82449423D01*
X96581015Y-82441785D01*
X96513331Y-82434411D01*
X96453065Y-82427526D01*
X96402111Y-82421359D01*
X96362366Y-82416136D01*
X96335724Y-82412085D01*
X96324082Y-82409431D01*
X96308010Y-82397948D01*
X96289691Y-82371618D01*
X96282959Y-82340737D01*
X96287624Y-82309711D01*
X96303493Y-82282948D01*
X96330375Y-82264855D01*
X96338109Y-82263552D01*
X96360289Y-82263256D01*
X96396151Y-82264837D01*
X96446326Y-82268341D01*
X96511446Y-82273814D01*
X96592143Y-82281302D01*
X96689050Y-82290850D01*
X96712570Y-82293217D01*
X96790988Y-82301056D01*
X96857313Y-82307480D01*
X96914452Y-82312628D01*
X96965312Y-82316643D01*
X97012798Y-82319664D01*
X97059818Y-82321834D01*
X97109278Y-82323294D01*
X97164085Y-82324183D01*
X97227145Y-82324644D01*
X97301365Y-82324817D01*
X97389651Y-82324843D01*
X97415558Y-82324842D01*
X97499658Y-82324790D01*
X97570495Y-82324553D01*
X97630978Y-82323989D01*
X97684015Y-82322957D01*
X97732514Y-82321316D01*
X97779385Y-82318924D01*
X97827535Y-82315641D01*
X97879872Y-82311325D01*
X97939305Y-82305834D01*
X98008743Y-82299028D01*
X98091094Y-82290765D01*
X98175407Y-82282326D01*
X98245452Y-82275468D01*
X98301895Y-82270196D01*
X98346386Y-82266414D01*
X98380573Y-82264026D01*
X98406103Y-82262935D01*
X98424624Y-82263047D01*
G37*
G36*
X74746295Y-81264913D02*
G01*
X74789786Y-81276522D01*
X74831024Y-81299882D01*
X74865134Y-81331666D01*
X74887240Y-81368546D01*
X74887626Y-81369829D01*
X74889659Y-81386689D01*
X74891410Y-81419867D01*
X74892881Y-81469457D01*
X74894073Y-81535552D01*
X74894988Y-81618244D01*
X74895626Y-81717628D01*
X74895990Y-81833796D01*
X74896080Y-81966842D01*
X74896066Y-82004832D01*
X74895992Y-82112831D01*
X74895849Y-82205521D01*
X74895602Y-82284162D01*
X74895221Y-82350015D01*
X74894671Y-82404341D01*
X74893921Y-82448398D01*
X74892938Y-82483449D01*
X74891688Y-82510754D01*
X74890140Y-82531572D01*
X74888260Y-82547165D01*
X74886016Y-82558792D01*
X74883376Y-82567715D01*
X74880306Y-82575194D01*
X74864056Y-82604324D01*
X74841017Y-82628794D01*
X74807159Y-82650647D01*
X74801731Y-82653340D01*
X74771567Y-82661142D01*
X74729665Y-82661979D01*
X74714642Y-82660777D01*
X74666287Y-82648564D01*
X74627887Y-82623283D01*
X74597571Y-82583826D01*
X74578024Y-82549734D01*
X74573781Y-82095708D01*
X74569537Y-81641682D01*
X74518619Y-81614340D01*
X74505814Y-81607603D01*
X74481488Y-81596558D01*
X74458718Y-81590307D01*
X74431333Y-81587493D01*
X74393161Y-81586759D01*
X74365836Y-81587308D01*
X74312850Y-81593830D01*
X74272275Y-81608515D01*
X74241889Y-81632380D01*
X74219471Y-81666446D01*
X74218710Y-81668015D01*
X74214513Y-81677071D01*
X74211012Y-81686382D01*
X74208142Y-81697469D01*
X74205841Y-81711850D01*
X74204047Y-81731046D01*
X74202696Y-81756577D01*
X74201725Y-81789962D01*
X74201072Y-81832721D01*
X74200673Y-81886373D01*
X74200466Y-81952440D01*
X74200388Y-82032439D01*
X74200376Y-82127892D01*
X74200372Y-82165517D01*
X74200309Y-82255519D01*
X74200128Y-82330587D01*
X74199777Y-82392207D01*
X74199205Y-82441865D01*
X74198358Y-82481047D01*
X74197186Y-82511240D01*
X74195637Y-82533928D01*
X74193659Y-82550598D01*
X74191200Y-82562735D01*
X74188208Y-82571826D01*
X74184631Y-82579357D01*
X74155152Y-82618404D01*
X74116613Y-82646119D01*
X74072499Y-82661697D01*
X74026231Y-82664444D01*
X73981232Y-82653669D01*
X73940924Y-82628678D01*
X73929577Y-82618882D01*
X73918930Y-82609325D01*
X73910004Y-82599637D01*
X73902647Y-82588413D01*
X73896708Y-82574250D01*
X73892037Y-82555745D01*
X73888481Y-82531495D01*
X73885890Y-82500095D01*
X73884112Y-82460143D01*
X73882997Y-82410235D01*
X73882392Y-82348968D01*
X73882148Y-82274939D01*
X73882112Y-82186743D01*
X73882134Y-82082979D01*
X73882134Y-81616223D01*
X73939481Y-81504887D01*
X73944536Y-81495086D01*
X73967631Y-81451434D01*
X73987374Y-81418430D01*
X74006885Y-81393103D01*
X74029285Y-81372479D01*
X74057696Y-81353584D01*
X74095240Y-81333446D01*
X74145037Y-81309092D01*
X74229725Y-81268278D01*
X74380721Y-81265618D01*
X74434671Y-81264771D01*
X74475354Y-81264593D01*
X74505186Y-81265382D01*
X74527241Y-81267422D01*
X74544595Y-81271001D01*
X74560322Y-81276405D01*
X74577498Y-81283918D01*
X74623279Y-81304877D01*
X74663617Y-81284456D01*
X74677917Y-81278017D01*
X74708630Y-81268061D01*
X74734340Y-81264221D01*
X74746295Y-81264913D01*
G37*
G36*
X90231192Y-82263440D02*
G01*
X90265712Y-82265860D01*
X90310574Y-82269673D01*
X90367412Y-82274974D01*
X90437862Y-82281860D01*
X90523557Y-82290428D01*
X90541270Y-82292209D01*
X90622163Y-82300297D01*
X90690412Y-82306924D01*
X90748978Y-82312236D01*
X90800824Y-82316379D01*
X90848911Y-82319497D01*
X90896200Y-82321737D01*
X90945654Y-82323243D01*
X91000234Y-82324161D01*
X91062901Y-82324637D01*
X91136619Y-82324816D01*
X91224347Y-82324843D01*
X91240040Y-82324843D01*
X91325317Y-82324799D01*
X91397061Y-82324578D01*
X91458223Y-82324035D01*
X91511753Y-82323028D01*
X91560602Y-82321411D01*
X91607719Y-82319041D01*
X91656055Y-82315774D01*
X91708559Y-82311465D01*
X91768183Y-82305971D01*
X91837876Y-82299147D01*
X91920589Y-82290850D01*
X91990276Y-82283936D01*
X92075749Y-82275838D01*
X92145456Y-82269768D01*
X92200029Y-82265681D01*
X92240100Y-82263530D01*
X92266301Y-82263270D01*
X92279265Y-82264855D01*
X92281466Y-82265731D01*
X92307722Y-82284469D01*
X92322945Y-82311334D01*
X92327240Y-82342037D01*
X92320712Y-82372285D01*
X92303467Y-82397787D01*
X92275609Y-82414251D01*
X92275607Y-82414252D01*
X92263132Y-82416442D01*
X92235785Y-82420092D01*
X92195579Y-82424969D01*
X92144531Y-82430841D01*
X92084653Y-82437476D01*
X92017962Y-82444644D01*
X91946471Y-82452111D01*
X91894597Y-82457442D01*
X91829382Y-82464035D01*
X91773128Y-82469449D01*
X91723241Y-82473803D01*
X91677129Y-82477220D01*
X91632198Y-82479821D01*
X91585855Y-82481727D01*
X91535506Y-82483061D01*
X91478558Y-82483943D01*
X91412417Y-82484494D01*
X91334490Y-82484838D01*
X91242183Y-82485094D01*
X90848541Y-82486086D01*
X90508104Y-82451969D01*
X90469223Y-82448068D01*
X90386478Y-82439659D01*
X90318468Y-82432410D01*
X90263667Y-82425964D01*
X90220552Y-82419963D01*
X90187595Y-82414049D01*
X90163273Y-82407863D01*
X90146060Y-82401048D01*
X90134430Y-82393245D01*
X90126859Y-82384096D01*
X90121822Y-82373244D01*
X90117793Y-82360329D01*
X90116690Y-82355998D01*
X90116818Y-82321773D01*
X90130891Y-82290913D01*
X90156619Y-82268811D01*
X90163851Y-82265760D01*
X90173345Y-82263573D01*
X90186643Y-82262393D01*
X90205381Y-82262317D01*
X90231192Y-82263440D01*
G37*
G36*
X80408812Y-81747844D02*
G01*
X80460601Y-81748591D01*
X80499120Y-81750636D01*
X80526673Y-81754589D01*
X80545565Y-81761063D01*
X80558100Y-81770670D01*
X80566583Y-81784022D01*
X80573319Y-81801729D01*
X80577225Y-81821328D01*
X80572200Y-81855212D01*
X80553382Y-81883785D01*
X80522795Y-81902985D01*
X80514768Y-81904198D01*
X80491543Y-81905678D01*
X80456758Y-81906930D01*
X80413491Y-81907851D01*
X80364818Y-81908336D01*
X80328360Y-81908457D01*
X80284638Y-81908265D01*
X80253314Y-81907364D01*
X80231615Y-81905465D01*
X80216773Y-81902282D01*
X80206017Y-81897529D01*
X80196577Y-81890919D01*
X80174568Y-81868203D01*
X80162487Y-81837019D01*
X80166758Y-81801729D01*
X80170755Y-81790455D01*
X80178273Y-81775458D01*
X80188934Y-81764446D01*
X80205043Y-81756809D01*
X80228903Y-81751934D01*
X80262819Y-81749209D01*
X80309096Y-81748023D01*
X80370039Y-81747763D01*
X80408812Y-81747844D01*
G37*
%TD*%
%LPC*%
D11*
%TO.C,REF\u002A\u002A*%
X59272250Y-63817500D03*
X59272250Y-62547500D03*
X59272250Y-65087500D03*
X59272250Y-66357500D03*
X59272250Y-67627500D03*
%TD*%
%TO.C,REF\u002A\u002A*%
X112167750Y-66357500D03*
X112167750Y-67627500D03*
X112167750Y-65087500D03*
X112167750Y-63817500D03*
X112167750Y-62547500D03*
%TD*%
%TO.C,REF\u002A\u002A*%
X112167750Y-87000000D03*
X112167750Y-88270000D03*
X112167750Y-85730000D03*
X112167750Y-84460000D03*
X112167750Y-83190000D03*
%TD*%
%TO.C,REF\u002A\u002A*%
X59272250Y-84455000D03*
X59272250Y-83185000D03*
X59272250Y-85725000D03*
X59272250Y-86995000D03*
X59272250Y-88265000D03*
%TD*%
%TO.C,REF\u002A\u002A*%
X96515000Y-68802250D03*
X97785000Y-68802250D03*
X95245000Y-68802250D03*
X93975000Y-68802250D03*
X92705000Y-68802250D03*
%TD*%
%TO.C,REF\u002A\u002A*%
X73655000Y-68802250D03*
X74925000Y-68802250D03*
X78735000Y-68802250D03*
X77465000Y-68802250D03*
X76195000Y-68802250D03*
%TD*%
D12*
%TO.C,J12*%
X60473750Y-88106250D03*
X63013750Y-88106250D03*
X65553750Y-88106250D03*
D13*
X68093750Y-88106250D03*
%TD*%
D12*
%TO.C,J7*%
X92868750Y-69998750D03*
X92868750Y-72538750D03*
X92868750Y-75078750D03*
D13*
X92868750Y-77618750D03*
%TD*%
D12*
%TO.C,J5*%
X97631250Y-77638750D03*
X97631250Y-75098750D03*
X97631250Y-72558750D03*
D13*
X97631250Y-70018750D03*
%TD*%
D12*
%TO.C,J3*%
X78581250Y-77638750D03*
X78581250Y-75098750D03*
X78581250Y-72558750D03*
D13*
X78581250Y-70018750D03*
%TD*%
D14*
%TO.C,J4*%
X97415000Y-77638750D03*
X93075000Y-77638750D03*
X97415000Y-75098750D03*
X93075000Y-75098750D03*
X97415000Y-72558750D03*
X93075000Y-72558750D03*
X97415000Y-70018750D03*
X93075000Y-70018750D03*
%TD*%
D12*
%TO.C,J9*%
X110976250Y-83343750D03*
X108436250Y-83343750D03*
X105896250Y-83343750D03*
D13*
X103356250Y-83343750D03*
%TD*%
D12*
%TO.C,J8*%
X68113750Y-83343750D03*
X65573750Y-83343750D03*
X63033750Y-83343750D03*
D13*
X60493750Y-83343750D03*
%TD*%
D12*
%TO.C,J6*%
X73818750Y-69998750D03*
X73818750Y-72538750D03*
X73818750Y-75078750D03*
D13*
X73818750Y-77618750D03*
%TD*%
D15*
%TO.C,J10*%
X68113750Y-83560000D03*
X68113750Y-87900000D03*
X65573750Y-83560000D03*
X65573750Y-87900000D03*
X63033750Y-83560000D03*
X63033750Y-87900000D03*
X60493750Y-83560000D03*
X60493750Y-87900000D03*
%TD*%
D12*
%TO.C,J13*%
X103336250Y-88106250D03*
X105876250Y-88106250D03*
X108416250Y-88106250D03*
D13*
X110956250Y-88106250D03*
%TD*%
D14*
%TO.C,J2*%
X78365000Y-77638750D03*
X74025000Y-77638750D03*
X78365000Y-75098750D03*
X74025000Y-75098750D03*
X78365000Y-72558750D03*
X74025000Y-72558750D03*
X78365000Y-70018750D03*
X74025000Y-70018750D03*
%TD*%
D15*
%TO.C,J11*%
X110976250Y-83560000D03*
X110976250Y-87900000D03*
X108436250Y-83560000D03*
X108436250Y-87900000D03*
X105896250Y-83560000D03*
X105896250Y-87900000D03*
X103356250Y-83560000D03*
X103356250Y-87900000D03*
%TD*%
M02*
