%TF.GenerationSoftware,KiCad,Pcbnew,(5.99.0-12112-g0cd8a4d846)*%
%TF.CreationDate,2021-10-21T21:26:21-04:00*%
%TF.ProjectId,Piggyback_1_0_PCB,50696767-7962-4616-936b-5f315f305f50,rev?*%
%TF.SameCoordinates,Original*%
%TF.FileFunction,Legend,Top*%
%TF.FilePolarity,Positive*%
%FSLAX46Y46*%
G04 Gerber Fmt 4.6, Leading zero omitted, Abs format (unit mm)*
G04 Created by KiCad (PCBNEW (5.99.0-12112-g0cd8a4d846)) date 2021-10-21 21:26:21*
%MOMM*%
%LPD*%
G01*
G04 APERTURE LIST*
G04 Aperture macros list*
%AMRoundRect*
0 Rectangle with rounded corners*
0 $1 Rounding radius*
0 $2 $3 $4 $5 $6 $7 $8 $9 X,Y pos of 4 corners*
0 Add a 4 corners polygon primitive as box body*
4,1,4,$2,$3,$4,$5,$6,$7,$8,$9,$2,$3,0*
0 Add four circle primitives for the rounded corners*
1,1,$1+$1,$2,$3*
1,1,$1+$1,$4,$5*
1,1,$1+$1,$6,$7*
1,1,$1+$1,$8,$9*
0 Add four rect primitives between the rounded corners*
20,1,$1+$1,$2,$3,$4,$5,0*
20,1,$1+$1,$4,$5,$6,$7,0*
20,1,$1+$1,$6,$7,$8,$9,0*
20,1,$1+$1,$8,$9,$2,$3,0*%
G04 Aperture macros list end*
%ADD10C,0.120000*%
%ADD11C,0.150000*%
%ADD12C,0.300000*%
%ADD13C,0.200000*%
%ADD14C,0.787400*%
%ADD15R,1.000000X1.150000*%
%ADD16RoundRect,0.140000X0.170000X-0.140000X0.170000X0.140000X-0.170000X0.140000X-0.170000X-0.140000X0*%
%ADD17RoundRect,0.140000X0.140000X0.170000X-0.140000X0.170000X-0.140000X-0.170000X0.140000X-0.170000X0*%
%ADD18RoundRect,0.140000X-0.140000X-0.170000X0.140000X-0.170000X0.140000X0.170000X-0.140000X0.170000X0*%
%ADD19RoundRect,0.135000X0.135000X0.185000X-0.135000X0.185000X-0.135000X-0.185000X0.135000X-0.185000X0*%
%ADD20RoundRect,0.135000X-0.185000X0.135000X-0.185000X-0.135000X0.185000X-0.135000X0.185000X0.135000X0*%
%ADD21R,0.650000X1.050000*%
%ADD22RoundRect,0.250000X-0.625000X0.375000X-0.625000X-0.375000X0.625000X-0.375000X0.625000X0.375000X0*%
%ADD23O,1.700000X1.700000*%
%ADD24C,1.700000*%
%ADD25R,0.650000X1.060000*%
%ADD26O,3.000000X1.700000*%
%ADD27O,1.700000X3.000000*%
%ADD28R,5.200000X5.200000*%
%ADD29RoundRect,0.062500X-0.375000X0.062500X-0.375000X-0.062500X0.375000X-0.062500X0.375000X0.062500X0*%
%ADD30RoundRect,0.062500X-0.475000X0.062500X-0.475000X-0.062500X0.475000X-0.062500X0.475000X0.062500X0*%
%ADD31RoundRect,0.062500X-0.062500X0.375000X-0.062500X-0.375000X0.062500X-0.375000X0.062500X0.375000X0*%
%ADD32RoundRect,0.062500X-0.062500X0.475000X-0.062500X-0.475000X0.062500X-0.475000X0.062500X0.475000X0*%
G04 APERTURE END LIST*
D10*
X57473782Y-64293750D02*
G75*
G03*
X57473782Y-64293750I-1122532J0D01*
G01*
X57473782Y-85725000D02*
G75*
G03*
X57473782Y-85725000I-1122532J0D01*
G01*
X116211282Y-85725000D02*
G75*
G03*
X116211282Y-85725000I-1122532J0D01*
G01*
X116211282Y-64293750D02*
G75*
G03*
X116211282Y-64293750I-1122532J0D01*
G01*
X56351250Y-84137500D02*
X57145000Y-83343750D01*
X56351250Y-84137500D02*
X55557500Y-83343750D01*
X56351250Y-80962500D02*
X56351250Y-84137500D01*
X56351250Y-65881250D02*
X57145000Y-66675000D01*
X56351250Y-65881250D02*
X55557500Y-66675000D01*
X56351250Y-69056250D02*
X56351250Y-65881250D01*
X115088750Y-84137500D02*
X114295000Y-83343750D01*
X115088750Y-84137500D02*
X115882500Y-83343750D01*
X115088750Y-80962500D02*
X115088750Y-84137500D01*
X115088750Y-65881250D02*
X114295000Y-66675000D01*
X115088750Y-65881250D02*
X115882500Y-66675000D01*
X115088750Y-69056250D02*
X115088750Y-65881250D01*
D11*
X56422678Y-70160119D02*
X56422678Y-69826785D01*
X55898869Y-69826785D02*
X56898869Y-69826785D01*
X56898869Y-70302976D01*
X55898869Y-70683928D02*
X56565535Y-70683928D01*
X56898869Y-70683928D02*
X56851250Y-70636309D01*
X56803630Y-70683928D01*
X56851250Y-70731547D01*
X56898869Y-70683928D01*
X56803630Y-70683928D01*
X55898869Y-71588690D02*
X56898869Y-71588690D01*
X55946488Y-71588690D02*
X55898869Y-71493452D01*
X55898869Y-71302976D01*
X55946488Y-71207738D01*
X55994107Y-71160119D01*
X56089345Y-71112500D01*
X56375059Y-71112500D01*
X56470297Y-71160119D01*
X56517916Y-71207738D01*
X56565535Y-71302976D01*
X56565535Y-71493452D01*
X56517916Y-71588690D01*
X56565535Y-72493452D02*
X55898869Y-72493452D01*
X56565535Y-72064880D02*
X56041726Y-72064880D01*
X55946488Y-72112500D01*
X55898869Y-72207738D01*
X55898869Y-72350595D01*
X55946488Y-72445833D01*
X55994107Y-72493452D01*
X55946488Y-73398214D02*
X55898869Y-73302976D01*
X55898869Y-73112500D01*
X55946488Y-73017261D01*
X55994107Y-72969642D01*
X56089345Y-72922023D01*
X56375059Y-72922023D01*
X56470297Y-72969642D01*
X56517916Y-73017261D01*
X56565535Y-73112500D01*
X56565535Y-73302976D01*
X56517916Y-73398214D01*
X55898869Y-73826785D02*
X56565535Y-73826785D01*
X56898869Y-73826785D02*
X56851250Y-73779166D01*
X56803630Y-73826785D01*
X56851250Y-73874404D01*
X56898869Y-73826785D01*
X56803630Y-73826785D01*
X55898869Y-74731547D02*
X56422678Y-74731547D01*
X56517916Y-74683928D01*
X56565535Y-74588690D01*
X56565535Y-74398214D01*
X56517916Y-74302976D01*
X55946488Y-74731547D02*
X55898869Y-74636309D01*
X55898869Y-74398214D01*
X55946488Y-74302976D01*
X56041726Y-74255357D01*
X56136964Y-74255357D01*
X56232202Y-74302976D01*
X56279821Y-74398214D01*
X56279821Y-74636309D01*
X56327440Y-74731547D01*
X55898869Y-75350595D02*
X55946488Y-75255357D01*
X56041726Y-75207738D01*
X56898869Y-75207738D01*
X55898869Y-76493452D02*
X56898869Y-76493452D01*
X56422678Y-76493452D02*
X56422678Y-77064880D01*
X55898869Y-77064880D02*
X56898869Y-77064880D01*
X55946488Y-77922023D02*
X55898869Y-77826785D01*
X55898869Y-77636309D01*
X55946488Y-77541071D01*
X56041726Y-77493452D01*
X56422678Y-77493452D01*
X56517916Y-77541071D01*
X56565535Y-77636309D01*
X56565535Y-77826785D01*
X56517916Y-77922023D01*
X56422678Y-77969642D01*
X56327440Y-77969642D01*
X56232202Y-77493452D01*
X55898869Y-78398214D02*
X56565535Y-78398214D01*
X56375059Y-78398214D02*
X56470297Y-78445833D01*
X56517916Y-78493452D01*
X56565535Y-78588690D01*
X56565535Y-78683928D01*
X55946488Y-79398214D02*
X55898869Y-79302976D01*
X55898869Y-79112500D01*
X55946488Y-79017261D01*
X56041726Y-78969642D01*
X56422678Y-78969642D01*
X56517916Y-79017261D01*
X56565535Y-79112500D01*
X56565535Y-79302976D01*
X56517916Y-79398214D01*
X56422678Y-79445833D01*
X56327440Y-79445833D01*
X56232202Y-78969642D01*
X115017321Y-79858630D02*
X115017321Y-80191964D01*
X115541130Y-80191964D02*
X114541130Y-80191964D01*
X114541130Y-79715773D01*
X115541130Y-79334821D02*
X114874464Y-79334821D01*
X114541130Y-79334821D02*
X114588750Y-79382440D01*
X114636369Y-79334821D01*
X114588750Y-79287202D01*
X114541130Y-79334821D01*
X114636369Y-79334821D01*
X115541130Y-78430059D02*
X114541130Y-78430059D01*
X115493511Y-78430059D02*
X115541130Y-78525297D01*
X115541130Y-78715773D01*
X115493511Y-78811011D01*
X115445892Y-78858630D01*
X115350654Y-78906250D01*
X115064940Y-78906250D01*
X114969702Y-78858630D01*
X114922083Y-78811011D01*
X114874464Y-78715773D01*
X114874464Y-78525297D01*
X114922083Y-78430059D01*
X114874464Y-77525297D02*
X115541130Y-77525297D01*
X114874464Y-77953869D02*
X115398273Y-77953869D01*
X115493511Y-77906250D01*
X115541130Y-77811011D01*
X115541130Y-77668154D01*
X115493511Y-77572916D01*
X115445892Y-77525297D01*
X115493511Y-76620535D02*
X115541130Y-76715773D01*
X115541130Y-76906250D01*
X115493511Y-77001488D01*
X115445892Y-77049107D01*
X115350654Y-77096726D01*
X115064940Y-77096726D01*
X114969702Y-77049107D01*
X114922083Y-77001488D01*
X114874464Y-76906250D01*
X114874464Y-76715773D01*
X114922083Y-76620535D01*
X115541130Y-76191964D02*
X114874464Y-76191964D01*
X114541130Y-76191964D02*
X114588750Y-76239583D01*
X114636369Y-76191964D01*
X114588750Y-76144345D01*
X114541130Y-76191964D01*
X114636369Y-76191964D01*
X115541130Y-75287202D02*
X115017321Y-75287202D01*
X114922083Y-75334821D01*
X114874464Y-75430059D01*
X114874464Y-75620535D01*
X114922083Y-75715773D01*
X115493511Y-75287202D02*
X115541130Y-75382440D01*
X115541130Y-75620535D01*
X115493511Y-75715773D01*
X115398273Y-75763392D01*
X115303035Y-75763392D01*
X115207797Y-75715773D01*
X115160178Y-75620535D01*
X115160178Y-75382440D01*
X115112559Y-75287202D01*
X115541130Y-74668154D02*
X115493511Y-74763392D01*
X115398273Y-74811011D01*
X114541130Y-74811011D01*
X115541130Y-73525297D02*
X114541130Y-73525297D01*
X115017321Y-73525297D02*
X115017321Y-72953869D01*
X115541130Y-72953869D02*
X114541130Y-72953869D01*
X115493511Y-72096726D02*
X115541130Y-72191964D01*
X115541130Y-72382440D01*
X115493511Y-72477678D01*
X115398273Y-72525297D01*
X115017321Y-72525297D01*
X114922083Y-72477678D01*
X114874464Y-72382440D01*
X114874464Y-72191964D01*
X114922083Y-72096726D01*
X115017321Y-72049107D01*
X115112559Y-72049107D01*
X115207797Y-72525297D01*
X115541130Y-71620535D02*
X114874464Y-71620535D01*
X115064940Y-71620535D02*
X114969702Y-71572916D01*
X114922083Y-71525297D01*
X114874464Y-71430059D01*
X114874464Y-71334821D01*
X115493511Y-70620535D02*
X115541130Y-70715773D01*
X115541130Y-70906250D01*
X115493511Y-71001488D01*
X115398273Y-71049107D01*
X115017321Y-71049107D01*
X114922083Y-71001488D01*
X114874464Y-70906250D01*
X114874464Y-70715773D01*
X114922083Y-70620535D01*
X115017321Y-70572916D01*
X115112559Y-70572916D01*
X115207797Y-71049107D01*
X71575952Y-64539880D02*
X71575952Y-65254166D01*
X71528333Y-65397023D01*
X71433095Y-65492261D01*
X71290238Y-65539880D01*
X71195000Y-65539880D01*
X72528333Y-65539880D02*
X72052142Y-65539880D01*
X72052142Y-64539880D01*
X73433095Y-65444642D02*
X73385476Y-65492261D01*
X73242619Y-65539880D01*
X73147380Y-65539880D01*
X73004523Y-65492261D01*
X72909285Y-65397023D01*
X72861666Y-65301785D01*
X72814047Y-65111309D01*
X72814047Y-64968452D01*
X72861666Y-64777976D01*
X72909285Y-64682738D01*
X73004523Y-64587500D01*
X73147380Y-64539880D01*
X73242619Y-64539880D01*
X73385476Y-64587500D01*
X73433095Y-64635119D01*
X74147380Y-64539880D02*
X74147380Y-65254166D01*
X74099761Y-65397023D01*
X74004523Y-65492261D01*
X73861666Y-65539880D01*
X73766428Y-65539880D01*
X75099761Y-65539880D02*
X74623571Y-65539880D01*
X74623571Y-64539880D01*
X76004523Y-65444642D02*
X75956904Y-65492261D01*
X75814047Y-65539880D01*
X75718809Y-65539880D01*
X75575952Y-65492261D01*
X75480714Y-65397023D01*
X75433095Y-65301785D01*
X75385476Y-65111309D01*
X75385476Y-64968452D01*
X75433095Y-64777976D01*
X75480714Y-64682738D01*
X75575952Y-64587500D01*
X75718809Y-64539880D01*
X75814047Y-64539880D01*
X75956904Y-64587500D01*
X76004523Y-64635119D01*
X76718809Y-64539880D02*
X76718809Y-65254166D01*
X76671190Y-65397023D01*
X76575952Y-65492261D01*
X76433095Y-65539880D01*
X76337857Y-65539880D01*
X77671190Y-65539880D02*
X77195000Y-65539880D01*
X77195000Y-64539880D01*
X78575952Y-65444642D02*
X78528333Y-65492261D01*
X78385476Y-65539880D01*
X78290238Y-65539880D01*
X78147380Y-65492261D01*
X78052142Y-65397023D01*
X78004523Y-65301785D01*
X77956904Y-65111309D01*
X77956904Y-64968452D01*
X78004523Y-64777976D01*
X78052142Y-64682738D01*
X78147380Y-64587500D01*
X78290238Y-64539880D01*
X78385476Y-64539880D01*
X78528333Y-64587500D01*
X78575952Y-64635119D01*
X79290238Y-64539880D02*
X79290238Y-65254166D01*
X79242619Y-65397023D01*
X79147380Y-65492261D01*
X79004523Y-65539880D01*
X78909285Y-65539880D01*
X80242619Y-65539880D02*
X79766428Y-65539880D01*
X79766428Y-64539880D01*
X81147380Y-65444642D02*
X81099761Y-65492261D01*
X80956904Y-65539880D01*
X80861666Y-65539880D01*
X80718809Y-65492261D01*
X80623571Y-65397023D01*
X80575952Y-65301785D01*
X80528333Y-65111309D01*
X80528333Y-64968452D01*
X80575952Y-64777976D01*
X80623571Y-64682738D01*
X80718809Y-64587500D01*
X80861666Y-64539880D01*
X80956904Y-64539880D01*
X81099761Y-64587500D01*
X81147380Y-64635119D01*
X109242027Y-84742681D02*
X110242027Y-84742681D01*
X110242027Y-84885538D01*
X110194408Y-84971253D01*
X110099169Y-85028395D01*
X110003931Y-85056967D01*
X109813455Y-85085538D01*
X109670598Y-85085538D01*
X109480122Y-85056967D01*
X109384884Y-85028395D01*
X109289646Y-84971253D01*
X109242027Y-84885538D01*
X109242027Y-84742681D01*
X109622979Y-85342681D02*
X109622979Y-85799824D01*
X109242027Y-85571253D02*
X110003931Y-85571253D01*
X109242027Y-86542681D02*
X110242027Y-86542681D01*
X110242027Y-86685538D01*
X110194408Y-86771253D01*
X110099169Y-86828395D01*
X110003931Y-86856967D01*
X109813455Y-86885538D01*
X109670598Y-86885538D01*
X109480122Y-86856967D01*
X109384884Y-86828395D01*
X109289646Y-86771253D01*
X109242027Y-86685538D01*
X109242027Y-86542681D01*
X109622979Y-87142681D02*
X109622979Y-87599824D01*
X62153630Y-85867857D02*
X62153630Y-86153571D01*
X62629821Y-86182142D01*
X62582202Y-86153571D01*
X62534583Y-86096428D01*
X62534583Y-85953571D01*
X62582202Y-85896428D01*
X62629821Y-85867857D01*
X62725059Y-85839285D01*
X62963154Y-85839285D01*
X63058392Y-85867857D01*
X63106011Y-85896428D01*
X63153630Y-85953571D01*
X63153630Y-86096428D01*
X63106011Y-86153571D01*
X63058392Y-86182142D01*
X63153630Y-85267857D02*
X63153630Y-85610714D01*
X63153630Y-85439285D02*
X62153630Y-85439285D01*
X62296488Y-85496428D01*
X62391726Y-85553571D01*
X62439345Y-85610714D01*
D12*
X76307142Y-70541607D02*
X76521428Y-70613035D01*
X76592857Y-70684464D01*
X76664285Y-70827321D01*
X76664285Y-71041607D01*
X76592857Y-71184464D01*
X76521428Y-71255892D01*
X76378571Y-71327321D01*
X75807142Y-71327321D01*
X75807142Y-69827321D01*
X76307142Y-69827321D01*
X76450000Y-69898750D01*
X76521428Y-69970178D01*
X76592857Y-70113035D01*
X76592857Y-70255892D01*
X76521428Y-70398750D01*
X76450000Y-70470178D01*
X76307142Y-70541607D01*
X75807142Y-70541607D01*
X103445535Y-86189285D02*
X103374107Y-86117857D01*
X103302678Y-85903571D01*
X103302678Y-85760714D01*
X103374107Y-85546428D01*
X103516964Y-85403571D01*
X103659821Y-85332142D01*
X103945535Y-85260714D01*
X104159821Y-85260714D01*
X104445535Y-85332142D01*
X104588392Y-85403571D01*
X104731250Y-85546428D01*
X104802678Y-85760714D01*
X104802678Y-85903571D01*
X104731250Y-86117857D01*
X104659821Y-86189285D01*
D11*
X76052142Y-74858630D02*
X75766428Y-74858630D01*
X75737857Y-75334821D01*
X75766428Y-75287202D01*
X75823571Y-75239583D01*
X75966428Y-75239583D01*
X76023571Y-75287202D01*
X76052142Y-75334821D01*
X76080714Y-75430059D01*
X76080714Y-75668154D01*
X76052142Y-75763392D01*
X76023571Y-75811011D01*
X75966428Y-75858630D01*
X75823571Y-75858630D01*
X75766428Y-75811011D01*
X75737857Y-75763392D01*
X76280714Y-74858630D02*
X76680714Y-74858630D01*
X76423571Y-75858630D01*
X65328630Y-85896428D02*
X65328630Y-86010714D01*
X65376250Y-86067857D01*
X65423869Y-86096428D01*
X65566726Y-86153571D01*
X65757202Y-86182142D01*
X66138154Y-86182142D01*
X66233392Y-86153571D01*
X66281011Y-86125000D01*
X66328630Y-86067857D01*
X66328630Y-85953571D01*
X66281011Y-85896428D01*
X66233392Y-85867857D01*
X66138154Y-85839285D01*
X65900059Y-85839285D01*
X65804821Y-85867857D01*
X65757202Y-85896428D01*
X65709583Y-85953571D01*
X65709583Y-86067857D01*
X65757202Y-86125000D01*
X65804821Y-86153571D01*
X65900059Y-86182142D01*
X65328630Y-85639285D02*
X65328630Y-85267857D01*
X65709583Y-85467857D01*
X65709583Y-85382142D01*
X65757202Y-85325000D01*
X65804821Y-85296428D01*
X65900059Y-85267857D01*
X66138154Y-85267857D01*
X66233392Y-85296428D01*
X66281011Y-85325000D01*
X66328630Y-85382142D01*
X66328630Y-85553571D01*
X66281011Y-85610714D01*
X66233392Y-85639285D01*
D12*
X61792321Y-86117857D02*
X60292321Y-86117857D01*
X60292321Y-85760714D01*
X60363750Y-85546428D01*
X60506607Y-85403571D01*
X60649464Y-85332142D01*
X60935178Y-85260714D01*
X61149464Y-85260714D01*
X61435178Y-85332142D01*
X61578035Y-85403571D01*
X61720892Y-85546428D01*
X61792321Y-85760714D01*
X61792321Y-86117857D01*
D11*
X95130714Y-74271130D02*
X94787857Y-74271130D01*
X94959285Y-74271130D02*
X94959285Y-73271130D01*
X94902142Y-73413988D01*
X94845000Y-73509226D01*
X94787857Y-73556845D01*
X95645000Y-73271130D02*
X95530714Y-73271130D01*
X95473571Y-73318750D01*
X95445000Y-73366369D01*
X95387857Y-73509226D01*
X95359285Y-73699702D01*
X95359285Y-74080654D01*
X95387857Y-74175892D01*
X95416428Y-74223511D01*
X95473571Y-74271130D01*
X95587857Y-74271130D01*
X95645000Y-74223511D01*
X95673571Y-74175892D01*
X95702142Y-74080654D01*
X95702142Y-73842559D01*
X95673571Y-73747321D01*
X95645000Y-73699702D01*
X95587857Y-73652083D01*
X95473571Y-73652083D01*
X95416428Y-73699702D01*
X95387857Y-73747321D01*
X95359285Y-73842559D01*
X107599131Y-84957880D02*
X107646750Y-84900737D01*
X107646750Y-84815023D01*
X107599131Y-84729309D01*
X107503892Y-84672166D01*
X107408654Y-84643594D01*
X107218178Y-84615023D01*
X107075321Y-84615023D01*
X106884845Y-84643594D01*
X106789607Y-84672166D01*
X106694369Y-84729309D01*
X106646750Y-84815023D01*
X106646750Y-84872166D01*
X106694369Y-84957880D01*
X106741988Y-84986451D01*
X107075321Y-84986451D01*
X107075321Y-84872166D01*
X107027702Y-85243594D02*
X107027702Y-85700737D01*
X107646750Y-86357880D02*
X106646750Y-86557880D01*
X107646750Y-86757880D01*
X107027702Y-86957880D02*
X107027702Y-87415023D01*
X106646750Y-87186451D02*
X107408654Y-87186451D01*
X102941369Y-85553571D02*
X102941369Y-85439285D01*
X102893750Y-85382142D01*
X102846130Y-85353571D01*
X102703273Y-85296428D01*
X102512797Y-85267857D01*
X102131845Y-85267857D01*
X102036607Y-85296428D01*
X101988988Y-85325000D01*
X101941369Y-85382142D01*
X101941369Y-85496428D01*
X101988988Y-85553571D01*
X102036607Y-85582142D01*
X102131845Y-85610714D01*
X102369940Y-85610714D01*
X102465178Y-85582142D01*
X102512797Y-85553571D01*
X102560416Y-85496428D01*
X102560416Y-85382142D01*
X102512797Y-85325000D01*
X102465178Y-85296428D01*
X102369940Y-85267857D01*
X102941369Y-85810714D02*
X102941369Y-86210714D01*
X101941369Y-85953571D01*
X76023571Y-76779464D02*
X76023571Y-77446130D01*
X75880714Y-76398511D02*
X75737857Y-77112797D01*
X76109285Y-77112797D01*
X76280714Y-76446130D02*
X76652142Y-76446130D01*
X76452142Y-76827083D01*
X76537857Y-76827083D01*
X76595000Y-76874702D01*
X76623571Y-76922321D01*
X76652142Y-77017559D01*
X76652142Y-77255654D01*
X76623571Y-77350892D01*
X76595000Y-77398511D01*
X76537857Y-77446130D01*
X76366428Y-77446130D01*
X76309285Y-77398511D01*
X76280714Y-77350892D01*
D12*
X94923571Y-76891607D02*
X95423571Y-76891607D01*
X95637857Y-77677321D02*
X94923571Y-77677321D01*
X94923571Y-76177321D01*
X95637857Y-76177321D01*
D11*
X94930714Y-74858630D02*
X94987857Y-74858630D01*
X95045000Y-74906250D01*
X95073571Y-74953869D01*
X95102142Y-75049107D01*
X95130714Y-75239583D01*
X95130714Y-75477678D01*
X95102142Y-75668154D01*
X95073571Y-75763392D01*
X95045000Y-75811011D01*
X94987857Y-75858630D01*
X94930714Y-75858630D01*
X94873571Y-75811011D01*
X94845000Y-75763392D01*
X94816428Y-75668154D01*
X94787857Y-75477678D01*
X94787857Y-75239583D01*
X94816428Y-75049107D01*
X94845000Y-74953869D01*
X94873571Y-74906250D01*
X94930714Y-74858630D01*
X95330714Y-74858630D02*
X95730714Y-74858630D01*
X95473571Y-75858630D01*
X95107142Y-78038630D02*
X94992857Y-78038630D01*
X94935714Y-78086250D01*
X94907142Y-78133869D01*
X94850000Y-78276726D01*
X94821428Y-78467202D01*
X94821428Y-78848154D01*
X94850000Y-78943392D01*
X94878571Y-78991011D01*
X94935714Y-79038630D01*
X95050000Y-79038630D01*
X95107142Y-78991011D01*
X95135714Y-78943392D01*
X95164285Y-78848154D01*
X95164285Y-78610059D01*
X95135714Y-78514821D01*
X95107142Y-78467202D01*
X95050000Y-78419583D01*
X94935714Y-78419583D01*
X94878571Y-78467202D01*
X94850000Y-78514821D01*
X94821428Y-78610059D01*
X95392857Y-78752916D02*
X95678571Y-78752916D01*
X95335714Y-79038630D02*
X95535714Y-78038630D01*
X95735714Y-79038630D01*
X95073571Y-72016964D02*
X95073571Y-72683630D01*
X94930714Y-71636011D02*
X94787857Y-72350297D01*
X95159285Y-72350297D01*
X95673571Y-71683630D02*
X95387857Y-71683630D01*
X95359285Y-72159821D01*
X95387857Y-72112202D01*
X95445000Y-72064583D01*
X95587857Y-72064583D01*
X95645000Y-72112202D01*
X95673571Y-72159821D01*
X95702142Y-72255059D01*
X95702142Y-72493154D01*
X95673571Y-72588392D01*
X95645000Y-72636011D01*
X95587857Y-72683630D01*
X95445000Y-72683630D01*
X95387857Y-72636011D01*
X95359285Y-72588392D01*
D13*
X88634393Y-82356727D02*
X88634393Y-80856727D01*
X89053440Y-80856727D01*
X89158202Y-80928156D01*
X89210583Y-80999584D01*
X89262964Y-81142441D01*
X89262964Y-81356727D01*
X89210583Y-81499584D01*
X89158202Y-81571013D01*
X89053440Y-81642441D01*
X88634393Y-81642441D01*
X89734393Y-82356727D02*
X89734393Y-81356727D01*
X89734393Y-80856727D02*
X89682012Y-80928156D01*
X89734393Y-80999584D01*
X89786774Y-80928156D01*
X89734393Y-80856727D01*
X89734393Y-80999584D01*
X90729631Y-81356727D02*
X90729631Y-82571013D01*
X90677250Y-82713870D01*
X90624869Y-82785298D01*
X90520107Y-82856727D01*
X90362964Y-82856727D01*
X90258202Y-82785298D01*
X90729631Y-82285298D02*
X90624869Y-82356727D01*
X90415345Y-82356727D01*
X90310583Y-82285298D01*
X90258202Y-82213870D01*
X90205821Y-82071013D01*
X90205821Y-81642441D01*
X90258202Y-81499584D01*
X90310583Y-81428156D01*
X90415345Y-81356727D01*
X90624869Y-81356727D01*
X90729631Y-81428156D01*
X91724869Y-81356727D02*
X91724869Y-82571013D01*
X91672488Y-82713870D01*
X91620107Y-82785298D01*
X91515345Y-82856727D01*
X91358202Y-82856727D01*
X91253440Y-82785298D01*
X91724869Y-82285298D02*
X91620107Y-82356727D01*
X91410583Y-82356727D01*
X91305821Y-82285298D01*
X91253440Y-82213870D01*
X91201059Y-82071013D01*
X91201059Y-81642441D01*
X91253440Y-81499584D01*
X91305821Y-81428156D01*
X91410583Y-81356727D01*
X91620107Y-81356727D01*
X91724869Y-81428156D01*
X92143916Y-81356727D02*
X92405821Y-82356727D01*
X92667726Y-81356727D02*
X92405821Y-82356727D01*
X92301059Y-82713870D01*
X92248678Y-82785298D01*
X92143916Y-82856727D01*
X93086774Y-82356727D02*
X93086774Y-80856727D01*
X93086774Y-81428156D02*
X93191535Y-81356727D01*
X93401059Y-81356727D01*
X93505821Y-81428156D01*
X93558202Y-81499584D01*
X93610583Y-81642441D01*
X93610583Y-82071013D01*
X93558202Y-82213870D01*
X93505821Y-82285298D01*
X93401059Y-82356727D01*
X93191535Y-82356727D01*
X93086774Y-82285298D01*
X94553440Y-82356727D02*
X94553440Y-81571013D01*
X94501059Y-81428156D01*
X94396297Y-81356727D01*
X94186774Y-81356727D01*
X94082012Y-81428156D01*
X94553440Y-82285298D02*
X94448678Y-82356727D01*
X94186774Y-82356727D01*
X94082012Y-82285298D01*
X94029631Y-82142441D01*
X94029631Y-81999584D01*
X94082012Y-81856727D01*
X94186774Y-81785298D01*
X94448678Y-81785298D01*
X94553440Y-81713870D01*
X95548678Y-82285298D02*
X95443916Y-82356727D01*
X95234393Y-82356727D01*
X95129631Y-82285298D01*
X95077250Y-82213870D01*
X95024869Y-82071013D01*
X95024869Y-81642441D01*
X95077250Y-81499584D01*
X95129631Y-81428156D01*
X95234393Y-81356727D01*
X95443916Y-81356727D01*
X95548678Y-81428156D01*
X96020107Y-82356727D02*
X96020107Y-80856727D01*
X96124869Y-81785298D02*
X96439155Y-82356727D01*
X96439155Y-81356727D02*
X96020107Y-81928156D01*
X98324869Y-82356727D02*
X97696297Y-82356727D01*
X98010583Y-82356727D02*
X98010583Y-80856727D01*
X97905821Y-81071013D01*
X97801059Y-81213870D01*
X97696297Y-81285298D01*
X98796297Y-82213870D02*
X98848678Y-82285298D01*
X98796297Y-82356727D01*
X98743916Y-82285298D01*
X98796297Y-82213870D01*
X98796297Y-82356727D01*
X99529631Y-80856727D02*
X99634393Y-80856727D01*
X99739155Y-80928156D01*
X99791535Y-80999584D01*
X99843916Y-81142441D01*
X99896297Y-81428156D01*
X99896297Y-81785298D01*
X99843916Y-82071013D01*
X99791535Y-82213870D01*
X99739155Y-82285298D01*
X99634393Y-82356727D01*
X99529631Y-82356727D01*
X99424869Y-82285298D01*
X99372488Y-82213870D01*
X99320107Y-82071013D01*
X99267726Y-81785298D01*
X99267726Y-81428156D01*
X99320107Y-81142441D01*
X99372488Y-80999584D01*
X99424869Y-80928156D01*
X99529631Y-80856727D01*
D11*
X63741130Y-86215714D02*
X63741130Y-85815714D01*
X64741130Y-86072857D01*
X63836369Y-85615714D02*
X63788750Y-85587142D01*
X63741130Y-85530000D01*
X63741130Y-85387142D01*
X63788750Y-85330000D01*
X63836369Y-85301428D01*
X63931607Y-85272857D01*
X64026845Y-85272857D01*
X64169702Y-85301428D01*
X64741130Y-85644285D01*
X64741130Y-85272857D01*
D12*
X95459285Y-70536607D02*
X94959285Y-70536607D01*
X94959285Y-71322321D02*
X94959285Y-69822321D01*
X95673571Y-69822321D01*
D11*
X67249464Y-85896428D02*
X67916130Y-85896428D01*
X66868511Y-86039285D02*
X67582797Y-86182142D01*
X67582797Y-85810714D01*
X66916130Y-85467857D02*
X66916130Y-85410714D01*
X66963750Y-85353571D01*
X67011369Y-85325000D01*
X67106607Y-85296428D01*
X67297083Y-85267857D01*
X67535178Y-85267857D01*
X67725654Y-85296428D01*
X67820892Y-85325000D01*
X67868511Y-85353571D01*
X67916130Y-85410714D01*
X67916130Y-85467857D01*
X67868511Y-85525000D01*
X67820892Y-85553571D01*
X67725654Y-85582142D01*
X67535178Y-85610714D01*
X67297083Y-85610714D01*
X67106607Y-85582142D01*
X67011369Y-85553571D01*
X66963750Y-85525000D01*
X66916130Y-85467857D01*
X75880714Y-71683630D02*
X75937857Y-71683630D01*
X75995000Y-71731250D01*
X76023571Y-71778869D01*
X76052142Y-71874107D01*
X76080714Y-72064583D01*
X76080714Y-72302678D01*
X76052142Y-72493154D01*
X76023571Y-72588392D01*
X75995000Y-72636011D01*
X75937857Y-72683630D01*
X75880714Y-72683630D01*
X75823571Y-72636011D01*
X75795000Y-72588392D01*
X75766428Y-72493154D01*
X75737857Y-72302678D01*
X75737857Y-72064583D01*
X75766428Y-71874107D01*
X75795000Y-71778869D01*
X75823571Y-71731250D01*
X75880714Y-71683630D01*
X76652142Y-72683630D02*
X76309285Y-72683630D01*
X76480714Y-72683630D02*
X76480714Y-71683630D01*
X76423571Y-71826488D01*
X76366428Y-71921726D01*
X76309285Y-71969345D01*
X76023571Y-73271130D02*
X75909285Y-73271130D01*
X75852142Y-73318750D01*
X75823571Y-73366369D01*
X75766428Y-73509226D01*
X75737857Y-73699702D01*
X75737857Y-74080654D01*
X75766428Y-74175892D01*
X75795000Y-74223511D01*
X75852142Y-74271130D01*
X75966428Y-74271130D01*
X76023571Y-74223511D01*
X76052142Y-74175892D01*
X76080714Y-74080654D01*
X76080714Y-73842559D01*
X76052142Y-73747321D01*
X76023571Y-73699702D01*
X75966428Y-73652083D01*
X75852142Y-73652083D01*
X75795000Y-73699702D01*
X75766428Y-73747321D01*
X75737857Y-73842559D01*
X76309285Y-73366369D02*
X76337857Y-73318750D01*
X76395000Y-73271130D01*
X76537857Y-73271130D01*
X76595000Y-73318750D01*
X76623571Y-73366369D01*
X76652142Y-73461607D01*
X76652142Y-73556845D01*
X76623571Y-73699702D01*
X76280714Y-74271130D01*
X76652142Y-74271130D01*
%TO.C,Y1*%
X77957628Y-83761855D02*
X78290961Y-83761855D01*
X77590961Y-83995188D02*
X77957628Y-83761855D01*
X77590961Y-83528522D01*
X78290961Y-82928522D02*
X78290961Y-83328522D01*
X78290961Y-83128522D02*
X77590961Y-83128522D01*
X77690961Y-83195188D01*
X77757628Y-83261855D01*
X77790961Y-83328522D01*
%TO.C,C8*%
X92102977Y-87811480D02*
X92069644Y-87844813D01*
X91969644Y-87878146D01*
X91902977Y-87878146D01*
X91802977Y-87844813D01*
X91736310Y-87778146D01*
X91702977Y-87711480D01*
X91669644Y-87578146D01*
X91669644Y-87478146D01*
X91702977Y-87344813D01*
X91736310Y-87278146D01*
X91802977Y-87211480D01*
X91902977Y-87178146D01*
X91969644Y-87178146D01*
X92069644Y-87211480D01*
X92102977Y-87244813D01*
X92502977Y-87478146D02*
X92436310Y-87444813D01*
X92402977Y-87411480D01*
X92369644Y-87344813D01*
X92369644Y-87311480D01*
X92402977Y-87244813D01*
X92436310Y-87211480D01*
X92502977Y-87178146D01*
X92636310Y-87178146D01*
X92702977Y-87211480D01*
X92736310Y-87244813D01*
X92769644Y-87311480D01*
X92769644Y-87344813D01*
X92736310Y-87411480D01*
X92702977Y-87444813D01*
X92636310Y-87478146D01*
X92502977Y-87478146D01*
X92436310Y-87511480D01*
X92402977Y-87544813D01*
X92369644Y-87611480D01*
X92369644Y-87744813D01*
X92402977Y-87811480D01*
X92436310Y-87844813D01*
X92502977Y-87878146D01*
X92636310Y-87878146D01*
X92702977Y-87844813D01*
X92736310Y-87811480D01*
X92769644Y-87744813D01*
X92769644Y-87611480D01*
X92736310Y-87544813D01*
X92702977Y-87511480D01*
X92636310Y-87478146D01*
%TO.C,C1*%
X77127242Y-86137475D02*
X77093909Y-86170808D01*
X76993909Y-86204141D01*
X76927242Y-86204141D01*
X76827242Y-86170808D01*
X76760575Y-86104141D01*
X76727242Y-86037475D01*
X76693909Y-85904141D01*
X76693909Y-85804141D01*
X76727242Y-85670808D01*
X76760575Y-85604141D01*
X76827242Y-85537475D01*
X76927242Y-85504141D01*
X76993909Y-85504141D01*
X77093909Y-85537475D01*
X77127242Y-85570808D01*
X77793909Y-86204141D02*
X77393909Y-86204141D01*
X77593909Y-86204141D02*
X77593909Y-85504141D01*
X77527242Y-85604141D01*
X77460575Y-85670808D01*
X77393909Y-85704141D01*
%TO.C,C4*%
X79008431Y-86197716D02*
X78975098Y-86231049D01*
X78875098Y-86264382D01*
X78808431Y-86264382D01*
X78708431Y-86231049D01*
X78641764Y-86164382D01*
X78608431Y-86097716D01*
X78575098Y-85964382D01*
X78575098Y-85864382D01*
X78608431Y-85731049D01*
X78641764Y-85664382D01*
X78708431Y-85597716D01*
X78808431Y-85564382D01*
X78875098Y-85564382D01*
X78975098Y-85597716D01*
X79008431Y-85631049D01*
X79608431Y-85797716D02*
X79608431Y-86264382D01*
X79441764Y-85531049D02*
X79275098Y-86031049D01*
X79708431Y-86031049D01*
%TO.C,C2*%
X77310972Y-81308926D02*
X77277639Y-81342259D01*
X77177639Y-81375592D01*
X77110972Y-81375592D01*
X77010972Y-81342259D01*
X76944305Y-81275592D01*
X76910972Y-81208926D01*
X76877639Y-81075592D01*
X76877639Y-80975592D01*
X76910972Y-80842259D01*
X76944305Y-80775592D01*
X77010972Y-80708926D01*
X77110972Y-80675592D01*
X77177639Y-80675592D01*
X77277639Y-80708926D01*
X77310972Y-80742259D01*
X77577639Y-80742259D02*
X77610972Y-80708926D01*
X77677639Y-80675592D01*
X77844305Y-80675592D01*
X77910972Y-80708926D01*
X77944305Y-80742259D01*
X77977639Y-80808926D01*
X77977639Y-80875592D01*
X77944305Y-80975592D01*
X77544305Y-81375592D01*
X77977639Y-81375592D01*
%TO.C,C5*%
X78805557Y-81098220D02*
X78772224Y-81131553D01*
X78672224Y-81164886D01*
X78605557Y-81164886D01*
X78505557Y-81131553D01*
X78438890Y-81064886D01*
X78405557Y-80998220D01*
X78372224Y-80864886D01*
X78372224Y-80764886D01*
X78405557Y-80631553D01*
X78438890Y-80564886D01*
X78505557Y-80498220D01*
X78605557Y-80464886D01*
X78672224Y-80464886D01*
X78772224Y-80498220D01*
X78805557Y-80531553D01*
X79438890Y-80464886D02*
X79105557Y-80464886D01*
X79072224Y-80798220D01*
X79105557Y-80764886D01*
X79172224Y-80731553D01*
X79338890Y-80731553D01*
X79405557Y-80764886D01*
X79438890Y-80798220D01*
X79472224Y-80864886D01*
X79472224Y-81031553D01*
X79438890Y-81098220D01*
X79405557Y-81131553D01*
X79338890Y-81164886D01*
X79172224Y-81164886D01*
X79105557Y-81131553D01*
X79072224Y-81098220D01*
%TO.C,C6*%
X89158333Y-79363176D02*
X89125000Y-79396509D01*
X89025000Y-79429842D01*
X88958333Y-79429842D01*
X88858333Y-79396509D01*
X88791666Y-79329842D01*
X88758333Y-79263176D01*
X88725000Y-79129842D01*
X88725000Y-79029842D01*
X88758333Y-78896509D01*
X88791666Y-78829842D01*
X88858333Y-78763176D01*
X88958333Y-78729842D01*
X89025000Y-78729842D01*
X89125000Y-78763176D01*
X89158333Y-78796509D01*
X89758333Y-78729842D02*
X89625000Y-78729842D01*
X89558333Y-78763176D01*
X89525000Y-78796509D01*
X89458333Y-78896509D01*
X89425000Y-79029842D01*
X89425000Y-79296509D01*
X89458333Y-79363176D01*
X89491666Y-79396509D01*
X89558333Y-79429842D01*
X89691666Y-79429842D01*
X89758333Y-79396509D01*
X89791666Y-79363176D01*
X89825000Y-79296509D01*
X89825000Y-79129842D01*
X89791666Y-79063176D01*
X89758333Y-79029842D01*
X89691666Y-78996509D01*
X89558333Y-78996509D01*
X89491666Y-79029842D01*
X89458333Y-79063176D01*
X89425000Y-79129842D01*
%TO.C,C3*%
X91258333Y-79432337D02*
X91225000Y-79465670D01*
X91125000Y-79499003D01*
X91058333Y-79499003D01*
X90958333Y-79465670D01*
X90891666Y-79399003D01*
X90858333Y-79332337D01*
X90825000Y-79199003D01*
X90825000Y-79099003D01*
X90858333Y-78965670D01*
X90891666Y-78899003D01*
X90958333Y-78832337D01*
X91058333Y-78799003D01*
X91125000Y-78799003D01*
X91225000Y-78832337D01*
X91258333Y-78865670D01*
X91491666Y-78799003D02*
X91925000Y-78799003D01*
X91691666Y-79065670D01*
X91791666Y-79065670D01*
X91858333Y-79099003D01*
X91891666Y-79132337D01*
X91925000Y-79199003D01*
X91925000Y-79365670D01*
X91891666Y-79432337D01*
X91858333Y-79465670D01*
X91791666Y-79499003D01*
X91591666Y-79499003D01*
X91525000Y-79465670D01*
X91491666Y-79432337D01*
%TO.C,R1*%
X77440696Y-87419944D02*
X77107363Y-87653278D01*
X77440696Y-87819944D02*
X76740696Y-87819944D01*
X76740696Y-87553278D01*
X76774030Y-87486611D01*
X76807363Y-87453278D01*
X76874030Y-87419944D01*
X76974030Y-87419944D01*
X77040696Y-87453278D01*
X77074030Y-87486611D01*
X77107363Y-87553278D01*
X77107363Y-87819944D01*
X77440696Y-86753278D02*
X77440696Y-87153278D01*
X77440696Y-86953278D02*
X76740696Y-86953278D01*
X76840696Y-87019944D01*
X76907363Y-87086611D01*
X76940696Y-87153278D01*
%TO.C,R4*%
X92434873Y-86451685D02*
X92101540Y-86685019D01*
X92434873Y-86851685D02*
X91734873Y-86851685D01*
X91734873Y-86585019D01*
X91768207Y-86518352D01*
X91801540Y-86485019D01*
X91868207Y-86451685D01*
X91968207Y-86451685D01*
X92034873Y-86485019D01*
X92068207Y-86518352D01*
X92101540Y-86585019D01*
X92101540Y-86851685D01*
X91968207Y-85851685D02*
X92434873Y-85851685D01*
X91701540Y-86018352D02*
X92201540Y-86185019D01*
X92201540Y-85751685D01*
%TO.C,SW1*%
X71318858Y-87826356D02*
X71418858Y-87859689D01*
X71585525Y-87859689D01*
X71652192Y-87826356D01*
X71685525Y-87793023D01*
X71718858Y-87726356D01*
X71718858Y-87659689D01*
X71685525Y-87593023D01*
X71652192Y-87559689D01*
X71585525Y-87526356D01*
X71452192Y-87493023D01*
X71385525Y-87459689D01*
X71352192Y-87426356D01*
X71318858Y-87359689D01*
X71318858Y-87293023D01*
X71352192Y-87226356D01*
X71385525Y-87193023D01*
X71452192Y-87159689D01*
X71618858Y-87159689D01*
X71718858Y-87193023D01*
X71952192Y-87159689D02*
X72118858Y-87859689D01*
X72252192Y-87359689D01*
X72385525Y-87859689D01*
X72552192Y-87159689D01*
X73185525Y-87859689D02*
X72785525Y-87859689D01*
X72985525Y-87859689D02*
X72985525Y-87159689D01*
X72918858Y-87259689D01*
X72852192Y-87326356D01*
X72785525Y-87359689D01*
%TO.C,F1*%
X97522916Y-87580000D02*
X97289583Y-87580000D01*
X97289583Y-87946666D02*
X97289583Y-87246666D01*
X97622916Y-87246666D01*
X98256250Y-87946666D02*
X97856250Y-87946666D01*
X98056250Y-87946666D02*
X98056250Y-87246666D01*
X97989583Y-87346666D01*
X97922916Y-87413333D01*
X97856250Y-87446666D01*
%TO.C,R3*%
X91200267Y-84760416D02*
X90866934Y-84993750D01*
X91200267Y-85160416D02*
X90500267Y-85160416D01*
X90500267Y-84893750D01*
X90533601Y-84827083D01*
X90566934Y-84793750D01*
X90633601Y-84760416D01*
X90733601Y-84760416D01*
X90800267Y-84793750D01*
X90833601Y-84827083D01*
X90866934Y-84893750D01*
X90866934Y-85160416D01*
X90500267Y-84527083D02*
X90500267Y-84093750D01*
X90766934Y-84327083D01*
X90766934Y-84227083D01*
X90800267Y-84160416D01*
X90833601Y-84127083D01*
X90900267Y-84093750D01*
X91066934Y-84093750D01*
X91133601Y-84127083D01*
X91166934Y-84160416D01*
X91200267Y-84227083D01*
X91200267Y-84427083D01*
X91166934Y-84493750D01*
X91133601Y-84527083D01*
%TO.C,R2*%
X90222289Y-84776581D02*
X89888956Y-85009915D01*
X90222289Y-85176581D02*
X89522289Y-85176581D01*
X89522289Y-84909915D01*
X89555623Y-84843248D01*
X89588956Y-84809915D01*
X89655623Y-84776581D01*
X89755623Y-84776581D01*
X89822289Y-84809915D01*
X89855623Y-84843248D01*
X89888956Y-84909915D01*
X89888956Y-85176581D01*
X89588956Y-84509915D02*
X89555623Y-84476581D01*
X89522289Y-84409915D01*
X89522289Y-84243248D01*
X89555623Y-84176581D01*
X89588956Y-84143248D01*
X89655623Y-84109915D01*
X89722289Y-84109915D01*
X89822289Y-84143248D01*
X90222289Y-84543248D01*
X90222289Y-84109915D01*
%TO.C,C7*%
X89194169Y-86168651D02*
X89160836Y-86201984D01*
X89060836Y-86235317D01*
X88994169Y-86235317D01*
X88894169Y-86201984D01*
X88827502Y-86135317D01*
X88794169Y-86068651D01*
X88760836Y-85935317D01*
X88760836Y-85835317D01*
X88794169Y-85701984D01*
X88827502Y-85635317D01*
X88894169Y-85568651D01*
X88994169Y-85535317D01*
X89060836Y-85535317D01*
X89160836Y-85568651D01*
X89194169Y-85601984D01*
X89427502Y-85535317D02*
X89894169Y-85535317D01*
X89594169Y-86235317D01*
%TO.C,J12*%
X67709880Y-80184523D02*
X68424166Y-80184523D01*
X68567023Y-80232142D01*
X68662261Y-80327380D01*
X68709880Y-80470238D01*
X68709880Y-80565476D01*
X68709880Y-79184523D02*
X68709880Y-79755952D01*
X68709880Y-79470238D02*
X67709880Y-79470238D01*
X67852738Y-79565476D01*
X67947976Y-79660714D01*
X67995595Y-79755952D01*
X67805119Y-78803571D02*
X67757500Y-78755952D01*
X67709880Y-78660714D01*
X67709880Y-78422619D01*
X67757500Y-78327380D01*
X67805119Y-78279761D01*
X67900357Y-78232142D01*
X67995595Y-78232142D01*
X68138452Y-78279761D01*
X68709880Y-78851190D01*
X68709880Y-78232142D01*
%TO.C,U1*%
X101538869Y-78705979D02*
X101538869Y-79515503D01*
X101586488Y-79610741D01*
X101634107Y-79658360D01*
X101729345Y-79705979D01*
X101919821Y-79705979D01*
X102015059Y-79658360D01*
X102062678Y-79610741D01*
X102110297Y-79515503D01*
X102110297Y-78705979D01*
X103110297Y-79705979D02*
X102538869Y-79705979D01*
X102824583Y-79705979D02*
X102824583Y-78705979D01*
X102729345Y-78848837D01*
X102634107Y-78944075D01*
X102538869Y-78991694D01*
%TO.C,J7*%
X100467916Y-76446130D02*
X100467916Y-77160416D01*
X100420297Y-77303273D01*
X100325059Y-77398511D01*
X100182202Y-77446130D01*
X100086964Y-77446130D01*
X100848869Y-76446130D02*
X101515535Y-76446130D01*
X101086964Y-77446130D01*
%TO.C,J5*%
X100467916Y-70096130D02*
X100467916Y-70810416D01*
X100420297Y-70953273D01*
X100325059Y-71048511D01*
X100182202Y-71096130D01*
X100086964Y-71096130D01*
X101420297Y-70096130D02*
X100944107Y-70096130D01*
X100896488Y-70572321D01*
X100944107Y-70524702D01*
X101039345Y-70477083D01*
X101277440Y-70477083D01*
X101372678Y-70524702D01*
X101420297Y-70572321D01*
X101467916Y-70667559D01*
X101467916Y-70905654D01*
X101420297Y-71000892D01*
X101372678Y-71048511D01*
X101277440Y-71096130D01*
X101039345Y-71096130D01*
X100944107Y-71048511D01*
X100896488Y-71000892D01*
%TO.C,J3*%
X81417916Y-70096130D02*
X81417916Y-70810416D01*
X81370297Y-70953273D01*
X81275059Y-71048511D01*
X81132202Y-71096130D01*
X81036964Y-71096130D01*
X81798869Y-70096130D02*
X82417916Y-70096130D01*
X82084583Y-70477083D01*
X82227440Y-70477083D01*
X82322678Y-70524702D01*
X82370297Y-70572321D01*
X82417916Y-70667559D01*
X82417916Y-70905654D01*
X82370297Y-71000892D01*
X82322678Y-71048511D01*
X82227440Y-71096130D01*
X81941726Y-71096130D01*
X81846488Y-71048511D01*
X81798869Y-71000892D01*
%TO.C,J4*%
X88561666Y-69302380D02*
X88561666Y-70016666D01*
X88514047Y-70159523D01*
X88418809Y-70254761D01*
X88275952Y-70302380D01*
X88180714Y-70302380D01*
X89466428Y-69635714D02*
X89466428Y-70302380D01*
X89228333Y-69254761D02*
X88990238Y-69969047D01*
X89609285Y-69969047D01*
%TO.C,J9*%
X104064880Y-79708333D02*
X104779166Y-79708333D01*
X104922023Y-79755952D01*
X105017261Y-79851190D01*
X105064880Y-79994047D01*
X105064880Y-80089285D01*
X105064880Y-79184523D02*
X105064880Y-78994047D01*
X105017261Y-78898809D01*
X104969642Y-78851190D01*
X104826785Y-78755952D01*
X104636309Y-78708333D01*
X104255357Y-78708333D01*
X104160119Y-78755952D01*
X104112500Y-78803571D01*
X104064880Y-78898809D01*
X104064880Y-79089285D01*
X104112500Y-79184523D01*
X104160119Y-79232142D01*
X104255357Y-79279761D01*
X104493452Y-79279761D01*
X104588690Y-79232142D01*
X104636309Y-79184523D01*
X104683928Y-79089285D01*
X104683928Y-78898809D01*
X104636309Y-78803571D01*
X104588690Y-78755952D01*
X104493452Y-78708333D01*
%TO.C,J8*%
X65328630Y-78914583D02*
X66042916Y-78914583D01*
X66185773Y-78962202D01*
X66281011Y-79057440D01*
X66328630Y-79200297D01*
X66328630Y-79295535D01*
X65757202Y-78295535D02*
X65709583Y-78390773D01*
X65661964Y-78438392D01*
X65566726Y-78486011D01*
X65519107Y-78486011D01*
X65423869Y-78438392D01*
X65376250Y-78390773D01*
X65328630Y-78295535D01*
X65328630Y-78105059D01*
X65376250Y-78009821D01*
X65423869Y-77962202D01*
X65519107Y-77914583D01*
X65566726Y-77914583D01*
X65661964Y-77962202D01*
X65709583Y-78009821D01*
X65757202Y-78105059D01*
X65757202Y-78295535D01*
X65804821Y-78390773D01*
X65852440Y-78438392D01*
X65947678Y-78486011D01*
X66138154Y-78486011D01*
X66233392Y-78438392D01*
X66281011Y-78390773D01*
X66328630Y-78295535D01*
X66328630Y-78105059D01*
X66281011Y-78009821D01*
X66233392Y-77962202D01*
X66138154Y-77914583D01*
X65947678Y-77914583D01*
X65852440Y-77962202D01*
X65804821Y-78009821D01*
X65757202Y-78105059D01*
%TO.C,J6*%
X69511666Y-74858630D02*
X69511666Y-75572916D01*
X69464047Y-75715773D01*
X69368809Y-75811011D01*
X69225952Y-75858630D01*
X69130714Y-75858630D01*
X70416428Y-74858630D02*
X70225952Y-74858630D01*
X70130714Y-74906250D01*
X70083095Y-74953869D01*
X69987857Y-75096726D01*
X69940238Y-75287202D01*
X69940238Y-75668154D01*
X69987857Y-75763392D01*
X70035476Y-75811011D01*
X70130714Y-75858630D01*
X70321190Y-75858630D01*
X70416428Y-75811011D01*
X70464047Y-75763392D01*
X70511666Y-75668154D01*
X70511666Y-75430059D01*
X70464047Y-75334821D01*
X70416428Y-75287202D01*
X70321190Y-75239583D01*
X70130714Y-75239583D01*
X70035476Y-75287202D01*
X69987857Y-75334821D01*
X69940238Y-75430059D01*
%TO.C,J10*%
X62947380Y-79390773D02*
X63661666Y-79390773D01*
X63804523Y-79438392D01*
X63899761Y-79533630D01*
X63947380Y-79676488D01*
X63947380Y-79771726D01*
X63947380Y-78390773D02*
X63947380Y-78962202D01*
X63947380Y-78676488D02*
X62947380Y-78676488D01*
X63090238Y-78771726D01*
X63185476Y-78866964D01*
X63233095Y-78962202D01*
X62947380Y-77771726D02*
X62947380Y-77676488D01*
X62995000Y-77581250D01*
X63042619Y-77533630D01*
X63137857Y-77486011D01*
X63328333Y-77438392D01*
X63566428Y-77438392D01*
X63756904Y-77486011D01*
X63852142Y-77533630D01*
X63899761Y-77581250D01*
X63947380Y-77676488D01*
X63947380Y-77771726D01*
X63899761Y-77866964D01*
X63852142Y-77914583D01*
X63756904Y-77962202D01*
X63566428Y-78009821D01*
X63328333Y-78009821D01*
X63137857Y-77962202D01*
X63042619Y-77914583D01*
X62995000Y-77866964D01*
X62947380Y-77771726D01*
%TO.C,J13*%
X108984880Y-79390773D02*
X109699166Y-79390773D01*
X109842023Y-79438392D01*
X109937261Y-79533630D01*
X109984880Y-79676488D01*
X109984880Y-79771726D01*
X109984880Y-78390773D02*
X109984880Y-78962202D01*
X109984880Y-78676488D02*
X108984880Y-78676488D01*
X109127738Y-78771726D01*
X109222976Y-78866964D01*
X109270595Y-78962202D01*
X108984880Y-78057440D02*
X108984880Y-77438392D01*
X109365833Y-77771726D01*
X109365833Y-77628869D01*
X109413452Y-77533630D01*
X109461071Y-77486011D01*
X109556309Y-77438392D01*
X109794404Y-77438392D01*
X109889642Y-77486011D01*
X109937261Y-77533630D01*
X109984880Y-77628869D01*
X109984880Y-77914583D01*
X109937261Y-78009821D01*
X109889642Y-78057440D01*
%TO.C,J2*%
X69511666Y-69302380D02*
X69511666Y-70016666D01*
X69464047Y-70159523D01*
X69368809Y-70254761D01*
X69225952Y-70302380D01*
X69130714Y-70302380D01*
X69940238Y-69397619D02*
X69987857Y-69350000D01*
X70083095Y-69302380D01*
X70321190Y-69302380D01*
X70416428Y-69350000D01*
X70464047Y-69397619D01*
X70511666Y-69492857D01*
X70511666Y-69588095D01*
X70464047Y-69730952D01*
X69892619Y-70302380D01*
X70511666Y-70302380D01*
%TO.C,U2*%
X83584880Y-75374404D02*
X84394404Y-75374404D01*
X84489642Y-75326785D01*
X84537261Y-75279166D01*
X84584880Y-75183928D01*
X84584880Y-74993452D01*
X84537261Y-74898214D01*
X84489642Y-74850595D01*
X84394404Y-74802976D01*
X83584880Y-74802976D01*
X83680119Y-74374404D02*
X83632500Y-74326785D01*
X83584880Y-74231547D01*
X83584880Y-73993452D01*
X83632500Y-73898214D01*
X83680119Y-73850595D01*
X83775357Y-73802976D01*
X83870595Y-73802976D01*
X84013452Y-73850595D01*
X84584880Y-74422023D01*
X84584880Y-73802976D01*
%TO.C,J11*%
X106603630Y-79390773D02*
X107317916Y-79390773D01*
X107460773Y-79438392D01*
X107556011Y-79533630D01*
X107603630Y-79676488D01*
X107603630Y-79771726D01*
X107603630Y-78390773D02*
X107603630Y-78962202D01*
X107603630Y-78676488D02*
X106603630Y-78676488D01*
X106746488Y-78771726D01*
X106841726Y-78866964D01*
X106889345Y-78962202D01*
X107603630Y-77438392D02*
X107603630Y-78009821D01*
X107603630Y-77724107D02*
X106603630Y-77724107D01*
X106746488Y-77819345D01*
X106841726Y-77914583D01*
X106889345Y-78009821D01*
D10*
%TO.C,Y1*%
X77275000Y-84993750D02*
X77275000Y-81693750D01*
X74475000Y-84993750D02*
X77275000Y-84993750D01*
%TO.C,C8*%
X92815000Y-86951586D02*
X92815000Y-86735914D01*
X93535000Y-86951586D02*
X93535000Y-86735914D01*
%TO.C,C1*%
X75882836Y-86103750D02*
X75667164Y-86103750D01*
X75882836Y-85383750D02*
X75667164Y-85383750D01*
%TO.C,C4*%
X78832836Y-87203750D02*
X78617164Y-87203750D01*
X78832836Y-86483750D02*
X78617164Y-86483750D01*
%TO.C,C2*%
X75882836Y-81303750D02*
X75667164Y-81303750D01*
X75882836Y-80583750D02*
X75667164Y-80583750D01*
%TO.C,C5*%
X78761295Y-79548459D02*
X78545623Y-79548459D01*
X78761295Y-80268459D02*
X78545623Y-80268459D01*
%TO.C,C6*%
X89167164Y-80203750D02*
X89382836Y-80203750D01*
X89167164Y-79483750D02*
X89382836Y-79483750D01*
%TO.C,C3*%
X91267164Y-79683750D02*
X91482836Y-79683750D01*
X91267164Y-80403750D02*
X91482836Y-80403750D01*
%TO.C,R1*%
X75928641Y-87523750D02*
X75621359Y-87523750D01*
X75928641Y-86763750D02*
X75621359Y-86763750D01*
%TO.C,R4*%
X90695000Y-86690109D02*
X90695000Y-86997391D01*
X91455000Y-86690109D02*
X91455000Y-86997391D01*
%TO.C,SW1*%
X70651250Y-82425000D02*
X70531250Y-82425000D01*
X70531250Y-82425000D02*
X70531250Y-86825000D01*
X70531250Y-86825000D02*
X70651250Y-86825000D01*
X73931250Y-86825000D02*
X73931250Y-82425000D01*
X72801250Y-82425000D02*
X71661250Y-82425000D01*
X73931250Y-82425000D02*
X73811250Y-82425000D01*
X73811250Y-86825000D02*
X73931250Y-86825000D01*
X71661250Y-86825000D02*
X72801250Y-86825000D01*
%TO.C,F1*%
X100128750Y-85122936D02*
X100128750Y-86327064D01*
X98308750Y-85122936D02*
X98308750Y-86327064D01*
%TO.C,R3*%
X92795000Y-84490109D02*
X92795000Y-84797391D01*
X93555000Y-84490109D02*
X93555000Y-84797391D01*
%TO.C,R2*%
X92355000Y-84490109D02*
X92355000Y-84797391D01*
X91595000Y-84490109D02*
X91595000Y-84797391D01*
%TO.C,C7*%
X89167164Y-87203750D02*
X89382836Y-87203750D01*
X89167164Y-86483750D02*
X89382836Y-86483750D01*
%TO.C,U1*%
X94433750Y-84630000D02*
X94433750Y-87080000D01*
X97653750Y-86430000D02*
X97653750Y-84630000D01*
%TO.C,U2*%
X87585000Y-80458750D02*
X87585000Y-79733750D01*
X80365000Y-80458750D02*
X80365000Y-79733750D01*
X80365000Y-79733750D02*
X81090000Y-79733750D01*
X87585000Y-86228750D02*
X87585000Y-86953750D01*
X87585000Y-86953750D02*
X86860000Y-86953750D01*
X80365000Y-86953750D02*
X81090000Y-86953750D01*
X80365000Y-86228750D02*
X80365000Y-86953750D01*
%TD*%
%LPC*%
D14*
%TO.C,REF\u002A\u002A*%
X59272250Y-63817500D03*
X59272250Y-62547500D03*
X59272250Y-65087500D03*
X59272250Y-66357500D03*
X59272250Y-67627500D03*
%TD*%
%TO.C,REF\u002A\u002A*%
X112167750Y-66357500D03*
X112167750Y-67627500D03*
X112167750Y-65087500D03*
X112167750Y-63817500D03*
X112167750Y-62547500D03*
%TD*%
%TO.C,REF\u002A\u002A*%
X112167750Y-87000000D03*
X112167750Y-88270000D03*
X112167750Y-85730000D03*
X112167750Y-84460000D03*
X112167750Y-83190000D03*
%TD*%
%TO.C,REF\u002A\u002A*%
X59272250Y-84455000D03*
X59272250Y-83185000D03*
X59272250Y-85725000D03*
X59272250Y-86995000D03*
X59272250Y-88265000D03*
%TD*%
%TO.C,REF\u002A\u002A*%
X96515000Y-68802250D03*
X97785000Y-68802250D03*
X95245000Y-68802250D03*
X93975000Y-68802250D03*
X92705000Y-68802250D03*
%TD*%
%TO.C,REF\u002A\u002A*%
X73655000Y-68802250D03*
X74925000Y-68802250D03*
X78735000Y-68802250D03*
X77465000Y-68802250D03*
X76195000Y-68802250D03*
%TD*%
D15*
%TO.C,Y1*%
X75175000Y-84218750D03*
X75175000Y-82468750D03*
X76575000Y-82468750D03*
X76575000Y-84218750D03*
%TD*%
D16*
%TO.C,C8*%
X93175000Y-86363750D03*
X93175000Y-87323750D03*
%TD*%
D17*
%TO.C,C1*%
X75295000Y-85743750D03*
X76255000Y-85743750D03*
%TD*%
%TO.C,C4*%
X78245000Y-86843750D03*
X79205000Y-86843750D03*
%TD*%
%TO.C,C2*%
X75295000Y-80943750D03*
X76255000Y-80943750D03*
%TD*%
%TO.C,C5*%
X78173459Y-79908459D03*
X79133459Y-79908459D03*
%TD*%
D18*
%TO.C,C6*%
X89755000Y-79843750D03*
X88795000Y-79843750D03*
%TD*%
%TO.C,C3*%
X91855000Y-80043750D03*
X90895000Y-80043750D03*
%TD*%
D19*
%TO.C,R1*%
X75265000Y-87143750D03*
X76285000Y-87143750D03*
%TD*%
D20*
%TO.C,R4*%
X91075000Y-87353750D03*
X91075000Y-86333750D03*
%TD*%
D21*
%TO.C,SW1*%
X73306250Y-82550000D03*
X73306250Y-86700000D03*
X71156250Y-82550000D03*
X71156250Y-86700000D03*
%TD*%
D22*
%TO.C,F1*%
X99218750Y-87125000D03*
X99218750Y-84325000D03*
%TD*%
D20*
%TO.C,R3*%
X93175000Y-85153750D03*
X93175000Y-84133750D03*
%TD*%
%TO.C,R2*%
X91975000Y-85153750D03*
X91975000Y-84133750D03*
%TD*%
D18*
%TO.C,C7*%
X89755000Y-86843750D03*
X88795000Y-86843750D03*
%TD*%
D23*
%TO.C,J12*%
X60473750Y-88106250D03*
X63013750Y-88106250D03*
X65553750Y-88106250D03*
D24*
X68093750Y-88106250D03*
%TD*%
D25*
%TO.C,U1*%
X95093750Y-84430000D03*
X96043750Y-84430000D03*
X96993750Y-84430000D03*
X96993750Y-86630000D03*
X96043750Y-86630000D03*
X95093750Y-86630000D03*
%TD*%
D23*
%TO.C,J7*%
X92868750Y-69998750D03*
X92868750Y-72538750D03*
X92868750Y-75078750D03*
D24*
X92868750Y-77618750D03*
%TD*%
D23*
%TO.C,J5*%
X97631250Y-77638750D03*
X97631250Y-75098750D03*
X97631250Y-72558750D03*
D24*
X97631250Y-70018750D03*
%TD*%
D23*
%TO.C,J3*%
X78581250Y-77638750D03*
X78581250Y-75098750D03*
X78581250Y-72558750D03*
D24*
X78581250Y-70018750D03*
%TD*%
D26*
%TO.C,J4*%
X97415000Y-77638750D03*
X93075000Y-77638750D03*
X97415000Y-75098750D03*
X93075000Y-75098750D03*
X97415000Y-72558750D03*
X93075000Y-72558750D03*
X97415000Y-70018750D03*
X93075000Y-70018750D03*
%TD*%
D23*
%TO.C,J9*%
X110976250Y-83343750D03*
X108436250Y-83343750D03*
X105896250Y-83343750D03*
D24*
X103356250Y-83343750D03*
%TD*%
D23*
%TO.C,J8*%
X68113750Y-83343750D03*
X65573750Y-83343750D03*
X63033750Y-83343750D03*
D24*
X60493750Y-83343750D03*
%TD*%
D23*
%TO.C,J6*%
X73818750Y-69998750D03*
X73818750Y-72538750D03*
X73818750Y-75078750D03*
D24*
X73818750Y-77618750D03*
%TD*%
D27*
%TO.C,J10*%
X68113750Y-83560000D03*
X68113750Y-87900000D03*
X65573750Y-83560000D03*
X65573750Y-87900000D03*
X63033750Y-83560000D03*
X63033750Y-87900000D03*
X60493750Y-83560000D03*
X60493750Y-87900000D03*
%TD*%
D23*
%TO.C,J13*%
X103336250Y-88106250D03*
X105876250Y-88106250D03*
X108416250Y-88106250D03*
D24*
X110956250Y-88106250D03*
%TD*%
D26*
%TO.C,J2*%
X78365000Y-77638750D03*
X74025000Y-77638750D03*
X78365000Y-75098750D03*
X74025000Y-75098750D03*
X78365000Y-72558750D03*
X74025000Y-72558750D03*
X78365000Y-70018750D03*
X74025000Y-70018750D03*
%TD*%
D28*
%TO.C,U2*%
X83975000Y-83343750D03*
D29*
X87212500Y-80843750D03*
D30*
X87312500Y-81343750D03*
X87312500Y-81843750D03*
X87312500Y-82343750D03*
X87312500Y-82843750D03*
X87312500Y-83343750D03*
X87312500Y-83843750D03*
X87312500Y-84343750D03*
X87312500Y-84843750D03*
X87312500Y-85343750D03*
D29*
X87212500Y-85843750D03*
D31*
X86475000Y-86581250D03*
D32*
X85975000Y-86681250D03*
X85475000Y-86681250D03*
X84975000Y-86681250D03*
X84475000Y-86681250D03*
X83975000Y-86681250D03*
X83475000Y-86681250D03*
X82975000Y-86681250D03*
X82475000Y-86681250D03*
X81975000Y-86681250D03*
D31*
X81475000Y-86581250D03*
D29*
X80737500Y-85843750D03*
D30*
X80637500Y-85343750D03*
X80637500Y-84843750D03*
X80637500Y-84343750D03*
X80637500Y-83843750D03*
X80637500Y-83343750D03*
X80637500Y-82843750D03*
X80637500Y-82343750D03*
X80637500Y-81843750D03*
X80637500Y-81343750D03*
D29*
X80737500Y-80843750D03*
D31*
X81475000Y-80106250D03*
D32*
X81975000Y-80006250D03*
X82475000Y-80006250D03*
X82975000Y-80006250D03*
X83475000Y-80006250D03*
X83975000Y-80006250D03*
X84475000Y-80006250D03*
X84975000Y-80006250D03*
X85475000Y-80006250D03*
X85975000Y-80006250D03*
D31*
X86475000Y-80106250D03*
%TD*%
D27*
%TO.C,J11*%
X110976250Y-83560000D03*
X110976250Y-87900000D03*
X108436250Y-83560000D03*
X108436250Y-87900000D03*
X105896250Y-83560000D03*
X105896250Y-87900000D03*
X103356250Y-83560000D03*
X103356250Y-87900000D03*
%TD*%
M02*
