M48
; DRILL file {KiCad (5.99.0-12112-g0cd8a4d846)} date Thu Oct 21 21:26:28 2021
; FORMAT={-:-/ absolute / inch / decimal}
; #@! TF.CreationDate,2021-10-21T21:26:28-04:00
; #@! TF.GenerationSoftware,Kicad,Pcbnew,(5.99.0-12112-g0cd8a4d846)
; #@! TF.FileFunction,NonPlated,1,2,NPTH
FMAT,2
INCH
; #@! TA.AperFunction,NonPlated,NPTH,ComponentDrill
T1C0.0310
%
G90
G05
T1
X2.3336Y-2.4625
X2.3336Y-2.5125
X2.3336Y-2.5625
X2.3336Y-2.6125
X2.3336Y-2.6625
X2.3336Y-3.275
X2.3336Y-3.325
X2.3336Y-3.375
X2.3336Y-3.425
X2.3336Y-3.475
X2.8998Y-2.7087
X2.9498Y-2.7087
X2.9998Y-2.7087
X3.0498Y-2.7087
X3.0998Y-2.7087
X3.6498Y-2.7087
X3.6998Y-2.7087
X3.7498Y-2.7087
X3.7998Y-2.7087
X3.8498Y-2.7087
X4.4161Y-2.4625
X4.4161Y-2.5125
X4.4161Y-2.5625
X4.4161Y-2.6125
X4.4161Y-2.6625
X4.4161Y-3.2752
X4.4161Y-3.3252
X4.4161Y-3.3752
X4.4161Y-3.4252
X4.4161Y-3.4752
T0
M30
