%TF.GenerationSoftware,KiCad,Pcbnew,(7.0.0)*%
%TF.CreationDate,2023-03-18T12:34:52-05:00*%
%TF.ProjectId,Piggyback_2_0,50696767-7962-4616-936b-5f325f302e6b,rev?*%
%TF.SameCoordinates,Original*%
%TF.FileFunction,Paste,Bot*%
%TF.FilePolarity,Positive*%
%FSLAX46Y46*%
G04 Gerber Fmt 4.6, Leading zero omitted, Abs format (unit mm)*
G04 Created by KiCad (PCBNEW (7.0.0)) date 2023-03-18 12:34:52*
%MOMM*%
%LPD*%
G01*
G04 APERTURE LIST*
G04 Aperture macros list*
%AMRoundRect*
0 Rectangle with rounded corners*
0 $1 Rounding radius*
0 $2 $3 $4 $5 $6 $7 $8 $9 X,Y pos of 4 corners*
0 Add a 4 corners polygon primitive as box body*
4,1,4,$2,$3,$4,$5,$6,$7,$8,$9,$2,$3,0*
0 Add four circle primitives for the rounded corners*
1,1,$1+$1,$2,$3*
1,1,$1+$1,$4,$5*
1,1,$1+$1,$6,$7*
1,1,$1+$1,$8,$9*
0 Add four rect primitives between the rounded corners*
20,1,$1+$1,$2,$3,$4,$5,0*
20,1,$1+$1,$4,$5,$6,$7,0*
20,1,$1+$1,$6,$7,$8,$9,0*
20,1,$1+$1,$8,$9,$2,$3,0*%
%AMRotRect*
0 Rectangle, with rotation*
0 The origin of the aperture is its center*
0 $1 length*
0 $2 width*
0 $3 Rotation angle, in degrees counterclockwise*
0 Add horizontal line*
21,1,$1,$2,0,0,$3*%
G04 Aperture macros list end*
%ADD10C,0.010000*%
%ADD11RoundRect,0.200000X-0.200000X-0.800000X0.200000X-0.800000X0.200000X0.800000X-0.200000X0.800000X0*%
%ADD12RoundRect,0.079500X-0.079500X-0.100500X0.079500X-0.100500X0.079500X0.100500X-0.079500X0.100500X0*%
%ADD13RotRect,1.150000X1.000000X45.000000*%
%ADD14RoundRect,0.079500X-0.014849X0.127279X-0.127279X0.014849X0.014849X-0.127279X0.127279X-0.014849X0*%
%ADD15RoundRect,0.079500X0.100500X-0.079500X0.100500X0.079500X-0.100500X0.079500X-0.100500X-0.079500X0*%
%ADD16RoundRect,0.079500X0.014849X-0.127279X0.127279X-0.014849X-0.014849X0.127279X-0.127279X0.014849X0*%
%ADD17RoundRect,0.150000X-0.587500X-0.150000X0.587500X-0.150000X0.587500X0.150000X-0.587500X0.150000X0*%
%ADD18RoundRect,0.135000X-0.135000X-0.185000X0.135000X-0.185000X0.135000X0.185000X-0.135000X0.185000X0*%
%ADD19RoundRect,0.125000X-0.250000X-0.475000X0.250000X-0.475000X0.250000X0.475000X-0.250000X0.475000X0*%
%ADD20RoundRect,0.100000X-0.250000X-0.400000X0.250000X-0.400000X0.250000X0.400000X-0.250000X0.400000X0*%
%ADD21R,0.600000X1.450000*%
%ADD22R,0.300000X1.450000*%
%ADD23RoundRect,0.079500X0.127279X0.014849X0.014849X0.127279X-0.127279X-0.014849X-0.014849X-0.127279X0*%
%ADD24R,0.900000X1.200000*%
%ADD25RoundRect,0.079500X-0.100500X0.079500X-0.100500X-0.079500X0.100500X-0.079500X0.100500X0.079500X0*%
%ADD26RoundRect,0.150000X0.150000X-0.650000X0.150000X0.650000X-0.150000X0.650000X-0.150000X-0.650000X0*%
%ADD27RoundRect,0.006000X0.359210X-0.226274X-0.226274X0.359210X-0.359210X0.226274X0.226274X-0.359210X0*%
%ADD28RoundRect,0.020000X0.339411X0.226274X0.226274X0.339411X-0.339411X-0.226274X-0.226274X-0.339411X0*%
%ADD29RoundRect,0.250000X0.375000X0.625000X-0.375000X0.625000X-0.375000X-0.625000X0.375000X-0.625000X0*%
%ADD30RoundRect,0.150000X0.150000X-0.475000X0.150000X0.475000X-0.150000X0.475000X-0.150000X-0.475000X0*%
%ADD31RoundRect,0.079500X0.079500X0.100500X-0.079500X0.100500X-0.079500X-0.100500X0.079500X-0.100500X0*%
%ADD32RoundRect,0.140000X0.021213X-0.219203X0.219203X-0.021213X-0.021213X0.219203X-0.219203X0.021213X0*%
G04 APERTURE END LIST*
%TO.C,U1*%
G36*
X101398429Y-80962500D02*
G01*
X100012500Y-82348429D01*
X98626571Y-80962500D01*
X100012500Y-79576571D01*
X101398429Y-80962500D01*
G37*
D10*
X101398429Y-80962500D02*
X100012500Y-82348429D01*
X98626571Y-80962500D01*
X100012500Y-79576571D01*
X101398429Y-80962500D01*
%TD*%
D11*
%TO.C,SWR1*%
X82037500Y-76200000D03*
X86237500Y-76200000D03*
%TD*%
%TO.C,SWR2*%
X131250000Y-76200000D03*
X135450000Y-76200000D03*
%TD*%
D12*
%TO.C,R8*%
X134785456Y-78499872D03*
X134095456Y-78499872D03*
%TD*%
D13*
%TO.C,Y1*%
X91755056Y-89817493D03*
X92992493Y-88580056D03*
X93982442Y-89570005D03*
X92745005Y-90807442D03*
%TD*%
D14*
%TO.C,C8*%
X94556048Y-84643952D03*
X95043952Y-84156048D03*
%TD*%
D15*
%TO.C,R3*%
X87670560Y-76233957D03*
X87670560Y-75543957D03*
%TD*%
D16*
%TO.C,C5*%
X103043952Y-75162298D03*
X102556048Y-75650202D03*
%TD*%
%TO.C,R4*%
X105043952Y-74556048D03*
X104556048Y-75043952D03*
%TD*%
D17*
%TO.C,U2*%
X110556434Y-78068198D03*
X110556434Y-76168198D03*
X112431434Y-77118198D03*
%TD*%
D18*
%TO.C,R7*%
X129155000Y-77761833D03*
X130175000Y-77761833D03*
%TD*%
D16*
%TO.C,R6*%
X93112702Y-86274798D03*
X92624798Y-86762702D03*
%TD*%
D19*
%TO.C,EZ1*%
X117012500Y-78362500D03*
D20*
X121762500Y-74362500D03*
D19*
X118212500Y-78362500D03*
X119412500Y-78362500D03*
D20*
X115862500Y-74362500D03*
D19*
X120612500Y-78362500D03*
%TD*%
D15*
%TO.C,C16*%
X122233397Y-81148692D03*
X122233397Y-81838692D03*
%TD*%
D21*
%TO.C,J3*%
X124543749Y-71513749D03*
X125343749Y-71513749D03*
D22*
X126543749Y-71513749D03*
X127543749Y-71513749D03*
X128043749Y-71513749D03*
X129043749Y-71513749D03*
D21*
X130243749Y-71513749D03*
X131043749Y-71513749D03*
X131043749Y-71513749D03*
X130243749Y-71513749D03*
D22*
X129543749Y-71513749D03*
X128543749Y-71513749D03*
X127043749Y-71513749D03*
X126043749Y-71513749D03*
D21*
X125343749Y-71513749D03*
X124543749Y-71513749D03*
%TD*%
D23*
%TO.C,C6*%
X91037298Y-91037298D03*
X91525202Y-91525202D03*
%TD*%
D24*
%TO.C,D1*%
X100868749Y-90487499D03*
X97568749Y-90487499D03*
%TD*%
%TO.C,D2*%
X110393749Y-90487499D03*
X107093749Y-90487499D03*
%TD*%
D25*
%TO.C,C2*%
X109112684Y-76773198D03*
X109112684Y-77463198D03*
%TD*%
D24*
%TO.C,D3*%
X129443749Y-90487499D03*
X126143749Y-90487499D03*
%TD*%
D26*
%TO.C,U4*%
X120779126Y-88728552D03*
X119509126Y-88728552D03*
X118239126Y-88728552D03*
X116969126Y-88728552D03*
X116969126Y-81528552D03*
X118239126Y-81528552D03*
X119509126Y-81528552D03*
X120779126Y-81528552D03*
%TD*%
D27*
%TO.C,U1*%
X104279889Y-81552934D03*
X103997047Y-81835777D03*
X103714204Y-82118620D03*
X103431361Y-82401462D03*
X103148519Y-82684305D03*
X102865676Y-82967148D03*
X102582833Y-83249990D03*
X102299990Y-83532833D03*
X102017148Y-83815676D03*
X101734305Y-84098519D03*
X101451462Y-84381361D03*
X101168620Y-84664204D03*
X100885777Y-84947047D03*
X100602934Y-85229889D03*
D28*
X99422066Y-85229889D03*
X99139223Y-84947047D03*
X98856380Y-84664204D03*
X98573538Y-84381361D03*
X98290695Y-84098519D03*
X98007852Y-83815676D03*
X97725010Y-83532833D03*
X97442167Y-83249990D03*
X97159324Y-82967148D03*
X96876481Y-82684305D03*
X96593639Y-82401462D03*
X96310796Y-82118620D03*
X96027953Y-81835777D03*
X95745111Y-81552934D03*
D27*
X95745111Y-80372066D03*
X96027953Y-80089223D03*
X96310796Y-79806380D03*
X96593639Y-79523538D03*
X96876481Y-79240695D03*
X97159324Y-78957852D03*
X97442167Y-78675010D03*
X97725010Y-78392167D03*
X98007852Y-78109324D03*
X98290695Y-77826481D03*
X98573538Y-77543639D03*
X98856380Y-77260796D03*
X99139223Y-76977953D03*
X99422066Y-76695111D03*
D28*
X100602934Y-76695111D03*
X100885777Y-76977953D03*
X101168620Y-77260796D03*
X101451462Y-77543639D03*
X101734305Y-77826481D03*
X102017148Y-78109324D03*
X102299990Y-78392167D03*
X102582833Y-78675010D03*
X102865676Y-78957852D03*
X103148519Y-79240695D03*
X103431361Y-79523538D03*
X103714204Y-79806380D03*
X103997047Y-80089223D03*
X104279889Y-80372066D03*
%TD*%
D23*
%TO.C,C10*%
X95443952Y-78043952D03*
X94956048Y-77556048D03*
%TD*%
D16*
%TO.C,C3*%
X102443952Y-74556048D03*
X101956048Y-75043952D03*
%TD*%
D29*
%TO.C,F1*%
X127212500Y-76562500D03*
X124412500Y-76562500D03*
%TD*%
D25*
%TO.C,C1*%
X113875184Y-76773198D03*
X113875184Y-77463198D03*
%TD*%
D12*
%TO.C,C7*%
X105055000Y-77400000D03*
X105745000Y-77400000D03*
%TD*%
D14*
%TO.C,C15*%
X94212298Y-91525202D03*
X94700202Y-91037298D03*
%TD*%
D16*
%TO.C,R5*%
X105368548Y-75606452D03*
X105856452Y-75118548D03*
%TD*%
D12*
%TO.C,R1*%
X125861250Y-73125000D03*
X126551250Y-73125000D03*
%TD*%
D16*
%TO.C,C12*%
X105956048Y-81643952D03*
X106443952Y-81156048D03*
%TD*%
D30*
%TO.C,U3*%
X126362500Y-81293198D03*
X125412500Y-81293198D03*
X124462500Y-81293198D03*
X124462500Y-78943198D03*
X125412500Y-78943198D03*
X126362500Y-78943198D03*
%TD*%
D31*
%TO.C,R2*%
X129726250Y-73125000D03*
X129036250Y-73125000D03*
%TD*%
D32*
%TO.C,C4*%
X103660589Y-77057609D03*
X104339411Y-76378787D03*
%TD*%
D14*
%TO.C,C9*%
X95643952Y-84756048D03*
X95156048Y-85243952D03*
%TD*%
D23*
%TO.C,C11*%
X97768548Y-74556048D03*
X98256452Y-75043952D03*
%TD*%
M02*
