M48
; DRILL file {KiCad (7.0.0)} date Sat Mar 18 12:34:53 2023
; FORMAT={-:-/ absolute / inch / decimal}
; #@! TF.CreationDate,2023-03-18T12:34:53-05:00
; #@! TF.GenerationSoftware,Kicad,Pcbnew,(7.0.0)
; #@! TF.FileFunction,NonPlated,1,2,NPTH
FMAT,2
INCH
; #@! TA.AperFunction,NonPlated,NPTH,ComponentDrill
T1C0.0197
; #@! TA.AperFunction,NonPlated,NPTH,ComponentDrill
T2C0.0256
; #@! TA.AperFunction,NonPlated,NPTH,ComponentDrill
T3C0.0689
; #@! TA.AperFunction,NonPlated,NPTH,ComponentDrill
T4C0.1570
%
G90
G05
T1
X4.9387Y-2.9122
X4.9679Y-2.9122
X4.997Y-2.9122
X5.0655Y-2.9102
X5.0946Y-2.9102
X5.1238Y-2.9102
T2
X4.9175Y-2.7586
X5.145Y-2.7586
T3
X2.5812Y-2.6875
X2.5812Y-3.4375
X2.5812Y-4.1875
X2.9812Y-2.6875
X2.9812Y-3.4375
X2.9812Y-4.1875
X3.3312Y-2.6875
X3.3312Y-3.4375
X3.3312Y-4.1875
X3.7312Y-2.6875
X3.7312Y-3.4375
X3.7312Y-4.1875
X4.0812Y-2.6875
X4.0812Y-3.4375
X4.0812Y-4.1875
X4.4813Y-2.6875
X4.4813Y-3.4375
X4.4813Y-4.1875
X4.8312Y-3.4375
X4.8312Y-4.1875
X5.2313Y-3.4375
X5.2313Y-4.1875
X5.5812Y-2.6875
X5.5812Y-3.4375
X5.5812Y-4.1875
X5.9813Y-2.6875
X5.9813Y-3.4375
X5.9813Y-4.1875
T4
X2.7812Y-2.6875
X2.7812Y-3.4375
X2.7812Y-4.1875
X3.5312Y-2.6875
X3.5312Y-3.4375
X3.5312Y-4.1875
X4.2812Y-2.6875
X4.2812Y-3.4375
X4.2812Y-4.1875
X5.0312Y-3.4375
X5.0312Y-4.1875
X5.7812Y-2.6875
X5.7812Y-3.4375
X5.7812Y-4.1875
T0
M30
