M48
; DRILL file {KiCad (6.0.10)} date Sat Mar 18 11:22:52 2023
; FORMAT={-:-/ absolute / inch / decimal}
; #@! TF.CreationDate,2023-03-18T11:22:52-05:00
; #@! TF.GenerationSoftware,Kicad,Pcbnew,(6.0.10)
; #@! TF.FileFunction,Plated,1,2,PTH
FMAT,2
INCH
; #@! TA.AperFunction,Plated,PTH,ViaDrill
T1C0.0118
; #@! TA.AperFunction,Plated,PTH,ComponentDrill
T2C0.0157
; #@! TA.AperFunction,Plated,PTH,ComponentDrill
T3C0.0236
; #@! TA.AperFunction,Plated,PTH,ComponentDrill
T4C0.0394
; #@! TA.AperFunction,Plated,PTH,ComponentDrill
T5C0.0600
%
G90
G05
T1
X3.315Y-3.0787
X3.378Y-3.6378
X3.4173Y-3.5827
X3.4173Y-3.622
X3.4409Y-3.0472
X3.4567Y-3.5354
X3.4882Y-3.0236
X3.4961Y-3.5354
X3.5433Y-2.9921
X3.5512Y-3.5512
X3.5906Y-2.9685
X3.6614Y-3.1181
X3.6646Y-3.6152
X3.6746Y-3.4421
X3.6798Y-3.0703
X3.6929Y-3.1339
X3.7151Y-3.3591
X3.716Y-3.0383
X3.7165Y-3.189
X3.7165Y-3.2283
X3.7165Y-3.2677
X3.7244Y-3.1496
X3.7754Y-3.296
X3.8125Y-3.5938
X3.8194Y-3.3922
X3.8301Y-2.9672
X3.875Y-3.1875
X3.8768Y-2.991
X3.9218Y-2.9434
X3.9375Y-3.125
X3.9375Y-3.1875
X3.9375Y-3.25
X3.9759Y-2.9575
X3.9967Y-3.2583
X4.0Y-3.1875
X4.0037Y-2.9968
X4.0084Y-3.5891
X4.0191Y-3.2363
X4.0509Y-3.0519
X4.0633Y-3.3145
X4.0828Y-3.2888
X4.1847Y-2.9861
X4.1969Y-3.0394
X4.1973Y-3.2977
X4.2163Y-3.1858
X4.2714Y-3.5637
X4.3063Y-3.0705
X4.3745Y-3.3805
X4.3863Y-3.5103
X4.3863Y-3.5733
X4.4021Y-3.4068
X4.4094Y-3.0
X4.48Y-3.0702
X4.4808Y-3.3214
X4.5187Y-2.937
X4.5301Y-3.3114
X4.5517Y-3.0615
X4.6225Y-3.4395
X4.6402Y-3.0379
X4.6432Y-2.9772
X4.6842Y-3.0325
X4.7092Y-3.5812
X4.737Y-3.0429
X4.7406Y-3.2662
X4.7643Y-3.5812
X4.7721Y-3.1324
X4.8126Y-3.0374
X4.843Y-2.9355
X4.8539Y-3.1978
X4.9532Y-3.0143
X5.0394Y-3.2047
X5.0556Y-3.063
X5.1337Y-3.576
X5.1509Y-2.8678
X5.1732Y-3.0709
X5.2441Y-3.5433
X5.252Y-3.0
X5.2812Y-3.6457
X5.2975Y-3.4988
T2
X4.5595Y-2.9749
X4.591Y-2.9198
X4.591Y-2.9473
X4.591Y-2.9749
X4.7643Y-2.9198
X4.7643Y-2.9473
X4.7643Y-2.9749
X4.7938Y-2.9749
T4
X3.1875Y-3.1875
X3.1875Y-3.2875
X3.1875Y-3.3875
X3.1875Y-3.4875
X3.1875Y-3.5875
X3.1875Y-3.6875
X3.2311Y-3.7812
X3.3311Y-3.7812
X3.4311Y-3.7812
X3.5311Y-3.7812
X3.6311Y-3.7812
X3.7311Y-3.7812
X3.8311Y-3.7812
X3.9311Y-3.7812
X4.0311Y-3.7812
X4.1311Y-3.7812
X4.2311Y-3.7812
X4.3311Y-3.7812
X4.4311Y-3.7812
X4.5311Y-3.7812
X4.6311Y-3.7812
X4.7311Y-3.7812
X4.8311Y-3.7812
X4.9311Y-3.7812
X5.0311Y-3.7812
X5.1311Y-3.7812
X5.2311Y-3.7812
X5.3311Y-3.7812
X5.375Y-3.1875
X5.375Y-3.2875
X5.375Y-3.3875
X5.375Y-3.4875
X5.375Y-3.5875
X5.375Y-3.6875
T5
X2.6313Y-2.5875
X2.6313Y-3.3375
X2.6313Y-4.0875
X2.8813Y-2.4875
X2.8813Y-3.2375
X2.8813Y-3.9875
X3.3813Y-2.5875
X3.3813Y-3.3375
X3.3813Y-4.0875
X3.6313Y-2.4875
X3.6313Y-3.2375
X3.6313Y-3.9875
X4.1312Y-2.5875
X4.1312Y-3.3375
X4.1312Y-4.0875
X4.3812Y-2.4875
X4.3812Y-3.2375
X4.3812Y-3.9875
X4.8812Y-3.3375
X4.8812Y-4.0875
X5.1312Y-3.2375
X5.1312Y-3.9875
X5.6312Y-2.5875
X5.6312Y-3.3375
X5.6312Y-4.0875
X5.8812Y-2.4875
X5.8812Y-3.2375
X5.8812Y-3.9875
T3
G00X4.8612Y-2.6031
M15
G01X4.8612Y-2.6267
M16
G05
G00X4.8612Y-2.7578
M15
G01X4.8612Y-2.8011
M16
G05
G00X5.2013Y-2.6031
M15
G01X5.2013Y-2.6267
M16
G05
G00X5.2013Y-2.7578
M15
G01X5.2013Y-2.8011
M16
G05
T0
M30
