%TF.GenerationSoftware,KiCad,Pcbnew,(6.0.10)*%
%TF.CreationDate,2023-03-18T11:22:51-05:00*%
%TF.ProjectId,Piggyback_2_0,50696767-7962-4616-936b-5f325f302e6b,rev?*%
%TF.SameCoordinates,Original*%
%TF.FileFunction,Copper,L1,Top*%
%TF.FilePolarity,Positive*%
%FSLAX46Y46*%
G04 Gerber Fmt 4.6, Leading zero omitted, Abs format (unit mm)*
G04 Created by KiCad (PCBNEW (6.0.10)) date 2023-03-18 11:22:51*
%MOMM*%
%LPD*%
G01*
G04 APERTURE LIST*
G04 Aperture macros list*
%AMRoundRect*
0 Rectangle with rounded corners*
0 $1 Rounding radius*
0 $2 $3 $4 $5 $6 $7 $8 $9 X,Y pos of 4 corners*
0 Add a 4 corners polygon primitive as box body*
4,1,4,$2,$3,$4,$5,$6,$7,$8,$9,$2,$3,0*
0 Add four circle primitives for the rounded corners*
1,1,$1+$1,$2,$3*
1,1,$1+$1,$4,$5*
1,1,$1+$1,$6,$7*
1,1,$1+$1,$8,$9*
0 Add four rect primitives between the rounded corners*
20,1,$1+$1,$2,$3,$4,$5,0*
20,1,$1+$1,$4,$5,$6,$7,0*
20,1,$1+$1,$6,$7,$8,$9,0*
20,1,$1+$1,$8,$9,$2,$3,0*%
G04 Aperture macros list end*
%TA.AperFunction,ComponentPad*%
%ADD10C,2.300000*%
%TD*%
%TA.AperFunction,ComponentPad*%
%ADD11R,1.700000X1.700000*%
%TD*%
%TA.AperFunction,SMDPad,CuDef*%
%ADD12RoundRect,0.100000X-0.625000X-0.900000X0.625000X-0.900000X0.625000X0.900000X-0.625000X0.900000X0*%
%TD*%
%TA.AperFunction,ComponentPad*%
%ADD13C,0.600000*%
%TD*%
%TA.AperFunction,ComponentPad*%
%ADD14O,1.000000X1.600000*%
%TD*%
%TA.AperFunction,ComponentPad*%
%ADD15O,1.000000X2.100000*%
%TD*%
%TA.AperFunction,ViaPad*%
%ADD16C,0.600000*%
%TD*%
%TA.AperFunction,Conductor*%
%ADD17C,0.200000*%
%TD*%
%TA.AperFunction,Conductor*%
%ADD18C,0.400000*%
%TD*%
G04 APERTURE END LIST*
D10*
%TO.P,SW2,1,1*%
%TO.N,unconnected-(SW2-Pad1)*%
X85883750Y-65722500D03*
%TO.P,SW2,2,2*%
%TO.N,unconnected-(SW2-Pad2)*%
X92233750Y-63182500D03*
%TD*%
%TO.P,SW12,1,1*%
%TO.N,unconnected-(SW12-Pad1)*%
X85883750Y-103822500D03*
%TO.P,SW12,2,2*%
%TO.N,unconnected-(SW12-Pad2)*%
X92233750Y-101282500D03*
%TD*%
%TO.P,SW5,1,1*%
%TO.N,unconnected-(SW5-Pad1)*%
X143033750Y-65722500D03*
%TO.P,SW5,2,2*%
%TO.N,unconnected-(SW5-Pad2)*%
X149383750Y-63182500D03*
%TD*%
%TO.P,SW9,1,1*%
%TO.N,Net-(SW9-Pad1)*%
X123983750Y-84772500D03*
%TO.P,SW9,2,2*%
%TO.N,GP1*%
X130333750Y-82232500D03*
%TD*%
%TO.P,SW14,1,1*%
%TO.N,unconnected-(SW14-Pad1)*%
X123983750Y-103822500D03*
%TO.P,SW14,2,2*%
%TO.N,unconnected-(SW14-Pad2)*%
X130333750Y-101282500D03*
%TD*%
D11*
%TO.P,J1,1,Pin_1*%
%TO.N,GP1*%
X136525000Y-93662500D03*
%TO.P,J1,2,Pin_2*%
%TO.N,GP0*%
X136525000Y-91122500D03*
%TO.P,J1,3,Pin_3*%
%TO.N,GND*%
X136525000Y-88582500D03*
%TO.P,J1,4,Pin_4*%
%TO.N,D+*%
X136525000Y-86042500D03*
%TO.P,J1,5,Pin_5*%
%TO.N,D-*%
X136525000Y-83502500D03*
%TO.P,J1,6,Pin_6*%
%TO.N,VBUS*%
X136525000Y-80962500D03*
%TD*%
D10*
%TO.P,SW15,1,1*%
%TO.N,unconnected-(SW15-Pad1)*%
X143033750Y-103822500D03*
%TO.P,SW15,2,2*%
%TO.N,unconnected-(SW15-Pad2)*%
X149383750Y-101282500D03*
%TD*%
%TO.P,SW7,1,1*%
%TO.N,GP23*%
X85883750Y-84772500D03*
%TO.P,SW7,2,2*%
%TO.N,Net-(D1-Pad2)*%
X92233750Y-82232500D03*
%TD*%
%TO.P,SW10,1,1*%
%TO.N,unconnected-(SW10-Pad1)*%
X143033750Y-84772500D03*
%TO.P,SW10,2,2*%
%TO.N,unconnected-(SW10-Pad2)*%
X149383750Y-82232500D03*
%TD*%
%TO.P,SW11,1,1*%
%TO.N,unconnected-(SW11-Pad1)*%
X66833750Y-103822500D03*
%TO.P,SW11,2,2*%
%TO.N,unconnected-(SW11-Pad2)*%
X73183750Y-101282500D03*
%TD*%
%TO.P,SW3,1,1*%
%TO.N,unconnected-(SW3-Pad1)*%
X104933750Y-65722500D03*
%TO.P,SW3,2,2*%
%TO.N,unconnected-(SW3-Pad2)*%
X111283750Y-63182500D03*
%TD*%
%TO.P,SW1,1,1*%
%TO.N,unconnected-(SW1-Pad1)*%
X66833750Y-65722500D03*
%TO.P,SW1,2,2*%
%TO.N,unconnected-(SW1-Pad2)*%
X73183750Y-63182500D03*
%TD*%
%TO.P,SW8,1,1*%
%TO.N,Net-(SW8-Pad1)*%
X104933750Y-84772500D03*
%TO.P,SW8,2,2*%
%TO.N,GP0*%
X111283750Y-82232500D03*
%TD*%
%TO.P,SW6,1,1*%
%TO.N,unconnected-(SW6-Pad1)*%
X66833750Y-84772500D03*
%TO.P,SW6,2,2*%
%TO.N,unconnected-(SW6-Pad2)*%
X73183750Y-82232500D03*
%TD*%
%TO.P,SW13,1,1*%
%TO.N,unconnected-(SW13-Pad1)*%
X104933750Y-103822500D03*
%TO.P,SW13,2,2*%
%TO.N,unconnected-(SW13-Pad2)*%
X111283750Y-101282500D03*
%TD*%
D11*
%TO.P,J5,1,Pin_1*%
%TO.N,GP29*%
X80962500Y-80962500D03*
%TO.P,J5,2,Pin_2*%
%TO.N,GP28*%
X80962500Y-83502500D03*
%TO.P,J5,3,Pin_3*%
%TO.N,GP27*%
X80962500Y-86042500D03*
%TO.P,J5,4,Pin_4*%
%TO.N,GP26*%
X80962500Y-88582500D03*
%TO.P,J5,5,Pin_5*%
%TO.N,GP25*%
X80962500Y-91122500D03*
%TO.P,J5,6,Pin_6*%
%TO.N,GP24*%
X80962500Y-93662500D03*
%TD*%
%TO.P,J2,1,Pin_1*%
%TO.N,GP23*%
X82068750Y-96043750D03*
%TO.P,J2,2,Pin_2*%
%TO.N,GP22*%
X84608750Y-96043750D03*
%TO.P,J2,3,Pin_3*%
%TO.N,GP21*%
X87148750Y-96043750D03*
%TO.P,J2,4,Pin_4*%
%TO.N,GP20*%
X89688750Y-96043750D03*
%TO.P,J2,5,Pin_5*%
%TO.N,GP19*%
X92228750Y-96043750D03*
%TO.P,J2,6,Pin_6*%
%TO.N,GP18*%
X94768750Y-96043750D03*
%TO.P,J2,7,Pin_7*%
%TO.N,GP17*%
X97308750Y-96043750D03*
%TO.P,J2,8,Pin_8*%
%TO.N,GP16*%
X99848750Y-96043750D03*
%TO.P,J2,9,Pin_9*%
%TO.N,GP15*%
X102388750Y-96043750D03*
%TO.P,J2,10,Pin_10*%
%TO.N,GP14*%
X104928750Y-96043750D03*
%TO.P,J2,11,Pin_11*%
%TO.N,GP13*%
X107468750Y-96043750D03*
%TO.P,J2,12,Pin_12*%
%TO.N,GP12*%
X110008750Y-96043750D03*
%TO.P,J2,13,Pin_13*%
%TO.N,GP11*%
X112548750Y-96043750D03*
%TO.P,J2,14,Pin_14*%
%TO.N,GP10*%
X115088750Y-96043750D03*
%TO.P,J2,15,Pin_15*%
%TO.N,GP9*%
X117628750Y-96043750D03*
%TO.P,J2,16,Pin_16*%
%TO.N,GP8*%
X120168750Y-96043750D03*
%TO.P,J2,17,Pin_17*%
%TO.N,GP7*%
X122708750Y-96043750D03*
%TO.P,J2,18,Pin_18*%
%TO.N,GP6*%
X125248750Y-96043750D03*
%TO.P,J2,19,Pin_19*%
%TO.N,GP5*%
X127788750Y-96043750D03*
%TO.P,J2,20,Pin_20*%
%TO.N,GP4*%
X130328750Y-96043750D03*
%TO.P,J2,21,Pin_21*%
%TO.N,GP3*%
X132868750Y-96043750D03*
%TO.P,J2,22,Pin_22*%
%TO.N,GP2*%
X135408750Y-96043750D03*
%TD*%
D12*
%TO.P,EZ1,*%
%TO.N,*%
X121387500Y-74862500D03*
D13*
X121012500Y-74162500D03*
X116612500Y-74162500D03*
X121012500Y-74862500D03*
X116612500Y-75562500D03*
X121762500Y-75562500D03*
X116612500Y-74862500D03*
D12*
X116237500Y-74862500D03*
D13*
X121012500Y-75562500D03*
X115812500Y-75562500D03*
%TD*%
D14*
%TO.P,J3,S1,SHIELD*%
%TO.N,GND*%
X123473750Y-66418750D03*
D15*
X123473750Y-70598750D03*
D14*
X132113750Y-66418750D03*
D15*
X132113750Y-70598750D03*
%TD*%
D16*
%TO.N,GP7*%
X130396762Y-90829792D03*
%TO.N,GP1*%
X133200000Y-90000000D03*
X134143750Y-92600000D03*
X119612500Y-90962500D03*
X113812500Y-84362500D03*
%TO.N,GP0*%
X121012500Y-90962500D03*
X115065625Y-84109375D03*
%TO.N,GP29*%
X90000000Y-76000000D03*
X98470977Y-75970330D03*
%TO.N,GP28*%
X97283692Y-75366541D03*
X91200000Y-75400000D03*
%TO.N,+5V*%
X115612500Y-77762500D03*
X125812500Y-76562500D03*
%TO.N,GND*%
X94385951Y-77172827D03*
X106290188Y-75846844D03*
X113791009Y-77982731D03*
X109380535Y-77991270D03*
X123288724Y-81223910D03*
X99612500Y-74762500D03*
X107093934Y-80918198D03*
X123012500Y-74562500D03*
X106600000Y-77200000D03*
X93081917Y-91825124D03*
X133400000Y-76200000D03*
X93334350Y-87428208D03*
X84200000Y-78200000D03*
X97012500Y-86162500D03*
X120319849Y-77289573D03*
X100012500Y-82550000D03*
X100012500Y-80962500D03*
X90200000Y-90200000D03*
X117412500Y-87362500D03*
X114775000Y-74600000D03*
X101600000Y-80962500D03*
X121212500Y-79562500D03*
X94363957Y-85321280D03*
X134556509Y-88868846D03*
X98425000Y-80962500D03*
X100012500Y-79375000D03*
%TO.N,+3V3*%
X102893934Y-77518198D03*
X128412500Y-77800000D03*
X120412500Y-82962500D03*
X93467690Y-77984615D03*
X87400000Y-77400000D03*
X112000000Y-76200000D03*
X100989040Y-75120053D03*
%TO.N,+1V1*%
X95893934Y-83718198D03*
X101693934Y-76118198D03*
%TO.N,VBUS*%
X130832696Y-72842758D03*
%TO.N,D+*%
X118978131Y-77026646D03*
X122240054Y-77151106D03*
%TO.N,D-*%
X117862206Y-77162500D03*
X117938430Y-75622000D03*
%TO.N,RUN*%
X94400000Y-83000000D03*
X88600000Y-76800000D03*
%TO.N,QSPI_SS*%
X131400000Y-78000000D03*
X128000000Y-81400000D03*
%TO.N,GP20*%
X93000000Y-79200000D03*
X86800000Y-92000000D03*
%TO.N,GP19*%
X93800000Y-79600000D03*
X86800000Y-91000000D03*
%TO.N,GP18*%
X85800000Y-92400000D03*
X94600000Y-80000000D03*
%TO.N,GP17*%
X87800000Y-89800000D03*
X94400000Y-81000000D03*
%TO.N,GP16*%
X94400000Y-82000000D03*
X88800000Y-89800000D03*
%TO.N,GP7*%
X101812500Y-91162500D03*
X111412500Y-90762500D03*
%TO.N,GP6*%
X111412500Y-89162500D03*
X101516303Y-82761847D03*
%TO.N,GP5*%
X103208339Y-84187765D03*
X111112657Y-85865846D03*
%TO.N,GP4*%
X102084633Y-82201129D03*
X111812500Y-86533621D03*
%TO.N,GP3*%
X106612500Y-83762500D03*
X103703287Y-83536519D03*
%TO.N,Net-(D1-Pad2)*%
X96837500Y-91281250D03*
%TO.N,Net-(SW8-Pad1)*%
X108493934Y-90518198D03*
%TD*%
D17*
%TO.N,GND*%
X134525355Y-88900000D02*
X134556509Y-88868846D01*
X123412500Y-89962500D02*
X129906250Y-89962500D01*
X129906250Y-89962500D02*
X130968750Y-88900000D01*
X130968750Y-88900000D02*
X134525355Y-88900000D01*
%TO.N,GP7*%
X129064054Y-92162500D02*
X130396762Y-90829792D01*
X126437500Y-92162500D02*
X129064054Y-92162500D01*
X126437500Y-92162500D02*
X112812500Y-92162500D01*
%TO.N,GP1*%
X119612500Y-90962500D02*
X117012500Y-90962500D01*
X115212500Y-89162500D02*
X115212500Y-88162500D01*
X133200000Y-91656250D02*
X133200000Y-90000000D01*
X117012500Y-90962500D02*
X116812500Y-90762500D01*
X116812500Y-90762500D02*
X115212500Y-89162500D01*
X115212500Y-85762500D02*
X113812500Y-84362500D01*
X134143750Y-92600000D02*
X133200000Y-91656250D01*
X115212500Y-88162500D02*
X115212500Y-85762500D01*
%TO.N,GP0*%
X115812500Y-84856250D02*
X115065625Y-84109375D01*
X116412500Y-89562500D02*
X117212500Y-90362500D01*
X116412500Y-89562500D02*
X115812500Y-88962500D01*
X117212500Y-90362500D02*
X118412500Y-90362500D01*
X118412500Y-90362500D02*
X118612500Y-90362500D01*
X121012500Y-90962500D02*
X120412500Y-90362500D01*
X115812500Y-88962500D02*
X115812500Y-84856250D01*
X120412500Y-90362500D02*
X118412500Y-90362500D01*
%TO.N,GP29*%
X98441307Y-76000000D02*
X98470977Y-75970330D01*
X90000000Y-76000000D02*
X98441307Y-76000000D01*
%TO.N,GP28*%
X97250233Y-75400000D02*
X97283692Y-75366541D01*
X91200000Y-75400000D02*
X97250233Y-75400000D01*
D18*
%TO.N,+5V*%
X123843750Y-78562500D02*
X123843750Y-78531250D01*
X123843750Y-78531250D02*
X125812500Y-76562500D01*
X115612500Y-77762500D02*
X116412500Y-78562500D01*
X116412500Y-78562500D02*
X123843750Y-78562500D01*
D17*
%TO.N,GND*%
X106600000Y-77200000D02*
X106290188Y-76890188D01*
X99612500Y-74762500D02*
X100092690Y-74282310D01*
X117412500Y-87362500D02*
X121812500Y-82962500D01*
X107093934Y-78906066D02*
X107093934Y-79106066D01*
X123473750Y-70598750D02*
X123473750Y-71086250D01*
X87800000Y-74600000D02*
X84200000Y-78200000D01*
X93678720Y-85321280D02*
X94363957Y-85321280D01*
X124568750Y-74562500D02*
X125412500Y-75406250D01*
X84400000Y-93800000D02*
X86800000Y-93800000D01*
X124412500Y-86962500D02*
X124412500Y-88962500D01*
X128012500Y-83362500D02*
X124412500Y-86962500D01*
X112575000Y-74600000D02*
X114775000Y-74600000D01*
X95321280Y-85321280D02*
X94363957Y-85321280D01*
X106651246Y-77251246D02*
X107093934Y-77693934D01*
X86800000Y-93800000D02*
X90200000Y-90400000D01*
X130212500Y-85162500D02*
X133612500Y-85162500D01*
X125412500Y-75406250D02*
X126206250Y-75406250D01*
X124412500Y-88962500D02*
X123412500Y-89962500D01*
X133400000Y-76200000D02*
X134556509Y-77356509D01*
X133612500Y-85162500D02*
X134556509Y-86106509D01*
X99612500Y-74762500D02*
X99450000Y-74600000D01*
X123412500Y-89962500D02*
X122412500Y-89962500D01*
X112575000Y-74600000D02*
X113450000Y-74600000D01*
X136525000Y-88582500D02*
X134842855Y-88582500D01*
X113791009Y-77982731D02*
X109389074Y-77982731D01*
X134556509Y-86106509D02*
X134556509Y-88868846D01*
X93334350Y-85665650D02*
X93678720Y-85321280D01*
X128312634Y-76200000D02*
X133400000Y-76200000D01*
X96162500Y-86162500D02*
X95321280Y-85321280D01*
X97012500Y-83962500D02*
X97012500Y-86162500D01*
X104725654Y-74282310D02*
X106290188Y-75846844D01*
X107093934Y-79106066D02*
X107093934Y-79293934D01*
X113450000Y-74600000D02*
X116729346Y-77879346D01*
X99027173Y-77172827D02*
X99612500Y-76587500D01*
X82400000Y-80000000D02*
X84200000Y-78200000D01*
X101681066Y-79293934D02*
X100012500Y-80962500D01*
X134556509Y-77356509D02*
X134556509Y-88868846D01*
X107537032Y-74600000D02*
X106290188Y-75846844D01*
X127518884Y-75406250D02*
X128312634Y-76200000D01*
X90200000Y-90400000D02*
X90200000Y-90200000D01*
X93081917Y-91825124D02*
X93081917Y-89718083D01*
X106290188Y-75846844D02*
X106290188Y-76509812D01*
X99450000Y-74600000D02*
X87800000Y-74600000D01*
X97012500Y-86162500D02*
X96162500Y-86162500D01*
X113791009Y-81341009D02*
X113791009Y-77982731D01*
X123288724Y-81223910D02*
X128312634Y-76200000D01*
X126206250Y-75406250D02*
X127518884Y-75406250D01*
X109389074Y-77982731D02*
X109380535Y-77991270D01*
X122873910Y-81223910D02*
X121212500Y-79562500D01*
X109380535Y-77991270D02*
X108008730Y-77991270D01*
X121812500Y-82962500D02*
X128012500Y-82962500D01*
X123288724Y-81223910D02*
X122873910Y-81223910D01*
X123473750Y-71086250D02*
X124618750Y-72231250D01*
X107093934Y-77693934D02*
X107093934Y-79106066D01*
X83400000Y-92800000D02*
X82400000Y-91800000D01*
X94385951Y-77172827D02*
X99027173Y-77172827D01*
X124618750Y-72231250D02*
X124618750Y-73661100D01*
X128012500Y-82962500D02*
X130212500Y-85162500D01*
X107537032Y-74600000D02*
X112575000Y-74600000D01*
X93081917Y-89718083D02*
X93334350Y-89465650D01*
X82400000Y-91800000D02*
X82400000Y-80000000D01*
X106290188Y-76890188D02*
X106290188Y-76509812D01*
X99612500Y-76587500D02*
X99612500Y-74762500D01*
X119730076Y-77879346D02*
X120319849Y-77289573D01*
X83400000Y-92800000D02*
X84400000Y-93800000D01*
X128012500Y-82962500D02*
X128012500Y-83362500D01*
X107093934Y-79293934D02*
X101681066Y-79293934D01*
X108008730Y-77991270D02*
X107093934Y-78906066D01*
X121212500Y-79562500D02*
X121212500Y-79587599D01*
X93334350Y-87428208D02*
X93334350Y-85665650D01*
X124618750Y-73661100D02*
X123717350Y-74562500D01*
X122412500Y-89962500D02*
X113791009Y-81341009D01*
X93334350Y-89465650D02*
X93334350Y-87428208D01*
X107093934Y-79293934D02*
X107093934Y-80918198D01*
X134842855Y-88582500D02*
X134556509Y-88868846D01*
X100012500Y-80962500D02*
X97012500Y-83962500D01*
X123012500Y-74562500D02*
X124568750Y-74562500D01*
X123717350Y-74562500D02*
X123012500Y-74562500D01*
X116729346Y-77879346D02*
X119730076Y-77879346D01*
X100092690Y-74282310D02*
X104725654Y-74282310D01*
%TO.N,+3V3*%
X114612500Y-77762500D02*
X119812500Y-82962500D01*
X126812500Y-80562500D02*
X125212500Y-82162500D01*
X114612500Y-77162500D02*
X114612500Y-77762500D01*
X102893934Y-76118198D02*
X101693934Y-74918198D01*
X119812500Y-82962500D02*
X120412500Y-82962500D01*
X125212500Y-82162500D02*
X121212500Y-82162500D01*
X93467690Y-77984615D02*
X93083075Y-77600000D01*
X112000000Y-76200000D02*
X113650000Y-76200000D01*
X101693934Y-74918198D02*
X101190895Y-74918198D01*
X102893934Y-77518198D02*
X102893934Y-76118198D01*
X87600000Y-77600000D02*
X93083075Y-77600000D01*
X113650000Y-76200000D02*
X114612500Y-77162500D01*
X101190895Y-74918198D02*
X100989040Y-75120053D01*
X87600000Y-77600000D02*
X87400000Y-77400000D01*
X128412500Y-77800000D02*
X128200000Y-77800000D01*
X126812500Y-79187500D02*
X126812500Y-80562500D01*
X121212500Y-82162500D02*
X120412500Y-82962500D01*
X128200000Y-77800000D02*
X126812500Y-79187500D01*
%TO.N,+1V1*%
X95893934Y-81906066D02*
X101681802Y-76118198D01*
X101681802Y-76118198D02*
X101693934Y-76118198D01*
X95893934Y-83718198D02*
X95893934Y-81906066D01*
D18*
%TO.N,VBUS*%
X130832696Y-72842758D02*
X131038411Y-73048473D01*
X131832161Y-74682161D02*
X131038411Y-73888411D01*
X136226037Y-80962500D02*
X136525000Y-80962500D01*
X131038411Y-73048473D02*
X131038411Y-73888411D01*
X135361854Y-75317820D02*
X134726195Y-74682161D01*
X134726195Y-74682161D02*
X131832161Y-74682161D01*
X135361854Y-80098317D02*
X135361854Y-75317820D01*
X135361854Y-80098317D02*
X136226037Y-80962500D01*
D17*
%TO.N,D+*%
X121555827Y-76466879D02*
X120704412Y-76466879D01*
X119537898Y-76466879D02*
X118978131Y-77026646D01*
X120704412Y-76466879D02*
X119537898Y-76466879D01*
X122240054Y-77151106D02*
X121555827Y-76466879D01*
%TO.N,D-*%
X117862206Y-77162500D02*
X117938430Y-77063332D01*
X117938430Y-77063332D02*
X117938430Y-75622000D01*
%TO.N,RUN*%
X94800000Y-83000000D02*
X95400000Y-82400000D01*
X95400000Y-79055470D02*
X93144530Y-76800000D01*
X93144530Y-76800000D02*
X88600000Y-76800000D01*
X94400000Y-83000000D02*
X94800000Y-83000000D01*
X95400000Y-82400000D02*
X95400000Y-79055470D01*
%TO.N,QSPI_SS*%
X128000000Y-81400000D02*
X131400000Y-78000000D01*
%TO.N,GP20*%
X83200000Y-84400000D02*
X88400000Y-79200000D01*
X83200000Y-88400000D02*
X83200000Y-84400000D01*
X86800000Y-92000000D02*
X83200000Y-88400000D01*
X88400000Y-79200000D02*
X93000000Y-79200000D01*
%TO.N,GP19*%
X84723069Y-86052253D02*
X85087676Y-86052253D01*
X93600000Y-79800000D02*
X88400000Y-79800000D01*
X84200000Y-84000000D02*
X84200000Y-85529184D01*
X93800000Y-79600000D02*
X93600000Y-79800000D01*
X85920731Y-90120731D02*
X86800000Y-91000000D01*
X85920731Y-86885308D02*
X85920731Y-90120731D01*
X85087676Y-86052253D02*
X85920731Y-86885308D01*
X88400000Y-79800000D02*
X84200000Y-84000000D01*
X84200000Y-85529184D02*
X84723069Y-86052253D01*
%TO.N,GP18*%
X82800000Y-84200000D02*
X88400000Y-78600000D01*
X85800000Y-91600000D02*
X82800000Y-88600000D01*
X93800000Y-78600000D02*
X94600000Y-79400000D01*
X85800000Y-92400000D02*
X85800000Y-91600000D01*
X82800000Y-88600000D02*
X82800000Y-84200000D01*
X88400000Y-78600000D02*
X93800000Y-78600000D01*
X94600000Y-79400000D02*
X94600000Y-80000000D01*
%TO.N,GP17*%
X86800000Y-86200000D02*
X86800000Y-88800000D01*
X90000000Y-81400000D02*
X91200000Y-80200000D01*
X86800000Y-88800000D02*
X87800000Y-89800000D01*
X86800000Y-86200000D02*
X90000000Y-83000000D01*
X91200000Y-80200000D02*
X93600000Y-80200000D01*
X94400000Y-81000000D02*
X93600000Y-80200000D01*
X90000000Y-81400000D02*
X90000000Y-83000000D01*
%TO.N,GP16*%
X87200000Y-86400000D02*
X90400000Y-83200000D01*
X90400000Y-81600000D02*
X91400000Y-80600000D01*
X90400000Y-81600000D02*
X90400000Y-83200000D01*
X91400000Y-80600000D02*
X93000000Y-80600000D01*
X87200000Y-88200000D02*
X88800000Y-89800000D01*
X87200000Y-86400000D02*
X87200000Y-88200000D01*
X94400000Y-82000000D02*
X93000000Y-80600000D01*
%TO.N,GP7*%
X101812500Y-91162500D02*
X111012500Y-91162500D01*
X112812500Y-92162500D02*
X111412500Y-90762500D01*
X111012500Y-91162500D02*
X111412500Y-90762500D01*
%TO.N,GP6*%
X113012500Y-86290520D02*
X111412500Y-87890520D01*
X101412500Y-82658044D02*
X101412500Y-81962500D01*
X113012500Y-81362500D02*
X113012500Y-86290520D01*
X101516303Y-82761847D02*
X101412500Y-82658044D01*
X111412500Y-87890520D02*
X111412500Y-89162500D01*
X101412500Y-81962500D02*
X101812500Y-81562500D01*
X112212500Y-80562500D02*
X113012500Y-81362500D01*
X101812500Y-81562500D02*
X109212500Y-81562500D01*
X109212500Y-81562500D02*
X110212500Y-80562500D01*
X110212500Y-80562500D02*
X112212500Y-80562500D01*
%TO.N,GP5*%
X103208339Y-84187765D02*
X103012500Y-83991926D01*
X111112657Y-85230855D02*
X111112657Y-85865846D01*
X103012500Y-83162500D02*
X103504725Y-82670275D01*
X103504725Y-82670275D02*
X108552077Y-82670275D01*
X103012500Y-83991926D02*
X103012500Y-83162500D01*
X108552077Y-82670275D02*
X111112657Y-85230855D01*
%TO.N,GP4*%
X108878078Y-82201129D02*
X111812500Y-85135551D01*
X111812500Y-85135551D02*
X111812500Y-86533621D01*
X102084633Y-82201129D02*
X108878078Y-82201129D01*
%TO.N,GP3*%
X103703287Y-83536519D02*
X104077306Y-83162500D01*
X104077306Y-83162500D02*
X106012500Y-83162500D01*
X106012500Y-83162500D02*
X106612500Y-83762500D01*
%TO.N,Net-(D1-Pad2)*%
X92562500Y-92562500D02*
X92200000Y-92200000D01*
X96837500Y-91281250D02*
X95556250Y-92562500D01*
X95556250Y-92562500D02*
X92562500Y-92562500D01*
X92200000Y-92200000D02*
X92200000Y-82266250D01*
%TO.N,Net-(SW8-Pad1)*%
X104933750Y-87958014D02*
X104933750Y-84772500D01*
X108493934Y-90518198D02*
X107493934Y-90518198D01*
X107493934Y-90518198D02*
X104933750Y-87958014D01*
%TD*%
%TA.AperFunction,Conductor*%
%TO.N,GND*%
G36*
X125172337Y-73045002D02*
G01*
X125218830Y-73098658D01*
X125228934Y-73168932D01*
X125199440Y-73233512D01*
X125147208Y-73269438D01*
X125108697Y-73283417D01*
X125108688Y-73283421D01*
X125101813Y-73285917D01*
X125095696Y-73289928D01*
X125095693Y-73289929D01*
X124962308Y-73377380D01*
X124953898Y-73382894D01*
X124832260Y-73511297D01*
X124743424Y-73664240D01*
X124741303Y-73671244D01*
X124741301Y-73671248D01*
X124704640Y-73792296D01*
X124692155Y-73833517D01*
X124681203Y-74010048D01*
X124711156Y-74184364D01*
X124780407Y-74347114D01*
X124784740Y-74353002D01*
X124784743Y-74353007D01*
X124830273Y-74414874D01*
X124885242Y-74489568D01*
X124890820Y-74494307D01*
X124890823Y-74494310D01*
X125014456Y-74599344D01*
X125014460Y-74599347D01*
X125020035Y-74604083D01*
X125075185Y-74632244D01*
X125171042Y-74681192D01*
X125171044Y-74681193D01*
X125177558Y-74684519D01*
X125184663Y-74686258D01*
X125184667Y-74686259D01*
X125266988Y-74706402D01*
X125349360Y-74726558D01*
X125354962Y-74726906D01*
X125354965Y-74726906D01*
X125358575Y-74727130D01*
X125358585Y-74727130D01*
X125360514Y-74727250D01*
X125488043Y-74727250D01*
X125557786Y-74719119D01*
X125612161Y-74712780D01*
X125612165Y-74712779D01*
X125619431Y-74711932D01*
X125626306Y-74709437D01*
X125626308Y-74709436D01*
X125773566Y-74655983D01*
X125844424Y-74651542D01*
X125873859Y-74662205D01*
X125903323Y-74677250D01*
X125917558Y-74684519D01*
X125924663Y-74686258D01*
X125924667Y-74686259D01*
X126006988Y-74706402D01*
X126089360Y-74726558D01*
X126094962Y-74726906D01*
X126094965Y-74726906D01*
X126098575Y-74727130D01*
X126098585Y-74727130D01*
X126100514Y-74727250D01*
X126228043Y-74727250D01*
X126297786Y-74719119D01*
X126352161Y-74712780D01*
X126352165Y-74712779D01*
X126359431Y-74711932D01*
X126366306Y-74709437D01*
X126366308Y-74709436D01*
X126513566Y-74655983D01*
X126584424Y-74651542D01*
X126613859Y-74662205D01*
X126643323Y-74677250D01*
X126657558Y-74684519D01*
X126664663Y-74686258D01*
X126664667Y-74686259D01*
X126746988Y-74706402D01*
X126829360Y-74726558D01*
X126834962Y-74726906D01*
X126834965Y-74726906D01*
X126838575Y-74727130D01*
X126838585Y-74727130D01*
X126840514Y-74727250D01*
X126968043Y-74727250D01*
X127037786Y-74719119D01*
X127092161Y-74712780D01*
X127092165Y-74712779D01*
X127099431Y-74711932D01*
X127106306Y-74709437D01*
X127106308Y-74709436D01*
X127258811Y-74654079D01*
X127258812Y-74654079D01*
X127265687Y-74651583D01*
X127271804Y-74647572D01*
X127271807Y-74647571D01*
X127407483Y-74558618D01*
X127407484Y-74558617D01*
X127413602Y-74554606D01*
X127535240Y-74426203D01*
X127624076Y-74273260D01*
X127627810Y-74260933D01*
X127673223Y-74110989D01*
X127675345Y-74103983D01*
X127675798Y-74096677D01*
X127676239Y-74094228D01*
X127707988Y-74030727D01*
X127769029Y-73994470D01*
X127839982Y-73996971D01*
X127898319Y-74037435D01*
X127924427Y-74095204D01*
X127931156Y-74134364D01*
X128000407Y-74297114D01*
X128004740Y-74303002D01*
X128004743Y-74303007D01*
X128049744Y-74364155D01*
X128105242Y-74439568D01*
X128110820Y-74444307D01*
X128110823Y-74444310D01*
X128234456Y-74549344D01*
X128234460Y-74549347D01*
X128240035Y-74554083D01*
X128279866Y-74574422D01*
X128391042Y-74631192D01*
X128391044Y-74631193D01*
X128397558Y-74634519D01*
X128404663Y-74636258D01*
X128404667Y-74636259D01*
X128477494Y-74654079D01*
X128569360Y-74676558D01*
X128574962Y-74676906D01*
X128574965Y-74676906D01*
X128578575Y-74677130D01*
X128578585Y-74677130D01*
X128580514Y-74677250D01*
X128708043Y-74677250D01*
X128781148Y-74668727D01*
X128832161Y-74662780D01*
X128832165Y-74662779D01*
X128839431Y-74661932D01*
X128846306Y-74659437D01*
X128846308Y-74659436D01*
X128993566Y-74605983D01*
X129064424Y-74601542D01*
X129093859Y-74612205D01*
X129124964Y-74628088D01*
X129137558Y-74634519D01*
X129144663Y-74636258D01*
X129144667Y-74636259D01*
X129217494Y-74654079D01*
X129309360Y-74676558D01*
X129314962Y-74676906D01*
X129314965Y-74676906D01*
X129318575Y-74677130D01*
X129318585Y-74677130D01*
X129320514Y-74677250D01*
X129448043Y-74677250D01*
X129521148Y-74668727D01*
X129572161Y-74662780D01*
X129572165Y-74662779D01*
X129579431Y-74661932D01*
X129586306Y-74659437D01*
X129586308Y-74659436D01*
X129733566Y-74605983D01*
X129804424Y-74601542D01*
X129833859Y-74612205D01*
X129864964Y-74628088D01*
X129877558Y-74634519D01*
X129884663Y-74636258D01*
X129884667Y-74636259D01*
X129957494Y-74654079D01*
X130049360Y-74676558D01*
X130054962Y-74676906D01*
X130054965Y-74676906D01*
X130058575Y-74677130D01*
X130058585Y-74677130D01*
X130060514Y-74677250D01*
X130188043Y-74677250D01*
X130261148Y-74668727D01*
X130312161Y-74662780D01*
X130312165Y-74662779D01*
X130319431Y-74661932D01*
X130326306Y-74659437D01*
X130326308Y-74659436D01*
X130478811Y-74604079D01*
X130478812Y-74604079D01*
X130485687Y-74601583D01*
X130559389Y-74553262D01*
X130627325Y-74532639D01*
X130695625Y-74552019D01*
X130717569Y-74569539D01*
X131310711Y-75162681D01*
X131316565Y-75168946D01*
X131354600Y-75212546D01*
X131388956Y-75236692D01*
X131406880Y-75249289D01*
X131412175Y-75253222D01*
X131462443Y-75292637D01*
X131469359Y-75295760D01*
X131471645Y-75297144D01*
X131486326Y-75305518D01*
X131488686Y-75306783D01*
X131494900Y-75311151D01*
X131501979Y-75313911D01*
X131501981Y-75313912D01*
X131554436Y-75334363D01*
X131560505Y-75336914D01*
X131618734Y-75363206D01*
X131626201Y-75364590D01*
X131628756Y-75365391D01*
X131645009Y-75370020D01*
X131647589Y-75370683D01*
X131654670Y-75373443D01*
X131662201Y-75374434D01*
X131662203Y-75374435D01*
X131691822Y-75378334D01*
X131718022Y-75381783D01*
X131724520Y-75382813D01*
X131787347Y-75394457D01*
X131794927Y-75394020D01*
X131794928Y-75394020D01*
X131849553Y-75390870D01*
X131856807Y-75390661D01*
X134380535Y-75390661D01*
X134448656Y-75410663D01*
X134469630Y-75427566D01*
X134616449Y-75574385D01*
X134650475Y-75636697D01*
X134653354Y-75663480D01*
X134653354Y-80069405D01*
X134653062Y-80077975D01*
X134649960Y-80123484D01*
X134649129Y-80135669D01*
X134650434Y-80143146D01*
X134650434Y-80143147D01*
X134660115Y-80198616D01*
X134661077Y-80205138D01*
X134668752Y-80268559D01*
X134671435Y-80275660D01*
X134672076Y-80278269D01*
X134676539Y-80294579D01*
X134677304Y-80297115D01*
X134678611Y-80304601D01*
X134681665Y-80311558D01*
X134704296Y-80363112D01*
X134706787Y-80369216D01*
X134729367Y-80428973D01*
X134733671Y-80435236D01*
X134734908Y-80437602D01*
X134743153Y-80452414D01*
X134744486Y-80454668D01*
X134747539Y-80461622D01*
X134778001Y-80501319D01*
X134786433Y-80512308D01*
X134790313Y-80517649D01*
X134822193Y-80564037D01*
X134822198Y-80564042D01*
X134826497Y-80570298D01*
X134832167Y-80575349D01*
X134832168Y-80575351D01*
X134873024Y-80611752D01*
X134878300Y-80616733D01*
X135129595Y-80868028D01*
X135163621Y-80930340D01*
X135166500Y-80957123D01*
X135166500Y-81860634D01*
X135173255Y-81922816D01*
X135224385Y-82059205D01*
X135287279Y-82143124D01*
X135297630Y-82156935D01*
X135322478Y-82223441D01*
X135307425Y-82292824D01*
X135297632Y-82308062D01*
X135224385Y-82405795D01*
X135173255Y-82542184D01*
X135166500Y-82604366D01*
X135166500Y-84400634D01*
X135173255Y-84462816D01*
X135224385Y-84599205D01*
X135297630Y-84696935D01*
X135322478Y-84763441D01*
X135307425Y-84832824D01*
X135297633Y-84848061D01*
X135224385Y-84945795D01*
X135173255Y-85082184D01*
X135166500Y-85144366D01*
X135166500Y-86940634D01*
X135173255Y-87002816D01*
X135224385Y-87139205D01*
X135267191Y-87196321D01*
X135297942Y-87237352D01*
X135322790Y-87303858D01*
X135307737Y-87373241D01*
X135297942Y-87388482D01*
X135230214Y-87478851D01*
X135221676Y-87494446D01*
X135176522Y-87614894D01*
X135172895Y-87630149D01*
X135167369Y-87681014D01*
X135167000Y-87687828D01*
X135167000Y-88310385D01*
X135171475Y-88325624D01*
X135172865Y-88326829D01*
X135180548Y-88328500D01*
X135890500Y-88328500D01*
X135958621Y-88348502D01*
X136005114Y-88402158D01*
X136016500Y-88454500D01*
X136016500Y-88710500D01*
X135996498Y-88778621D01*
X135942842Y-88825114D01*
X135890500Y-88836500D01*
X135185116Y-88836500D01*
X135169877Y-88840975D01*
X135168672Y-88842365D01*
X135167001Y-88850048D01*
X135167001Y-89477169D01*
X135167371Y-89483990D01*
X135172895Y-89534852D01*
X135176521Y-89550104D01*
X135221676Y-89670554D01*
X135230214Y-89686149D01*
X135297942Y-89776518D01*
X135322790Y-89843025D01*
X135307737Y-89912407D01*
X135297942Y-89927648D01*
X135297294Y-89928513D01*
X135224385Y-90025795D01*
X135173255Y-90162184D01*
X135166500Y-90224366D01*
X135166500Y-92020634D01*
X135173255Y-92082816D01*
X135224385Y-92219205D01*
X135297630Y-92316935D01*
X135322478Y-92383441D01*
X135307425Y-92452824D01*
X135297632Y-92468062D01*
X135224385Y-92565795D01*
X135221233Y-92574203D01*
X135221232Y-92574205D01*
X135200490Y-92629534D01*
X135157849Y-92686299D01*
X135091287Y-92710999D01*
X135021938Y-92695792D01*
X134971820Y-92645506D01*
X134957293Y-92599350D01*
X134953121Y-92562151D01*
X134937147Y-92419745D01*
X134922531Y-92377773D01*
X134879814Y-92255106D01*
X134879812Y-92255103D01*
X134877495Y-92248448D01*
X134781376Y-92094624D01*
X134769650Y-92082816D01*
X134658528Y-91970915D01*
X134658524Y-91970912D01*
X134653565Y-91965918D01*
X134634786Y-91954000D01*
X134570365Y-91913118D01*
X134500416Y-91868727D01*
X134426209Y-91842303D01*
X134336175Y-91810243D01*
X134336170Y-91810242D01*
X134329540Y-91807881D01*
X134322554Y-91807048D01*
X134322550Y-91807047D01*
X134239614Y-91797158D01*
X134174341Y-91769231D01*
X134165438Y-91761139D01*
X133845405Y-91441106D01*
X133811379Y-91378794D01*
X133808500Y-91352011D01*
X133808500Y-90583248D01*
X133829552Y-90513521D01*
X133873038Y-90448069D01*
X133923643Y-90371902D01*
X133970607Y-90248271D01*
X133985555Y-90208920D01*
X133985556Y-90208918D01*
X133988055Y-90202338D01*
X133991099Y-90180678D01*
X134012748Y-90026639D01*
X134012748Y-90026636D01*
X134013299Y-90022717D01*
X134013616Y-90000000D01*
X133993397Y-89819745D01*
X133990202Y-89810569D01*
X133936064Y-89655106D01*
X133936062Y-89655103D01*
X133933745Y-89648448D01*
X133902688Y-89598746D01*
X133841359Y-89500598D01*
X133837626Y-89494624D01*
X133823941Y-89480843D01*
X133714778Y-89370915D01*
X133714774Y-89370912D01*
X133709815Y-89365918D01*
X133698697Y-89358862D01*
X133626688Y-89313164D01*
X133556666Y-89268727D01*
X133526580Y-89258014D01*
X133392425Y-89210243D01*
X133392420Y-89210242D01*
X133385790Y-89207881D01*
X133378802Y-89207048D01*
X133378799Y-89207047D01*
X133255402Y-89192333D01*
X133205680Y-89186404D01*
X133198677Y-89187140D01*
X133198676Y-89187140D01*
X133032288Y-89204628D01*
X133032286Y-89204629D01*
X133025288Y-89205364D01*
X132853579Y-89263818D01*
X132847575Y-89267512D01*
X132705095Y-89355166D01*
X132705092Y-89355168D01*
X132699088Y-89358862D01*
X132694053Y-89363793D01*
X132694050Y-89363795D01*
X132574525Y-89480843D01*
X132569493Y-89485771D01*
X132471235Y-89638238D01*
X132468826Y-89644858D01*
X132468824Y-89644861D01*
X132411606Y-89802066D01*
X132409197Y-89808685D01*
X132386463Y-89988640D01*
X132404163Y-90169160D01*
X132461418Y-90341273D01*
X132465065Y-90347295D01*
X132465066Y-90347297D01*
X132548400Y-90484898D01*
X132555380Y-90496424D01*
X132560275Y-90501493D01*
X132564571Y-90507071D01*
X132562243Y-90508864D01*
X132589071Y-90560115D01*
X132591500Y-90584734D01*
X132591500Y-91608114D01*
X132590422Y-91624557D01*
X132586250Y-91656250D01*
X132591500Y-91696130D01*
X132591500Y-91696135D01*
X132600687Y-91765918D01*
X132607162Y-91815101D01*
X132668476Y-91963126D01*
X132673503Y-91969677D01*
X132673504Y-91969679D01*
X132741520Y-92058319D01*
X132741526Y-92058325D01*
X132766013Y-92090237D01*
X132772568Y-92095267D01*
X132791379Y-92109702D01*
X132803770Y-92120569D01*
X133304657Y-92621456D01*
X133338683Y-92683768D01*
X133340961Y-92698256D01*
X133342977Y-92718817D01*
X133347913Y-92769160D01*
X133405168Y-92941273D01*
X133408815Y-92947295D01*
X133408816Y-92947297D01*
X133476891Y-93059702D01*
X133499130Y-93096424D01*
X133504019Y-93101487D01*
X133504020Y-93101488D01*
X133538642Y-93137340D01*
X133625132Y-93226902D01*
X133776909Y-93326222D01*
X133783513Y-93328678D01*
X133783515Y-93328679D01*
X133940308Y-93386990D01*
X133940310Y-93386990D01*
X133946918Y-93389448D01*
X134030745Y-93400633D01*
X134119730Y-93412507D01*
X134119734Y-93412507D01*
X134126711Y-93413438D01*
X134133722Y-93412800D01*
X134133726Y-93412800D01*
X134276209Y-93399832D01*
X134307350Y-93396998D01*
X134314052Y-93394820D01*
X134314054Y-93394820D01*
X134473159Y-93343124D01*
X134473162Y-93343123D01*
X134479858Y-93340947D01*
X134635662Y-93248069D01*
X134767016Y-93122982D01*
X134867393Y-92971902D01*
X134922712Y-92826275D01*
X134965601Y-92769697D01*
X135032270Y-92745288D01*
X135101551Y-92760798D01*
X135151450Y-92811302D01*
X135166500Y-92871019D01*
X135166500Y-94559250D01*
X135146498Y-94627371D01*
X135092842Y-94673864D01*
X135040500Y-94685250D01*
X134510616Y-94685250D01*
X134448434Y-94692005D01*
X134312045Y-94743135D01*
X134290603Y-94759205D01*
X134214315Y-94816380D01*
X134147809Y-94841228D01*
X134078426Y-94826175D01*
X134063185Y-94816380D01*
X133986897Y-94759205D01*
X133965455Y-94743135D01*
X133829066Y-94692005D01*
X133766884Y-94685250D01*
X131970616Y-94685250D01*
X131908434Y-94692005D01*
X131772045Y-94743135D01*
X131750603Y-94759205D01*
X131674315Y-94816380D01*
X131607809Y-94841228D01*
X131538426Y-94826175D01*
X131523185Y-94816380D01*
X131446897Y-94759205D01*
X131425455Y-94743135D01*
X131289066Y-94692005D01*
X131226884Y-94685250D01*
X129430616Y-94685250D01*
X129368434Y-94692005D01*
X129232045Y-94743135D01*
X129210603Y-94759205D01*
X129134315Y-94816380D01*
X129067809Y-94841228D01*
X128998426Y-94826175D01*
X128983185Y-94816380D01*
X128906897Y-94759205D01*
X128885455Y-94743135D01*
X128749066Y-94692005D01*
X128686884Y-94685250D01*
X126890616Y-94685250D01*
X126828434Y-94692005D01*
X126692045Y-94743135D01*
X126670603Y-94759205D01*
X126594315Y-94816380D01*
X126527809Y-94841228D01*
X126458426Y-94826175D01*
X126443185Y-94816380D01*
X126366897Y-94759205D01*
X126345455Y-94743135D01*
X126209066Y-94692005D01*
X126146884Y-94685250D01*
X124350616Y-94685250D01*
X124288434Y-94692005D01*
X124152045Y-94743135D01*
X124130603Y-94759205D01*
X124054315Y-94816380D01*
X123987809Y-94841228D01*
X123918426Y-94826175D01*
X123903185Y-94816380D01*
X123826897Y-94759205D01*
X123805455Y-94743135D01*
X123669066Y-94692005D01*
X123606884Y-94685250D01*
X121810616Y-94685250D01*
X121748434Y-94692005D01*
X121612045Y-94743135D01*
X121590603Y-94759205D01*
X121514315Y-94816380D01*
X121447809Y-94841228D01*
X121378426Y-94826175D01*
X121363185Y-94816380D01*
X121286897Y-94759205D01*
X121265455Y-94743135D01*
X121129066Y-94692005D01*
X121066884Y-94685250D01*
X119270616Y-94685250D01*
X119208434Y-94692005D01*
X119072045Y-94743135D01*
X119050603Y-94759205D01*
X118974315Y-94816380D01*
X118907809Y-94841228D01*
X118838426Y-94826175D01*
X118823185Y-94816380D01*
X118746897Y-94759205D01*
X118725455Y-94743135D01*
X118589066Y-94692005D01*
X118526884Y-94685250D01*
X116730616Y-94685250D01*
X116668434Y-94692005D01*
X116532045Y-94743135D01*
X116510603Y-94759205D01*
X116434315Y-94816380D01*
X116367809Y-94841228D01*
X116298426Y-94826175D01*
X116283185Y-94816380D01*
X116206897Y-94759205D01*
X116185455Y-94743135D01*
X116049066Y-94692005D01*
X115986884Y-94685250D01*
X114190616Y-94685250D01*
X114128434Y-94692005D01*
X113992045Y-94743135D01*
X113970603Y-94759205D01*
X113894315Y-94816380D01*
X113827809Y-94841228D01*
X113758426Y-94826175D01*
X113743185Y-94816380D01*
X113666897Y-94759205D01*
X113645455Y-94743135D01*
X113509066Y-94692005D01*
X113446884Y-94685250D01*
X111650616Y-94685250D01*
X111588434Y-94692005D01*
X111452045Y-94743135D01*
X111430603Y-94759205D01*
X111354315Y-94816380D01*
X111287809Y-94841228D01*
X111218426Y-94826175D01*
X111203185Y-94816380D01*
X111126897Y-94759205D01*
X111105455Y-94743135D01*
X110969066Y-94692005D01*
X110906884Y-94685250D01*
X109110616Y-94685250D01*
X109048434Y-94692005D01*
X108912045Y-94743135D01*
X108890603Y-94759205D01*
X108814315Y-94816380D01*
X108747809Y-94841228D01*
X108678426Y-94826175D01*
X108663185Y-94816380D01*
X108586897Y-94759205D01*
X108565455Y-94743135D01*
X108429066Y-94692005D01*
X108366884Y-94685250D01*
X106570616Y-94685250D01*
X106508434Y-94692005D01*
X106372045Y-94743135D01*
X106350603Y-94759205D01*
X106274315Y-94816380D01*
X106207809Y-94841228D01*
X106138426Y-94826175D01*
X106123185Y-94816380D01*
X106046897Y-94759205D01*
X106025455Y-94743135D01*
X105889066Y-94692005D01*
X105826884Y-94685250D01*
X104030616Y-94685250D01*
X103968434Y-94692005D01*
X103832045Y-94743135D01*
X103810603Y-94759205D01*
X103734315Y-94816380D01*
X103667809Y-94841228D01*
X103598426Y-94826175D01*
X103583185Y-94816380D01*
X103506897Y-94759205D01*
X103485455Y-94743135D01*
X103349066Y-94692005D01*
X103286884Y-94685250D01*
X101490616Y-94685250D01*
X101428434Y-94692005D01*
X101292045Y-94743135D01*
X101270603Y-94759205D01*
X101194315Y-94816380D01*
X101127809Y-94841228D01*
X101058426Y-94826175D01*
X101043185Y-94816380D01*
X100966897Y-94759205D01*
X100945455Y-94743135D01*
X100809066Y-94692005D01*
X100746884Y-94685250D01*
X98950616Y-94685250D01*
X98888434Y-94692005D01*
X98752045Y-94743135D01*
X98730603Y-94759205D01*
X98654315Y-94816380D01*
X98587809Y-94841228D01*
X98518426Y-94826175D01*
X98503185Y-94816380D01*
X98426897Y-94759205D01*
X98405455Y-94743135D01*
X98269066Y-94692005D01*
X98206884Y-94685250D01*
X96410616Y-94685250D01*
X96348434Y-94692005D01*
X96212045Y-94743135D01*
X96190603Y-94759205D01*
X96114315Y-94816380D01*
X96047809Y-94841228D01*
X95978426Y-94826175D01*
X95963185Y-94816380D01*
X95886897Y-94759205D01*
X95865455Y-94743135D01*
X95729066Y-94692005D01*
X95666884Y-94685250D01*
X93870616Y-94685250D01*
X93808434Y-94692005D01*
X93672045Y-94743135D01*
X93650603Y-94759205D01*
X93574315Y-94816380D01*
X93507809Y-94841228D01*
X93438426Y-94826175D01*
X93423185Y-94816380D01*
X93346897Y-94759205D01*
X93325455Y-94743135D01*
X93189066Y-94692005D01*
X93126884Y-94685250D01*
X91330616Y-94685250D01*
X91268434Y-94692005D01*
X91132045Y-94743135D01*
X91110603Y-94759205D01*
X91034315Y-94816380D01*
X90967809Y-94841228D01*
X90898426Y-94826175D01*
X90883185Y-94816380D01*
X90806897Y-94759205D01*
X90785455Y-94743135D01*
X90649066Y-94692005D01*
X90586884Y-94685250D01*
X88790616Y-94685250D01*
X88728434Y-94692005D01*
X88592045Y-94743135D01*
X88570603Y-94759205D01*
X88494315Y-94816380D01*
X88427809Y-94841228D01*
X88358426Y-94826175D01*
X88343185Y-94816380D01*
X88266897Y-94759205D01*
X88245455Y-94743135D01*
X88109066Y-94692005D01*
X88046884Y-94685250D01*
X86250616Y-94685250D01*
X86188434Y-94692005D01*
X86052045Y-94743135D01*
X86030603Y-94759205D01*
X85954315Y-94816380D01*
X85887809Y-94841228D01*
X85818426Y-94826175D01*
X85803185Y-94816380D01*
X85726897Y-94759205D01*
X85705455Y-94743135D01*
X85569066Y-94692005D01*
X85506884Y-94685250D01*
X83710616Y-94685250D01*
X83648434Y-94692005D01*
X83512045Y-94743135D01*
X83490603Y-94759205D01*
X83414315Y-94816380D01*
X83347809Y-94841228D01*
X83278426Y-94826175D01*
X83263185Y-94816380D01*
X83186897Y-94759205D01*
X83165455Y-94743135D01*
X83029066Y-94692005D01*
X82966884Y-94685250D01*
X82447000Y-94685250D01*
X82378879Y-94665248D01*
X82332386Y-94611592D01*
X82321000Y-94559250D01*
X82321000Y-92764366D01*
X82314245Y-92702184D01*
X82263115Y-92565795D01*
X82189870Y-92468064D01*
X82165022Y-92401559D01*
X82180075Y-92332176D01*
X82189870Y-92316935D01*
X82263115Y-92219205D01*
X82314245Y-92082816D01*
X82321000Y-92020634D01*
X82321000Y-90224366D01*
X82314245Y-90162184D01*
X82263115Y-90025795D01*
X82189870Y-89928064D01*
X82165022Y-89861559D01*
X82180075Y-89792176D01*
X82189870Y-89776935D01*
X82196129Y-89768584D01*
X82263115Y-89679205D01*
X82314245Y-89542816D01*
X82321000Y-89480634D01*
X82321000Y-89285739D01*
X82341002Y-89217618D01*
X82394658Y-89171125D01*
X82464932Y-89161021D01*
X82529512Y-89190515D01*
X82536095Y-89196644D01*
X85119442Y-91779991D01*
X85153468Y-91842303D01*
X85148403Y-91913118D01*
X85136261Y-91937337D01*
X85071235Y-92038238D01*
X85068826Y-92044858D01*
X85068824Y-92044861D01*
X85041269Y-92120569D01*
X85009197Y-92208685D01*
X84986463Y-92388640D01*
X85004163Y-92569160D01*
X85061418Y-92741273D01*
X85065065Y-92747295D01*
X85065066Y-92747297D01*
X85112897Y-92826275D01*
X85155380Y-92896424D01*
X85281382Y-93026902D01*
X85433159Y-93126222D01*
X85439763Y-93128678D01*
X85439765Y-93128679D01*
X85596558Y-93186990D01*
X85596560Y-93186990D01*
X85603168Y-93189448D01*
X85686995Y-93200633D01*
X85775980Y-93212507D01*
X85775984Y-93212507D01*
X85782961Y-93213438D01*
X85789972Y-93212800D01*
X85789976Y-93212800D01*
X85932459Y-93199832D01*
X85963600Y-93196998D01*
X85970302Y-93194820D01*
X85970304Y-93194820D01*
X86129409Y-93143124D01*
X86129412Y-93143123D01*
X86136108Y-93140947D01*
X86232513Y-93083478D01*
X86285860Y-93051677D01*
X86285862Y-93051676D01*
X86291912Y-93048069D01*
X86423266Y-92922982D01*
X86476218Y-92843283D01*
X86530576Y-92797612D01*
X86600875Y-92788595D01*
X86603168Y-92789448D01*
X86609174Y-92790249D01*
X86609182Y-92790251D01*
X86775980Y-92812507D01*
X86775984Y-92812507D01*
X86782961Y-92813438D01*
X86789972Y-92812800D01*
X86789976Y-92812800D01*
X86932459Y-92799832D01*
X86963600Y-92796998D01*
X86970302Y-92794820D01*
X86970304Y-92794820D01*
X87129409Y-92743124D01*
X87129412Y-92743123D01*
X87136108Y-92740947D01*
X87232513Y-92683478D01*
X87285860Y-92651677D01*
X87285862Y-92651676D01*
X87291912Y-92648069D01*
X87423266Y-92522982D01*
X87523643Y-92371902D01*
X87588055Y-92202338D01*
X87603813Y-92090215D01*
X87612748Y-92026639D01*
X87612748Y-92026636D01*
X87613299Y-92022717D01*
X87613616Y-92000000D01*
X87593397Y-91819745D01*
X87588975Y-91807047D01*
X87536064Y-91655106D01*
X87536062Y-91655103D01*
X87533745Y-91648448D01*
X87482826Y-91566960D01*
X87463691Y-91498594D01*
X87484732Y-91430468D01*
X87523643Y-91371902D01*
X87569433Y-91251361D01*
X87585555Y-91208920D01*
X87585556Y-91208918D01*
X87588055Y-91202338D01*
X87589035Y-91195366D01*
X87612748Y-91026639D01*
X87612748Y-91026636D01*
X87613299Y-91022717D01*
X87613616Y-91000000D01*
X87593397Y-90819745D01*
X87589085Y-90807361D01*
X87576170Y-90770276D01*
X87572656Y-90699367D01*
X87608037Y-90637814D01*
X87671080Y-90605162D01*
X87711824Y-90603946D01*
X87744793Y-90608345D01*
X87775981Y-90612507D01*
X87775984Y-90612507D01*
X87782961Y-90613438D01*
X87789972Y-90612800D01*
X87789976Y-90612800D01*
X87932459Y-90599832D01*
X87963600Y-90596998D01*
X87970302Y-90594820D01*
X87970304Y-90594820D01*
X88129409Y-90543124D01*
X88129412Y-90543123D01*
X88136108Y-90540947D01*
X88235701Y-90481577D01*
X88304454Y-90463878D01*
X88369210Y-90484375D01*
X88380088Y-90491493D01*
X88433159Y-90526222D01*
X88439763Y-90528678D01*
X88439765Y-90528679D01*
X88596558Y-90586990D01*
X88596560Y-90586990D01*
X88603168Y-90589448D01*
X88686995Y-90600633D01*
X88775980Y-90612507D01*
X88775984Y-90612507D01*
X88782961Y-90613438D01*
X88789972Y-90612800D01*
X88789976Y-90612800D01*
X88932459Y-90599832D01*
X88963600Y-90596998D01*
X88970302Y-90594820D01*
X88970304Y-90594820D01*
X89129409Y-90543124D01*
X89129412Y-90543123D01*
X89136108Y-90540947D01*
X89268368Y-90462104D01*
X89285860Y-90451677D01*
X89285862Y-90451676D01*
X89291912Y-90448069D01*
X89423266Y-90322982D01*
X89523643Y-90171902D01*
X89574949Y-90036839D01*
X89585555Y-90008920D01*
X89585556Y-90008918D01*
X89588055Y-90002338D01*
X89593946Y-89960425D01*
X89599154Y-89923364D01*
X89628442Y-89858690D01*
X89688046Y-89820117D01*
X89723928Y-89814900D01*
X89772397Y-89814900D01*
X89774376Y-89814776D01*
X89774392Y-89814775D01*
X89918453Y-89805711D01*
X90008004Y-89800077D01*
X90317302Y-89741075D01*
X90616766Y-89643773D01*
X90620352Y-89642086D01*
X90620356Y-89642084D01*
X90898088Y-89511394D01*
X90898095Y-89511390D01*
X90901674Y-89509706D01*
X90939390Y-89485771D01*
X91016891Y-89436587D01*
X91167532Y-89340987D01*
X91385185Y-89160929D01*
X91450422Y-89132919D01*
X91520447Y-89144626D01*
X91573027Y-89192333D01*
X91591500Y-89258014D01*
X91591500Y-92151864D01*
X91590422Y-92168307D01*
X91586250Y-92200000D01*
X91591500Y-92239880D01*
X91591500Y-92239885D01*
X91599941Y-92304000D01*
X91607162Y-92358851D01*
X91668476Y-92506876D01*
X91673503Y-92513427D01*
X91673504Y-92513429D01*
X91741520Y-92602069D01*
X91741526Y-92602075D01*
X91766013Y-92633987D01*
X91772568Y-92639017D01*
X91791379Y-92653452D01*
X91803770Y-92664319D01*
X92098185Y-92958734D01*
X92109052Y-92971125D01*
X92128513Y-92996487D01*
X92135063Y-93001513D01*
X92160421Y-93020971D01*
X92160428Y-93020977D01*
X92210896Y-93059702D01*
X92255625Y-93094024D01*
X92403650Y-93155338D01*
X92522615Y-93171000D01*
X92522620Y-93171000D01*
X92522629Y-93171001D01*
X92554312Y-93175172D01*
X92562500Y-93176250D01*
X92594193Y-93172078D01*
X92610636Y-93171000D01*
X95508114Y-93171000D01*
X95524557Y-93172078D01*
X95556250Y-93176250D01*
X95564439Y-93175172D01*
X95596124Y-93171001D01*
X95596134Y-93171000D01*
X95596135Y-93171000D01*
X95596151Y-93170998D01*
X95695707Y-93157891D01*
X95706914Y-93156416D01*
X95706916Y-93156415D01*
X95715101Y-93155338D01*
X95863126Y-93094024D01*
X95907857Y-93059701D01*
X95958322Y-93020977D01*
X95958325Y-93020974D01*
X95983684Y-93001515D01*
X95990237Y-92996487D01*
X96004597Y-92977773D01*
X96009702Y-92971121D01*
X96020569Y-92958730D01*
X96858782Y-92120517D01*
X96921094Y-92086491D01*
X96936455Y-92084131D01*
X97001100Y-92078248D01*
X97007802Y-92076070D01*
X97007804Y-92076070D01*
X97166909Y-92024374D01*
X97166912Y-92024373D01*
X97173608Y-92022197D01*
X97329412Y-91929319D01*
X97460766Y-91804232D01*
X97561143Y-91653152D01*
X97615599Y-91509797D01*
X97623055Y-91490170D01*
X97623056Y-91490168D01*
X97625555Y-91483588D01*
X97629021Y-91458924D01*
X97650248Y-91307889D01*
X97650248Y-91307886D01*
X97650799Y-91303967D01*
X97651116Y-91281250D01*
X97630897Y-91100995D01*
X97628580Y-91094341D01*
X97573564Y-90936356D01*
X97573562Y-90936353D01*
X97571245Y-90929698D01*
X97475126Y-90775874D01*
X97440335Y-90740839D01*
X97352278Y-90652165D01*
X97352274Y-90652162D01*
X97347315Y-90647168D01*
X97336197Y-90640112D01*
X97257831Y-90590380D01*
X97194166Y-90549977D01*
X97149292Y-90533998D01*
X97029925Y-90491493D01*
X97029920Y-90491492D01*
X97023290Y-90489131D01*
X97016302Y-90488298D01*
X97016299Y-90488297D01*
X96881815Y-90472261D01*
X96843180Y-90467654D01*
X96836177Y-90468390D01*
X96836176Y-90468390D01*
X96669788Y-90485878D01*
X96669786Y-90485879D01*
X96662788Y-90486614D01*
X96491079Y-90545068D01*
X96466621Y-90560115D01*
X96342595Y-90636416D01*
X96342592Y-90636418D01*
X96336588Y-90640112D01*
X96331553Y-90645043D01*
X96331550Y-90645045D01*
X96239869Y-90734826D01*
X96206993Y-90767021D01*
X96108735Y-90919488D01*
X96106326Y-90926108D01*
X96106324Y-90926111D01*
X96084811Y-90985217D01*
X96046697Y-91089935D01*
X96045814Y-91096925D01*
X96034525Y-91186284D01*
X96006143Y-91251361D01*
X95998614Y-91259587D01*
X95341106Y-91917095D01*
X95278794Y-91951121D01*
X95252011Y-91954000D01*
X92934500Y-91954000D01*
X92866379Y-91933998D01*
X92819886Y-91880342D01*
X92808500Y-91828000D01*
X92808500Y-87247093D01*
X93386789Y-87247093D01*
X93395598Y-87481716D01*
X93396693Y-87486934D01*
X93426743Y-87630149D01*
X93443812Y-87711501D01*
X93530052Y-87929877D01*
X93651854Y-88130600D01*
X93805735Y-88307932D01*
X93809867Y-88311320D01*
X93983166Y-88453417D01*
X93983172Y-88453421D01*
X93987294Y-88456801D01*
X93991930Y-88459440D01*
X93991933Y-88459442D01*
X94103158Y-88522755D01*
X94191340Y-88572951D01*
X94412039Y-88653061D01*
X94417288Y-88654010D01*
X94417291Y-88654011D01*
X94487204Y-88666653D01*
X94643080Y-88694840D01*
X94647219Y-88695035D01*
X94647226Y-88695036D01*
X94666190Y-88695930D01*
X94666199Y-88695930D01*
X94667679Y-88696000D01*
X94832700Y-88696000D01*
X94914049Y-88689097D01*
X95002387Y-88681602D01*
X95002391Y-88681601D01*
X95007698Y-88681151D01*
X95012853Y-88679813D01*
X95012859Y-88679812D01*
X95229785Y-88623509D01*
X95229784Y-88623509D01*
X95234956Y-88622167D01*
X95239822Y-88619975D01*
X95239825Y-88619974D01*
X95444167Y-88527924D01*
X95444170Y-88527923D01*
X95449028Y-88525734D01*
X95643791Y-88394612D01*
X95813677Y-88232549D01*
X95953828Y-88044179D01*
X96014469Y-87924908D01*
X96057819Y-87839644D01*
X96057819Y-87839643D01*
X96060237Y-87834888D01*
X96129861Y-87610660D01*
X96133443Y-87583632D01*
X96160011Y-87383190D01*
X96160011Y-87383187D01*
X96160711Y-87377907D01*
X96151902Y-87143284D01*
X96134108Y-87058478D01*
X96104785Y-86918726D01*
X96104784Y-86918723D01*
X96103688Y-86913499D01*
X96017448Y-86695123D01*
X95895646Y-86494400D01*
X95741765Y-86317068D01*
X95700678Y-86283379D01*
X95564334Y-86171583D01*
X95564328Y-86171579D01*
X95560206Y-86168199D01*
X95555570Y-86165560D01*
X95555567Y-86165558D01*
X95360803Y-86054692D01*
X95356160Y-86052049D01*
X95135461Y-85971939D01*
X95130212Y-85970990D01*
X95130209Y-85970989D01*
X95025617Y-85952076D01*
X94904420Y-85930160D01*
X94900281Y-85929965D01*
X94900274Y-85929964D01*
X94881310Y-85929070D01*
X94881301Y-85929070D01*
X94879821Y-85929000D01*
X94714800Y-85929000D01*
X94633451Y-85935903D01*
X94545113Y-85943398D01*
X94545109Y-85943399D01*
X94539802Y-85943849D01*
X94534647Y-85945187D01*
X94534641Y-85945188D01*
X94419561Y-85975057D01*
X94312544Y-86002833D01*
X94307678Y-86005025D01*
X94307675Y-86005026D01*
X94103333Y-86097076D01*
X94103330Y-86097077D01*
X94098472Y-86099266D01*
X94094048Y-86102245D01*
X94094047Y-86102245D01*
X94074824Y-86115187D01*
X93903709Y-86230388D01*
X93733823Y-86392451D01*
X93593672Y-86580821D01*
X93591256Y-86585572D01*
X93591254Y-86585576D01*
X93489681Y-86785356D01*
X93487263Y-86790112D01*
X93417639Y-87014340D01*
X93416938Y-87019629D01*
X93388424Y-87234761D01*
X93386789Y-87247093D01*
X92808500Y-87247093D01*
X92808500Y-83873768D01*
X92828502Y-83805647D01*
X92886282Y-83757359D01*
X92984447Y-83716698D01*
X92984451Y-83716696D01*
X92989021Y-83714803D01*
X93211606Y-83578403D01*
X93410113Y-83408863D01*
X93467851Y-83341260D01*
X93527301Y-83302451D01*
X93598296Y-83301943D01*
X93658295Y-83339899D01*
X93671438Y-83357819D01*
X93748753Y-83485482D01*
X93755380Y-83496424D01*
X93760269Y-83501487D01*
X93760270Y-83501488D01*
X93812273Y-83555338D01*
X93881382Y-83626902D01*
X93897397Y-83637382D01*
X94026952Y-83722160D01*
X94033159Y-83726222D01*
X94039763Y-83728678D01*
X94039765Y-83728679D01*
X94196558Y-83786990D01*
X94196560Y-83786990D01*
X94203168Y-83789448D01*
X94273714Y-83798861D01*
X94375980Y-83812507D01*
X94375984Y-83812507D01*
X94382961Y-83813438D01*
X94389972Y-83812800D01*
X94389976Y-83812800D01*
X94532459Y-83799832D01*
X94563600Y-83796998D01*
X94570302Y-83794820D01*
X94570304Y-83794820D01*
X94729409Y-83743124D01*
X94729412Y-83743123D01*
X94736108Y-83740947D01*
X94891912Y-83648069D01*
X94893197Y-83650224D01*
X94948687Y-83629117D01*
X95018157Y-83643759D01*
X95068683Y-83693635D01*
X95083888Y-83742439D01*
X95098097Y-83887358D01*
X95155352Y-84059471D01*
X95158999Y-84065493D01*
X95159000Y-84065495D01*
X95196742Y-84127814D01*
X95249314Y-84214622D01*
X95375316Y-84345100D01*
X95381212Y-84348958D01*
X95503248Y-84428816D01*
X95527093Y-84444420D01*
X95533697Y-84446876D01*
X95533699Y-84446877D01*
X95690492Y-84505188D01*
X95690494Y-84505188D01*
X95697102Y-84507646D01*
X95780929Y-84518831D01*
X95869914Y-84530705D01*
X95869918Y-84530705D01*
X95876895Y-84531636D01*
X95883906Y-84530998D01*
X95883910Y-84530998D01*
X96035679Y-84517185D01*
X96057534Y-84515196D01*
X96064236Y-84513018D01*
X96064238Y-84513018D01*
X96223343Y-84461322D01*
X96223346Y-84461321D01*
X96230042Y-84459145D01*
X96342794Y-84391931D01*
X96379794Y-84369875D01*
X96379796Y-84369874D01*
X96385846Y-84366267D01*
X96517200Y-84241180D01*
X96617577Y-84090100D01*
X96667809Y-83957866D01*
X96679489Y-83927118D01*
X96679490Y-83927116D01*
X96681989Y-83920536D01*
X96685474Y-83895740D01*
X96706682Y-83744837D01*
X96706682Y-83744834D01*
X96707233Y-83740915D01*
X96707550Y-83718198D01*
X96687331Y-83537943D01*
X96685014Y-83531289D01*
X96629998Y-83373304D01*
X96629996Y-83373301D01*
X96627679Y-83366646D01*
X96611200Y-83340273D01*
X96535296Y-83218801D01*
X96531560Y-83212822D01*
X96529149Y-83210394D01*
X96503051Y-83145914D01*
X96502434Y-83133461D01*
X96502434Y-82750487D01*
X100702766Y-82750487D01*
X100720466Y-82931007D01*
X100777721Y-83103120D01*
X100781368Y-83109142D01*
X100781369Y-83109144D01*
X100829817Y-83189141D01*
X100871683Y-83258271D01*
X100876572Y-83263334D01*
X100876573Y-83263335D01*
X100950511Y-83339899D01*
X100997685Y-83388749D01*
X101046930Y-83420974D01*
X101136537Y-83479611D01*
X101149462Y-83488069D01*
X101156066Y-83490525D01*
X101156068Y-83490526D01*
X101312861Y-83548837D01*
X101312863Y-83548837D01*
X101319471Y-83551295D01*
X101403298Y-83562480D01*
X101492283Y-83574354D01*
X101492287Y-83574354D01*
X101499264Y-83575285D01*
X101506275Y-83574647D01*
X101506279Y-83574647D01*
X101648762Y-83561679D01*
X101679903Y-83558845D01*
X101686605Y-83556667D01*
X101686607Y-83556667D01*
X101845712Y-83504971D01*
X101845715Y-83504970D01*
X101852411Y-83502794D01*
X101975042Y-83429691D01*
X102002163Y-83413524D01*
X102002165Y-83413523D01*
X102008215Y-83409916D01*
X102139569Y-83284829D01*
X102143592Y-83278775D01*
X102173052Y-83234433D01*
X102227409Y-83188762D01*
X102297829Y-83179730D01*
X102361953Y-83210203D01*
X102399423Y-83270507D01*
X102404000Y-83304160D01*
X102404000Y-83943790D01*
X102402922Y-83960233D01*
X102398750Y-83991926D01*
X102399828Y-84000115D01*
X102404000Y-84031806D01*
X102404000Y-84031809D01*
X102406507Y-84050850D01*
X102406591Y-84083088D01*
X102394802Y-84176405D01*
X102412502Y-84356925D01*
X102469757Y-84529038D01*
X102473404Y-84535060D01*
X102473405Y-84535062D01*
X102547578Y-84657536D01*
X102563719Y-84684189D01*
X102568608Y-84689252D01*
X102568609Y-84689253D01*
X102576477Y-84697400D01*
X102689721Y-84814667D01*
X102740759Y-84848065D01*
X102814210Y-84896130D01*
X102841498Y-84913987D01*
X102848102Y-84916443D01*
X102848104Y-84916444D01*
X103004897Y-84974755D01*
X103004899Y-84974755D01*
X103011507Y-84977213D01*
X103191300Y-85001203D01*
X103191204Y-85001920D01*
X103253802Y-85021731D01*
X103299162Y-85076347D01*
X103305996Y-85096861D01*
X103351546Y-85286589D01*
X103353439Y-85291160D01*
X103353440Y-85291162D01*
X103436508Y-85491704D01*
X103451447Y-85527771D01*
X103454033Y-85531991D01*
X103586047Y-85747419D01*
X103604585Y-85815953D01*
X103583128Y-85883630D01*
X103528489Y-85928962D01*
X103489268Y-85938803D01*
X103435112Y-85943398D01*
X103435107Y-85943399D01*
X103429802Y-85943849D01*
X103424647Y-85945187D01*
X103424641Y-85945188D01*
X103309561Y-85975057D01*
X103202544Y-86002833D01*
X103197678Y-86005025D01*
X103197675Y-86005026D01*
X102993333Y-86097076D01*
X102993330Y-86097077D01*
X102988472Y-86099266D01*
X102984048Y-86102245D01*
X102984047Y-86102245D01*
X102964824Y-86115187D01*
X102793709Y-86230388D01*
X102623823Y-86392451D01*
X102483672Y-86580821D01*
X102481256Y-86585572D01*
X102481254Y-86585576D01*
X102379681Y-86785356D01*
X102377263Y-86790112D01*
X102307639Y-87014340D01*
X102306938Y-87019629D01*
X102278424Y-87234761D01*
X102276789Y-87247093D01*
X102285598Y-87481716D01*
X102286693Y-87486934D01*
X102316743Y-87630149D01*
X102333812Y-87711501D01*
X102420052Y-87929877D01*
X102541854Y-88130600D01*
X102695735Y-88307932D01*
X102699867Y-88311320D01*
X102873166Y-88453417D01*
X102873172Y-88453421D01*
X102877294Y-88456801D01*
X102881930Y-88459440D01*
X102881933Y-88459442D01*
X102993158Y-88522755D01*
X103081340Y-88572951D01*
X103302039Y-88653061D01*
X103307288Y-88654010D01*
X103307291Y-88654011D01*
X103377204Y-88666653D01*
X103533080Y-88694840D01*
X103537219Y-88695035D01*
X103537226Y-88695036D01*
X103556190Y-88695930D01*
X103556199Y-88695930D01*
X103557679Y-88696000D01*
X103722700Y-88696000D01*
X103804049Y-88689097D01*
X103892387Y-88681602D01*
X103892391Y-88681601D01*
X103897698Y-88681151D01*
X103902853Y-88679813D01*
X103902859Y-88679812D01*
X104119785Y-88623509D01*
X104119784Y-88623509D01*
X104124956Y-88622167D01*
X104129822Y-88619975D01*
X104129825Y-88619974D01*
X104334167Y-88527924D01*
X104334170Y-88527923D01*
X104339028Y-88525734D01*
X104433372Y-88462218D01*
X104501046Y-88440768D01*
X104569579Y-88459311D01*
X104592831Y-88477644D01*
X105599219Y-89484031D01*
X106454093Y-90338905D01*
X106488118Y-90401217D01*
X106483054Y-90472032D01*
X106440507Y-90528868D01*
X106373987Y-90553679D01*
X106364998Y-90554000D01*
X102397251Y-90554000D01*
X102329130Y-90533998D01*
X102324657Y-90530776D01*
X102322315Y-90528418D01*
X102313750Y-90522982D01*
X102243247Y-90478240D01*
X102169166Y-90431227D01*
X102112216Y-90410948D01*
X102004925Y-90372743D01*
X102004920Y-90372742D01*
X101998290Y-90370381D01*
X101991302Y-90369548D01*
X101991299Y-90369547D01*
X101868198Y-90354868D01*
X101818180Y-90348904D01*
X101811177Y-90349640D01*
X101811176Y-90349640D01*
X101644788Y-90367128D01*
X101644786Y-90367129D01*
X101637788Y-90367864D01*
X101466079Y-90426318D01*
X101424859Y-90451677D01*
X101317595Y-90517666D01*
X101317592Y-90517668D01*
X101311588Y-90521362D01*
X101306553Y-90526293D01*
X101306550Y-90526295D01*
X101187495Y-90642883D01*
X101181993Y-90648271D01*
X101083735Y-90800738D01*
X101081326Y-90807358D01*
X101081324Y-90807361D01*
X101036797Y-90929698D01*
X101021697Y-90971185D01*
X100998963Y-91151140D01*
X101016663Y-91331660D01*
X101073918Y-91503773D01*
X101077565Y-91509795D01*
X101077566Y-91509797D01*
X101161536Y-91648448D01*
X101167880Y-91658924D01*
X101172769Y-91663987D01*
X101172770Y-91663988D01*
X101208427Y-91700911D01*
X101293882Y-91789402D01*
X101445659Y-91888722D01*
X101452263Y-91891178D01*
X101452265Y-91891179D01*
X101609058Y-91949490D01*
X101609060Y-91949490D01*
X101615668Y-91951948D01*
X101699441Y-91963126D01*
X101788480Y-91975007D01*
X101788484Y-91975007D01*
X101795461Y-91975938D01*
X101802472Y-91975300D01*
X101802476Y-91975300D01*
X101947037Y-91962143D01*
X101976100Y-91959498D01*
X101982802Y-91957320D01*
X101982804Y-91957320D01*
X102141909Y-91905624D01*
X102141912Y-91905623D01*
X102148608Y-91903447D01*
X102304412Y-91810569D01*
X102309513Y-91805712D01*
X102315126Y-91801451D01*
X102315885Y-91802452D01*
X102372590Y-91773262D01*
X102396360Y-91771000D01*
X110964364Y-91771000D01*
X110980807Y-91772078D01*
X111012500Y-91776250D01*
X111020689Y-91775172D01*
X111052374Y-91771001D01*
X111052384Y-91771000D01*
X111052385Y-91771000D01*
X111090987Y-91765918D01*
X111151957Y-91757891D01*
X111163164Y-91756416D01*
X111163166Y-91756415D01*
X111171351Y-91755338D01*
X111245363Y-91724681D01*
X111311748Y-91697184D01*
X111311750Y-91697183D01*
X111319376Y-91694024D01*
X111325925Y-91688998D01*
X111333081Y-91684867D01*
X111333971Y-91686408D01*
X111390774Y-91664444D01*
X111460323Y-91678703D01*
X111490362Y-91700911D01*
X112348185Y-92558734D01*
X112359052Y-92571125D01*
X112378513Y-92596487D01*
X112385795Y-92602075D01*
X112410425Y-92620974D01*
X112410428Y-92620977D01*
X112495557Y-92686299D01*
X112505624Y-92694024D01*
X112653649Y-92755338D01*
X112661836Y-92756416D01*
X112661837Y-92756416D01*
X112673042Y-92757891D01*
X112699408Y-92761362D01*
X112772615Y-92771000D01*
X112772618Y-92771000D01*
X112772626Y-92771001D01*
X112804311Y-92775172D01*
X112812500Y-92776250D01*
X112844193Y-92772078D01*
X112860636Y-92771000D01*
X129015918Y-92771000D01*
X129032361Y-92772078D01*
X129064054Y-92776250D01*
X129072243Y-92775172D01*
X129103928Y-92771001D01*
X129103938Y-92771000D01*
X129103939Y-92771000D01*
X129103955Y-92770998D01*
X129203511Y-92757891D01*
X129214718Y-92756416D01*
X129214720Y-92756415D01*
X129222905Y-92755338D01*
X129370930Y-92694024D01*
X129380998Y-92686299D01*
X129466126Y-92620977D01*
X129466129Y-92620974D01*
X129498041Y-92596487D01*
X129503071Y-92589932D01*
X129517506Y-92571121D01*
X129528373Y-92558730D01*
X130418044Y-91669059D01*
X130480356Y-91635033D01*
X130495717Y-91632673D01*
X130560362Y-91626790D01*
X130567064Y-91624612D01*
X130567066Y-91624612D01*
X130726171Y-91572916D01*
X130726174Y-91572915D01*
X130732870Y-91570739D01*
X130856417Y-91497090D01*
X130882622Y-91481469D01*
X130882624Y-91481468D01*
X130888674Y-91477861D01*
X131020028Y-91352774D01*
X131120405Y-91201694D01*
X131184817Y-91032130D01*
X131186140Y-91022717D01*
X131209510Y-90856431D01*
X131209510Y-90856428D01*
X131210061Y-90852509D01*
X131210378Y-90829792D01*
X131190159Y-90649537D01*
X131186877Y-90640112D01*
X131132826Y-90484898D01*
X131132824Y-90484895D01*
X131130507Y-90478240D01*
X131100371Y-90430012D01*
X131038121Y-90330390D01*
X131034388Y-90324416D01*
X131020703Y-90310635D01*
X130911540Y-90200707D01*
X130911536Y-90200704D01*
X130906577Y-90195710D01*
X130895459Y-90188654D01*
X130797196Y-90126295D01*
X130753428Y-90098519D01*
X130724225Y-90088120D01*
X130589187Y-90040035D01*
X130589182Y-90040034D01*
X130582552Y-90037673D01*
X130575564Y-90036840D01*
X130575561Y-90036839D01*
X130452460Y-90022160D01*
X130402442Y-90016196D01*
X130395439Y-90016932D01*
X130395438Y-90016932D01*
X130229050Y-90034420D01*
X130229048Y-90034421D01*
X130222050Y-90035156D01*
X130050341Y-90093610D01*
X130044337Y-90097304D01*
X129901857Y-90184958D01*
X129901854Y-90184960D01*
X129895850Y-90188654D01*
X129890815Y-90193585D01*
X129890812Y-90193587D01*
X129819830Y-90263098D01*
X129766255Y-90315563D01*
X129667997Y-90468030D01*
X129665588Y-90474650D01*
X129665586Y-90474653D01*
X129613555Y-90617606D01*
X129605959Y-90638477D01*
X129605076Y-90645467D01*
X129593787Y-90734826D01*
X129565405Y-90799903D01*
X129557876Y-90808129D01*
X128848910Y-91517095D01*
X128786598Y-91551121D01*
X128759815Y-91554000D01*
X121825231Y-91554000D01*
X121757110Y-91533998D01*
X121710617Y-91480342D01*
X121700513Y-91410068D01*
X121720282Y-91358275D01*
X121736143Y-91334402D01*
X121786555Y-91201694D01*
X121798055Y-91171420D01*
X121798056Y-91171418D01*
X121800555Y-91164838D01*
X121823165Y-91003962D01*
X121825248Y-90989139D01*
X121825248Y-90989136D01*
X121825799Y-90985217D01*
X121826116Y-90962500D01*
X121805897Y-90782245D01*
X121801729Y-90770276D01*
X121748564Y-90617606D01*
X121748562Y-90617603D01*
X121746245Y-90610948D01*
X121741870Y-90603946D01*
X121653859Y-90463098D01*
X121650126Y-90457124D01*
X121622061Y-90428862D01*
X121527278Y-90333415D01*
X121527274Y-90333412D01*
X121522315Y-90328418D01*
X121513750Y-90322982D01*
X121463038Y-90290800D01*
X121369166Y-90231227D01*
X121339963Y-90220828D01*
X121204925Y-90172743D01*
X121204920Y-90172742D01*
X121198290Y-90170381D01*
X121191304Y-90169548D01*
X121191300Y-90169547D01*
X121108364Y-90159658D01*
X121043091Y-90131731D01*
X121034188Y-90123639D01*
X120876815Y-89966266D01*
X120865948Y-89953875D01*
X120851513Y-89935063D01*
X120846487Y-89928513D01*
X120814575Y-89904026D01*
X120814572Y-89904023D01*
X120807056Y-89898256D01*
X120725929Y-89836004D01*
X120725927Y-89836003D01*
X120719376Y-89830976D01*
X120571351Y-89769662D01*
X120563164Y-89768584D01*
X120563163Y-89768584D01*
X120551958Y-89767109D01*
X120520762Y-89763002D01*
X120452385Y-89754000D01*
X120452382Y-89754000D01*
X120452374Y-89753999D01*
X120420689Y-89749828D01*
X120412500Y-89748750D01*
X120380807Y-89752922D01*
X120364364Y-89754000D01*
X117516739Y-89754000D01*
X117448618Y-89733998D01*
X117427644Y-89717095D01*
X116457905Y-88747356D01*
X116423879Y-88685044D01*
X116421000Y-88658261D01*
X116421000Y-87247093D01*
X121326789Y-87247093D01*
X121335598Y-87481716D01*
X121336693Y-87486934D01*
X121366743Y-87630149D01*
X121383812Y-87711501D01*
X121470052Y-87929877D01*
X121591854Y-88130600D01*
X121745735Y-88307932D01*
X121749867Y-88311320D01*
X121923166Y-88453417D01*
X121923172Y-88453421D01*
X121927294Y-88456801D01*
X121931930Y-88459440D01*
X121931933Y-88459442D01*
X122043158Y-88522755D01*
X122131340Y-88572951D01*
X122352039Y-88653061D01*
X122357288Y-88654010D01*
X122357291Y-88654011D01*
X122427204Y-88666653D01*
X122583080Y-88694840D01*
X122587219Y-88695035D01*
X122587226Y-88695036D01*
X122606190Y-88695930D01*
X122606199Y-88695930D01*
X122607679Y-88696000D01*
X122772700Y-88696000D01*
X122854049Y-88689097D01*
X122942387Y-88681602D01*
X122942391Y-88681601D01*
X122947698Y-88681151D01*
X122952853Y-88679813D01*
X122952859Y-88679812D01*
X123169785Y-88623509D01*
X123169784Y-88623509D01*
X123174956Y-88622167D01*
X123179822Y-88619975D01*
X123179825Y-88619974D01*
X123384167Y-88527924D01*
X123384170Y-88527923D01*
X123389028Y-88525734D01*
X123583791Y-88394612D01*
X123753677Y-88232549D01*
X123893828Y-88044179D01*
X123954469Y-87924908D01*
X123997819Y-87839644D01*
X123997819Y-87839643D01*
X124000237Y-87834888D01*
X124069861Y-87610660D01*
X124073443Y-87583632D01*
X124088513Y-87469938D01*
X125291350Y-87469938D01*
X125330814Y-87782330D01*
X125409120Y-88087313D01*
X125525034Y-88380077D01*
X125526936Y-88383536D01*
X125526937Y-88383539D01*
X125658862Y-88623509D01*
X125676726Y-88656004D01*
X125861805Y-88910744D01*
X126077352Y-89140278D01*
X126319968Y-89340987D01*
X126470609Y-89436587D01*
X126548111Y-89485771D01*
X126585826Y-89509706D01*
X126589405Y-89511390D01*
X126589412Y-89511394D01*
X126867144Y-89642084D01*
X126867148Y-89642086D01*
X126870734Y-89643773D01*
X127170198Y-89741075D01*
X127479496Y-89800077D01*
X127569047Y-89805711D01*
X127713108Y-89814775D01*
X127713124Y-89814776D01*
X127715103Y-89814900D01*
X127872397Y-89814900D01*
X127874376Y-89814776D01*
X127874392Y-89814775D01*
X128018453Y-89805711D01*
X128108004Y-89800077D01*
X128417302Y-89741075D01*
X128716766Y-89643773D01*
X128720352Y-89642086D01*
X128720356Y-89642084D01*
X128998088Y-89511394D01*
X128998095Y-89511390D01*
X129001674Y-89509706D01*
X129039390Y-89485771D01*
X129116891Y-89436587D01*
X129267532Y-89340987D01*
X129510148Y-89140278D01*
X129725695Y-88910744D01*
X129910774Y-88656004D01*
X129928639Y-88623509D01*
X130060563Y-88383539D01*
X130060564Y-88383536D01*
X130062466Y-88380077D01*
X130178380Y-88087313D01*
X130256686Y-87782330D01*
X130296150Y-87469938D01*
X130296150Y-87247093D01*
X131486789Y-87247093D01*
X131495598Y-87481716D01*
X131496693Y-87486934D01*
X131526743Y-87630149D01*
X131543812Y-87711501D01*
X131630052Y-87929877D01*
X131751854Y-88130600D01*
X131905735Y-88307932D01*
X131909867Y-88311320D01*
X132083166Y-88453417D01*
X132083172Y-88453421D01*
X132087294Y-88456801D01*
X132091930Y-88459440D01*
X132091933Y-88459442D01*
X132203158Y-88522755D01*
X132291340Y-88572951D01*
X132512039Y-88653061D01*
X132517288Y-88654010D01*
X132517291Y-88654011D01*
X132587204Y-88666653D01*
X132743080Y-88694840D01*
X132747219Y-88695035D01*
X132747226Y-88695036D01*
X132766190Y-88695930D01*
X132766199Y-88695930D01*
X132767679Y-88696000D01*
X132932700Y-88696000D01*
X133014049Y-88689097D01*
X133102387Y-88681602D01*
X133102391Y-88681601D01*
X133107698Y-88681151D01*
X133112853Y-88679813D01*
X133112859Y-88679812D01*
X133329785Y-88623509D01*
X133329784Y-88623509D01*
X133334956Y-88622167D01*
X133339822Y-88619975D01*
X133339825Y-88619974D01*
X133544167Y-88527924D01*
X133544170Y-88527923D01*
X133549028Y-88525734D01*
X133743791Y-88394612D01*
X133913677Y-88232549D01*
X134053828Y-88044179D01*
X134114469Y-87924908D01*
X134157819Y-87839644D01*
X134157819Y-87839643D01*
X134160237Y-87834888D01*
X134229861Y-87610660D01*
X134233443Y-87583632D01*
X134260011Y-87383190D01*
X134260011Y-87383187D01*
X134260711Y-87377907D01*
X134251902Y-87143284D01*
X134234108Y-87058478D01*
X134204785Y-86918726D01*
X134204784Y-86918723D01*
X134203688Y-86913499D01*
X134117448Y-86695123D01*
X133995646Y-86494400D01*
X133841765Y-86317068D01*
X133800678Y-86283379D01*
X133664334Y-86171583D01*
X133664328Y-86171579D01*
X133660206Y-86168199D01*
X133655570Y-86165560D01*
X133655567Y-86165558D01*
X133460803Y-86054692D01*
X133456160Y-86052049D01*
X133235461Y-85971939D01*
X133230212Y-85970990D01*
X133230209Y-85970989D01*
X133125617Y-85952076D01*
X133004420Y-85930160D01*
X133000281Y-85929965D01*
X133000274Y-85929964D01*
X132981310Y-85929070D01*
X132981301Y-85929070D01*
X132979821Y-85929000D01*
X132814800Y-85929000D01*
X132733451Y-85935903D01*
X132645113Y-85943398D01*
X132645109Y-85943399D01*
X132639802Y-85943849D01*
X132634647Y-85945187D01*
X132634641Y-85945188D01*
X132519561Y-85975057D01*
X132412544Y-86002833D01*
X132407678Y-86005025D01*
X132407675Y-86005026D01*
X132203333Y-86097076D01*
X132203330Y-86097077D01*
X132198472Y-86099266D01*
X132194048Y-86102245D01*
X132194047Y-86102245D01*
X132174824Y-86115187D01*
X132003709Y-86230388D01*
X131833823Y-86392451D01*
X131693672Y-86580821D01*
X131691256Y-86585572D01*
X131691254Y-86585576D01*
X131589681Y-86785356D01*
X131587263Y-86790112D01*
X131517639Y-87014340D01*
X131516938Y-87019629D01*
X131488424Y-87234761D01*
X131486789Y-87247093D01*
X130296150Y-87247093D01*
X130296150Y-87155062D01*
X130256686Y-86842670D01*
X130178380Y-86537687D01*
X130062466Y-86244923D01*
X130056499Y-86234069D01*
X129912683Y-85972468D01*
X129912681Y-85972465D01*
X129910774Y-85968996D01*
X129725695Y-85714256D01*
X129510148Y-85484722D01*
X129267532Y-85284013D01*
X129001674Y-85115294D01*
X128998095Y-85113610D01*
X128998088Y-85113606D01*
X128720356Y-84982916D01*
X128720352Y-84982914D01*
X128716766Y-84981227D01*
X128417302Y-84883925D01*
X128108004Y-84824923D01*
X128006310Y-84818525D01*
X127874392Y-84810225D01*
X127874376Y-84810224D01*
X127872397Y-84810100D01*
X127715103Y-84810100D01*
X127713124Y-84810224D01*
X127713108Y-84810225D01*
X127581190Y-84818525D01*
X127479496Y-84824923D01*
X127170198Y-84883925D01*
X126870734Y-84981227D01*
X126867148Y-84982914D01*
X126867144Y-84982916D01*
X126589412Y-85113606D01*
X126589405Y-85113610D01*
X126585826Y-85115294D01*
X126319968Y-85284013D01*
X126077352Y-85484722D01*
X125861805Y-85714256D01*
X125676726Y-85968996D01*
X125674819Y-85972465D01*
X125674817Y-85972468D01*
X125531001Y-86234069D01*
X125525034Y-86244923D01*
X125409120Y-86537687D01*
X125330814Y-86842670D01*
X125291350Y-87155062D01*
X125291350Y-87469938D01*
X124088513Y-87469938D01*
X124100011Y-87383190D01*
X124100011Y-87383187D01*
X124100711Y-87377907D01*
X124091902Y-87143284D01*
X124074108Y-87058478D01*
X124044785Y-86918726D01*
X124044784Y-86918723D01*
X124043688Y-86913499D01*
X123957448Y-86695123D01*
X123954678Y-86690559D01*
X123954676Y-86690554D01*
X123914795Y-86624832D01*
X123896556Y-86556219D01*
X123918307Y-86488636D01*
X123973144Y-86443542D01*
X124012626Y-86433855D01*
X124243999Y-86415646D01*
X124248806Y-86414492D01*
X124248812Y-86414491D01*
X124408819Y-86376076D01*
X124497839Y-86354704D01*
X124502412Y-86352810D01*
X124734447Y-86256698D01*
X124734451Y-86256696D01*
X124739021Y-86254803D01*
X124961606Y-86118403D01*
X125160113Y-85948863D01*
X125329653Y-85750356D01*
X125466053Y-85527771D01*
X125480993Y-85491704D01*
X125564060Y-85291162D01*
X125564061Y-85291160D01*
X125565954Y-85286589D01*
X125616804Y-85074785D01*
X125625741Y-85037562D01*
X125625742Y-85037556D01*
X125626896Y-85032749D01*
X125647378Y-84772500D01*
X125626896Y-84512251D01*
X125625742Y-84507444D01*
X125625741Y-84507438D01*
X125572453Y-84285482D01*
X125565954Y-84258411D01*
X125564060Y-84253838D01*
X125467948Y-84021803D01*
X125467946Y-84021799D01*
X125466053Y-84017229D01*
X125329653Y-83794644D01*
X125160113Y-83596137D01*
X124961606Y-83426597D01*
X124739021Y-83290197D01*
X124734451Y-83288304D01*
X124734447Y-83288302D01*
X124502412Y-83192190D01*
X124502410Y-83192189D01*
X124497839Y-83190296D01*
X124382061Y-83162500D01*
X124248812Y-83130509D01*
X124248806Y-83130508D01*
X124243999Y-83129354D01*
X123983750Y-83108872D01*
X123723501Y-83129354D01*
X123718694Y-83130508D01*
X123718688Y-83130509D01*
X123585439Y-83162500D01*
X123469661Y-83190296D01*
X123465090Y-83192189D01*
X123465088Y-83192190D01*
X123233053Y-83288302D01*
X123233049Y-83288304D01*
X123228479Y-83290197D01*
X123005894Y-83426597D01*
X122807387Y-83596137D01*
X122637847Y-83794644D01*
X122501447Y-84017229D01*
X122499554Y-84021799D01*
X122499552Y-84021803D01*
X122403440Y-84253838D01*
X122401546Y-84258411D01*
X122395047Y-84285482D01*
X122341759Y-84507438D01*
X122341758Y-84507444D01*
X122340604Y-84512251D01*
X122320122Y-84772500D01*
X122340604Y-85032749D01*
X122341758Y-85037556D01*
X122341759Y-85037562D01*
X122350696Y-85074785D01*
X122401546Y-85286589D01*
X122403439Y-85291160D01*
X122403440Y-85291162D01*
X122486508Y-85491704D01*
X122501447Y-85527771D01*
X122504033Y-85531991D01*
X122636047Y-85747419D01*
X122654585Y-85815953D01*
X122633128Y-85883630D01*
X122578489Y-85928962D01*
X122539268Y-85938803D01*
X122485112Y-85943398D01*
X122485107Y-85943399D01*
X122479802Y-85943849D01*
X122474647Y-85945187D01*
X122474641Y-85945188D01*
X122359561Y-85975057D01*
X122252544Y-86002833D01*
X122247678Y-86005025D01*
X122247675Y-86005026D01*
X122043333Y-86097076D01*
X122043330Y-86097077D01*
X122038472Y-86099266D01*
X122034048Y-86102245D01*
X122034047Y-86102245D01*
X122014824Y-86115187D01*
X121843709Y-86230388D01*
X121673823Y-86392451D01*
X121533672Y-86580821D01*
X121531256Y-86585572D01*
X121531254Y-86585576D01*
X121429681Y-86785356D01*
X121427263Y-86790112D01*
X121357639Y-87014340D01*
X121356938Y-87019629D01*
X121328424Y-87234761D01*
X121326789Y-87247093D01*
X116421000Y-87247093D01*
X116421000Y-84904386D01*
X116422078Y-84887940D01*
X116425172Y-84864438D01*
X116426250Y-84856250D01*
X116423323Y-84834012D01*
X116421000Y-84816370D01*
X116421000Y-84816365D01*
X116406416Y-84705588D01*
X116405338Y-84697400D01*
X116393730Y-84669376D01*
X116344024Y-84549374D01*
X116270978Y-84454179D01*
X116270974Y-84454175D01*
X116263489Y-84444420D01*
X116251516Y-84428816D01*
X116251513Y-84428813D01*
X116246487Y-84422263D01*
X116239932Y-84417233D01*
X116221121Y-84402798D01*
X116208730Y-84391931D01*
X115904513Y-84087714D01*
X115870487Y-84025402D01*
X115868393Y-84012664D01*
X115859807Y-83936119D01*
X115859022Y-83929120D01*
X115842038Y-83880349D01*
X115801689Y-83764481D01*
X115801687Y-83764478D01*
X115799370Y-83757823D01*
X115777213Y-83722364D01*
X115706984Y-83609973D01*
X115703251Y-83603999D01*
X115689565Y-83590217D01*
X115580403Y-83480290D01*
X115580399Y-83480287D01*
X115575440Y-83475293D01*
X115564322Y-83468237D01*
X115503775Y-83429813D01*
X115422291Y-83378102D01*
X115365330Y-83357819D01*
X115258050Y-83319618D01*
X115258045Y-83319617D01*
X115251415Y-83317256D01*
X115244427Y-83316423D01*
X115244424Y-83316422D01*
X115121323Y-83301743D01*
X115071305Y-83295779D01*
X115064302Y-83296515D01*
X115064301Y-83296515D01*
X114897913Y-83314003D01*
X114897911Y-83314004D01*
X114890913Y-83314739D01*
X114719204Y-83373193D01*
X114667339Y-83405101D01*
X114570720Y-83464541D01*
X114570717Y-83464543D01*
X114564713Y-83468237D01*
X114559678Y-83473168D01*
X114559675Y-83473170D01*
X114440207Y-83590162D01*
X114435118Y-83595146D01*
X114431303Y-83601066D01*
X114431298Y-83601072D01*
X114409197Y-83635366D01*
X114355483Y-83681791D01*
X114285196Y-83691806D01*
X114235775Y-83673498D01*
X114169166Y-83631227D01*
X114121284Y-83614177D01*
X114004925Y-83572743D01*
X114004920Y-83572742D01*
X113998290Y-83570381D01*
X113991302Y-83569548D01*
X113991299Y-83569547D01*
X113838231Y-83551295D01*
X113818180Y-83548904D01*
X113811177Y-83549640D01*
X113811176Y-83549640D01*
X113760171Y-83555001D01*
X113690332Y-83542229D01*
X113638486Y-83493727D01*
X113621000Y-83429691D01*
X113621000Y-81410636D01*
X113622078Y-81394190D01*
X113625172Y-81370688D01*
X113626250Y-81362500D01*
X113621000Y-81322620D01*
X113621000Y-81322615D01*
X113605338Y-81203650D01*
X113600860Y-81192838D01*
X113544024Y-81055624D01*
X113470978Y-80960429D01*
X113470974Y-80960425D01*
X113468440Y-80957123D01*
X113451516Y-80935066D01*
X113451513Y-80935063D01*
X113446487Y-80928513D01*
X113431607Y-80917095D01*
X113421121Y-80909048D01*
X113408730Y-80898181D01*
X112676815Y-80166266D01*
X112665948Y-80153875D01*
X112651513Y-80135063D01*
X112646487Y-80128513D01*
X112614575Y-80104026D01*
X112614569Y-80104020D01*
X112525929Y-80036004D01*
X112525927Y-80036003D01*
X112519376Y-80030976D01*
X112371351Y-79969662D01*
X112363164Y-79968584D01*
X112363163Y-79968584D01*
X112351958Y-79967109D01*
X112320762Y-79963002D01*
X112252385Y-79954000D01*
X112252382Y-79954000D01*
X112252374Y-79953999D01*
X112220689Y-79949828D01*
X112212500Y-79948750D01*
X112180807Y-79952922D01*
X112164364Y-79954000D01*
X110260644Y-79954000D01*
X110244198Y-79952922D01*
X110220688Y-79949827D01*
X110212500Y-79948749D01*
X110053649Y-79969662D01*
X109905624Y-80030976D01*
X109859805Y-80066134D01*
X109810437Y-80104015D01*
X109810421Y-80104029D01*
X109785066Y-80123484D01*
X109785063Y-80123487D01*
X109778513Y-80128513D01*
X109773483Y-80135068D01*
X109759048Y-80153879D01*
X109748181Y-80166270D01*
X108997356Y-80917095D01*
X108935044Y-80951121D01*
X108908261Y-80954000D01*
X101860636Y-80954000D01*
X101844190Y-80952922D01*
X101820688Y-80949828D01*
X101812500Y-80948750D01*
X101804312Y-80949828D01*
X101772629Y-80953999D01*
X101772620Y-80954000D01*
X101772615Y-80954000D01*
X101653650Y-80969662D01*
X101505625Y-81030976D01*
X101505623Y-81030977D01*
X101505624Y-81030977D01*
X101410428Y-81104023D01*
X101410425Y-81104026D01*
X101378513Y-81128513D01*
X101373483Y-81135068D01*
X101359048Y-81153879D01*
X101348181Y-81166270D01*
X101016266Y-81498185D01*
X101003875Y-81509052D01*
X100978513Y-81528513D01*
X100954026Y-81560425D01*
X100954023Y-81560428D01*
X100880976Y-81655624D01*
X100822417Y-81796998D01*
X100819662Y-81803650D01*
X100804000Y-81922615D01*
X100804000Y-81922620D01*
X100798750Y-81962500D01*
X100799828Y-81970688D01*
X100802922Y-81994190D01*
X100804000Y-82010636D01*
X100804000Y-82339136D01*
X100790944Y-82394801D01*
X100787538Y-82400085D01*
X100756519Y-82485309D01*
X100729796Y-82558730D01*
X100725500Y-82570532D01*
X100702766Y-82750487D01*
X96502434Y-82750487D01*
X96502434Y-82210305D01*
X96522436Y-82142184D01*
X96539339Y-82121210D01*
X101701869Y-76958680D01*
X101764181Y-76924654D01*
X101779544Y-76922294D01*
X101790162Y-76921328D01*
X101857534Y-76915196D01*
X101864236Y-76913018D01*
X101864238Y-76913018D01*
X102023343Y-76861322D01*
X102023346Y-76861321D01*
X102030042Y-76859145D01*
X102036093Y-76855538D01*
X102094917Y-76820472D01*
X102163672Y-76802772D01*
X102231081Y-76825054D01*
X102275743Y-76880243D01*
X102285434Y-76928701D01*
X102285434Y-76933362D01*
X102265432Y-77001483D01*
X102264122Y-77003288D01*
X102263427Y-77003969D01*
X102261828Y-77006451D01*
X102261826Y-77006453D01*
X102215777Y-77077908D01*
X102165169Y-77156436D01*
X102162760Y-77163056D01*
X102162758Y-77163059D01*
X102116691Y-77289627D01*
X102103131Y-77326883D01*
X102080397Y-77506838D01*
X102098097Y-77687358D01*
X102155352Y-77859471D01*
X102158999Y-77865493D01*
X102159000Y-77865495D01*
X102241875Y-78002338D01*
X102249314Y-78014622D01*
X102254203Y-78019685D01*
X102254204Y-78019686D01*
X102264898Y-78030760D01*
X102375316Y-78145100D01*
X102405077Y-78164575D01*
X102479748Y-78213438D01*
X102527093Y-78244420D01*
X102533697Y-78246876D01*
X102533699Y-78246877D01*
X102690492Y-78305188D01*
X102690494Y-78305188D01*
X102697102Y-78307646D01*
X102780929Y-78318831D01*
X102869914Y-78330705D01*
X102869918Y-78330705D01*
X102876895Y-78331636D01*
X102883906Y-78330998D01*
X102883910Y-78330998D01*
X103036492Y-78317111D01*
X103057534Y-78315196D01*
X103064236Y-78313018D01*
X103064238Y-78313018D01*
X103223343Y-78261322D01*
X103223346Y-78261321D01*
X103230042Y-78259145D01*
X103366545Y-78177773D01*
X103379794Y-78169875D01*
X103379796Y-78169874D01*
X103385846Y-78166267D01*
X103517200Y-78041180D01*
X103617577Y-77890100D01*
X103660157Y-77778008D01*
X103679489Y-77727118D01*
X103679490Y-77727116D01*
X103681989Y-77720536D01*
X103683460Y-77710068D01*
X103706682Y-77544837D01*
X103706682Y-77544834D01*
X103707233Y-77540915D01*
X103707550Y-77518198D01*
X103687331Y-77337943D01*
X103683503Y-77326950D01*
X103629998Y-77173304D01*
X103629996Y-77173301D01*
X103627679Y-77166646D01*
X103531560Y-77012822D01*
X103529149Y-77010394D01*
X103503051Y-76945914D01*
X103502434Y-76933461D01*
X103502434Y-76166334D01*
X103503512Y-76149888D01*
X103506606Y-76126386D01*
X103507684Y-76118198D01*
X103502434Y-76078320D01*
X103502434Y-76078313D01*
X103486772Y-75959348D01*
X103425458Y-75811323D01*
X103386948Y-75761136D01*
X103352411Y-75716126D01*
X103352408Y-75716123D01*
X103327921Y-75684211D01*
X103313968Y-75673504D01*
X103302555Y-75664746D01*
X103290164Y-75653879D01*
X102178630Y-74542345D01*
X102144604Y-74480033D01*
X102149669Y-74409218D01*
X102192216Y-74352382D01*
X102258736Y-74327571D01*
X102267725Y-74327250D01*
X114878000Y-74327250D01*
X114946121Y-74347252D01*
X114992614Y-74400908D01*
X115004000Y-74453250D01*
X115004001Y-75503337D01*
X115003007Y-75519130D01*
X114998963Y-75551140D01*
X115000204Y-75563795D01*
X115003400Y-75596393D01*
X115004001Y-75608688D01*
X115004001Y-75802384D01*
X115004539Y-75806469D01*
X115004539Y-75806473D01*
X115007798Y-75831227D01*
X115019662Y-75921350D01*
X115032241Y-75951719D01*
X115076371Y-76058258D01*
X115080976Y-76069376D01*
X115086002Y-76075926D01*
X115149782Y-76159044D01*
X115178513Y-76196487D01*
X115185063Y-76201513D01*
X115185066Y-76201516D01*
X115224807Y-76232010D01*
X115305625Y-76294024D01*
X115453650Y-76355338D01*
X115461838Y-76356416D01*
X115568521Y-76370461D01*
X115572615Y-76371000D01*
X115750085Y-76371000D01*
X115766748Y-76372107D01*
X115795461Y-76375938D01*
X115802472Y-76375300D01*
X115802476Y-76375300D01*
X115844018Y-76371519D01*
X115855438Y-76371000D01*
X116137347Y-76371000D01*
X116550078Y-76370999D01*
X116566744Y-76372106D01*
X116588481Y-76375007D01*
X116588485Y-76375007D01*
X116595461Y-76375938D01*
X116602472Y-76375300D01*
X116602476Y-76375300D01*
X116644026Y-76371518D01*
X116655446Y-76370999D01*
X116902384Y-76370999D01*
X116906469Y-76370461D01*
X116906473Y-76370461D01*
X117013163Y-76356416D01*
X117013165Y-76356416D01*
X117021350Y-76355338D01*
X117121811Y-76313726D01*
X117155712Y-76299684D01*
X117226302Y-76292095D01*
X117289789Y-76323875D01*
X117326016Y-76384933D01*
X117329930Y-76416093D01*
X117329930Y-76499110D01*
X117309928Y-76567231D01*
X117292087Y-76589134D01*
X117236734Y-76643340D01*
X117231699Y-76648271D01*
X117133441Y-76800738D01*
X117131032Y-76807358D01*
X117131030Y-76807361D01*
X117082654Y-76940273D01*
X117071403Y-76971185D01*
X117048669Y-77151140D01*
X117066369Y-77331660D01*
X117123624Y-77503773D01*
X117127271Y-77509795D01*
X117127272Y-77509797D01*
X117217586Y-77658924D01*
X117215980Y-77659897D01*
X117238285Y-77717302D01*
X117224139Y-77786875D01*
X117174624Y-77837756D01*
X117112740Y-77854000D01*
X116758160Y-77854000D01*
X116690039Y-77833998D01*
X116669065Y-77817095D01*
X116411173Y-77559203D01*
X116381277Y-77511546D01*
X116380668Y-77509797D01*
X116346245Y-77410948D01*
X116305000Y-77344942D01*
X116253859Y-77263098D01*
X116250126Y-77257124D01*
X116222182Y-77228984D01*
X116127278Y-77133415D01*
X116127274Y-77133412D01*
X116122315Y-77128418D01*
X115969166Y-77031227D01*
X115903603Y-77007881D01*
X115804925Y-76972743D01*
X115804920Y-76972742D01*
X115798290Y-76970381D01*
X115791302Y-76969548D01*
X115791299Y-76969547D01*
X115668198Y-76954868D01*
X115618180Y-76948904D01*
X115611177Y-76949640D01*
X115611176Y-76949640D01*
X115444788Y-76967128D01*
X115444786Y-76967129D01*
X115437788Y-76967864D01*
X115358605Y-76994820D01*
X115332887Y-77003575D01*
X115261955Y-77006593D01*
X115200651Y-76970783D01*
X115175873Y-76932515D01*
X115144024Y-76855624D01*
X115070978Y-76760429D01*
X115070974Y-76760425D01*
X115069775Y-76758862D01*
X115051516Y-76735066D01*
X115051513Y-76735063D01*
X115046487Y-76728513D01*
X115039932Y-76723483D01*
X115021121Y-76709048D01*
X115008730Y-76698181D01*
X114114315Y-75803766D01*
X114103448Y-75791375D01*
X114089013Y-75772563D01*
X114083987Y-75766013D01*
X114052075Y-75741526D01*
X114052072Y-75741523D01*
X113956876Y-75668476D01*
X113808851Y-75607162D01*
X113800664Y-75606084D01*
X113800663Y-75606084D01*
X113789458Y-75604609D01*
X113758262Y-75600502D01*
X113689885Y-75591500D01*
X113689882Y-75591500D01*
X113689874Y-75591499D01*
X113658189Y-75587328D01*
X113650000Y-75586250D01*
X113618307Y-75590422D01*
X113601864Y-75591500D01*
X112584751Y-75591500D01*
X112516630Y-75571498D01*
X112512157Y-75568276D01*
X112509815Y-75565918D01*
X112498697Y-75558862D01*
X112436089Y-75519130D01*
X112356666Y-75468727D01*
X112327463Y-75458328D01*
X112192425Y-75410243D01*
X112192420Y-75410242D01*
X112185790Y-75407881D01*
X112178802Y-75407048D01*
X112178799Y-75407047D01*
X112055698Y-75392368D01*
X112005680Y-75386404D01*
X111998677Y-75387140D01*
X111998676Y-75387140D01*
X111832288Y-75404628D01*
X111832286Y-75404629D01*
X111825288Y-75405364D01*
X111653579Y-75463818D01*
X111617895Y-75485771D01*
X111505095Y-75555166D01*
X111505092Y-75555168D01*
X111499088Y-75558862D01*
X111494053Y-75563793D01*
X111494050Y-75563795D01*
X111376222Y-75679181D01*
X111369493Y-75685771D01*
X111271235Y-75838238D01*
X111268826Y-75844858D01*
X111268824Y-75844861D01*
X111211606Y-76002066D01*
X111209197Y-76008685D01*
X111186463Y-76188640D01*
X111204163Y-76369160D01*
X111261418Y-76541273D01*
X111265065Y-76547295D01*
X111265066Y-76547297D01*
X111329805Y-76654194D01*
X111355380Y-76696424D01*
X111481382Y-76826902D01*
X111633159Y-76926222D01*
X111639763Y-76928678D01*
X111639765Y-76928679D01*
X111796558Y-76986990D01*
X111796560Y-76986990D01*
X111803168Y-76989448D01*
X111886995Y-77000633D01*
X111975980Y-77012507D01*
X111975984Y-77012507D01*
X111982961Y-77013438D01*
X111989972Y-77012800D01*
X111989976Y-77012800D01*
X112132459Y-76999832D01*
X112163600Y-76996998D01*
X112170302Y-76994820D01*
X112170304Y-76994820D01*
X112329409Y-76943124D01*
X112329412Y-76943123D01*
X112336108Y-76940947D01*
X112491912Y-76848069D01*
X112497013Y-76843212D01*
X112502626Y-76838951D01*
X112503385Y-76839952D01*
X112560090Y-76810762D01*
X112583860Y-76808500D01*
X113345761Y-76808500D01*
X113413882Y-76828502D01*
X113434856Y-76845405D01*
X113967095Y-77377644D01*
X114001121Y-77439956D01*
X114004000Y-77466739D01*
X114004000Y-77714364D01*
X114002922Y-77730807D01*
X113998750Y-77762500D01*
X113999828Y-77770689D01*
X114003168Y-77796062D01*
X114004000Y-77802380D01*
X114004000Y-77802385D01*
X114010796Y-77854000D01*
X114015548Y-77890098D01*
X114015548Y-77890100D01*
X114016381Y-77896424D01*
X114019662Y-77921351D01*
X114080976Y-78069376D01*
X114086003Y-78075927D01*
X114086004Y-78075929D01*
X114154020Y-78164569D01*
X114154026Y-78164575D01*
X114178513Y-78196487D01*
X114185068Y-78201517D01*
X114203879Y-78215952D01*
X114216270Y-78226819D01*
X119348185Y-83358734D01*
X119359052Y-83371125D01*
X119378513Y-83396487D01*
X119385063Y-83401513D01*
X119410421Y-83420971D01*
X119410437Y-83420985D01*
X119443314Y-83446212D01*
X119505624Y-83494024D01*
X119554481Y-83514261D01*
X119646020Y-83552178D01*
X119646023Y-83552179D01*
X119653650Y-83555338D01*
X119812500Y-83576251D01*
X119820689Y-83575173D01*
X119828946Y-83575173D01*
X119828946Y-83577468D01*
X119887337Y-83586574D01*
X119902626Y-83595124D01*
X120022393Y-83673497D01*
X120045659Y-83688722D01*
X120052263Y-83691178D01*
X120052265Y-83691179D01*
X120209058Y-83749490D01*
X120209060Y-83749490D01*
X120215668Y-83751948D01*
X120288140Y-83761618D01*
X120388480Y-83775007D01*
X120388484Y-83775007D01*
X120395461Y-83775938D01*
X120402472Y-83775300D01*
X120402476Y-83775300D01*
X120552806Y-83761618D01*
X120576100Y-83759498D01*
X120582802Y-83757320D01*
X120582804Y-83757320D01*
X120741909Y-83705624D01*
X120741912Y-83705623D01*
X120748608Y-83703447D01*
X120865128Y-83633987D01*
X120898360Y-83614177D01*
X120898362Y-83614176D01*
X120904412Y-83610569D01*
X121035766Y-83485482D01*
X121136143Y-83334402D01*
X121182327Y-83212822D01*
X121198055Y-83171420D01*
X121198056Y-83171418D01*
X121200555Y-83164838D01*
X121203951Y-83140678D01*
X121215920Y-83055509D01*
X121245208Y-82990835D01*
X121251599Y-82983950D01*
X121427644Y-82807905D01*
X121489956Y-82773879D01*
X121516739Y-82771000D01*
X125164364Y-82771000D01*
X125180807Y-82772078D01*
X125212500Y-82776250D01*
X125220689Y-82775172D01*
X125252374Y-82771001D01*
X125252384Y-82771000D01*
X125252385Y-82771000D01*
X125351957Y-82757891D01*
X125363164Y-82756416D01*
X125363166Y-82756415D01*
X125371351Y-82755338D01*
X125519376Y-82694024D01*
X125614572Y-82620977D01*
X125614575Y-82620974D01*
X125646487Y-82596487D01*
X125661040Y-82577522D01*
X125665952Y-82571121D01*
X125676819Y-82558730D01*
X126975336Y-81260213D01*
X127037648Y-81226187D01*
X127108463Y-81231252D01*
X127165299Y-81273799D01*
X127190110Y-81340319D01*
X127189437Y-81365098D01*
X127186463Y-81388640D01*
X127204163Y-81569160D01*
X127261418Y-81741273D01*
X127265065Y-81747295D01*
X127265066Y-81747297D01*
X127331636Y-81857217D01*
X127355380Y-81896424D01*
X127360269Y-81901487D01*
X127360270Y-81901488D01*
X127381027Y-81922982D01*
X127481382Y-82026902D01*
X127633159Y-82126222D01*
X127639763Y-82128678D01*
X127639765Y-82128679D01*
X127796558Y-82186990D01*
X127796560Y-82186990D01*
X127803168Y-82189448D01*
X127886995Y-82200633D01*
X127975980Y-82212507D01*
X127975984Y-82212507D01*
X127982961Y-82213438D01*
X127989972Y-82212800D01*
X127989976Y-82212800D01*
X128132459Y-82199832D01*
X128163600Y-82196998D01*
X128170302Y-82194820D01*
X128170304Y-82194820D01*
X128329409Y-82143124D01*
X128329412Y-82143123D01*
X128336108Y-82140947D01*
X128461177Y-82066391D01*
X128484882Y-82052260D01*
X128553637Y-82034560D01*
X128621046Y-82056842D01*
X128665708Y-82112031D01*
X128675011Y-82170374D01*
X128670510Y-82227569D01*
X128670122Y-82232500D01*
X128690604Y-82492749D01*
X128691758Y-82497556D01*
X128691759Y-82497562D01*
X128717401Y-82604366D01*
X128751546Y-82746589D01*
X128753439Y-82751160D01*
X128753440Y-82751162D01*
X128849099Y-82982102D01*
X128851447Y-82987771D01*
X128987847Y-83210356D01*
X129157387Y-83408863D01*
X129355894Y-83578403D01*
X129578479Y-83714803D01*
X129583049Y-83716696D01*
X129583053Y-83716698D01*
X129815064Y-83812800D01*
X129819661Y-83814704D01*
X129861189Y-83824674D01*
X130068688Y-83874491D01*
X130068694Y-83874492D01*
X130073501Y-83875646D01*
X130333750Y-83896128D01*
X130593999Y-83875646D01*
X130598806Y-83874492D01*
X130598812Y-83874491D01*
X130806311Y-83824674D01*
X130847839Y-83814704D01*
X130852436Y-83812800D01*
X131084447Y-83716698D01*
X131084451Y-83716696D01*
X131089021Y-83714803D01*
X131311606Y-83578403D01*
X131510113Y-83408863D01*
X131679653Y-83210356D01*
X131816053Y-82987771D01*
X131818402Y-82982102D01*
X131914060Y-82751162D01*
X131914061Y-82751160D01*
X131915954Y-82746589D01*
X131950099Y-82604366D01*
X131975741Y-82497562D01*
X131975742Y-82497556D01*
X131976896Y-82492749D01*
X131997378Y-82232500D01*
X131976896Y-81972251D01*
X131975742Y-81967444D01*
X131975741Y-81967438D01*
X131917109Y-81723223D01*
X131915954Y-81718411D01*
X131889947Y-81655624D01*
X131817948Y-81481803D01*
X131817946Y-81481799D01*
X131816053Y-81477229D01*
X131679653Y-81254644D01*
X131510113Y-81056137D01*
X131311606Y-80886597D01*
X131089021Y-80750197D01*
X131084451Y-80748304D01*
X131084447Y-80748302D01*
X130852412Y-80652190D01*
X130852410Y-80652189D01*
X130847839Y-80650296D01*
X130736622Y-80623595D01*
X130598812Y-80590509D01*
X130598806Y-80590508D01*
X130593999Y-80589354D01*
X130333750Y-80568872D01*
X130073501Y-80589354D01*
X130068687Y-80590510D01*
X130068679Y-80590511D01*
X129978514Y-80612158D01*
X129907606Y-80608612D01*
X129849872Y-80567292D01*
X129823641Y-80501319D01*
X129837243Y-80431638D01*
X129860004Y-80400545D01*
X131421282Y-78839267D01*
X131483594Y-78805241D01*
X131498955Y-78802881D01*
X131563600Y-78796998D01*
X131570302Y-78794820D01*
X131570304Y-78794820D01*
X131729409Y-78743124D01*
X131729412Y-78743123D01*
X131736108Y-78740947D01*
X131832513Y-78683478D01*
X131885860Y-78651677D01*
X131885862Y-78651676D01*
X131891912Y-78648069D01*
X132023266Y-78522982D01*
X132123643Y-78371902D01*
X132173535Y-78240562D01*
X132185555Y-78208920D01*
X132185556Y-78208918D01*
X132188055Y-78202338D01*
X132190212Y-78186990D01*
X132212748Y-78026639D01*
X132212748Y-78026636D01*
X132213299Y-78022717D01*
X132213616Y-78000000D01*
X132193397Y-77819745D01*
X132190202Y-77810569D01*
X132136064Y-77655106D01*
X132136062Y-77655103D01*
X132133745Y-77648448D01*
X132037626Y-77494624D01*
X131998383Y-77455106D01*
X131914778Y-77370915D01*
X131914774Y-77370912D01*
X131909815Y-77365918D01*
X131902030Y-77360977D01*
X131837879Y-77320266D01*
X131756666Y-77268727D01*
X131702283Y-77249362D01*
X131592425Y-77210243D01*
X131592420Y-77210242D01*
X131585790Y-77207881D01*
X131578802Y-77207048D01*
X131578799Y-77207047D01*
X131455698Y-77192368D01*
X131405680Y-77186404D01*
X131398677Y-77187140D01*
X131398676Y-77187140D01*
X131232288Y-77204628D01*
X131232286Y-77204629D01*
X131225288Y-77205364D01*
X131053579Y-77263818D01*
X131017895Y-77285771D01*
X130905095Y-77355166D01*
X130905092Y-77355168D01*
X130899088Y-77358862D01*
X130894053Y-77363793D01*
X130894050Y-77363795D01*
X130774525Y-77480843D01*
X130769493Y-77485771D01*
X130671235Y-77638238D01*
X130668826Y-77644858D01*
X130668824Y-77644861D01*
X130619513Y-77780342D01*
X130609197Y-77808685D01*
X130608314Y-77815675D01*
X130597025Y-77905034D01*
X130568643Y-77970111D01*
X130561114Y-77978337D01*
X127978416Y-80561035D01*
X127916104Y-80595061D01*
X127902495Y-80597249D01*
X127880802Y-80599529D01*
X127832296Y-80604627D01*
X127832292Y-80604628D01*
X127825288Y-80605364D01*
X127653579Y-80663818D01*
X127617193Y-80686203D01*
X127548695Y-80704861D01*
X127480981Y-80683523D01*
X127435552Y-80628963D01*
X127425173Y-80578885D01*
X127425173Y-80570688D01*
X127426251Y-80562500D01*
X127422078Y-80530801D01*
X127421000Y-80514356D01*
X127421000Y-79491739D01*
X127441002Y-79423618D01*
X127457905Y-79402644D01*
X128220541Y-78640008D01*
X128282853Y-78605982D01*
X128326300Y-78604210D01*
X128335249Y-78605404D01*
X128395461Y-78613438D01*
X128402472Y-78612800D01*
X128402476Y-78612800D01*
X128544959Y-78599832D01*
X128576100Y-78596998D01*
X128582802Y-78594820D01*
X128582804Y-78594820D01*
X128741909Y-78543124D01*
X128741912Y-78543123D01*
X128748608Y-78540947D01*
X128904412Y-78448069D01*
X129035766Y-78322982D01*
X129136143Y-78171902D01*
X129185800Y-78041180D01*
X129198055Y-78008920D01*
X129198056Y-78008918D01*
X129200555Y-78002338D01*
X129214230Y-77905034D01*
X129225248Y-77826639D01*
X129225248Y-77826636D01*
X129225799Y-77822717D01*
X129226116Y-77800000D01*
X129205897Y-77619745D01*
X129190609Y-77575844D01*
X129148564Y-77455106D01*
X129148562Y-77455103D01*
X129146245Y-77448448D01*
X129102002Y-77377644D01*
X129053859Y-77300598D01*
X129050126Y-77294624D01*
X129022061Y-77266362D01*
X128927278Y-77170915D01*
X128927274Y-77170912D01*
X128922315Y-77165918D01*
X128911197Y-77158862D01*
X128803224Y-77090341D01*
X128769166Y-77068727D01*
X128739963Y-77058328D01*
X128604925Y-77010243D01*
X128604920Y-77010242D01*
X128598290Y-77007881D01*
X128591302Y-77007048D01*
X128591299Y-77007047D01*
X128451523Y-76990380D01*
X128418180Y-76986404D01*
X128411177Y-76987140D01*
X128411176Y-76987140D01*
X128244788Y-77004628D01*
X128244786Y-77004629D01*
X128237788Y-77005364D01*
X128066079Y-77063818D01*
X128060075Y-77067512D01*
X127917595Y-77155166D01*
X127917592Y-77155168D01*
X127911588Y-77158862D01*
X127906553Y-77163793D01*
X127906550Y-77163795D01*
X127787025Y-77280843D01*
X127781993Y-77285771D01*
X127683735Y-77438238D01*
X127681324Y-77444861D01*
X127678193Y-77451169D01*
X127676403Y-77450281D01*
X127653980Y-77485471D01*
X126416266Y-78723185D01*
X126403875Y-78734052D01*
X126378513Y-78753513D01*
X126354026Y-78785425D01*
X126354023Y-78785428D01*
X126354017Y-78785436D01*
X126312711Y-78839267D01*
X126280976Y-78880624D01*
X126219662Y-79028649D01*
X126219662Y-79028650D01*
X126204000Y-79147615D01*
X126204000Y-79147620D01*
X126198750Y-79187500D01*
X126201487Y-79208286D01*
X126202922Y-79219190D01*
X126204000Y-79235636D01*
X126204000Y-80258261D01*
X126183998Y-80326382D01*
X126167095Y-80347356D01*
X124997356Y-81517095D01*
X124935044Y-81551121D01*
X124908261Y-81554000D01*
X121260636Y-81554000D01*
X121244193Y-81552922D01*
X121212500Y-81548750D01*
X121204311Y-81549828D01*
X121172626Y-81553999D01*
X121172617Y-81554000D01*
X121172615Y-81554000D01*
X121172609Y-81554001D01*
X121172607Y-81554001D01*
X121073513Y-81567047D01*
X121061837Y-81568584D01*
X121061836Y-81568584D01*
X121053649Y-81569662D01*
X120905624Y-81630976D01*
X120863559Y-81663254D01*
X120810437Y-81704015D01*
X120810421Y-81704029D01*
X120785066Y-81723484D01*
X120785063Y-81723487D01*
X120778513Y-81728513D01*
X120773483Y-81735068D01*
X120759048Y-81753879D01*
X120748181Y-81766270D01*
X120390916Y-82123535D01*
X120328604Y-82157561D01*
X120314995Y-82159749D01*
X120293302Y-82162029D01*
X120244796Y-82167127D01*
X120244792Y-82167128D01*
X120237788Y-82167864D01*
X120066079Y-82226318D01*
X120060082Y-82230008D01*
X120058929Y-82230550D01*
X119988775Y-82241456D01*
X119923861Y-82212702D01*
X119916186Y-82205637D01*
X117196644Y-79486095D01*
X117162618Y-79423783D01*
X117167683Y-79352968D01*
X117210230Y-79296132D01*
X117276750Y-79271321D01*
X117285739Y-79271000D01*
X123834988Y-79271000D01*
X123835648Y-79271002D01*
X123925781Y-79271474D01*
X123962369Y-79262690D01*
X123976645Y-79260122D01*
X124006450Y-79256515D01*
X124006452Y-79256515D01*
X124013992Y-79255602D01*
X124021099Y-79252917D01*
X124021101Y-79252916D01*
X124045080Y-79243855D01*
X124060207Y-79239201D01*
X124085144Y-79233215D01*
X124085148Y-79233213D01*
X124092527Y-79231442D01*
X124125969Y-79214182D01*
X124139211Y-79208286D01*
X124167299Y-79197673D01*
X124167302Y-79197671D01*
X124174406Y-79194987D01*
X124201806Y-79176155D01*
X124215363Y-79168041D01*
X124244911Y-79152791D01*
X124250632Y-79147800D01*
X124250638Y-79147796D01*
X124273263Y-79128058D01*
X124284729Y-79119164D01*
X124309470Y-79102161D01*
X124309475Y-79102156D01*
X124315731Y-79097857D01*
X124337845Y-79073037D01*
X124349088Y-79061912D01*
X124368409Y-79045057D01*
X124368412Y-79045053D01*
X124374135Y-79040061D01*
X124378503Y-79033847D01*
X124378505Y-79033844D01*
X124395771Y-79009278D01*
X124404778Y-78997914D01*
X124414328Y-78987194D01*
X124429807Y-78969821D01*
X124445362Y-78940442D01*
X124453630Y-78926952D01*
X124455898Y-78923725D01*
X124469889Y-78907081D01*
X126015993Y-77360977D01*
X126066151Y-77330239D01*
X126141911Y-77305623D01*
X126148608Y-77303447D01*
X126304412Y-77210569D01*
X126435766Y-77085482D01*
X126536143Y-76934402D01*
X126586918Y-76800738D01*
X126598055Y-76771420D01*
X126598056Y-76771418D01*
X126600555Y-76764838D01*
X126607777Y-76713454D01*
X126625248Y-76589139D01*
X126625248Y-76589136D01*
X126625799Y-76585217D01*
X126626116Y-76562500D01*
X126605897Y-76382245D01*
X126603580Y-76375591D01*
X126548564Y-76217606D01*
X126548562Y-76217603D01*
X126546245Y-76210948D01*
X126484871Y-76112728D01*
X126453859Y-76063098D01*
X126450126Y-76057124D01*
X126426063Y-76032892D01*
X126327278Y-75933415D01*
X126327274Y-75933412D01*
X126322315Y-75928418D01*
X126311197Y-75921362D01*
X126263038Y-75890800D01*
X126169166Y-75831227D01*
X126139963Y-75820828D01*
X126004925Y-75772743D01*
X126004920Y-75772742D01*
X125998290Y-75770381D01*
X125991302Y-75769548D01*
X125991299Y-75769547D01*
X125868198Y-75754868D01*
X125818180Y-75748904D01*
X125811177Y-75749640D01*
X125811176Y-75749640D01*
X125644788Y-75767128D01*
X125644786Y-75767129D01*
X125637788Y-75767864D01*
X125466079Y-75826318D01*
X125413965Y-75858379D01*
X125317595Y-75917666D01*
X125317592Y-75917668D01*
X125311588Y-75921362D01*
X125306553Y-75926293D01*
X125306550Y-75926295D01*
X125187025Y-76043343D01*
X125181993Y-76048271D01*
X125083735Y-76200738D01*
X125081325Y-76207358D01*
X125081324Y-76207361D01*
X125042610Y-76313726D01*
X125013304Y-76359726D01*
X123555935Y-77817095D01*
X123493623Y-77851121D01*
X123466840Y-77854000D01*
X122978775Y-77854000D01*
X122910654Y-77833998D01*
X122864161Y-77780342D01*
X122854057Y-77710068D01*
X122873827Y-77658273D01*
X122875932Y-77655106D01*
X122963697Y-77523008D01*
X123018916Y-77377644D01*
X123025609Y-77360026D01*
X123025610Y-77360024D01*
X123028109Y-77353444D01*
X123031370Y-77330239D01*
X123052802Y-77177745D01*
X123052802Y-77177742D01*
X123053353Y-77173823D01*
X123053596Y-77156436D01*
X123053615Y-77155068D01*
X123053615Y-77155063D01*
X123053670Y-77151106D01*
X123033451Y-76970851D01*
X123024767Y-76945914D01*
X122976118Y-76806212D01*
X122976116Y-76806209D01*
X122973799Y-76799554D01*
X122908550Y-76695133D01*
X122881413Y-76651704D01*
X122877680Y-76645730D01*
X122840709Y-76608500D01*
X122754832Y-76522021D01*
X122754828Y-76522018D01*
X122749869Y-76517024D01*
X122720162Y-76498171D01*
X122690592Y-76479406D01*
X122596720Y-76419833D01*
X122507198Y-76387956D01*
X122449737Y-76346264D01*
X122423936Y-76280121D01*
X122437991Y-76210529D01*
X122449505Y-76192554D01*
X122469624Y-76166334D01*
X122544024Y-76069375D01*
X122605338Y-75921350D01*
X122621000Y-75802385D01*
X122620999Y-74453250D01*
X122641001Y-74385129D01*
X122694657Y-74338636D01*
X122746999Y-74327250D01*
X122977980Y-74327250D01*
X122998892Y-74328997D01*
X123018666Y-74332325D01*
X123023529Y-74332385D01*
X123023533Y-74332385D01*
X123024740Y-74332400D01*
X123031218Y-74332479D01*
X123036027Y-74331791D01*
X123036037Y-74331790D01*
X123040207Y-74331193D01*
X123047659Y-74330352D01*
X123241105Y-74314334D01*
X123241110Y-74314333D01*
X123246305Y-74313903D01*
X123455528Y-74260933D01*
X123460300Y-74258840D01*
X123460303Y-74258839D01*
X123614753Y-74191099D01*
X123653177Y-74174247D01*
X123833862Y-74056209D01*
X123938328Y-73960048D01*
X123988814Y-73913576D01*
X123988816Y-73913574D01*
X123992654Y-73910041D01*
X124125220Y-73739730D01*
X124227944Y-73549920D01*
X124298025Y-73345792D01*
X124299300Y-73338156D01*
X124333550Y-73132912D01*
X124335328Y-73133209D01*
X124358048Y-73074349D01*
X124415363Y-73032451D01*
X124458051Y-73025000D01*
X125104216Y-73025000D01*
X125172337Y-73045002D01*
G37*
%TD.AperFunction*%
%TA.AperFunction,Conductor*%
G36*
X97134666Y-74347252D02*
G01*
X97181159Y-74400908D01*
X97191263Y-74471182D01*
X97161769Y-74535762D01*
X97107150Y-74572528D01*
X96937271Y-74630359D01*
X96878749Y-74666362D01*
X96804677Y-74711932D01*
X96782780Y-74725403D01*
X96777750Y-74730329D01*
X96777742Y-74730335D01*
X96752020Y-74755524D01*
X96689355Y-74788894D01*
X96663863Y-74791500D01*
X91784751Y-74791500D01*
X91716630Y-74771498D01*
X91712157Y-74768276D01*
X91709815Y-74765918D01*
X91698697Y-74758862D01*
X91645690Y-74725223D01*
X91556666Y-74668727D01*
X91520877Y-74655983D01*
X91392425Y-74610243D01*
X91392420Y-74610242D01*
X91385790Y-74607881D01*
X91378802Y-74607048D01*
X91378799Y-74607047D01*
X91255698Y-74592368D01*
X91205680Y-74586404D01*
X91198677Y-74587140D01*
X91198676Y-74587140D01*
X91032288Y-74604628D01*
X91032286Y-74604629D01*
X91025288Y-74605364D01*
X90853579Y-74663818D01*
X90839457Y-74672506D01*
X90705095Y-74755166D01*
X90705092Y-74755168D01*
X90699088Y-74758862D01*
X90694053Y-74763793D01*
X90694050Y-74763795D01*
X90580168Y-74875317D01*
X90569493Y-74885771D01*
X90471235Y-75038238D01*
X90468826Y-75044858D01*
X90468824Y-75044861D01*
X90426618Y-75160821D01*
X90384524Y-75217992D01*
X90318202Y-75243330D01*
X90265952Y-75236425D01*
X90198891Y-75212546D01*
X90192424Y-75210243D01*
X90192422Y-75210243D01*
X90185790Y-75207881D01*
X90178802Y-75207048D01*
X90178799Y-75207047D01*
X90055698Y-75192368D01*
X90005680Y-75186404D01*
X89998677Y-75187140D01*
X89998676Y-75187140D01*
X89832288Y-75204628D01*
X89832286Y-75204629D01*
X89825288Y-75205364D01*
X89653579Y-75263818D01*
X89601436Y-75295897D01*
X89505095Y-75355166D01*
X89505092Y-75355168D01*
X89499088Y-75358862D01*
X89494053Y-75363793D01*
X89494050Y-75363795D01*
X89374525Y-75480843D01*
X89369493Y-75485771D01*
X89271235Y-75638238D01*
X89268826Y-75644858D01*
X89268824Y-75644861D01*
X89215497Y-75791375D01*
X89209197Y-75808685D01*
X89186463Y-75988640D01*
X89186581Y-75989849D01*
X89166312Y-76055477D01*
X89112012Y-76101216D01*
X89041604Y-76110338D01*
X88993764Y-76092270D01*
X88956666Y-76068727D01*
X88915850Y-76054193D01*
X88792425Y-76010243D01*
X88792420Y-76010242D01*
X88785790Y-76007881D01*
X88778802Y-76007048D01*
X88778799Y-76007047D01*
X88655698Y-75992368D01*
X88605680Y-75986404D01*
X88598677Y-75987140D01*
X88598676Y-75987140D01*
X88432288Y-76004628D01*
X88432286Y-76004629D01*
X88425288Y-76005364D01*
X88253579Y-76063818D01*
X88220915Y-76083913D01*
X88105095Y-76155166D01*
X88105092Y-76155168D01*
X88099088Y-76158862D01*
X88094053Y-76163793D01*
X88094050Y-76163795D01*
X87974525Y-76280843D01*
X87969493Y-76285771D01*
X87871235Y-76438238D01*
X87868826Y-76444858D01*
X87868824Y-76444861D01*
X87826618Y-76560821D01*
X87784524Y-76617992D01*
X87718202Y-76643330D01*
X87665952Y-76636425D01*
X87614185Y-76617992D01*
X87592424Y-76610243D01*
X87592422Y-76610243D01*
X87585790Y-76607881D01*
X87578802Y-76607048D01*
X87578799Y-76607047D01*
X87428574Y-76589134D01*
X87405680Y-76586404D01*
X87398677Y-76587140D01*
X87398676Y-76587140D01*
X87232288Y-76604628D01*
X87232286Y-76604629D01*
X87225288Y-76605364D01*
X87053579Y-76663818D01*
X87000579Y-76696424D01*
X86905095Y-76755166D01*
X86905092Y-76755168D01*
X86899088Y-76758862D01*
X86894053Y-76763793D01*
X86894050Y-76763795D01*
X86775138Y-76880243D01*
X86769493Y-76885771D01*
X86671235Y-77038238D01*
X86668826Y-77044858D01*
X86668824Y-77044861D01*
X86625536Y-77163795D01*
X86609197Y-77208685D01*
X86586463Y-77388640D01*
X86604163Y-77569160D01*
X86661418Y-77741273D01*
X86665065Y-77747295D01*
X86665066Y-77747297D01*
X86751549Y-77890098D01*
X86755380Y-77896424D01*
X86760269Y-77901487D01*
X86760270Y-77901488D01*
X86771546Y-77913164D01*
X86881382Y-78026902D01*
X87033159Y-78126222D01*
X87039763Y-78128678D01*
X87039765Y-78128679D01*
X87196558Y-78186990D01*
X87196560Y-78186990D01*
X87203168Y-78189448D01*
X87286995Y-78200633D01*
X87375980Y-78212507D01*
X87375984Y-78212507D01*
X87382961Y-78213438D01*
X87389972Y-78212800D01*
X87389976Y-78212800D01*
X87495916Y-78203158D01*
X87523782Y-78203717D01*
X87560114Y-78208500D01*
X87600000Y-78213751D01*
X87608189Y-78212673D01*
X87616446Y-78212673D01*
X87616446Y-78214280D01*
X87677227Y-78223762D01*
X87730324Y-78270892D01*
X87749511Y-78339247D01*
X87728697Y-78407124D01*
X87712615Y-78426837D01*
X85118477Y-81020974D01*
X82536095Y-83603356D01*
X82473783Y-83637382D01*
X82402968Y-83632317D01*
X82346132Y-83589770D01*
X82321321Y-83523250D01*
X82321000Y-83514261D01*
X82321000Y-82604366D01*
X82314245Y-82542184D01*
X82263115Y-82405795D01*
X82189870Y-82308064D01*
X82165022Y-82241559D01*
X82180075Y-82172176D01*
X82189870Y-82156935D01*
X82200221Y-82143124D01*
X82263115Y-82059205D01*
X82314245Y-81922816D01*
X82321000Y-81860634D01*
X82321000Y-80064366D01*
X82314245Y-80002184D01*
X82263115Y-79865795D01*
X82175761Y-79749239D01*
X82059205Y-79661885D01*
X81922816Y-79610755D01*
X81860634Y-79604000D01*
X81597000Y-79604000D01*
X81528879Y-79583998D01*
X81482386Y-79530342D01*
X81471000Y-79478000D01*
X81471000Y-74875317D01*
X81491002Y-74807196D01*
X81507905Y-74786222D01*
X81929972Y-74364155D01*
X81992284Y-74330129D01*
X82019067Y-74327250D01*
X97066545Y-74327250D01*
X97134666Y-74347252D01*
G37*
%TD.AperFunction*%
%TA.AperFunction,Conductor*%
G36*
X100402371Y-74347252D02*
G01*
X100448864Y-74400908D01*
X100458968Y-74471182D01*
X100429474Y-74535762D01*
X100422421Y-74543260D01*
X100358533Y-74605824D01*
X100260275Y-74758291D01*
X100257866Y-74764911D01*
X100257864Y-74764914D01*
X100200646Y-74922119D01*
X100198237Y-74928738D01*
X100175503Y-75108693D01*
X100193203Y-75289213D01*
X100250458Y-75461326D01*
X100254105Y-75467348D01*
X100254106Y-75467350D01*
X100339703Y-75608688D01*
X100344420Y-75616477D01*
X100349309Y-75621540D01*
X100349310Y-75621541D01*
X100394635Y-75668476D01*
X100470422Y-75746955D01*
X100504946Y-75769547D01*
X100597347Y-75830012D01*
X100622199Y-75846275D01*
X100781552Y-75905538D01*
X100838424Y-75948028D01*
X100863298Y-76014524D01*
X100848273Y-76083913D01*
X100826723Y-76112728D01*
X96223595Y-80715856D01*
X96161283Y-80749882D01*
X96090468Y-80744817D01*
X96033632Y-80702270D01*
X96008821Y-80635750D01*
X96008500Y-80626761D01*
X96008500Y-79103606D01*
X96009578Y-79087160D01*
X96012672Y-79063658D01*
X96013750Y-79055470D01*
X96008500Y-79015592D01*
X96008500Y-79015585D01*
X95992838Y-78896620D01*
X95931524Y-78748595D01*
X95891347Y-78696235D01*
X95858477Y-78653398D01*
X95858474Y-78653395D01*
X95833987Y-78621483D01*
X95823503Y-78613438D01*
X95808621Y-78602018D01*
X95796230Y-78591151D01*
X94028674Y-76823595D01*
X93994648Y-76761283D01*
X93999713Y-76690468D01*
X94042260Y-76633632D01*
X94108780Y-76608821D01*
X94117769Y-76608500D01*
X97932016Y-76608500D01*
X98001010Y-76629068D01*
X98104136Y-76696552D01*
X98110740Y-76699008D01*
X98110742Y-76699009D01*
X98267535Y-76757320D01*
X98267537Y-76757320D01*
X98274145Y-76759778D01*
X98357972Y-76770963D01*
X98446957Y-76782837D01*
X98446961Y-76782837D01*
X98453938Y-76783768D01*
X98460949Y-76783130D01*
X98460953Y-76783130D01*
X98603436Y-76770162D01*
X98634577Y-76767328D01*
X98641279Y-76765150D01*
X98641281Y-76765150D01*
X98800386Y-76713454D01*
X98800389Y-76713453D01*
X98807085Y-76711277D01*
X98921067Y-76643330D01*
X98956837Y-76622007D01*
X98956839Y-76622006D01*
X98962889Y-76618399D01*
X99094243Y-76493312D01*
X99194620Y-76342232D01*
X99241344Y-76219232D01*
X99256532Y-76179250D01*
X99256533Y-76179248D01*
X99259032Y-76172668D01*
X99262923Y-76144982D01*
X99283725Y-75996969D01*
X99283725Y-75996966D01*
X99284276Y-75993047D01*
X99284593Y-75970330D01*
X99264374Y-75790075D01*
X99262057Y-75783421D01*
X99207041Y-75625436D01*
X99207039Y-75625433D01*
X99204722Y-75618778D01*
X99185070Y-75587328D01*
X99112336Y-75470928D01*
X99108603Y-75464954D01*
X99092506Y-75448744D01*
X98985755Y-75341245D01*
X98985751Y-75341242D01*
X98980792Y-75336248D01*
X98941246Y-75311151D01*
X98877107Y-75270448D01*
X98827643Y-75239057D01*
X98798440Y-75228658D01*
X98663402Y-75180573D01*
X98663397Y-75180572D01*
X98656767Y-75178211D01*
X98649779Y-75177378D01*
X98649776Y-75177377D01*
X98510931Y-75160821D01*
X98476657Y-75156734D01*
X98469654Y-75157470D01*
X98469653Y-75157470D01*
X98303265Y-75174958D01*
X98303263Y-75174959D01*
X98296265Y-75175694D01*
X98246925Y-75192491D01*
X98215468Y-75203199D01*
X98144535Y-75206217D01*
X98083232Y-75170406D01*
X98055872Y-75125359D01*
X98050068Y-75108693D01*
X98017437Y-75014989D01*
X98000050Y-74987164D01*
X97925051Y-74867139D01*
X97921318Y-74861165D01*
X97890252Y-74829881D01*
X97798470Y-74737456D01*
X97798466Y-74737453D01*
X97793507Y-74732459D01*
X97784630Y-74726825D01*
X97705969Y-74676906D01*
X97640358Y-74635268D01*
X97469482Y-74574422D01*
X97469534Y-74574277D01*
X97410679Y-74540891D01*
X97377668Y-74478035D01*
X97383879Y-74407311D01*
X97427341Y-74351172D01*
X97501206Y-74327250D01*
X100334250Y-74327250D01*
X100402371Y-74347252D01*
G37*
%TD.AperFunction*%
%TA.AperFunction,Conductor*%
G36*
X121319709Y-77095381D02*
G01*
X121340683Y-77112284D01*
X121400961Y-77172562D01*
X121434987Y-77234874D01*
X121437265Y-77249362D01*
X121444217Y-77320266D01*
X121501472Y-77492379D01*
X121505119Y-77498401D01*
X121505120Y-77498403D01*
X121530866Y-77540915D01*
X121595434Y-77647530D01*
X121599386Y-77651622D01*
X121624908Y-77717296D01*
X121610765Y-77786870D01*
X121561253Y-77837753D01*
X121499363Y-77854000D01*
X119596798Y-77854000D01*
X119528677Y-77833998D01*
X119482184Y-77780342D01*
X119472080Y-77710068D01*
X119501574Y-77645488D01*
X119509906Y-77636754D01*
X119534754Y-77613091D01*
X119601397Y-77549628D01*
X119701774Y-77398548D01*
X119751089Y-77268727D01*
X119763686Y-77235566D01*
X119763687Y-77235564D01*
X119766186Y-77228984D01*
X119772530Y-77183844D01*
X119801818Y-77119169D01*
X119861422Y-77080596D01*
X119897304Y-77075379D01*
X121251588Y-77075379D01*
X121319709Y-77095381D01*
G37*
%TD.AperFunction*%
%TD*%
M02*
