%TF.GenerationSoftware,KiCad,Pcbnew,(7.0.0)*%
%TF.CreationDate,2023-03-18T12:34:52-05:00*%
%TF.ProjectId,Piggyback_2_0,50696767-7962-4616-936b-5f325f302e6b,rev?*%
%TF.SameCoordinates,Original*%
%TF.FileFunction,Copper,L2,Bot*%
%TF.FilePolarity,Positive*%
%FSLAX46Y46*%
G04 Gerber Fmt 4.6, Leading zero omitted, Abs format (unit mm)*
G04 Created by KiCad (PCBNEW (7.0.0)) date 2023-03-18 12:34:52*
%MOMM*%
%LPD*%
G01*
G04 APERTURE LIST*
G04 Aperture macros list*
%AMRoundRect*
0 Rectangle with rounded corners*
0 $1 Rounding radius*
0 $2 $3 $4 $5 $6 $7 $8 $9 X,Y pos of 4 corners*
0 Add a 4 corners polygon primitive as box body*
4,1,4,$2,$3,$4,$5,$6,$7,$8,$9,$2,$3,0*
0 Add four circle primitives for the rounded corners*
1,1,$1+$1,$2,$3*
1,1,$1+$1,$4,$5*
1,1,$1+$1,$6,$7*
1,1,$1+$1,$8,$9*
0 Add four rect primitives between the rounded corners*
20,1,$1+$1,$2,$3,$4,$5,0*
20,1,$1+$1,$4,$5,$6,$7,0*
20,1,$1+$1,$6,$7,$8,$9,0*
20,1,$1+$1,$8,$9,$2,$3,0*%
%AMRotRect*
0 Rectangle, with rotation*
0 The origin of the aperture is its center*
0 $1 length*
0 $2 width*
0 $3 Rotation angle, in degrees counterclockwise*
0 Add horizontal line*
21,1,$1,$2,0,0,$3*%
G04 Aperture macros list end*
%TA.AperFunction,SMDPad,CuDef*%
%ADD10RoundRect,0.200000X-0.200000X-0.800000X0.200000X-0.800000X0.200000X0.800000X-0.200000X0.800000X0*%
%TD*%
%TA.AperFunction,ComponentPad*%
%ADD11C,2.300000*%
%TD*%
%TA.AperFunction,ComponentPad*%
%ADD12R,1.700000X1.700000*%
%TD*%
%TA.AperFunction,SMDPad,CuDef*%
%ADD13RoundRect,0.100000X-0.130000X-0.100000X0.130000X-0.100000X0.130000X0.100000X-0.130000X0.100000X0*%
%TD*%
%TA.AperFunction,SMDPad,CuDef*%
%ADD14RotRect,1.150000X1.000000X45.000000*%
%TD*%
%TA.AperFunction,SMDPad,CuDef*%
%ADD15RoundRect,0.100000X0.021213X0.162635X-0.162635X-0.021213X-0.021213X-0.162635X0.162635X0.021213X0*%
%TD*%
%TA.AperFunction,SMDPad,CuDef*%
%ADD16RoundRect,0.100000X0.100000X-0.130000X0.100000X0.130000X-0.100000X0.130000X-0.100000X-0.130000X0*%
%TD*%
%TA.AperFunction,SMDPad,CuDef*%
%ADD17RoundRect,0.100000X-0.021213X-0.162635X0.162635X0.021213X0.021213X0.162635X-0.162635X-0.021213X0*%
%TD*%
%TA.AperFunction,SMDPad,CuDef*%
%ADD18RoundRect,0.150000X-0.587500X-0.150000X0.587500X-0.150000X0.587500X0.150000X-0.587500X0.150000X0*%
%TD*%
%TA.AperFunction,SMDPad,CuDef*%
%ADD19RoundRect,0.135000X-0.135000X-0.185000X0.135000X-0.185000X0.135000X0.185000X-0.135000X0.185000X0*%
%TD*%
%TA.AperFunction,ComponentPad*%
%ADD20C,0.600000*%
%TD*%
%TA.AperFunction,SMDPad,CuDef*%
%ADD21RoundRect,0.166667X-0.333333X-0.733333X0.333333X-0.733333X0.333333X0.733333X-0.333333X0.733333X0*%
%TD*%
%TA.AperFunction,SMDPad,CuDef*%
%ADD22RoundRect,0.100000X-0.625000X-0.900000X0.625000X-0.900000X0.625000X0.900000X-0.625000X0.900000X0*%
%TD*%
%TA.AperFunction,SMDPad,CuDef*%
%ADD23R,0.600000X1.450000*%
%TD*%
%TA.AperFunction,SMDPad,CuDef*%
%ADD24R,0.300000X1.450000*%
%TD*%
%TA.AperFunction,ComponentPad*%
%ADD25O,1.000000X1.600000*%
%TD*%
%TA.AperFunction,ComponentPad*%
%ADD26O,1.000000X2.100000*%
%TD*%
%TA.AperFunction,SMDPad,CuDef*%
%ADD27RoundRect,0.100000X0.162635X-0.021213X-0.021213X0.162635X-0.162635X0.021213X0.021213X-0.162635X0*%
%TD*%
%TA.AperFunction,SMDPad,CuDef*%
%ADD28R,0.900000X1.200000*%
%TD*%
%TA.AperFunction,SMDPad,CuDef*%
%ADD29RoundRect,0.100000X-0.100000X0.130000X-0.100000X-0.130000X0.100000X-0.130000X0.100000X0.130000X0*%
%TD*%
%TA.AperFunction,SMDPad,CuDef*%
%ADD30RoundRect,0.150000X0.150000X-0.650000X0.150000X0.650000X-0.150000X0.650000X-0.150000X-0.650000X0*%
%TD*%
%TA.AperFunction,SMDPad,CuDef*%
%ADD31RoundRect,0.006000X0.359210X-0.226274X-0.226274X0.359210X-0.359210X0.226274X0.226274X-0.359210X0*%
%TD*%
%TA.AperFunction,SMDPad,CuDef*%
%ADD32RoundRect,0.020000X0.339411X0.226274X0.226274X0.339411X-0.339411X-0.226274X-0.226274X-0.339411X0*%
%TD*%
%TA.AperFunction,SMDPad,CuDef*%
%ADD33RotRect,3.100000X3.100000X135.000000*%
%TD*%
%TA.AperFunction,SMDPad,CuDef*%
%ADD34RoundRect,0.250000X0.375000X0.625000X-0.375000X0.625000X-0.375000X-0.625000X0.375000X-0.625000X0*%
%TD*%
%TA.AperFunction,SMDPad,CuDef*%
%ADD35RoundRect,0.150000X0.150000X-0.475000X0.150000X0.475000X-0.150000X0.475000X-0.150000X-0.475000X0*%
%TD*%
%TA.AperFunction,SMDPad,CuDef*%
%ADD36RoundRect,0.100000X0.130000X0.100000X-0.130000X0.100000X-0.130000X-0.100000X0.130000X-0.100000X0*%
%TD*%
%TA.AperFunction,SMDPad,CuDef*%
%ADD37RoundRect,0.140000X0.021213X-0.219203X0.219203X-0.021213X-0.021213X0.219203X-0.219203X0.021213X0*%
%TD*%
%TA.AperFunction,ViaPad*%
%ADD38C,0.600000*%
%TD*%
%TA.AperFunction,Conductor*%
%ADD39C,0.200000*%
%TD*%
%TA.AperFunction,Conductor*%
%ADD40C,0.400000*%
%TD*%
G04 APERTURE END LIST*
D10*
%TO.P,SWR1,1,A*%
%TO.N,GND*%
X82037500Y-76200000D03*
%TO.P,SWR1,2,B*%
%TO.N,RUN*%
X86237500Y-76200000D03*
%TD*%
%TO.P,SWR2,1,A*%
%TO.N,GND*%
X131250000Y-76200000D03*
%TO.P,SWR2,2,B*%
%TO.N,Net-(SWR2-B)*%
X135450000Y-76200000D03*
%TD*%
D11*
%TO.P,SW2,1,1*%
%TO.N,unconnected-(SW2-Pad1)*%
X85883750Y-65722500D03*
%TO.P,SW2,2,2*%
%TO.N,unconnected-(SW2-Pad2)*%
X92233750Y-63182500D03*
%TD*%
%TO.P,SW12,1,1*%
%TO.N,unconnected-(SW12-Pad1)*%
X85883750Y-103822500D03*
%TO.P,SW12,2,2*%
%TO.N,unconnected-(SW12-Pad2)*%
X92233750Y-101282500D03*
%TD*%
%TO.P,SW5,1,1*%
%TO.N,unconnected-(SW5-Pad1)*%
X143033750Y-65722500D03*
%TO.P,SW5,2,2*%
%TO.N,unconnected-(SW5-Pad2)*%
X149383750Y-63182500D03*
%TD*%
%TO.P,SW9,1,1*%
%TO.N,Net-(D3-A)*%
X123983750Y-84772500D03*
%TO.P,SW9,2,2*%
%TO.N,GP1*%
X130333750Y-82232500D03*
%TD*%
%TO.P,SW14,1,1*%
%TO.N,unconnected-(SW14-Pad1)*%
X123983750Y-103822500D03*
%TO.P,SW14,2,2*%
%TO.N,unconnected-(SW14-Pad2)*%
X130333750Y-101282500D03*
%TD*%
D12*
%TO.P,J1,1,Pin_1*%
%TO.N,GP1*%
X136524999Y-93662499D03*
%TO.P,J1,2,Pin_2*%
%TO.N,GP0*%
X136524999Y-91122499D03*
%TO.P,J1,3,Pin_3*%
%TO.N,GND*%
X136524999Y-88582499D03*
%TO.P,J1,4,Pin_4*%
%TO.N,D+*%
X136524999Y-86042499D03*
%TO.P,J1,5,Pin_5*%
%TO.N,D-*%
X136524999Y-83502499D03*
%TO.P,J1,6,Pin_6*%
%TO.N,VBUS*%
X136524999Y-80962499D03*
%TD*%
D11*
%TO.P,SW15,1,1*%
%TO.N,unconnected-(SW15-Pad1)*%
X143033750Y-103822500D03*
%TO.P,SW15,2,2*%
%TO.N,unconnected-(SW15-Pad2)*%
X149383750Y-101282500D03*
%TD*%
%TO.P,SW7,1,1*%
%TO.N,GP23*%
X85883750Y-84772500D03*
%TO.P,SW7,2,2*%
%TO.N,Net-(D1-A)*%
X92233750Y-82232500D03*
%TD*%
%TO.P,SW10,1,1*%
%TO.N,unconnected-(SW10-Pad1)*%
X143033750Y-84772500D03*
%TO.P,SW10,2,2*%
%TO.N,unconnected-(SW10-Pad2)*%
X149383750Y-82232500D03*
%TD*%
%TO.P,SW11,1,1*%
%TO.N,unconnected-(SW11-Pad1)*%
X66833750Y-103822500D03*
%TO.P,SW11,2,2*%
%TO.N,unconnected-(SW11-Pad2)*%
X73183750Y-101282500D03*
%TD*%
%TO.P,SW3,1,1*%
%TO.N,unconnected-(SW3-Pad1)*%
X104933750Y-65722500D03*
%TO.P,SW3,2,2*%
%TO.N,unconnected-(SW3-Pad2)*%
X111283750Y-63182500D03*
%TD*%
%TO.P,SW1,1,1*%
%TO.N,unconnected-(SW1-Pad1)*%
X66833750Y-65722500D03*
%TO.P,SW1,2,2*%
%TO.N,unconnected-(SW1-Pad2)*%
X73183750Y-63182500D03*
%TD*%
%TO.P,SW8,1,1*%
%TO.N,Net-(D2-A)*%
X104933750Y-84772500D03*
%TO.P,SW8,2,2*%
%TO.N,GP0*%
X111283750Y-82232500D03*
%TD*%
%TO.P,SW6,1,1*%
%TO.N,unconnected-(SW6-Pad1)*%
X66833750Y-84772500D03*
%TO.P,SW6,2,2*%
%TO.N,unconnected-(SW6-Pad2)*%
X73183750Y-82232500D03*
%TD*%
%TO.P,SW13,1,1*%
%TO.N,unconnected-(SW13-Pad1)*%
X104933750Y-103822500D03*
%TO.P,SW13,2,2*%
%TO.N,unconnected-(SW13-Pad2)*%
X111283750Y-101282500D03*
%TD*%
D12*
%TO.P,J5,1,Pin_1*%
%TO.N,GP29*%
X80962499Y-80962499D03*
%TO.P,J5,2,Pin_2*%
%TO.N,GP28*%
X80962499Y-83502499D03*
%TO.P,J5,3,Pin_3*%
%TO.N,GP27*%
X80962499Y-86042499D03*
%TO.P,J5,4,Pin_4*%
%TO.N,GP26*%
X80962499Y-88582499D03*
%TO.P,J5,5,Pin_5*%
%TO.N,GP25*%
X80962499Y-91122499D03*
%TO.P,J5,6,Pin_6*%
%TO.N,GP24*%
X80962499Y-93662499D03*
%TD*%
D13*
%TO.P,R8,1*%
%TO.N,QSPI_SS*%
X134120456Y-78499872D03*
%TO.P,R8,2*%
%TO.N,Net-(SWR2-B)*%
X134760456Y-78499872D03*
%TD*%
D14*
%TO.P,Y1,1,1*%
%TO.N,Net-(C6-Pad2)*%
X91755056Y-89817493D03*
%TO.P,Y1,2,2*%
%TO.N,GND*%
X92992493Y-88580056D03*
%TO.P,Y1,3,3*%
%TO.N,XIN*%
X93982442Y-89570005D03*
%TO.P,Y1,4,4*%
%TO.N,GND*%
X92745005Y-90807442D03*
%TD*%
D15*
%TO.P,C8,1*%
%TO.N,+1V1*%
X95026274Y-84173726D03*
%TO.P,C8,2*%
%TO.N,GND*%
X94573726Y-84626274D03*
%TD*%
D16*
%TO.P,R3,1*%
%TO.N,+3V3*%
X87670560Y-76208957D03*
%TO.P,R3,2*%
%TO.N,RUN*%
X87670560Y-75568957D03*
%TD*%
D17*
%TO.P,C5,1*%
%TO.N,+1V1*%
X102573726Y-75632524D03*
%TO.P,C5,2*%
%TO.N,GND*%
X103026274Y-75179976D03*
%TD*%
%TO.P,R4,1*%
%TO.N,d-*%
X104573726Y-75026274D03*
%TO.P,R4,2*%
%TO.N,D-*%
X105026274Y-74573726D03*
%TD*%
D18*
%TO.P,U2,1,GND*%
%TO.N,GND*%
X110556434Y-78068198D03*
%TO.P,U2,2,VO*%
%TO.N,+3V3*%
X110556434Y-76168198D03*
%TO.P,U2,3,VI*%
%TO.N,+5V*%
X112431434Y-77118198D03*
%TD*%
D19*
%TO.P,R7,1*%
%TO.N,+3V3*%
X129155000Y-77761833D03*
%TO.P,R7,2*%
%TO.N,QSPI_SS*%
X130175000Y-77761833D03*
%TD*%
D17*
%TO.P,R6,1*%
%TO.N,Net-(C6-Pad2)*%
X92642476Y-86745024D03*
%TO.P,R6,2*%
%TO.N,XOUT*%
X93095024Y-86292476D03*
%TD*%
D12*
%TO.P,J2,1,Pin_1*%
%TO.N,GP23*%
X82068749Y-96043749D03*
%TO.P,J2,2,Pin_2*%
%TO.N,GP22*%
X84608749Y-96043749D03*
%TO.P,J2,3,Pin_3*%
%TO.N,GP21*%
X87148749Y-96043749D03*
%TO.P,J2,4,Pin_4*%
%TO.N,GP20*%
X89688749Y-96043749D03*
%TO.P,J2,5,Pin_5*%
%TO.N,GP19*%
X92228749Y-96043749D03*
%TO.P,J2,6,Pin_6*%
%TO.N,GP18*%
X94768749Y-96043749D03*
%TO.P,J2,7,Pin_7*%
%TO.N,GP17*%
X97308749Y-96043749D03*
%TO.P,J2,8,Pin_8*%
%TO.N,GP16*%
X99848749Y-96043749D03*
%TO.P,J2,9,Pin_9*%
%TO.N,GP15*%
X102388749Y-96043749D03*
%TO.P,J2,10,Pin_10*%
%TO.N,GP14*%
X104928749Y-96043749D03*
%TO.P,J2,11,Pin_11*%
%TO.N,GP13*%
X107468749Y-96043749D03*
%TO.P,J2,12,Pin_12*%
%TO.N,GP12*%
X110008749Y-96043749D03*
%TO.P,J2,13,Pin_13*%
%TO.N,GP11*%
X112548749Y-96043749D03*
%TO.P,J2,14,Pin_14*%
%TO.N,GP10*%
X115088749Y-96043749D03*
%TO.P,J2,15,Pin_15*%
%TO.N,GP9*%
X117628749Y-96043749D03*
%TO.P,J2,16,Pin_16*%
%TO.N,GP8*%
X120168749Y-96043749D03*
%TO.P,J2,17,Pin_17*%
%TO.N,GP7*%
X122708749Y-96043749D03*
%TO.P,J2,18,Pin_18*%
%TO.N,GP6*%
X125248749Y-96043749D03*
%TO.P,J2,19,Pin_19*%
%TO.N,GP5*%
X127788749Y-96043749D03*
%TO.P,J2,20,Pin_20*%
%TO.N,GP4*%
X130328749Y-96043749D03*
%TO.P,J2,21,Pin_21*%
%TO.N,GP3*%
X132868749Y-96043749D03*
%TO.P,J2,22,Pin_22*%
%TO.N,GP2*%
X135408749Y-96043749D03*
%TD*%
D20*
%TO.P,EZ1,*%
%TO.N,*%
X121012500Y-74162500D03*
X116612500Y-74162500D03*
X121012500Y-74862500D03*
X116612500Y-75562500D03*
X121762500Y-75562500D03*
X116612500Y-74862500D03*
X121012500Y-75562500D03*
X115812500Y-75562500D03*
D21*
%TO.P,EZ1,1,Pin_1*%
%TO.N,+5V*%
X117012500Y-78562500D03*
%TO.P,EZ1,2,Pin_2*%
%TO.N,D-*%
X118212500Y-78562500D03*
%TO.P,EZ1,3,Pin_3*%
%TO.N,D+*%
X119412500Y-78562500D03*
%TO.P,EZ1,4,Pin_4*%
%TO.N,GND*%
X120612500Y-78562500D03*
D22*
%TO.P,EZ1,MP,MountPin*%
X121387500Y-74862500D03*
X116237500Y-74862500D03*
%TD*%
D16*
%TO.P,C16,1*%
%TO.N,+3V3*%
X122233397Y-81813692D03*
%TO.P,C16,2*%
%TO.N,GND*%
X122233397Y-81173692D03*
%TD*%
D23*
%TO.P,J3,A1,GND*%
%TO.N,GND*%
X124543749Y-71513749D03*
%TO.P,J3,A4,VBUS*%
%TO.N,VBUS*%
X125343749Y-71513749D03*
D24*
%TO.P,J3,A5,CC1*%
%TO.N,Net-(J3-CC1)*%
X126543749Y-71513749D03*
%TO.P,J3,A6,D+*%
%TO.N,D+*%
X127543749Y-71513749D03*
%TO.P,J3,A7,D-*%
%TO.N,D-*%
X128043749Y-71513749D03*
%TO.P,J3,A8,SBU1*%
%TO.N,unconnected-(J3-SBU1-PadA8)*%
X129043749Y-71513749D03*
D23*
%TO.P,J3,A9,VBUS*%
%TO.N,VBUS*%
X130243749Y-71513749D03*
%TO.P,J3,A12,GND*%
%TO.N,GND*%
X131043749Y-71513749D03*
%TO.P,J3,B1,GND*%
X131043749Y-71513749D03*
%TO.P,J3,B4,VBUS*%
%TO.N,VBUS*%
X130243749Y-71513749D03*
D24*
%TO.P,J3,B5,CC2*%
%TO.N,Net-(J3-CC2)*%
X129543749Y-71513749D03*
%TO.P,J3,B6,D+*%
%TO.N,D+*%
X128543749Y-71513749D03*
%TO.P,J3,B7,D-*%
%TO.N,D-*%
X127043749Y-71513749D03*
%TO.P,J3,B8,SBU2*%
%TO.N,unconnected-(J3-SBU2-PadB8)*%
X126043749Y-71513749D03*
D23*
%TO.P,J3,B9,VBUS*%
%TO.N,VBUS*%
X125343749Y-71513749D03*
%TO.P,J3,B12,GND*%
%TO.N,GND*%
X124543749Y-71513749D03*
D25*
%TO.P,J3,S1,SHIELD*%
X123473749Y-66418749D03*
D26*
X123473749Y-70598749D03*
D25*
X132113749Y-66418749D03*
D26*
X132113749Y-70598749D03*
%TD*%
D27*
%TO.P,C6,1*%
%TO.N,GND*%
X91507524Y-91507524D03*
%TO.P,C6,2*%
%TO.N,Net-(C6-Pad2)*%
X91054976Y-91054976D03*
%TD*%
D28*
%TO.P,D1,1,K*%
%TO.N,GP7*%
X100868749Y-90487499D03*
%TO.P,D1,2,A*%
%TO.N,Net-(D1-A)*%
X97568749Y-90487499D03*
%TD*%
%TO.P,D2,1,K*%
%TO.N,GP7*%
X110393749Y-90487499D03*
%TO.P,D2,2,A*%
%TO.N,Net-(D2-A)*%
X107093749Y-90487499D03*
%TD*%
D29*
%TO.P,C2,1*%
%TO.N,+3V3*%
X109112684Y-76798198D03*
%TO.P,C2,2*%
%TO.N,GND*%
X109112684Y-77438198D03*
%TD*%
D28*
%TO.P,D3,1,K*%
%TO.N,GP7*%
X129443749Y-90487499D03*
%TO.P,D3,2,A*%
%TO.N,Net-(D3-A)*%
X126143749Y-90487499D03*
%TD*%
D30*
%TO.P,U4,1,~{CS}*%
%TO.N,QSPI_SS*%
X120779126Y-88728552D03*
%TO.P,U4,2,DO(IO1)*%
%TO.N,QSPI_D1*%
X119509126Y-88728552D03*
%TO.P,U4,3,IO2*%
%TO.N,QSPI_D2*%
X118239126Y-88728552D03*
%TO.P,U4,4,GND*%
%TO.N,GND*%
X116969126Y-88728552D03*
%TO.P,U4,5,DI(IO0)*%
%TO.N,QSPI_D0*%
X116969126Y-81528552D03*
%TO.P,U4,6,CLK*%
%TO.N,QSPI_CLK*%
X118239126Y-81528552D03*
%TO.P,U4,7,IO3*%
%TO.N,QSPI_D3*%
X119509126Y-81528552D03*
%TO.P,U4,8,VCC*%
%TO.N,+3V3*%
X120779126Y-81528552D03*
%TD*%
D31*
%TO.P,U1,1,IOVDD*%
%TO.N,+3V3*%
X104279889Y-81552934D03*
%TO.P,U1,2,GPIO0*%
%TO.N,GP0*%
X103997047Y-81835777D03*
%TO.P,U1,3,GPIO1*%
%TO.N,GP1*%
X103714204Y-82118620D03*
%TO.P,U1,4,GPIO2*%
%TO.N,GP2*%
X103431361Y-82401462D03*
%TO.P,U1,5,GPIO3*%
%TO.N,GP3*%
X103148519Y-82684305D03*
%TO.P,U1,6,GPIO4*%
%TO.N,GP4*%
X102865676Y-82967148D03*
%TO.P,U1,7,GPIO5*%
%TO.N,GP5*%
X102582833Y-83249990D03*
%TO.P,U1,8,GPIO6*%
%TO.N,GP6*%
X102299990Y-83532833D03*
%TO.P,U1,9,GPIO7*%
%TO.N,GP7*%
X102017148Y-83815676D03*
%TO.P,U1,10,IOVDD*%
%TO.N,+3V3*%
X101734305Y-84098519D03*
%TO.P,U1,11,GPIO8*%
%TO.N,GP8*%
X101451462Y-84381361D03*
%TO.P,U1,12,GPIO9*%
%TO.N,GP9*%
X101168620Y-84664204D03*
%TO.P,U1,13,GPIO10*%
%TO.N,GP10*%
X100885777Y-84947047D03*
%TO.P,U1,14,GPIO11*%
%TO.N,GP11*%
X100602934Y-85229889D03*
D32*
%TO.P,U1,15,GPIO12*%
%TO.N,GP12*%
X99422066Y-85229889D03*
%TO.P,U1,16,GPIO13*%
%TO.N,GP13*%
X99139223Y-84947047D03*
%TO.P,U1,17,GPIO14*%
%TO.N,GP14*%
X98856380Y-84664204D03*
%TO.P,U1,18,GPIO15*%
%TO.N,GP15*%
X98573538Y-84381361D03*
%TO.P,U1,19,TESTEN*%
%TO.N,GND*%
X98290695Y-84098519D03*
%TO.P,U1,20,XIN*%
%TO.N,XIN*%
X98007852Y-83815676D03*
%TO.P,U1,21,XOUT*%
%TO.N,XOUT*%
X97725010Y-83532833D03*
%TO.P,U1,22,IOVDD*%
%TO.N,+3V3*%
X97442167Y-83249990D03*
%TO.P,U1,23,DVDD*%
%TO.N,+1V1*%
X97159324Y-82967148D03*
%TO.P,U1,24,SWCLK*%
%TO.N,SWCLK*%
X96876481Y-82684305D03*
%TO.P,U1,25,SWDIO*%
%TO.N,SWDIO*%
X96593639Y-82401462D03*
%TO.P,U1,26,RUN*%
%TO.N,RUN*%
X96310796Y-82118620D03*
%TO.P,U1,27,GPIO16*%
%TO.N,GP16*%
X96027953Y-81835777D03*
%TO.P,U1,28,GPIO17*%
%TO.N,GP17*%
X95745111Y-81552934D03*
D31*
%TO.P,U1,29,GPIO18*%
%TO.N,GP18*%
X95745111Y-80372066D03*
%TO.P,U1,30,GPIO19*%
%TO.N,GP19*%
X96027953Y-80089223D03*
%TO.P,U1,31,GPIO20*%
%TO.N,GP20*%
X96310796Y-79806380D03*
%TO.P,U1,32,GPIO21*%
%TO.N,GP21*%
X96593639Y-79523538D03*
%TO.P,U1,33,IOVDD*%
%TO.N,+3V3*%
X96876481Y-79240695D03*
%TO.P,U1,34,GPIO22*%
%TO.N,GP22*%
X97159324Y-78957852D03*
%TO.P,U1,35,GPIO23*%
%TO.N,GP23*%
X97442167Y-78675010D03*
%TO.P,U1,36,GPIO24*%
%TO.N,GP24*%
X97725010Y-78392167D03*
%TO.P,U1,37,GPIO25*%
%TO.N,GP25*%
X98007852Y-78109324D03*
%TO.P,U1,38,GPIO26/ADC0*%
%TO.N,GP26*%
X98290695Y-77826481D03*
%TO.P,U1,39,GPIO27/ADC1*%
%TO.N,GP27*%
X98573538Y-77543639D03*
%TO.P,U1,40,GPIO28/ADC2*%
%TO.N,GP28*%
X98856380Y-77260796D03*
%TO.P,U1,41,GPIO29/ADC3*%
%TO.N,GP29*%
X99139223Y-76977953D03*
%TO.P,U1,42,IOVDD*%
%TO.N,+3V3*%
X99422066Y-76695111D03*
D32*
%TO.P,U1,43,ADC_AVDD*%
X100602934Y-76695111D03*
%TO.P,U1,44,VREG_VIN*%
X100885777Y-76977953D03*
%TO.P,U1,45,VREG_VOUT*%
%TO.N,+1V1*%
X101168620Y-77260796D03*
%TO.P,U1,46,USB_DM*%
%TO.N,d-*%
X101451462Y-77543639D03*
%TO.P,U1,47,USB_DP*%
%TO.N,d+*%
X101734305Y-77826481D03*
%TO.P,U1,48,USB_VDD*%
%TO.N,+3V3*%
X102017148Y-78109324D03*
%TO.P,U1,49,IOVDD*%
X102299990Y-78392167D03*
%TO.P,U1,50,DVDD*%
%TO.N,+1V1*%
X102582833Y-78675010D03*
%TO.P,U1,51,QSPI_SD3*%
%TO.N,QSPI_D3*%
X102865676Y-78957852D03*
%TO.P,U1,52,QSPI_SCLK*%
%TO.N,QSPI_CLK*%
X103148519Y-79240695D03*
%TO.P,U1,53,QSPI_SD0*%
%TO.N,QSPI_D0*%
X103431361Y-79523538D03*
%TO.P,U1,54,QSPI_SD2*%
%TO.N,QSPI_D2*%
X103714204Y-79806380D03*
%TO.P,U1,55,QSPI_SD1*%
%TO.N,QSPI_D1*%
X103997047Y-80089223D03*
%TO.P,U1,56,QSPI_SS_N*%
%TO.N,QSPI_SS*%
X104279889Y-80372066D03*
D33*
%TO.P,U1,57,GND*%
%TO.N,GND*%
X100012499Y-80962499D03*
%TD*%
D27*
%TO.P,C10,1*%
%TO.N,+3V3*%
X95426274Y-78026274D03*
%TO.P,C10,2*%
%TO.N,GND*%
X94973726Y-77573726D03*
%TD*%
D17*
%TO.P,C3,1*%
%TO.N,+3V3*%
X101973726Y-75026274D03*
%TO.P,C3,2*%
%TO.N,GND*%
X102426274Y-74573726D03*
%TD*%
D34*
%TO.P,F1,1*%
%TO.N,VBUS*%
X127212500Y-76562500D03*
%TO.P,F1,2*%
%TO.N,+5V*%
X124412500Y-76562500D03*
%TD*%
D29*
%TO.P,C1,1*%
%TO.N,+5V*%
X113875184Y-76798198D03*
%TO.P,C1,2*%
%TO.N,GND*%
X113875184Y-77438198D03*
%TD*%
D13*
%TO.P,C7,1*%
%TO.N,+1V1*%
X105080000Y-77400000D03*
%TO.P,C7,2*%
%TO.N,GND*%
X105720000Y-77400000D03*
%TD*%
D15*
%TO.P,C15,1*%
%TO.N,XIN*%
X94682524Y-91054976D03*
%TO.P,C15,2*%
%TO.N,GND*%
X94229976Y-91507524D03*
%TD*%
D17*
%TO.P,R5,1*%
%TO.N,d+*%
X105386226Y-75588774D03*
%TO.P,R5,2*%
%TO.N,D+*%
X105838774Y-75136226D03*
%TD*%
D13*
%TO.P,R1,1*%
%TO.N,GND*%
X125886250Y-73125000D03*
%TO.P,R1,2*%
%TO.N,Net-(J3-CC1)*%
X126526250Y-73125000D03*
%TD*%
D17*
%TO.P,C12,1*%
%TO.N,+3V3*%
X105973726Y-81626274D03*
%TO.P,C12,2*%
%TO.N,GND*%
X106426274Y-81173726D03*
%TD*%
D35*
%TO.P,U3,1,IO1*%
%TO.N,D+*%
X126362500Y-81293198D03*
%TO.P,U3,2,VN*%
%TO.N,GND*%
X125412500Y-81293198D03*
%TO.P,U3,3,IO2*%
%TO.N,unconnected-(U3-IO2-Pad3)*%
X124462500Y-81293198D03*
%TO.P,U3,4,IO3*%
%TO.N,unconnected-(U3-IO3-Pad4)*%
X124462500Y-78943198D03*
%TO.P,U3,5,VP*%
%TO.N,+5V*%
X125412500Y-78943198D03*
%TO.P,U3,6,IO4*%
%TO.N,D-*%
X126362500Y-78943198D03*
%TD*%
D36*
%TO.P,R2,1*%
%TO.N,GND*%
X129701250Y-73125000D03*
%TO.P,R2,2*%
%TO.N,Net-(J3-CC2)*%
X129061250Y-73125000D03*
%TD*%
D37*
%TO.P,C4,1*%
%TO.N,+3V3*%
X103660589Y-77057609D03*
%TO.P,C4,2*%
%TO.N,GND*%
X104339411Y-76378787D03*
%TD*%
D15*
%TO.P,C9,1*%
%TO.N,+3V3*%
X95626274Y-84773726D03*
%TO.P,C9,2*%
%TO.N,GND*%
X95173726Y-85226274D03*
%TD*%
D27*
%TO.P,C11,1*%
%TO.N,+3V3*%
X98238774Y-75026274D03*
%TO.P,C11,2*%
%TO.N,GND*%
X97786226Y-74573726D03*
%TD*%
D38*
%TO.N,GP1*%
X133200000Y-90000000D03*
X134143750Y-92600000D03*
X119612500Y-90962500D03*
X113812500Y-84362500D03*
%TO.N,GP0*%
X121012500Y-90962500D03*
X115065625Y-84109375D03*
%TO.N,GP29*%
X90000000Y-76000000D03*
X98470977Y-75970330D03*
%TO.N,GP28*%
X97283692Y-75366541D03*
X91200000Y-75400000D03*
%TO.N,+5V*%
X115612500Y-77762500D03*
X125812500Y-76562500D03*
%TO.N,GND*%
X94385951Y-77172827D03*
X106290188Y-75846844D03*
X113791009Y-77982731D03*
X109380535Y-77991270D03*
X123288724Y-81223910D03*
X99612500Y-74762500D03*
X107093934Y-80918198D03*
X123012500Y-74562500D03*
X106600000Y-77200000D03*
X93081917Y-91825124D03*
X129381250Y-76200000D03*
X93334350Y-87428208D03*
X84200000Y-78200000D03*
X97012500Y-86162500D03*
X120319849Y-77289573D03*
X100012500Y-82550000D03*
X100012500Y-80962500D03*
X90200000Y-90200000D03*
X117412500Y-87362500D03*
X114775000Y-74600000D03*
X101600000Y-80962500D03*
X121212500Y-79562500D03*
X94363957Y-85321280D03*
X134556509Y-88868846D03*
X98425000Y-80962500D03*
X100012500Y-79375000D03*
%TO.N,+3V3*%
X102893934Y-77518198D03*
X128412500Y-77800000D03*
X120412500Y-82962500D03*
X93467690Y-77984615D03*
X87400000Y-77400000D03*
X112000000Y-76200000D03*
X100989040Y-75120053D03*
%TO.N,+1V1*%
X95893934Y-83718198D03*
X101693934Y-76118198D03*
%TO.N,VBUS*%
X130832696Y-72842758D03*
%TO.N,D+*%
X118978131Y-77026646D03*
X122240054Y-77151106D03*
%TO.N,D-*%
X117862206Y-77162500D03*
X117938430Y-75622000D03*
%TO.N,RUN*%
X94400000Y-83000000D03*
X88600000Y-76800000D03*
%TO.N,QSPI_SS*%
X131400000Y-78000000D03*
X128000000Y-81400000D03*
%TO.N,GP20*%
X93000000Y-79200000D03*
X86800000Y-92000000D03*
%TO.N,GP19*%
X93800000Y-79600000D03*
X86800000Y-91000000D03*
%TO.N,GP18*%
X85800000Y-92400000D03*
X94600000Y-80000000D03*
%TO.N,GP17*%
X87800000Y-89800000D03*
X94400000Y-81000000D03*
%TO.N,GP16*%
X94400000Y-82000000D03*
X88800000Y-89800000D03*
%TO.N,GP7*%
X101812500Y-91162500D03*
X130396762Y-90829792D03*
X111412500Y-90762500D03*
%TO.N,GP6*%
X111412500Y-89162500D03*
X101516303Y-82761847D03*
%TO.N,GP5*%
X103208339Y-84187765D03*
X111112657Y-85865846D03*
%TO.N,GP4*%
X102084633Y-82201129D03*
X111812500Y-86533621D03*
%TO.N,GP3*%
X106612500Y-83762500D03*
X103703287Y-83536519D03*
%TO.N,Net-(D1-A)*%
X96837500Y-91281250D03*
%TO.N,Net-(D2-A)*%
X108493934Y-90518198D03*
%TD*%
D39*
%TO.N,RUN*%
X87670560Y-75568957D02*
X86868543Y-75568957D01*
X86868543Y-75568957D02*
X86237500Y-76200000D01*
X88261987Y-75568957D02*
X87670560Y-75568957D01*
X88600000Y-76800000D02*
X88600000Y-75906970D01*
X88600000Y-75906970D02*
X88261987Y-75568957D01*
%TO.N,+3V3*%
X87400000Y-76479517D02*
X87670560Y-76208957D01*
X87400000Y-77400000D02*
X87400000Y-76479517D01*
%TO.N,GND*%
X130957245Y-74111326D02*
X130968750Y-74111326D01*
X129662321Y-75406250D02*
X130957245Y-74111326D01*
X129381250Y-76200000D02*
X129381250Y-75406250D01*
X129381250Y-75406250D02*
X129662321Y-75406250D01*
X131250000Y-74392576D02*
X131250000Y-76200000D01*
X130968750Y-74111326D02*
X131250000Y-74392576D01*
X130968750Y-73818750D02*
X130968750Y-74111326D01*
%TO.N,Net-(SWR2-B)*%
X135450000Y-77810328D02*
X135450000Y-76200000D01*
X134760456Y-78499872D02*
X135450000Y-77810328D01*
%TO.N,QSPI_SS*%
X131400000Y-78000000D02*
X133620584Y-78000000D01*
X133620584Y-78000000D02*
X134120456Y-78499872D01*
%TO.N,GP1*%
X104195584Y-82600000D02*
X103714204Y-82118620D01*
X113812500Y-84362500D02*
X113368198Y-83918198D01*
X113368198Y-83918198D02*
X110768198Y-83918198D01*
X134143750Y-92600000D02*
X133506250Y-91962500D01*
X122212500Y-91962500D02*
X133237500Y-91962500D01*
X109450000Y-82600000D02*
X104195584Y-82600000D01*
X110768198Y-83918198D02*
X109450000Y-82600000D01*
X120612500Y-91962500D02*
X119612500Y-90962500D01*
X134825000Y-91962500D02*
X136525000Y-93662500D01*
X133237500Y-91962500D02*
X134825000Y-91962500D01*
X133506250Y-91962500D02*
X133237500Y-91962500D01*
X122212500Y-91962500D02*
X120612500Y-91962500D01*
X133200000Y-90000000D02*
X131000000Y-87800000D01*
X131000000Y-87800000D02*
X131000000Y-82898750D01*
%TO.N,GP0*%
X103997047Y-81835777D02*
X104361270Y-82200000D01*
X115065625Y-84109375D02*
X115093934Y-84137684D01*
X113156250Y-82200000D02*
X115065625Y-84109375D01*
X104361270Y-82200000D02*
X113156250Y-82200000D01*
X121612500Y-91562500D02*
X121012500Y-90962500D01*
X136085000Y-91562500D02*
X122812500Y-91562500D01*
X122812500Y-91562500D02*
X121612500Y-91562500D01*
%TO.N,GP29*%
X98470977Y-76309707D02*
X98470977Y-75970330D01*
X86200000Y-80200000D02*
X90000000Y-76400000D01*
X81725000Y-80200000D02*
X86200000Y-80200000D01*
X80962500Y-80962500D02*
X81725000Y-80200000D01*
X99139223Y-76977953D02*
X98470977Y-76309707D01*
X90000000Y-76400000D02*
X90000000Y-76000000D01*
%TO.N,GP28*%
X85200000Y-80800000D02*
X86200000Y-80800000D01*
X82497500Y-83502500D02*
X85200000Y-80800000D01*
X98856380Y-77260796D02*
X97283692Y-75688108D01*
X97283692Y-75688108D02*
X97283692Y-75366541D01*
X86200000Y-80800000D02*
X91200000Y-75800000D01*
X91200000Y-75800000D02*
X91200000Y-75400000D01*
X80962500Y-83502500D02*
X82497500Y-83502500D01*
%TO.N,GP27*%
X93012500Y-74562500D02*
X95592399Y-74562500D01*
X80962500Y-85637500D02*
X85200000Y-81400000D01*
X85200000Y-81400000D02*
X86175000Y-81400000D01*
X95592399Y-74562500D02*
X98573538Y-77543639D01*
X86175000Y-81400000D02*
X93012500Y-74562500D01*
%TO.N,GP26*%
X82812500Y-86732500D02*
X82812500Y-84387500D01*
X98276481Y-77826481D02*
X98290695Y-77826481D01*
X80962500Y-88582500D02*
X82812500Y-86732500D01*
X86175000Y-82000000D02*
X93212500Y-74962500D01*
X85200000Y-82000000D02*
X86175000Y-82000000D01*
X95412500Y-74962500D02*
X98276481Y-77826481D01*
X82812500Y-84387500D02*
X85200000Y-82000000D01*
X93212500Y-74962500D02*
X95412500Y-74962500D01*
%TO.N,GP25*%
X83212500Y-84587500D02*
X85200000Y-82600000D01*
X83212500Y-88872500D02*
X83212500Y-84587500D01*
X85200000Y-82600000D02*
X86175000Y-82600000D01*
X95261028Y-75362500D02*
X98007852Y-78109324D01*
X80962500Y-91122500D02*
X83212500Y-88872500D01*
X86175000Y-82600000D02*
X93412500Y-75362500D01*
X93412500Y-75362500D02*
X95261028Y-75362500D01*
D40*
%TO.N,+5V*%
X115612500Y-77762500D02*
X114812500Y-77762500D01*
D39*
X114612500Y-77162500D02*
X114248198Y-76798198D01*
X125412500Y-78943198D02*
X125412500Y-77562500D01*
X113875184Y-76798198D02*
X112751434Y-76798198D01*
D40*
X116812500Y-78400000D02*
X116175000Y-77762500D01*
D39*
X125412500Y-78943198D02*
X125412500Y-77787500D01*
X125412500Y-77562500D02*
X124412500Y-76562500D01*
X113875184Y-76798198D02*
X114248198Y-76798198D01*
D40*
X114812500Y-77762500D02*
X114712500Y-77662500D01*
X116175000Y-77762500D02*
X115612500Y-77762500D01*
D39*
X112751434Y-76798198D02*
X112431434Y-77118198D01*
D40*
X125812500Y-76562500D02*
X124412500Y-76562500D01*
D39*
X114612500Y-77562500D02*
X114612500Y-77162500D01*
X114712500Y-77662500D02*
X114612500Y-77562500D01*
%TO.N,GND*%
X121012500Y-74862500D02*
X120753799Y-74603799D01*
X123345250Y-74229750D02*
X124402412Y-74229750D01*
X109742684Y-78068198D02*
X109543309Y-77868823D01*
X96919607Y-85469607D02*
X96400000Y-85989214D01*
X92878919Y-90673530D02*
X92878919Y-88693632D01*
X130968750Y-71588750D02*
X131043750Y-71513750D01*
X91400000Y-91800000D02*
X91507524Y-91692476D01*
X113875184Y-77438198D02*
X113875184Y-77898556D01*
X124618750Y-73025000D02*
X124618750Y-71588750D01*
X130208889Y-73125000D02*
X130812043Y-73728154D01*
X124543750Y-71513750D02*
X124388750Y-71513750D01*
X99212500Y-74362500D02*
X99612500Y-74762500D01*
X91507524Y-91507524D02*
X92044925Y-91507524D01*
X96400000Y-85989214D02*
X96400000Y-90200000D01*
X97786226Y-74573726D02*
X97997452Y-74362500D01*
X109543309Y-77868823D02*
X109112684Y-77438198D01*
X93445087Y-91507524D02*
X92745006Y-90807443D01*
X130968750Y-73818750D02*
X130902639Y-73818750D01*
X95078720Y-85321280D02*
X94363957Y-85321280D01*
X122798593Y-81173692D02*
X122233397Y-81173692D01*
X99612500Y-74762500D02*
X100098963Y-74276037D01*
X124618750Y-71588750D02*
X124543750Y-71513750D01*
X120412500Y-78762500D02*
X121212500Y-79562500D01*
X90200000Y-90200000D02*
X90200000Y-91200000D01*
X96400000Y-90200000D02*
X94800000Y-91800000D01*
X102426274Y-74573726D02*
X102128585Y-74276037D01*
X92992494Y-88580057D02*
X93334350Y-88238201D01*
X125412500Y-81293198D02*
X125412500Y-81894938D01*
X131198750Y-71513750D02*
X132113750Y-70598750D01*
X123825000Y-82200099D02*
X123212500Y-81587599D01*
X125412500Y-81894938D02*
X125020278Y-82287160D01*
X123212500Y-81362500D02*
X123023692Y-81173692D01*
X122712500Y-74862500D02*
X123012500Y-74562500D01*
X123912061Y-82287160D02*
X123825000Y-82200099D01*
X91507524Y-91692476D02*
X91507524Y-91507524D01*
X104339411Y-76378787D02*
X104569368Y-76148830D01*
X109543309Y-77868823D02*
X109420862Y-77991270D01*
X94573726Y-84626274D02*
X94363957Y-84836043D01*
X124618750Y-74013412D02*
X124618750Y-73025000D01*
X125020278Y-82287160D02*
X123912061Y-82287160D01*
X120412500Y-77382225D02*
X120412500Y-78400000D01*
X123825000Y-82200099D02*
X122798593Y-81173692D01*
X94800000Y-91800000D02*
X94522452Y-91800000D01*
X120753799Y-74603799D02*
X116871201Y-74603799D01*
X94522452Y-91800000D02*
X94229976Y-91507524D01*
X123473750Y-66418750D02*
X123473750Y-70598750D01*
X123212500Y-81587599D02*
X123212500Y-81362500D01*
X97012500Y-85562500D02*
X97012500Y-86162500D01*
X93334350Y-88238201D02*
X93334350Y-87428208D01*
X94786850Y-77573726D02*
X94385951Y-77172827D01*
X103026274Y-75173726D02*
X102426274Y-74573726D01*
X130902639Y-73818750D02*
X130812043Y-73728154D01*
X105720000Y-77400000D02*
X106400000Y-77400000D01*
X102128585Y-74276037D02*
X100098963Y-74276037D01*
X90200000Y-91200000D02*
X90800000Y-91800000D01*
X120412500Y-78400000D02*
X120412500Y-78762500D01*
X113875184Y-77898556D02*
X113791009Y-77982731D01*
X90800000Y-91800000D02*
X91400000Y-91800000D01*
X95173726Y-85226274D02*
X94573726Y-84626274D01*
X92745006Y-90807443D02*
X92745006Y-91488213D01*
X106400000Y-77400000D02*
X106600000Y-77200000D01*
X97997452Y-74362500D02*
X99212500Y-74362500D01*
X92745006Y-91488213D02*
X93081917Y-91825124D01*
X131462021Y-71932021D02*
X131043750Y-71513750D01*
X106838406Y-81173726D02*
X107093934Y-80918198D01*
X116969126Y-87805874D02*
X117412500Y-87362500D01*
X116871201Y-74603799D02*
X116612500Y-74862500D01*
X96919607Y-85469607D02*
X97012500Y-85562500D01*
X105988202Y-76148830D02*
X106290188Y-75846844D01*
X125886250Y-73025000D02*
X124618750Y-73025000D01*
X94363957Y-84836043D02*
X94363957Y-85321280D01*
X129701250Y-73125000D02*
X130208889Y-73125000D01*
X94973726Y-77573726D02*
X94786850Y-77573726D01*
D40*
X120612500Y-78562500D02*
X120612500Y-77582224D01*
D39*
X124402412Y-74229750D02*
X124618750Y-74013412D01*
X132113750Y-70598750D02*
X132113750Y-66418750D01*
X121012500Y-74862500D02*
X122712500Y-74862500D01*
X130968750Y-73818750D02*
X131462021Y-73325479D01*
X94229976Y-91507524D02*
X93445087Y-91507524D01*
X92044925Y-91507524D02*
X92745006Y-90807443D01*
X115037500Y-74862500D02*
X114775000Y-74600000D01*
X106426274Y-81173726D02*
X106838406Y-81173726D01*
X109420862Y-77991270D02*
X109380535Y-77991270D01*
X123023692Y-81173692D02*
X122233397Y-81173692D01*
X132113750Y-66418750D02*
X123473750Y-66418750D01*
X116612500Y-74862500D02*
X115037500Y-74862500D01*
X116969126Y-88728552D02*
X116969126Y-87805874D01*
X131462021Y-73325479D02*
X131462021Y-71932021D01*
D40*
X120612500Y-77582224D02*
X120319849Y-77289573D01*
D39*
X131043750Y-71513750D02*
X131198750Y-71513750D01*
X104569368Y-76148830D02*
X105988202Y-76148830D01*
X120319849Y-77289573D02*
X120412500Y-77382225D01*
X110556434Y-78068198D02*
X109742684Y-78068198D01*
X98290695Y-84098519D02*
X96919607Y-85469607D01*
X124388750Y-71513750D02*
X123473750Y-70598750D01*
X123012500Y-74562500D02*
X123345250Y-74229750D01*
%TO.N,+3V3*%
X95426274Y-78026274D02*
X95252548Y-78200000D01*
X99893934Y-84318198D02*
X98293934Y-82718198D01*
X97293934Y-79718198D02*
X97293934Y-79658148D01*
X99422066Y-75772066D02*
X99422066Y-76695111D01*
X102987061Y-77139411D02*
X102563236Y-77563236D01*
X105010134Y-76565628D02*
X105809372Y-76565628D01*
X97693934Y-79718198D02*
X99693934Y-77718198D01*
X101973726Y-74997990D02*
X101693934Y-74718198D01*
X104457564Y-77118198D02*
X105010134Y-76565628D01*
X103721178Y-77118198D02*
X104457564Y-77118198D01*
X104279889Y-81552934D02*
X102645153Y-79918198D01*
X128200000Y-77800000D02*
X128412500Y-77800000D01*
X104279889Y-81552934D02*
X105900386Y-81552934D01*
X105812500Y-76562500D02*
X108876986Y-76562500D01*
X101390895Y-74718198D02*
X101693934Y-74718198D01*
X96876481Y-79240695D02*
X95662060Y-78026274D01*
X103660589Y-77139411D02*
X102987061Y-77139411D01*
X95918431Y-84773726D02*
X95626274Y-84773726D01*
X100070847Y-76695111D02*
X100602934Y-76695111D01*
X97293934Y-79658148D02*
X96876481Y-79240695D01*
X97442167Y-83249990D02*
X95918431Y-84773726D01*
X108876986Y-76562500D02*
X109112684Y-76798198D01*
X99422066Y-76695111D02*
X100070847Y-76695111D01*
X95662060Y-78026274D02*
X95426274Y-78026274D01*
X102987061Y-77139411D02*
X102987061Y-77425071D01*
X101393934Y-75418198D02*
X100602934Y-76209198D01*
X100070847Y-77341285D02*
X100070847Y-76695111D01*
X98238774Y-75026274D02*
X98676274Y-75026274D01*
X121064266Y-81813692D02*
X120779126Y-81528552D01*
X97973959Y-82718198D02*
X97442167Y-83249990D01*
X100602934Y-76209198D02*
X100602934Y-76695111D01*
X99693934Y-77718198D02*
X100070847Y-77341285D01*
X109926434Y-76798198D02*
X109112684Y-76798198D01*
X128412500Y-77800000D02*
X129230909Y-77800000D01*
X101973726Y-75038406D02*
X101593934Y-75418198D01*
X100293934Y-84318198D02*
X99893934Y-84318198D01*
X101734305Y-84098519D02*
X101353984Y-83718198D01*
X110556434Y-76168198D02*
X109926434Y-76798198D01*
X100893934Y-83718198D02*
X100293934Y-84318198D01*
X102563236Y-78128921D02*
X102563236Y-77563236D01*
X101353984Y-83718198D02*
X100893934Y-83718198D01*
X122233397Y-81813692D02*
X121064266Y-81813692D01*
X101593934Y-75418198D02*
X101393934Y-75418198D01*
X93683075Y-78200000D02*
X93467690Y-77984615D01*
X101893934Y-79918198D02*
X99693934Y-77718198D01*
X96693934Y-81118198D02*
X96693934Y-80718198D01*
X97293934Y-80118198D02*
X97293934Y-79718198D01*
X102987061Y-77425071D02*
X102893934Y-77518198D01*
X97973959Y-82718198D02*
X97973959Y-82398223D01*
X97293934Y-79718198D02*
X97693934Y-79718198D01*
X87400000Y-77400000D02*
X87312500Y-77312500D01*
X98293934Y-82718198D02*
X97973959Y-82718198D01*
X112000000Y-76200000D02*
X110588236Y-76200000D01*
X96693934Y-80718198D02*
X97293934Y-80118198D01*
X100989040Y-75120053D02*
X101390895Y-74718198D01*
X120779126Y-81528552D02*
X120779126Y-82595874D01*
X102299990Y-78392167D02*
X102563236Y-78128921D01*
X100885776Y-76977953D02*
X100602934Y-76695111D01*
X97973959Y-82398223D02*
X96693934Y-81118198D01*
X102645153Y-79918198D02*
X101893934Y-79918198D01*
X102563236Y-77563236D02*
X102017148Y-78109324D01*
X120779126Y-82595874D02*
X120412500Y-82962500D01*
X105809372Y-76565628D02*
X105812500Y-76562500D01*
X98676274Y-75026274D02*
X99422066Y-75772066D01*
X93683075Y-78200000D02*
X95252548Y-78200000D01*
%TO.N,+1V1*%
X101168620Y-77260796D02*
X101151336Y-77260796D01*
X102002576Y-76426840D02*
X101168620Y-77260796D01*
X95200000Y-84000000D02*
X95026274Y-84173726D01*
X95612132Y-84000000D02*
X95893934Y-83718198D01*
X95575736Y-84000000D02*
X95200000Y-84000000D01*
X102002576Y-76426840D02*
X101693934Y-76118198D01*
X101893934Y-79118198D02*
X102139645Y-79118198D01*
X102573726Y-75855690D02*
X102002576Y-76426840D01*
X102582833Y-78675010D02*
X103539646Y-77718198D01*
X102139645Y-79118198D02*
X102582833Y-78675010D01*
X104800000Y-77400000D02*
X104481802Y-77718198D01*
X102573726Y-75632524D02*
X102573726Y-75855690D01*
X97159324Y-82967148D02*
X96126472Y-84000000D01*
X100693934Y-77718198D02*
X100693934Y-77918198D01*
X100693934Y-77918198D02*
X101893934Y-79118198D01*
X103539646Y-77718198D02*
X104481802Y-77718198D01*
X105080000Y-77400000D02*
X104800000Y-77400000D01*
X95575736Y-84000000D02*
X95612132Y-84000000D01*
X96126472Y-84000000D02*
X95575736Y-84000000D01*
X101151336Y-77260796D02*
X100693934Y-77718198D01*
%TO.N,Net-(C6-Pad2)*%
X91054976Y-90517575D02*
X91755057Y-89817494D01*
X91755057Y-88444943D02*
X91755057Y-89817494D01*
X92642476Y-86745024D02*
X92642476Y-87557524D01*
X91054976Y-91054976D02*
X91054976Y-90517575D01*
X92642476Y-87557524D02*
X91755057Y-88444943D01*
%TO.N,XIN*%
X94682524Y-90270087D02*
X93982443Y-89570006D01*
X94429994Y-89570006D02*
X96000000Y-88000000D01*
X94682524Y-91054976D02*
X94682524Y-90270087D01*
X96000000Y-88000000D02*
X96000000Y-85823528D01*
X96000000Y-85823528D02*
X98007852Y-83815676D01*
D40*
%TO.N,VBUS*%
X130243750Y-70732236D02*
X129088285Y-69576771D01*
X130243750Y-71513750D02*
X130243750Y-70732236D01*
X129088285Y-69576771D02*
X126496890Y-69576771D01*
X125343750Y-70729911D02*
X125343750Y-71513750D01*
X130243750Y-71513750D02*
X130243750Y-72361444D01*
X134938236Y-80962500D02*
X136525000Y-80962500D01*
X130628439Y-72746133D02*
X130725064Y-72842758D01*
X126496890Y-69576771D02*
X125343750Y-70729911D01*
X126975368Y-77725368D02*
X126975368Y-77999632D01*
X127606250Y-76805882D02*
X127606250Y-76200000D01*
X126975368Y-77999632D02*
X128093934Y-79118198D01*
X130725064Y-72842758D02*
X130832696Y-72842758D01*
X133093934Y-79118198D02*
X134938236Y-80962500D01*
X130243750Y-72361444D02*
X130628439Y-72746133D01*
X128093934Y-79118198D02*
X133093934Y-79118198D01*
X126975368Y-77725368D02*
X126975368Y-77436764D01*
D39*
%TO.N,D+*%
X115094300Y-76562500D02*
X113274998Y-74743198D01*
X127295217Y-75197415D02*
X123902717Y-75197415D01*
X128285275Y-72722775D02*
X128108515Y-72899535D01*
X128184670Y-72823380D02*
X128285275Y-72722775D01*
X126362500Y-80353913D02*
X126373215Y-80343198D01*
X136525000Y-86042500D02*
X133868934Y-83386434D01*
X119212500Y-79362500D02*
X119212500Y-76962500D01*
X120193198Y-80343198D02*
X119212500Y-79362500D01*
X127543750Y-71513750D02*
X127543750Y-72502902D01*
X128037326Y-74062326D02*
X128037326Y-72865336D01*
X123902717Y-75197415D02*
X122240054Y-76860078D01*
X128037326Y-72865336D02*
X127995370Y-72823380D01*
X128285275Y-72722775D02*
X128543750Y-72464300D01*
X118812500Y-76562500D02*
X115094300Y-76562500D01*
X127543750Y-72502902D02*
X127864228Y-72823380D01*
X128037326Y-73818750D02*
X128037326Y-74062326D01*
X126362500Y-81293198D02*
X126362500Y-80353913D01*
X113274998Y-74743198D02*
X106231802Y-74743198D01*
X128543750Y-72464300D02*
X128543750Y-71513750D01*
X126373215Y-80343198D02*
X120193198Y-80343198D01*
X128037326Y-74062326D02*
X128037326Y-74455306D01*
X122240054Y-76860078D02*
X122240054Y-77151106D01*
X128037326Y-74455306D02*
X127295217Y-75197415D01*
X133868934Y-82211398D02*
X132000734Y-80343198D01*
X132000734Y-80343198D02*
X126373215Y-80343198D01*
X127995370Y-72823380D02*
X128184670Y-72823380D01*
X133868934Y-83386434D02*
X133868934Y-82211398D01*
X127864228Y-72823380D02*
X127995370Y-72823380D01*
X119212500Y-76962500D02*
X118812500Y-76562500D01*
X106231802Y-74743198D02*
X105838774Y-75136226D01*
%TO.N,D-*%
X118812500Y-76162500D02*
X120212500Y-76162500D01*
X134621397Y-83502500D02*
X134318934Y-83200037D01*
X105308075Y-74573726D02*
X105588603Y-74293198D01*
X121612500Y-77562500D02*
X121612500Y-78962500D01*
X121243750Y-77193750D02*
X121612500Y-77562500D01*
X105026274Y-74573726D02*
X105308075Y-74573726D01*
X117862206Y-77162500D02*
X118012500Y-77289850D01*
X127587326Y-73173590D02*
X127587326Y-74268906D01*
X118012500Y-77289850D02*
X118012500Y-78400000D01*
X134318934Y-82024998D02*
X132187134Y-79893198D01*
X127043750Y-70518394D02*
X127404465Y-70157679D01*
X126362500Y-78943198D02*
X126362500Y-79887855D01*
X136525000Y-83502500D02*
X134621397Y-83502500D01*
X127587326Y-74268906D02*
X127108817Y-74747415D01*
X123716317Y-74747415D02*
X121269982Y-77193750D01*
X122543198Y-79893198D02*
X126367843Y-79893198D01*
X117938430Y-75622000D02*
X117938430Y-75781379D01*
X127404465Y-70157679D02*
X127706330Y-70157679D01*
X127043750Y-71513750D02*
X127043750Y-70518394D01*
X121612500Y-78962500D02*
X122543198Y-79893198D01*
X127043750Y-71513750D02*
X127043750Y-72630014D01*
X113461398Y-74293198D02*
X115330700Y-76162500D01*
X132187134Y-79893198D02*
X126367843Y-79893198D01*
X126362500Y-79887855D02*
X126367843Y-79893198D01*
X120212500Y-76162500D02*
X120512500Y-76462500D01*
X117938430Y-75622000D02*
X118478930Y-76162500D01*
X120512500Y-76462500D02*
X121243750Y-77193750D01*
X134318934Y-83200037D02*
X134318934Y-82024998D01*
X115330700Y-76162500D02*
X118812500Y-76162500D01*
X105588603Y-74293198D02*
X113461398Y-74293198D01*
X128043750Y-70495099D02*
X128043750Y-71513750D01*
X127706330Y-70157679D02*
X128043750Y-70495099D01*
X127108817Y-74747415D02*
X123716317Y-74747415D01*
X118478930Y-76162500D02*
X118812500Y-76162500D01*
X121269982Y-77193750D02*
X121243750Y-77193750D01*
X127043750Y-72630014D02*
X127587326Y-73173590D01*
%TO.N,RUN*%
X96310796Y-82118620D02*
X95429416Y-83000000D01*
X95429416Y-83000000D02*
X94400000Y-83000000D01*
%TO.N,d-*%
X103968827Y-75026274D02*
X101451462Y-77543639D01*
X104573726Y-75026274D02*
X103968827Y-75026274D01*
%TO.N,d+*%
X103934512Y-75626274D02*
X105173726Y-75626274D01*
X101734305Y-77826481D02*
X103934512Y-75626274D01*
%TO.N,XOUT*%
X95257843Y-86000000D02*
X93387500Y-86000000D01*
X93095024Y-86292476D02*
X93327477Y-86060023D01*
X97725010Y-83532833D02*
X95257843Y-86000000D01*
X93387500Y-86000000D02*
X93327477Y-86060023D01*
%TO.N,QSPI_SS*%
X107293934Y-80118198D02*
X107893934Y-80718198D01*
X115212500Y-82762500D02*
X115812500Y-83362500D01*
X126400000Y-82800000D02*
X121987500Y-82800000D01*
X107893934Y-80718198D02*
X114368198Y-80718198D01*
X115212500Y-81562500D02*
X115212500Y-82762500D01*
X127800000Y-81400000D02*
X126400000Y-82800000D01*
X120779126Y-89795874D02*
X120779126Y-88728552D01*
X121987500Y-82800000D02*
X120779126Y-84008374D01*
X116412500Y-90362500D02*
X120212500Y-90362500D01*
X130527243Y-78000000D02*
X130289076Y-77761833D01*
X120212500Y-90362500D02*
X120779126Y-89795874D01*
X115812500Y-83362500D02*
X115812500Y-89762500D01*
X128000000Y-81400000D02*
X127800000Y-81400000D01*
X114368198Y-80718198D02*
X115212500Y-81562500D01*
X120779126Y-84008374D02*
X120779126Y-88728552D01*
X131400000Y-78000000D02*
X130527243Y-78000000D01*
X115812500Y-89762500D02*
X116412500Y-90362500D01*
X104533757Y-80118198D02*
X107293934Y-80118198D01*
X104279889Y-80372066D02*
X104533757Y-80118198D01*
%TO.N,GP24*%
X86275000Y-83100000D02*
X93612500Y-75762500D01*
X93612500Y-75762500D02*
X95095343Y-75762500D01*
X84200000Y-84200000D02*
X85300000Y-83100000D01*
X85300000Y-83100000D02*
X86275000Y-83100000D01*
X85103238Y-86053238D02*
X84720701Y-86053238D01*
X95095343Y-75762500D02*
X97725010Y-78392167D01*
X85856141Y-86806141D02*
X85103238Y-86053238D01*
X80962500Y-93662500D02*
X83412500Y-91212500D01*
X84720701Y-86053238D02*
X84200000Y-85532537D01*
X84200000Y-85532537D02*
X84200000Y-84200000D01*
X85856141Y-88118859D02*
X85856141Y-86806141D01*
X83412500Y-90562500D02*
X85856141Y-88118859D01*
X83412500Y-91212500D02*
X83412500Y-90562500D01*
%TO.N,GP23*%
X85883750Y-86083750D02*
X86400000Y-86600000D01*
X93812500Y-76162500D02*
X85883750Y-84091250D01*
X84212500Y-90387500D02*
X84212500Y-93900000D01*
X85883750Y-84772500D02*
X85883750Y-86083750D01*
X84212500Y-93900000D02*
X82068750Y-96043750D01*
X86400000Y-88200000D02*
X84212500Y-90387500D01*
X97442167Y-78675010D02*
X94929657Y-76162500D01*
X86400000Y-86600000D02*
X86400000Y-88200000D01*
X94929657Y-76162500D02*
X93812500Y-76162500D01*
%TO.N,GP22*%
X94012500Y-76562500D02*
X94763972Y-76562500D01*
X97159324Y-78957852D02*
X94763972Y-76562500D01*
X86800000Y-86200000D02*
X86800000Y-88400000D01*
X90012500Y-80562500D02*
X94012500Y-76562500D01*
X84608750Y-90591250D02*
X84608750Y-96043750D01*
X86800000Y-86200000D02*
X90012500Y-82987500D01*
X90012500Y-80562500D02*
X90012500Y-82987500D01*
X86800000Y-88400000D02*
X84608750Y-90591250D01*
%TO.N,GP21*%
X92600000Y-78600000D02*
X90400000Y-80800000D01*
X95670101Y-78600000D02*
X92600000Y-78600000D01*
X87200000Y-86400000D02*
X87200000Y-88600000D01*
X85000000Y-90800000D02*
X85000000Y-93895000D01*
X96593639Y-79523538D02*
X95670101Y-78600000D01*
X87200000Y-88600000D02*
X85000000Y-90800000D01*
X85000000Y-93895000D02*
X87148750Y-96043750D01*
X90400000Y-80800000D02*
X90400000Y-83200000D01*
X90400000Y-83200000D02*
X87200000Y-86400000D01*
%TO.N,GP20*%
X93000000Y-79000000D02*
X93000000Y-79200000D01*
X89688750Y-96043750D02*
X89688750Y-94888750D01*
X96310796Y-79806380D02*
X95504416Y-79000000D01*
X89688750Y-94888750D02*
X86800000Y-92000000D01*
X95504416Y-79000000D02*
X93000000Y-79000000D01*
%TO.N,GP19*%
X92043750Y-96043750D02*
X87000000Y-91000000D01*
X96027953Y-80089223D02*
X95338730Y-79400000D01*
X87000000Y-91000000D02*
X86800000Y-91000000D01*
X94000000Y-79400000D02*
X95338730Y-79400000D01*
X94000000Y-79400000D02*
X93800000Y-79600000D01*
%TO.N,QSPI_D3*%
X102865676Y-78957852D02*
X103705330Y-78118198D01*
X108293934Y-78118198D02*
X108893934Y-78718198D01*
X103705330Y-78118198D02*
X108293934Y-78118198D01*
X108893934Y-78718198D02*
X115368198Y-78718198D01*
X116612500Y-79962500D02*
X118612500Y-79962500D01*
X119509126Y-80859126D02*
X119509126Y-81528552D01*
X115368198Y-78718198D02*
X116612500Y-79962500D01*
X118612500Y-79962500D02*
X119509126Y-80859126D01*
%TO.N,QSPI_CLK*%
X108093934Y-78518198D02*
X108693934Y-79118198D01*
X115168198Y-79118198D02*
X116412500Y-80362500D01*
X118239126Y-80989126D02*
X118239126Y-81528552D01*
X116412500Y-80362500D02*
X117612500Y-80362500D01*
X108693934Y-79118198D02*
X115168198Y-79118198D01*
X103148519Y-79240695D02*
X103871016Y-78518198D01*
X103871016Y-78518198D02*
X108093934Y-78518198D01*
X117612500Y-80362500D02*
X118239126Y-80989126D01*
%TO.N,QSPI_D0*%
X116969126Y-81519126D02*
X116969126Y-81528552D01*
X103431361Y-79523538D02*
X104036701Y-78918198D01*
X104036701Y-78918198D02*
X107893934Y-78918198D01*
X114968198Y-79518198D02*
X116969126Y-81519126D01*
X108493934Y-79518198D02*
X114968198Y-79518198D01*
X107893934Y-78918198D02*
X108493934Y-79518198D01*
%TO.N,QSPI_D2*%
X116012500Y-81162500D02*
X116012500Y-82362500D01*
X116012500Y-82362500D02*
X118239126Y-84589126D01*
X114768198Y-79918198D02*
X116012500Y-81162500D01*
X104202386Y-79318198D02*
X107693934Y-79318198D01*
X103714204Y-79806380D02*
X104202386Y-79318198D01*
X107693934Y-79318198D02*
X108293934Y-79918198D01*
X118239126Y-84589126D02*
X118239126Y-88728552D01*
X108293934Y-79918198D02*
X114768198Y-79918198D01*
%TO.N,QSPI_D1*%
X103997047Y-80089223D02*
X104368072Y-79718198D01*
X119012500Y-89962500D02*
X119509126Y-89465874D01*
X108093934Y-80318198D02*
X114568198Y-80318198D01*
X115612500Y-81362500D02*
X115612500Y-82562500D01*
X107493934Y-79718198D02*
X108093934Y-80318198D01*
X114568198Y-80318198D02*
X115612500Y-81362500D01*
X104368072Y-79718198D02*
X107493934Y-79718198D01*
X116212500Y-83162500D02*
X116212500Y-89562500D01*
X116212500Y-89562500D02*
X116612500Y-89962500D01*
X119509126Y-89465874D02*
X119509126Y-88728552D01*
X115612500Y-82562500D02*
X116212500Y-83162500D01*
X116612500Y-89962500D02*
X119012500Y-89962500D01*
%TO.N,GP18*%
X85800000Y-92400000D02*
X85800000Y-90800000D01*
X87200000Y-90400000D02*
X91400000Y-94600000D01*
X91400000Y-94600000D02*
X93325000Y-94600000D01*
X95373045Y-80000000D02*
X94600000Y-80000000D01*
X95745111Y-80372066D02*
X95373045Y-80000000D01*
X85800000Y-90800000D02*
X86200000Y-90400000D01*
X93325000Y-94600000D02*
X94768750Y-96043750D01*
X86200000Y-90400000D02*
X87200000Y-90400000D01*
%TO.N,GP17*%
X95065000Y-93800000D02*
X97308750Y-96043750D01*
X91200000Y-93800000D02*
X95065000Y-93800000D01*
X95192177Y-81000000D02*
X94400000Y-81000000D01*
X87800000Y-89800000D02*
X87800000Y-90400000D01*
X95745111Y-81552934D02*
X95192177Y-81000000D01*
X87800000Y-90400000D02*
X91200000Y-93800000D01*
%TO.N,GP16*%
X91200000Y-93200000D02*
X97005000Y-93200000D01*
X94600000Y-82200000D02*
X95663730Y-82200000D01*
X88800000Y-90800000D02*
X91200000Y-93200000D01*
X94600000Y-82200000D02*
X94400000Y-82000000D01*
X97005000Y-93200000D02*
X99848750Y-96043750D01*
X88800000Y-89800000D02*
X88800000Y-90800000D01*
X96027953Y-81835777D02*
X95663730Y-82200000D01*
%TO.N,GP15*%
X98600000Y-92255000D02*
X98600000Y-88281250D01*
X97812500Y-87493750D02*
X97812500Y-85142399D01*
X98600000Y-88281250D02*
X97812500Y-87493750D01*
X97812500Y-85142399D02*
X98573538Y-84381361D01*
X102388750Y-96043750D02*
X98600000Y-92255000D01*
%TO.N,GP14*%
X98212500Y-87100000D02*
X98212500Y-85308084D01*
X102000000Y-94600000D02*
X99200000Y-91800000D01*
X99200000Y-91800000D02*
X99200000Y-88087500D01*
X104928750Y-96043750D02*
X103485000Y-94600000D01*
X103485000Y-94600000D02*
X102000000Y-94600000D01*
X98212500Y-85308084D02*
X98856380Y-84664204D01*
X99200000Y-88087500D02*
X98212500Y-87100000D01*
%TO.N,GP13*%
X98612500Y-86706250D02*
X98612500Y-85473770D01*
X107468750Y-96043750D02*
X105625000Y-94200000D01*
X105625000Y-94200000D02*
X102400000Y-94200000D01*
X99800000Y-91600000D02*
X99800000Y-87893750D01*
X98612500Y-85473770D02*
X99139223Y-84947047D01*
X99800000Y-87893750D02*
X98612500Y-86706250D01*
X102400000Y-94200000D02*
X99800000Y-91600000D01*
%TO.N,GP12*%
X99422066Y-86772066D02*
X99422066Y-85229889D01*
X100325000Y-87675000D02*
X99422066Y-86772066D01*
X110008750Y-96043750D02*
X107565000Y-93600000D01*
X100325000Y-88325000D02*
X100325000Y-87675000D01*
X107565000Y-93600000D02*
X105600000Y-93600000D01*
X105600000Y-93600000D02*
X100325000Y-88325000D01*
%TO.N,GP11*%
X105800000Y-93200000D02*
X101200000Y-88600000D01*
X109705000Y-93200000D02*
X105800000Y-93200000D01*
X101200000Y-85826955D02*
X100602934Y-85229889D01*
X101200000Y-88600000D02*
X101200000Y-85826955D01*
X112548750Y-96043750D02*
X109705000Y-93200000D01*
%TO.N,GP10*%
X101612500Y-88362500D02*
X106012500Y-92762500D01*
X106012500Y-92762500D02*
X111807500Y-92762500D01*
X100885777Y-84947047D02*
X101612500Y-85673770D01*
X111807500Y-92762500D02*
X115088750Y-96043750D01*
X101612500Y-85673770D02*
X101612500Y-88362500D01*
%TO.N,GP9*%
X102012500Y-88162500D02*
X102012500Y-85508084D01*
X117293750Y-96043750D02*
X113612500Y-92362500D01*
X113612500Y-92362500D02*
X106212500Y-92362500D01*
X106212500Y-92362500D02*
X102012500Y-88162500D01*
X102012500Y-85508084D02*
X101168620Y-84664204D01*
X117628750Y-96043750D02*
X117293750Y-96043750D01*
%TO.N,GP8*%
X106412500Y-91962500D02*
X113812500Y-91962500D01*
X116612500Y-94762500D02*
X118887500Y-94762500D01*
X113812500Y-91962500D02*
X116612500Y-94762500D01*
X101451462Y-84381361D02*
X102412500Y-85342399D01*
X118887500Y-94762500D02*
X120168750Y-96043750D01*
X102412500Y-87962500D02*
X106412500Y-91962500D01*
X102412500Y-85342399D02*
X102412500Y-87962500D01*
%TO.N,GP7*%
X107874796Y-89663287D02*
X107614297Y-89402788D01*
X110393750Y-90487500D02*
X109569537Y-89663287D01*
X102612500Y-84411028D02*
X102017148Y-83815676D01*
X107044547Y-89402788D02*
X107614297Y-89402788D01*
X114012500Y-91562500D02*
X116812500Y-94362500D01*
X102612500Y-84971189D02*
X102612500Y-84411028D01*
X111137500Y-90487500D02*
X110393750Y-90487500D01*
X101137500Y-90487500D02*
X101812500Y-91162500D01*
X103706087Y-86064776D02*
X102612500Y-84971189D01*
X104975434Y-87333675D02*
X107044547Y-89402788D01*
X116812500Y-94362500D02*
X121027500Y-94362500D01*
X111012500Y-91562500D02*
X114012500Y-91562500D01*
X104975434Y-86829071D02*
X104975434Y-87333675D01*
X104211139Y-86064776D02*
X103706087Y-86064776D01*
X111412500Y-90762500D02*
X111137500Y-90487500D01*
X130396762Y-90829792D02*
X130054470Y-90487500D01*
X109569537Y-89663287D02*
X107874796Y-89663287D01*
X121027500Y-94362500D02*
X122708750Y-96043750D01*
X104211139Y-86064776D02*
X104975434Y-86829071D01*
X110393750Y-90943750D02*
X111012500Y-91562500D01*
X130054470Y-90487500D02*
X129443750Y-90487500D01*
%TO.N,GP6*%
X117012500Y-93962500D02*
X123167500Y-93962500D01*
X102299990Y-83532833D02*
X102287289Y-83532833D01*
X102287289Y-83532833D02*
X101516303Y-82761847D01*
X112212500Y-89762500D02*
X112812500Y-89762500D01*
X111612500Y-89162500D02*
X112212500Y-89762500D01*
X123167500Y-93962500D02*
X125248750Y-96043750D01*
X112812500Y-89762500D02*
X117012500Y-93962500D01*
X111412500Y-89162500D02*
X111612500Y-89162500D01*
%TO.N,GP5*%
X102582833Y-83249990D02*
X103208339Y-83875496D01*
X111112657Y-85865846D02*
X111112657Y-85862343D01*
X103208339Y-83875496D02*
X103208339Y-84187765D01*
X117212500Y-93562500D02*
X125307500Y-93562500D01*
X111112657Y-85862343D02*
X111212500Y-85762500D01*
X111212500Y-85762500D02*
X111212500Y-87962500D01*
X125307500Y-93562500D02*
X127788750Y-96043750D01*
X113012500Y-89362500D02*
X117212500Y-93562500D01*
X112612500Y-89362500D02*
X113012500Y-89362500D01*
X111212500Y-87962500D02*
X112612500Y-89362500D01*
%TO.N,GP4*%
X112812500Y-88962500D02*
X113212500Y-88962500D01*
X117412500Y-93162500D02*
X127447500Y-93162500D01*
X102865676Y-82967148D02*
X102099657Y-82201129D01*
X111812500Y-86533621D02*
X111812500Y-87962500D01*
X111812500Y-87962500D02*
X112812500Y-88962500D01*
X127447500Y-93162500D02*
X130328750Y-96043750D01*
X102099657Y-82201129D02*
X102084633Y-82201129D01*
X113212500Y-88962500D02*
X117412500Y-93162500D01*
%TO.N,GP3*%
X103148519Y-82684305D02*
X103703287Y-83239073D01*
X103703287Y-83239073D02*
X103703287Y-83536519D01*
X106923977Y-83451023D02*
X109101023Y-83451023D01*
X113012500Y-88562500D02*
X113412500Y-88562500D01*
X106612500Y-83762500D02*
X106923977Y-83451023D01*
X109101023Y-83451023D02*
X110412500Y-84762500D01*
X117612500Y-92762500D02*
X129587500Y-92762500D01*
X111812500Y-84762500D02*
X112412500Y-85362500D01*
X113412500Y-88562500D02*
X117612500Y-92762500D01*
X129587500Y-92762500D02*
X132868750Y-96043750D01*
X112412500Y-87962500D02*
X113012500Y-88562500D01*
X112412500Y-85362500D02*
X112412500Y-87962500D01*
X110412500Y-84762500D02*
X111812500Y-84762500D01*
%TO.N,GP2*%
X104029899Y-83000000D02*
X109250000Y-83000000D01*
X115212500Y-86895606D02*
X115212500Y-89762500D01*
X112635091Y-84318198D02*
X115212500Y-86895606D01*
X115212500Y-89762500D02*
X117812500Y-92362500D01*
X103431361Y-82401462D02*
X104029899Y-83000000D01*
X117812500Y-92362500D02*
X131727500Y-92362500D01*
X109250000Y-83000000D02*
X110568198Y-84318198D01*
X131727500Y-92362500D02*
X135408750Y-96043750D01*
X110568198Y-84318198D02*
X112635091Y-84318198D01*
%TO.N,Net-(D1-A)*%
X97568750Y-90550000D02*
X96837500Y-91281250D01*
%TO.N,Net-(D2-A)*%
X107093750Y-90487500D02*
X108463236Y-90487500D01*
X108463236Y-90487500D02*
X108493934Y-90518198D01*
%TO.N,Net-(D3-A)*%
X123983750Y-88327500D02*
X123983750Y-84772500D01*
X126143750Y-90487500D02*
X123983750Y-88327500D01*
%TO.N,Net-(J3-CC1)*%
X126543750Y-73007500D02*
X126526250Y-73025000D01*
X126543750Y-71513750D02*
X126543750Y-73007500D01*
%TO.N,Net-(J3-CC2)*%
X129543750Y-72354962D02*
X129543750Y-71513750D01*
X129061250Y-72837462D02*
X129543750Y-72354962D01*
X129061250Y-73025000D02*
X129061250Y-72837462D01*
%TD*%
%TA.AperFunction,Conductor*%
%TO.N,GND*%
G36*
X97152061Y-85682331D02*
G01*
X97190267Y-85727064D01*
X97204000Y-85784267D01*
X97204000Y-87445614D01*
X97202922Y-87462057D01*
X97198750Y-87493750D01*
X97199828Y-87501939D01*
X97204000Y-87533630D01*
X97204000Y-87533635D01*
X97216815Y-87630976D01*
X97218583Y-87644412D01*
X97218584Y-87644418D01*
X97219662Y-87652601D01*
X97222821Y-87660229D01*
X97222822Y-87660230D01*
X97277815Y-87792996D01*
X97277816Y-87792999D01*
X97280976Y-87800626D01*
X97286002Y-87807177D01*
X97286004Y-87807179D01*
X97354023Y-87895822D01*
X97352313Y-87897134D01*
X97352314Y-87897136D01*
X97354025Y-87895824D01*
X97378513Y-87927737D01*
X97385058Y-87932759D01*
X97385062Y-87932763D01*
X97403879Y-87947202D01*
X97416270Y-87958069D01*
X97954595Y-88496394D01*
X97981909Y-88537271D01*
X97991500Y-88585489D01*
X97991500Y-89253000D01*
X97974619Y-89316000D01*
X97928500Y-89362119D01*
X97865500Y-89379000D01*
X97070112Y-89379000D01*
X97066765Y-89379359D01*
X97066761Y-89379360D01*
X97017382Y-89384668D01*
X97017375Y-89384669D01*
X97009549Y-89385511D01*
X97002173Y-89388261D01*
X97002169Y-89388263D01*
X96880986Y-89433462D01*
X96880980Y-89433465D01*
X96872546Y-89436611D01*
X96865338Y-89442006D01*
X96865332Y-89442010D01*
X96762700Y-89518840D01*
X96762696Y-89518843D01*
X96755489Y-89524239D01*
X96750093Y-89531446D01*
X96750090Y-89531450D01*
X96673260Y-89634082D01*
X96673256Y-89634088D01*
X96667861Y-89641296D01*
X96664715Y-89649730D01*
X96664712Y-89649736D01*
X96619513Y-89770919D01*
X96619511Y-89770923D01*
X96616761Y-89778299D01*
X96615919Y-89786125D01*
X96615918Y-89786132D01*
X96610967Y-89832194D01*
X96610250Y-89838862D01*
X96610250Y-89842231D01*
X96610250Y-90414799D01*
X96599737Y-90465186D01*
X96569951Y-90507164D01*
X96525868Y-90533726D01*
X96484485Y-90548207D01*
X96478500Y-90551967D01*
X96478493Y-90551971D01*
X96336214Y-90641371D01*
X96336207Y-90641376D01*
X96330219Y-90645139D01*
X96325214Y-90650143D01*
X96325210Y-90650147D01*
X96206397Y-90768960D01*
X96206393Y-90768964D01*
X96201389Y-90773969D01*
X96197626Y-90779957D01*
X96197621Y-90779964D01*
X96108221Y-90922243D01*
X96108217Y-90922250D01*
X96104457Y-90928235D01*
X96102122Y-90934906D01*
X96102119Y-90934914D01*
X96046619Y-91093525D01*
X96046617Y-91093530D01*
X96044283Y-91100203D01*
X96023884Y-91281250D01*
X96044283Y-91462297D01*
X96046618Y-91468970D01*
X96046619Y-91468974D01*
X96102119Y-91627585D01*
X96102121Y-91627589D01*
X96104457Y-91634265D01*
X96108219Y-91640253D01*
X96108221Y-91640256D01*
X96184049Y-91760936D01*
X96201389Y-91788531D01*
X96330219Y-91917361D01*
X96336213Y-91921127D01*
X96336214Y-91921128D01*
X96403284Y-91963271D01*
X96484485Y-92014293D01*
X96656453Y-92074467D01*
X96837500Y-92094866D01*
X97018547Y-92074467D01*
X97190515Y-92014293D01*
X97344781Y-91917361D01*
X97473611Y-91788531D01*
X97557536Y-91654964D01*
X97603276Y-91611722D01*
X97664224Y-91596000D01*
X97865500Y-91596000D01*
X97928500Y-91612881D01*
X97974619Y-91659000D01*
X97991500Y-91722000D01*
X97991500Y-92206864D01*
X97990422Y-92223307D01*
X97986250Y-92255000D01*
X97991500Y-92294880D01*
X97991500Y-92294885D01*
X98004396Y-92392838D01*
X98007162Y-92413851D01*
X98010321Y-92421477D01*
X98065315Y-92554246D01*
X98065316Y-92554249D01*
X98068476Y-92561876D01*
X98073502Y-92568427D01*
X98073504Y-92568429D01*
X98141523Y-92657072D01*
X98139813Y-92658384D01*
X98139814Y-92658386D01*
X98141525Y-92657074D01*
X98166013Y-92688987D01*
X98172558Y-92694009D01*
X98172562Y-92694013D01*
X98191379Y-92708452D01*
X98203770Y-92719319D01*
X99954606Y-94470155D01*
X99985344Y-94520314D01*
X99989960Y-94578961D01*
X99967447Y-94633311D01*
X99922714Y-94671517D01*
X99865511Y-94685250D01*
X99402989Y-94685250D01*
X99354771Y-94675659D01*
X99313894Y-94648345D01*
X97469314Y-92803765D01*
X97458446Y-92791373D01*
X97456813Y-92789245D01*
X97448794Y-92778794D01*
X97444014Y-92772564D01*
X97444013Y-92772563D01*
X97438987Y-92766013D01*
X97432436Y-92760986D01*
X97432434Y-92760984D01*
X97407075Y-92741526D01*
X97407072Y-92741523D01*
X97318429Y-92673504D01*
X97318427Y-92673502D01*
X97311876Y-92668476D01*
X97304249Y-92665316D01*
X97304246Y-92665315D01*
X97171479Y-92610321D01*
X97171474Y-92610319D01*
X97163851Y-92607162D01*
X97155667Y-92606084D01*
X97155666Y-92606084D01*
X97144456Y-92604608D01*
X97044885Y-92591500D01*
X97044884Y-92591500D01*
X97044876Y-92591499D01*
X97013190Y-92587328D01*
X97013189Y-92587328D01*
X97005000Y-92586250D01*
X96973307Y-92590422D01*
X96956864Y-92591500D01*
X91504239Y-92591500D01*
X91456021Y-92581909D01*
X91415144Y-92554595D01*
X91289667Y-92429118D01*
X91257605Y-92374621D01*
X91256054Y-92311410D01*
X91285403Y-92255405D01*
X91304091Y-92234786D01*
X91307524Y-92221082D01*
X91307524Y-91864249D01*
X91324405Y-91801248D01*
X91370526Y-91755129D01*
X91375436Y-91752293D01*
X91383065Y-91749134D01*
X91478261Y-91676088D01*
X91484568Y-91669781D01*
X91492429Y-91661921D01*
X91542588Y-91631183D01*
X91601235Y-91626567D01*
X91655585Y-91649080D01*
X91693791Y-91693813D01*
X91707524Y-91751016D01*
X91707524Y-92238656D01*
X91710355Y-92249960D01*
X91721879Y-92248250D01*
X91827733Y-92204404D01*
X91841911Y-92196218D01*
X91927209Y-92130767D01*
X91933397Y-92125340D01*
X92125335Y-91933400D01*
X92130764Y-91927209D01*
X92131182Y-91926666D01*
X92131349Y-91926543D01*
X92133485Y-91924108D01*
X92134024Y-91924581D01*
X92188050Y-91884967D01*
X92258417Y-91880353D01*
X92320242Y-91914272D01*
X92364731Y-91958761D01*
X92369751Y-91963271D01*
X92408365Y-91994387D01*
X92421674Y-92002608D01*
X92476608Y-92027696D01*
X92488114Y-92029772D01*
X92491006Y-92018446D01*
X92491006Y-91078033D01*
X92487499Y-91064949D01*
X92474416Y-91061443D01*
X92241533Y-91061443D01*
X92184330Y-91047710D01*
X92139597Y-91009504D01*
X92117084Y-90955154D01*
X92121700Y-90896507D01*
X92152435Y-90846350D01*
X92410830Y-90587955D01*
X92467312Y-90555346D01*
X92487499Y-90549936D01*
X92492909Y-90529749D01*
X92525518Y-90473267D01*
X92783913Y-90214872D01*
X92834070Y-90184137D01*
X92892717Y-90179521D01*
X92947067Y-90202034D01*
X92985273Y-90246767D01*
X92999006Y-90303970D01*
X92999006Y-91957683D01*
X93002216Y-91968799D01*
X93012887Y-91964323D01*
X93014195Y-91963270D01*
X93019214Y-91958761D01*
X93287618Y-91690356D01*
X93340138Y-91658877D01*
X93401295Y-91655872D01*
X93456647Y-91682051D01*
X93493122Y-91731232D01*
X93533091Y-91827724D01*
X93541284Y-91841914D01*
X93606732Y-91927209D01*
X93612159Y-91933397D01*
X93804099Y-92125335D01*
X93810291Y-92130766D01*
X93895590Y-92196218D01*
X93909766Y-92204404D01*
X94015620Y-92248250D01*
X94027144Y-92249960D01*
X94029976Y-92238656D01*
X94029976Y-91751015D01*
X94043709Y-91693812D01*
X94081915Y-91649079D01*
X94136265Y-91626566D01*
X94194912Y-91631182D01*
X94245071Y-91661920D01*
X94256314Y-91673163D01*
X94256322Y-91673170D01*
X94259239Y-91676087D01*
X94354435Y-91749134D01*
X94362062Y-91752293D01*
X94366977Y-91755131D01*
X94413096Y-91801250D01*
X94429976Y-91864249D01*
X94429976Y-92221082D01*
X94432807Y-92232385D01*
X94444331Y-92230676D01*
X94507754Y-92204406D01*
X94521940Y-92196215D01*
X94607235Y-92130767D01*
X94613423Y-92125340D01*
X94847787Y-91890974D01*
X94853218Y-91884782D01*
X94918664Y-91799492D01*
X94921706Y-91794223D01*
X94965809Y-91750118D01*
X94968187Y-91749134D01*
X95063382Y-91676088D01*
X95303635Y-91435834D01*
X95376682Y-91340639D01*
X95437997Y-91192613D01*
X95458909Y-91033763D01*
X95437997Y-90874913D01*
X95426729Y-90847711D01*
X95416521Y-90823065D01*
X95376682Y-90726887D01*
X95371656Y-90720337D01*
X95371655Y-90720335D01*
X95317061Y-90649187D01*
X95297711Y-90612984D01*
X95291024Y-90572483D01*
X95291024Y-90318223D01*
X95292102Y-90301777D01*
X95295196Y-90278275D01*
X95296274Y-90270087D01*
X95291024Y-90230207D01*
X95291024Y-90230202D01*
X95275362Y-90111237D01*
X95274132Y-90108268D01*
X95214048Y-89963211D01*
X95186896Y-89927826D01*
X95164835Y-89882523D01*
X95162290Y-89832194D01*
X95175874Y-89795225D01*
X95174759Y-89794716D01*
X95206235Y-89725793D01*
X95235502Y-89661707D01*
X95236784Y-89652785D01*
X95239323Y-89644140D01*
X95240661Y-89644533D01*
X95247718Y-89621963D01*
X95271309Y-89589238D01*
X96396235Y-88464312D01*
X96408622Y-88453450D01*
X96427437Y-88439013D01*
X96427437Y-88439012D01*
X96433987Y-88433987D01*
X96458474Y-88402074D01*
X96460300Y-88403475D01*
X96460303Y-88403471D01*
X96458478Y-88402071D01*
X96484692Y-88367908D01*
X96531524Y-88306876D01*
X96592838Y-88158851D01*
X96599680Y-88106876D01*
X96608500Y-88039885D01*
X96608500Y-88039880D01*
X96613750Y-88000000D01*
X96609577Y-87968307D01*
X96608500Y-87951864D01*
X96608500Y-86127767D01*
X96618091Y-86079549D01*
X96645405Y-86038672D01*
X96988905Y-85695172D01*
X97039064Y-85664434D01*
X97097711Y-85659818D01*
X97152061Y-85682331D01*
G37*
%TD.AperFunction*%
%TA.AperFunction,Conductor*%
G36*
X90508682Y-89459382D02*
G01*
X90547900Y-89502479D01*
X90563534Y-89558612D01*
X90552240Y-89615777D01*
X90505740Y-89717598D01*
X90505739Y-89717601D01*
X90501998Y-89725793D01*
X90481189Y-89870527D01*
X90501998Y-90015261D01*
X90505739Y-90023454D01*
X90505740Y-90023455D01*
X90534873Y-90087248D01*
X90546116Y-90145585D01*
X90529378Y-90202590D01*
X90528477Y-90204149D01*
X90523452Y-90210699D01*
X90520294Y-90218321D01*
X90520292Y-90218326D01*
X90465297Y-90351095D01*
X90465295Y-90351102D01*
X90462138Y-90358724D01*
X90460748Y-90369283D01*
X90446476Y-90477690D01*
X90446476Y-90477695D01*
X90441226Y-90517575D01*
X90442304Y-90525763D01*
X90445398Y-90549265D01*
X90446476Y-90565711D01*
X90446476Y-90572485D01*
X90439789Y-90612986D01*
X90420438Y-90649189D01*
X90365844Y-90720336D01*
X90365841Y-90720340D01*
X90360818Y-90726887D01*
X90357662Y-90734504D01*
X90357659Y-90734511D01*
X90302661Y-90867286D01*
X90302658Y-90867294D01*
X90299503Y-90874913D01*
X90298425Y-90883094D01*
X90298425Y-90883098D01*
X90284931Y-90985601D01*
X90278591Y-91033763D01*
X90279669Y-91041952D01*
X90279669Y-91041954D01*
X90288402Y-91108297D01*
X90281111Y-91169897D01*
X90245309Y-91220553D01*
X90189676Y-91247988D01*
X90127694Y-91245552D01*
X90074385Y-91213836D01*
X89445405Y-90584856D01*
X89418091Y-90543979D01*
X89408500Y-90495761D01*
X89408500Y-90384722D01*
X89415571Y-90343106D01*
X89434458Y-90308933D01*
X89436111Y-90307281D01*
X89533043Y-90153015D01*
X89593217Y-89981047D01*
X89613616Y-89800000D01*
X89612598Y-89790966D01*
X89602012Y-89697007D01*
X89613698Y-89628230D01*
X89660184Y-89576213D01*
X89727220Y-89556900D01*
X89766675Y-89556900D01*
X89768783Y-89556900D01*
X89993569Y-89541852D01*
X90288037Y-89481999D01*
X90396298Y-89444406D01*
X90454268Y-89438539D01*
X90508682Y-89459382D01*
G37*
%TD.AperFunction*%
%TA.AperFunction,Conductor*%
G36*
X131744713Y-80961289D02*
G01*
X131785590Y-80988603D01*
X133223529Y-82426542D01*
X133250843Y-82467419D01*
X133260434Y-82515637D01*
X133260434Y-83338298D01*
X133259356Y-83354741D01*
X133255184Y-83386434D01*
X133260434Y-83426314D01*
X133260434Y-83426319D01*
X133271093Y-83507281D01*
X133276096Y-83545285D01*
X133279253Y-83552908D01*
X133279255Y-83552913D01*
X133334249Y-83685680D01*
X133334250Y-83685683D01*
X133337410Y-83693310D01*
X133342436Y-83699861D01*
X133342438Y-83699863D01*
X133410457Y-83788506D01*
X133408747Y-83789818D01*
X133408748Y-83789820D01*
X133410459Y-83788508D01*
X133434947Y-83820421D01*
X133441492Y-83825443D01*
X133441496Y-83825447D01*
X133460313Y-83839886D01*
X133472704Y-83850753D01*
X135129595Y-85507644D01*
X135156909Y-85548521D01*
X135166500Y-85596739D01*
X135166500Y-86941138D01*
X135166859Y-86944485D01*
X135166860Y-86944488D01*
X135172168Y-86993867D01*
X135172169Y-86993873D01*
X135173011Y-87001701D01*
X135175762Y-87009078D01*
X135175763Y-87009080D01*
X135220962Y-87130263D01*
X135220964Y-87130266D01*
X135224111Y-87138704D01*
X135298002Y-87237410D01*
X135320252Y-87286132D01*
X135320253Y-87339699D01*
X135298000Y-87388425D01*
X135229954Y-87479324D01*
X135221405Y-87494980D01*
X135176259Y-87616021D01*
X135172662Y-87631242D01*
X135167359Y-87680561D01*
X135167000Y-87687277D01*
X135167000Y-88311910D01*
X135170506Y-88324993D01*
X135183590Y-88328500D01*
X136398500Y-88328500D01*
X136461500Y-88345381D01*
X136507619Y-88391500D01*
X136524500Y-88454500D01*
X136524500Y-88710500D01*
X136507619Y-88773500D01*
X136461500Y-88819619D01*
X136398500Y-88836500D01*
X135183590Y-88836500D01*
X135170506Y-88840006D01*
X135167000Y-88853090D01*
X135167000Y-89477723D01*
X135167359Y-89484438D01*
X135172662Y-89533757D01*
X135176259Y-89548978D01*
X135221405Y-89670019D01*
X135229954Y-89685675D01*
X135298000Y-89776574D01*
X135320252Y-89825300D01*
X135320253Y-89878866D01*
X135298000Y-89927592D01*
X135232372Y-90015261D01*
X135224111Y-90026296D01*
X135220965Y-90034730D01*
X135220962Y-90034736D01*
X135175763Y-90155919D01*
X135175761Y-90155923D01*
X135173011Y-90163299D01*
X135172169Y-90171125D01*
X135172168Y-90171132D01*
X135167915Y-90210699D01*
X135166500Y-90223862D01*
X135166500Y-90227231D01*
X135166500Y-90828000D01*
X135149619Y-90891000D01*
X135103500Y-90937119D01*
X135040500Y-90954000D01*
X133638719Y-90954000D01*
X133576537Y-90937587D01*
X133530554Y-90892625D01*
X133512751Y-90830827D01*
X133527764Y-90768293D01*
X133571683Y-90721313D01*
X133573238Y-90720336D01*
X133707281Y-90636111D01*
X133836111Y-90507281D01*
X133933043Y-90353015D01*
X133993217Y-90181047D01*
X134013616Y-90000000D01*
X133993217Y-89818953D01*
X133933043Y-89646985D01*
X133924936Y-89634083D01*
X133839878Y-89498714D01*
X133839877Y-89498713D01*
X133836111Y-89492719D01*
X133707281Y-89363889D01*
X133701287Y-89360123D01*
X133701285Y-89360121D01*
X133559006Y-89270721D01*
X133559003Y-89270719D01*
X133553015Y-89266957D01*
X133546339Y-89264621D01*
X133546335Y-89264619D01*
X133387726Y-89209120D01*
X133387725Y-89209119D01*
X133381047Y-89206783D01*
X133374026Y-89205991D01*
X133374018Y-89205990D01*
X133296702Y-89197279D01*
X133256140Y-89185593D01*
X133221715Y-89161166D01*
X132713644Y-88653095D01*
X132682906Y-88602936D01*
X132678290Y-88544289D01*
X132700803Y-88489939D01*
X132745536Y-88451733D01*
X132802739Y-88438000D01*
X132924367Y-88438000D01*
X132927368Y-88438000D01*
X133087721Y-88422688D01*
X133293959Y-88362131D01*
X133485009Y-88263638D01*
X133653967Y-88130768D01*
X133794726Y-87968324D01*
X133902198Y-87782177D01*
X133972500Y-87579054D01*
X134003089Y-87366297D01*
X133992862Y-87151596D01*
X133942187Y-86942710D01*
X133852896Y-86747190D01*
X133728216Y-86572101D01*
X133673821Y-86520236D01*
X133576991Y-86427909D01*
X133576989Y-86427907D01*
X133572653Y-86423773D01*
X133567611Y-86420533D01*
X133567609Y-86420531D01*
X133396878Y-86310809D01*
X133396876Y-86310808D01*
X133391830Y-86307565D01*
X133385341Y-86304967D01*
X133197861Y-86229911D01*
X133197856Y-86229909D01*
X133192282Y-86227678D01*
X133186387Y-86226542D01*
X133186381Y-86226540D01*
X132987111Y-86188135D01*
X132981222Y-86187000D01*
X132820132Y-86187000D01*
X132817154Y-86187284D01*
X132817140Y-86187285D01*
X132665754Y-86201741D01*
X132665749Y-86201741D01*
X132659779Y-86202312D01*
X132654029Y-86204000D01*
X132654020Y-86204002D01*
X132459305Y-86261176D01*
X132459299Y-86261178D01*
X132453541Y-86262869D01*
X132448204Y-86265620D01*
X132448200Y-86265622D01*
X132267826Y-86358611D01*
X132267821Y-86358614D01*
X132262491Y-86361362D01*
X132257779Y-86365066D01*
X132257775Y-86365070D01*
X132098246Y-86490524D01*
X132098236Y-86490533D01*
X132093533Y-86494232D01*
X132089610Y-86498758D01*
X132089605Y-86498764D01*
X131956706Y-86652137D01*
X131956701Y-86652143D01*
X131952774Y-86656676D01*
X131949776Y-86661868D01*
X131949770Y-86661877D01*
X131845302Y-86842823D01*
X131843917Y-86842023D01*
X131805618Y-86887519D01*
X131741691Y-86909303D01*
X131675699Y-86894946D01*
X131626600Y-86848574D01*
X131608500Y-86783508D01*
X131608500Y-83340149D01*
X131616288Y-83296538D01*
X131638689Y-83258319D01*
X131649839Y-83245264D01*
X131679653Y-83210356D01*
X131816053Y-82987771D01*
X131915954Y-82746589D01*
X131976896Y-82492749D01*
X131997378Y-82232500D01*
X131976896Y-81972251D01*
X131915954Y-81718411D01*
X131816053Y-81477229D01*
X131679653Y-81254644D01*
X131598415Y-81159526D01*
X131569416Y-81094961D01*
X131579802Y-81024947D01*
X131626297Y-80971579D01*
X131694228Y-80951698D01*
X131696495Y-80951698D01*
X131744713Y-80961289D01*
G37*
%TD.AperFunction*%
%TA.AperFunction,Conductor*%
G36*
X93183494Y-88342938D02*
G01*
X93229613Y-88389057D01*
X93246494Y-88452057D01*
X93246494Y-88827530D01*
X93236903Y-88875748D01*
X93209589Y-88916625D01*
X92953589Y-89172625D01*
X92903430Y-89203363D01*
X92844783Y-89207979D01*
X92790433Y-89185466D01*
X92752227Y-89140733D01*
X92738494Y-89083530D01*
X92738494Y-88452057D01*
X92755375Y-88389057D01*
X92801494Y-88342938D01*
X92864494Y-88326057D01*
X93120494Y-88326057D01*
X93183494Y-88342938D01*
G37*
%TD.AperFunction*%
%TA.AperFunction,Conductor*%
G36*
X116985936Y-84215906D02*
G01*
X117036095Y-84246644D01*
X117593721Y-84804270D01*
X117621035Y-84845147D01*
X117630626Y-84893365D01*
X117630626Y-87395694D01*
X117613580Y-87458979D01*
X117567054Y-87505142D01*
X117503636Y-87521690D01*
X117440487Y-87504148D01*
X117389347Y-87473903D01*
X117374915Y-87467659D01*
X117237206Y-87427649D01*
X117225757Y-87427064D01*
X117223126Y-87438219D01*
X117223126Y-88856552D01*
X117206245Y-88919552D01*
X117160126Y-88965671D01*
X117097126Y-88982552D01*
X116947000Y-88982552D01*
X116884000Y-88965671D01*
X116837881Y-88919552D01*
X116821000Y-88856552D01*
X116821000Y-84335739D01*
X116834733Y-84278536D01*
X116872939Y-84233803D01*
X116927289Y-84211290D01*
X116985936Y-84215906D01*
G37*
%TD.AperFunction*%
%TA.AperFunction,Conductor*%
G36*
X93590325Y-86891521D02*
G01*
X93644262Y-86924173D01*
X93675627Y-86978869D01*
X93676558Y-87041444D01*
X93675000Y-87045946D01*
X93674147Y-87051873D01*
X93674146Y-87051881D01*
X93648085Y-87233150D01*
X93644411Y-87258703D01*
X93644696Y-87264690D01*
X93644696Y-87264695D01*
X93650994Y-87396923D01*
X93639500Y-87455805D01*
X93602078Y-87502697D01*
X93547213Y-87526968D01*
X93487343Y-87523115D01*
X93436042Y-87492012D01*
X93372768Y-87428738D01*
X93367748Y-87424228D01*
X93329137Y-87393115D01*
X93310756Y-87381760D01*
X93266931Y-87335933D01*
X93250976Y-87274564D01*
X93250976Y-87185089D01*
X93257663Y-87144587D01*
X93277014Y-87108384D01*
X93300594Y-87077654D01*
X93336634Y-87030687D01*
X93337357Y-87028940D01*
X93378939Y-86987357D01*
X93380687Y-86986634D01*
X93475882Y-86913588D01*
X93476683Y-86914632D01*
X93527321Y-86889089D01*
X93590325Y-86891521D01*
G37*
%TD.AperFunction*%
%TA.AperFunction,Conductor*%
G36*
X93627735Y-83316107D02*
G01*
X93669494Y-83357053D01*
X93704442Y-83412672D01*
X93763889Y-83507281D01*
X93892719Y-83636111D01*
X93898713Y-83639877D01*
X93898714Y-83639878D01*
X94035420Y-83725776D01*
X94046985Y-83733043D01*
X94171285Y-83776537D01*
X94226317Y-83814625D01*
X94254081Y-83875521D01*
X94246744Y-83942045D01*
X94206376Y-83995427D01*
X94196465Y-84003032D01*
X94190278Y-84008457D01*
X93955914Y-84242823D01*
X93950483Y-84249015D01*
X93885030Y-84334314D01*
X93876845Y-84348491D01*
X93850573Y-84411918D01*
X93848864Y-84423442D01*
X93860168Y-84426274D01*
X94217001Y-84426274D01*
X94280002Y-84443155D01*
X94326121Y-84489276D01*
X94328956Y-84494188D01*
X94332116Y-84501815D01*
X94337138Y-84508360D01*
X94337140Y-84508363D01*
X94402651Y-84593739D01*
X94405162Y-84597011D01*
X94408079Y-84599928D01*
X94408087Y-84599937D01*
X94419329Y-84611179D01*
X94450067Y-84661338D01*
X94454683Y-84719985D01*
X94432170Y-84774335D01*
X94387437Y-84812541D01*
X94330234Y-84826274D01*
X93842594Y-84826274D01*
X93831289Y-84829105D01*
X93832999Y-84840629D01*
X93876845Y-84946483D01*
X93885031Y-84960661D01*
X93950482Y-85045959D01*
X93955909Y-85052147D01*
X94080167Y-85176404D01*
X94110905Y-85226563D01*
X94115521Y-85285210D01*
X94093008Y-85339561D01*
X94048275Y-85377767D01*
X93991072Y-85391500D01*
X93435636Y-85391500D01*
X93419190Y-85390422D01*
X93395688Y-85387328D01*
X93387500Y-85386250D01*
X93379312Y-85387328D01*
X93379311Y-85387328D01*
X93347628Y-85391499D01*
X93347602Y-85391501D01*
X93236838Y-85406083D01*
X93236830Y-85406085D01*
X93228650Y-85407162D01*
X93221023Y-85410321D01*
X93221020Y-85410322D01*
X93099661Y-85460591D01*
X93080625Y-85468476D01*
X93074078Y-85473499D01*
X93074076Y-85473501D01*
X93066263Y-85479496D01*
X93066264Y-85479496D01*
X93065507Y-85480077D01*
X93025126Y-85511060D01*
X92973221Y-85532562D01*
X92973550Y-85533787D01*
X92965566Y-85535926D01*
X92957387Y-85537003D01*
X92949769Y-85540158D01*
X92949763Y-85540160D01*
X92816985Y-85595159D01*
X92816978Y-85595162D01*
X92809361Y-85598318D01*
X92802814Y-85603341D01*
X92802810Y-85603344D01*
X92717441Y-85668850D01*
X92717431Y-85668857D01*
X92714166Y-85671364D01*
X92711257Y-85674272D01*
X92711249Y-85674280D01*
X92476831Y-85908699D01*
X92476823Y-85908707D01*
X92473913Y-85911618D01*
X92471411Y-85914877D01*
X92471400Y-85914891D01*
X92405891Y-86000263D01*
X92405887Y-86000268D01*
X92400866Y-86006813D01*
X92400139Y-86008566D01*
X92358564Y-86050140D01*
X92356813Y-86050866D01*
X92350272Y-86055884D01*
X92350265Y-86055889D01*
X92264893Y-86121398D01*
X92264883Y-86121405D01*
X92261618Y-86123912D01*
X92258709Y-86126820D01*
X92258701Y-86126828D01*
X92024283Y-86361247D01*
X92024275Y-86361255D01*
X92021365Y-86364166D01*
X92018863Y-86367425D01*
X92018852Y-86367439D01*
X91966562Y-86435585D01*
X91914087Y-86475589D01*
X91848589Y-86483586D01*
X91788030Y-86457383D01*
X91749019Y-86404165D01*
X91735693Y-86369565D01*
X91735691Y-86369560D01*
X91734181Y-86365640D01*
X91589771Y-86102125D01*
X91411527Y-85860210D01*
X91202629Y-85644211D01*
X90966804Y-85457982D01*
X90963189Y-85455841D01*
X90963185Y-85455838D01*
X90711888Y-85306995D01*
X90711886Y-85306994D01*
X90708263Y-85304848D01*
X90431617Y-85187540D01*
X90427564Y-85186429D01*
X90427559Y-85186428D01*
X90145868Y-85109265D01*
X90145864Y-85109264D01*
X90141804Y-85108152D01*
X90137633Y-85107591D01*
X90137628Y-85107590D01*
X89848171Y-85068661D01*
X89848161Y-85068660D01*
X89843995Y-85068100D01*
X89696638Y-85068100D01*
X89639435Y-85054367D01*
X89594702Y-85016161D01*
X89572189Y-84961811D01*
X89576805Y-84903164D01*
X89607543Y-84853005D01*
X90200125Y-84260423D01*
X90796235Y-83664312D01*
X90808622Y-83653450D01*
X90827437Y-83639013D01*
X90827437Y-83639012D01*
X90833987Y-83633987D01*
X90858474Y-83602074D01*
X90858477Y-83602072D01*
X90931495Y-83506913D01*
X90931524Y-83506875D01*
X90934496Y-83499697D01*
X90971385Y-83459435D01*
X91022113Y-83438566D01*
X91076901Y-83441230D01*
X91125363Y-83466920D01*
X91255894Y-83578403D01*
X91478479Y-83714803D01*
X91719661Y-83814704D01*
X91973501Y-83875646D01*
X92233750Y-83896128D01*
X92493999Y-83875646D01*
X92747839Y-83814704D01*
X92989021Y-83714803D01*
X93211606Y-83578403D01*
X93410113Y-83408863D01*
X93466998Y-83342258D01*
X93514261Y-83307817D01*
X93571987Y-83298425D01*
X93627735Y-83316107D01*
G37*
%TD.AperFunction*%
%TA.AperFunction,Conductor*%
G36*
X123591000Y-80968579D02*
G01*
X123637119Y-81014698D01*
X123654000Y-81077698D01*
X123654000Y-81834700D01*
X123654192Y-81837148D01*
X123654193Y-81837156D01*
X123656344Y-81864493D01*
X123656938Y-81872029D01*
X123658732Y-81878206D01*
X123658733Y-81878208D01*
X123702933Y-82030348D01*
X123705886Y-82088138D01*
X123682696Y-82141153D01*
X123638255Y-82178213D01*
X123581936Y-82191500D01*
X123058199Y-82191500D01*
X122990499Y-82171767D01*
X122944004Y-82118750D01*
X122933277Y-82049054D01*
X122935366Y-82033186D01*
X122941897Y-81983577D01*
X122941896Y-81643808D01*
X122926235Y-81524842D01*
X122925249Y-81522461D01*
X122925250Y-81460099D01*
X122926825Y-81454220D01*
X122935078Y-81391527D01*
X122932939Y-81377627D01*
X122902168Y-81368658D01*
X122902225Y-81368460D01*
X122868932Y-81360698D01*
X122824698Y-81324397D01*
X122812021Y-81307876D01*
X122767384Y-81249705D01*
X122760838Y-81244682D01*
X122760834Y-81244678D01*
X122702158Y-81199654D01*
X122663755Y-81150940D01*
X122653250Y-81089806D01*
X122673190Y-81031067D01*
X122718740Y-80988961D01*
X122778862Y-80973692D01*
X122919436Y-80973692D01*
X122954297Y-80963530D01*
X122955112Y-80962927D01*
X122959966Y-80961878D01*
X122969867Y-80958993D01*
X122970071Y-80959696D01*
X123007109Y-80951698D01*
X123528000Y-80951698D01*
X123591000Y-80968579D01*
G37*
%TD.AperFunction*%
%TA.AperFunction,Conductor*%
G36*
X107257552Y-80965514D02*
G01*
X107313042Y-80997855D01*
X107429614Y-81114427D01*
X107440481Y-81126817D01*
X107459947Y-81152185D01*
X107466500Y-81157213D01*
X107491859Y-81176672D01*
X107491862Y-81176675D01*
X107580484Y-81244678D01*
X107587058Y-81249722D01*
X107735083Y-81311036D01*
X107754477Y-81313589D01*
X107854049Y-81326698D01*
X107854054Y-81326698D01*
X107893934Y-81331948D01*
X107925626Y-81327775D01*
X107942070Y-81326698D01*
X109675226Y-81326698D01*
X109734621Y-81341575D01*
X109779989Y-81382693D01*
X109800619Y-81440343D01*
X109791637Y-81500910D01*
X109786335Y-81513712D01*
X109759022Y-81554592D01*
X109718144Y-81581908D01*
X109669924Y-81591500D01*
X107253741Y-81591500D01*
X107194345Y-81576622D01*
X107148976Y-81535502D01*
X107128348Y-81477851D01*
X107137332Y-81417283D01*
X107149426Y-81388084D01*
X107151135Y-81376557D01*
X107139832Y-81373726D01*
X106782999Y-81373726D01*
X106719998Y-81356845D01*
X106673879Y-81310724D01*
X106671043Y-81305812D01*
X106667884Y-81298185D01*
X106661402Y-81289738D01*
X106597348Y-81206260D01*
X106597347Y-81206259D01*
X106594838Y-81202989D01*
X106591919Y-81200070D01*
X106591912Y-81200062D01*
X106580671Y-81188821D01*
X106549933Y-81138662D01*
X106545317Y-81080015D01*
X106567830Y-81025665D01*
X106612563Y-80987459D01*
X106669766Y-80973726D01*
X107157406Y-80973726D01*
X107193329Y-80964727D01*
X107257552Y-80965514D01*
G37*
%TD.AperFunction*%
%TA.AperFunction,Conductor*%
G36*
X92670489Y-73834519D02*
G01*
X92716039Y-73876625D01*
X92735979Y-73935364D01*
X92725474Y-73996499D01*
X92687071Y-74045212D01*
X92610439Y-74104014D01*
X92610424Y-74104024D01*
X92610425Y-74104025D01*
X92585059Y-74123489D01*
X92585055Y-74123492D01*
X92578513Y-74128513D01*
X92573492Y-74135055D01*
X92573489Y-74135059D01*
X92559045Y-74153882D01*
X92548185Y-74166265D01*
X91918014Y-74796435D01*
X91861532Y-74829046D01*
X91796310Y-74829046D01*
X91739826Y-74796434D01*
X91712289Y-74768897D01*
X91712288Y-74768896D01*
X91707281Y-74763889D01*
X91701287Y-74760123D01*
X91701285Y-74760121D01*
X91559006Y-74670721D01*
X91559003Y-74670719D01*
X91553015Y-74666957D01*
X91546339Y-74664621D01*
X91546335Y-74664619D01*
X91387724Y-74609119D01*
X91387720Y-74609118D01*
X91381047Y-74606783D01*
X91200000Y-74586384D01*
X91192971Y-74587176D01*
X91025981Y-74605991D01*
X91025979Y-74605991D01*
X91018953Y-74606783D01*
X91012280Y-74609117D01*
X91012275Y-74609119D01*
X90853664Y-74664619D01*
X90853656Y-74664622D01*
X90846985Y-74666957D01*
X90841000Y-74670717D01*
X90840993Y-74670721D01*
X90698714Y-74760121D01*
X90698707Y-74760126D01*
X90692719Y-74763889D01*
X90687714Y-74768893D01*
X90687710Y-74768897D01*
X90568897Y-74887710D01*
X90568893Y-74887714D01*
X90563889Y-74892719D01*
X90560126Y-74898707D01*
X90560121Y-74898714D01*
X90470721Y-75040993D01*
X90470717Y-75041000D01*
X90466957Y-75046985D01*
X90464622Y-75053657D01*
X90464620Y-75053662D01*
X90427567Y-75159554D01*
X90390826Y-75213443D01*
X90332063Y-75241741D01*
X90267023Y-75236867D01*
X90187724Y-75209119D01*
X90187720Y-75209118D01*
X90181047Y-75206783D01*
X90000000Y-75186384D01*
X89992971Y-75187176D01*
X89825981Y-75205991D01*
X89825979Y-75205991D01*
X89818953Y-75206783D01*
X89812280Y-75209117D01*
X89812275Y-75209119D01*
X89653664Y-75264619D01*
X89653656Y-75264622D01*
X89646985Y-75266957D01*
X89641000Y-75270717D01*
X89640993Y-75270721D01*
X89498714Y-75360121D01*
X89498707Y-75360126D01*
X89492719Y-75363889D01*
X89487714Y-75368893D01*
X89487710Y-75368897D01*
X89368897Y-75487710D01*
X89368893Y-75487714D01*
X89363889Y-75492719D01*
X89360123Y-75498711D01*
X89360124Y-75498711D01*
X89318557Y-75564864D01*
X89275379Y-75606651D01*
X89217757Y-75623689D01*
X89158797Y-75612104D01*
X89111909Y-75574532D01*
X89058478Y-75504899D01*
X89058474Y-75504895D01*
X89033987Y-75472983D01*
X89025392Y-75466388D01*
X89008619Y-75453517D01*
X88996229Y-75442650D01*
X88726301Y-75172722D01*
X88715433Y-75160330D01*
X88701001Y-75141521D01*
X88701000Y-75141520D01*
X88695974Y-75134970D01*
X88689423Y-75129943D01*
X88689421Y-75129941D01*
X88664062Y-75110483D01*
X88664059Y-75110480D01*
X88575416Y-75042461D01*
X88575414Y-75042459D01*
X88568863Y-75037433D01*
X88561236Y-75034273D01*
X88561233Y-75034272D01*
X88428466Y-74979278D01*
X88428461Y-74979276D01*
X88420838Y-74976119D01*
X88412654Y-74975041D01*
X88412653Y-74975041D01*
X88401443Y-74973565D01*
X88301872Y-74960457D01*
X88301871Y-74960457D01*
X88301863Y-74960456D01*
X88270177Y-74956285D01*
X88270176Y-74956285D01*
X88261987Y-74955207D01*
X88230294Y-74959379D01*
X88213851Y-74960457D01*
X88189309Y-74960457D01*
X88148807Y-74953770D01*
X88112604Y-74934419D01*
X88083985Y-74912458D01*
X88083983Y-74912457D01*
X88077436Y-74907433D01*
X88069810Y-74904274D01*
X88069808Y-74904273D01*
X87937039Y-74849279D01*
X87937038Y-74849278D01*
X87929410Y-74846119D01*
X87921227Y-74845041D01*
X87921221Y-74845040D01*
X87814532Y-74830995D01*
X87814531Y-74830994D01*
X87810445Y-74830457D01*
X87806323Y-74830457D01*
X87534799Y-74830457D01*
X87534783Y-74830457D01*
X87530676Y-74830458D01*
X87526592Y-74830995D01*
X87526586Y-74830996D01*
X87419897Y-74845041D01*
X87419895Y-74845041D01*
X87411710Y-74846119D01*
X87404087Y-74849276D01*
X87404081Y-74849278D01*
X87271311Y-74904273D01*
X87271306Y-74904275D01*
X87263684Y-74907433D01*
X87257139Y-74912454D01*
X87257134Y-74912458D01*
X87228516Y-74934419D01*
X87192313Y-74953770D01*
X87151811Y-74960457D01*
X87052118Y-74960457D01*
X87003900Y-74950866D01*
X86963023Y-74923552D01*
X86883047Y-74843576D01*
X86877655Y-74838184D01*
X86828049Y-74808196D01*
X86736936Y-74753116D01*
X86736934Y-74753115D01*
X86730413Y-74749173D01*
X86664917Y-74728764D01*
X86572513Y-74699970D01*
X86572512Y-74699969D01*
X86566149Y-74697987D01*
X86559516Y-74697384D01*
X86559510Y-74697383D01*
X86497614Y-74691758D01*
X86497594Y-74691757D01*
X86494765Y-74691500D01*
X86491903Y-74691500D01*
X85983099Y-74691500D01*
X85983077Y-74691500D01*
X85980236Y-74691501D01*
X85977387Y-74691759D01*
X85977383Y-74691760D01*
X85915488Y-74697383D01*
X85915479Y-74697384D01*
X85908851Y-74697987D01*
X85902493Y-74699968D01*
X85902489Y-74699969D01*
X85751864Y-74746905D01*
X85751860Y-74746906D01*
X85744587Y-74749173D01*
X85738068Y-74753113D01*
X85738063Y-74753116D01*
X85603868Y-74834240D01*
X85603864Y-74834243D01*
X85597345Y-74838184D01*
X85591956Y-74843572D01*
X85591952Y-74843576D01*
X85481076Y-74954452D01*
X85481072Y-74954456D01*
X85475684Y-74959845D01*
X85471743Y-74966364D01*
X85471740Y-74966368D01*
X85390616Y-75100563D01*
X85390613Y-75100568D01*
X85386673Y-75107087D01*
X85384406Y-75114360D01*
X85384405Y-75114364D01*
X85337470Y-75264986D01*
X85335487Y-75271351D01*
X85334884Y-75277981D01*
X85334883Y-75277989D01*
X85329258Y-75339885D01*
X85329257Y-75339906D01*
X85329000Y-75342735D01*
X85329000Y-75345595D01*
X85329000Y-75345596D01*
X85329000Y-77054400D01*
X85329000Y-77054421D01*
X85329001Y-77057264D01*
X85329259Y-77060113D01*
X85329260Y-77060116D01*
X85334883Y-77122011D01*
X85334884Y-77122019D01*
X85335487Y-77128649D01*
X85337468Y-77135008D01*
X85337469Y-77135010D01*
X85362059Y-77213922D01*
X85386673Y-77292913D01*
X85390615Y-77299434D01*
X85390616Y-77299436D01*
X85455739Y-77407162D01*
X85475684Y-77440155D01*
X85597345Y-77561816D01*
X85744587Y-77650827D01*
X85908851Y-77702013D01*
X85980235Y-77708500D01*
X86494764Y-77708499D01*
X86554227Y-77703096D01*
X86621519Y-77715653D01*
X86672315Y-77761543D01*
X86750914Y-77886632D01*
X86763889Y-77907281D01*
X86892719Y-78036111D01*
X87046985Y-78133043D01*
X87123969Y-78159980D01*
X87176301Y-78194948D01*
X87205192Y-78250870D01*
X87203427Y-78313789D01*
X87171446Y-78368003D01*
X85984853Y-79554597D01*
X85943979Y-79581909D01*
X85895761Y-79591500D01*
X81773136Y-79591500D01*
X81756692Y-79590422D01*
X81725000Y-79586250D01*
X81716811Y-79587328D01*
X81716810Y-79587328D01*
X81685124Y-79591499D01*
X81685115Y-79591500D01*
X81598356Y-79602922D01*
X81581910Y-79604000D01*
X81089000Y-79604000D01*
X81026000Y-79587119D01*
X80979881Y-79541000D01*
X80963000Y-79478000D01*
X80963000Y-77373928D01*
X80979628Y-77311368D01*
X81025123Y-77265320D01*
X81087478Y-77247937D01*
X81150234Y-77263808D01*
X81196829Y-77308744D01*
X81272138Y-77433322D01*
X81281473Y-77445236D01*
X81392263Y-77556026D01*
X81404179Y-77565362D01*
X81538274Y-77646425D01*
X81552065Y-77652632D01*
X81702581Y-77699535D01*
X81715578Y-77702121D01*
X81770294Y-77707093D01*
X81779993Y-77704493D01*
X81783500Y-77691410D01*
X81783500Y-77691409D01*
X82291500Y-77691409D01*
X82295006Y-77704492D01*
X82304705Y-77707092D01*
X82359412Y-77702121D01*
X82372426Y-77699533D01*
X82522934Y-77652632D01*
X82536725Y-77646425D01*
X82670820Y-77565362D01*
X82682736Y-77556026D01*
X82793526Y-77445236D01*
X82802862Y-77433320D01*
X82883925Y-77299225D01*
X82890132Y-77285434D01*
X82937035Y-77134918D01*
X82939621Y-77121921D01*
X82945241Y-77060074D01*
X82945500Y-77054363D01*
X82945500Y-76470590D01*
X82941993Y-76457506D01*
X82928910Y-76454000D01*
X82308090Y-76454000D01*
X82295006Y-76457506D01*
X82291500Y-76470590D01*
X82291500Y-77691409D01*
X81783500Y-77691409D01*
X81783500Y-75929410D01*
X82291500Y-75929410D01*
X82295006Y-75942493D01*
X82308090Y-75946000D01*
X82928909Y-75946000D01*
X82941992Y-75942493D01*
X82945499Y-75929410D01*
X82945499Y-75345639D01*
X82945239Y-75339922D01*
X82939621Y-75278087D01*
X82937033Y-75265073D01*
X82890132Y-75114565D01*
X82883925Y-75100774D01*
X82802862Y-74966679D01*
X82793526Y-74954763D01*
X82682736Y-74843973D01*
X82670820Y-74834637D01*
X82536725Y-74753574D01*
X82522934Y-74747367D01*
X82372418Y-74700464D01*
X82359421Y-74697878D01*
X82304705Y-74692906D01*
X82295006Y-74695506D01*
X82291500Y-74708590D01*
X82291500Y-75929410D01*
X81783500Y-75929410D01*
X81783500Y-74708591D01*
X81779993Y-74695507D01*
X81770294Y-74692907D01*
X81715587Y-74697878D01*
X81702573Y-74700466D01*
X81552065Y-74747367D01*
X81538274Y-74753574D01*
X81404179Y-74834637D01*
X81392263Y-74843973D01*
X81281473Y-74954763D01*
X81272138Y-74966677D01*
X81196829Y-75091256D01*
X81150234Y-75136192D01*
X81087478Y-75152063D01*
X81025123Y-75134680D01*
X80979628Y-75088632D01*
X80963000Y-75026072D01*
X80963000Y-74664898D01*
X80972591Y-74616680D01*
X80999905Y-74575803D01*
X81719553Y-73856155D01*
X81760430Y-73828841D01*
X81808648Y-73819250D01*
X92610367Y-73819250D01*
X92670489Y-73834519D01*
G37*
%TD.AperFunction*%
%TA.AperFunction,Conductor*%
G36*
X111122434Y-76993579D02*
G01*
X111168553Y-77039698D01*
X111185434Y-77102698D01*
X111185434Y-77134198D01*
X111168553Y-77197198D01*
X111122434Y-77243317D01*
X111059434Y-77260198D01*
X110827024Y-77260198D01*
X110813940Y-77263704D01*
X110810434Y-77276788D01*
X110810434Y-77983698D01*
X110793553Y-78046698D01*
X110747434Y-78092817D01*
X110684434Y-78109698D01*
X110428434Y-78109698D01*
X110365434Y-78092817D01*
X110319315Y-78046698D01*
X110302434Y-77983698D01*
X110302434Y-77338817D01*
X110315428Y-77283088D01*
X110348167Y-77243195D01*
X110348027Y-77243055D01*
X110349456Y-77241625D01*
X110351731Y-77238854D01*
X110353253Y-77237685D01*
X110360421Y-77232185D01*
X110379892Y-77206809D01*
X110390735Y-77194445D01*
X110571581Y-77013599D01*
X110612455Y-76986289D01*
X110660673Y-76976698D01*
X111059434Y-76976698D01*
X111122434Y-76993579D01*
G37*
%TD.AperFunction*%
%TA.AperFunction,Conductor*%
G36*
X131748370Y-73172418D02*
G01*
X131787996Y-73230657D01*
X131824669Y-73343529D01*
X131824675Y-73343542D01*
X131826714Y-73349818D01*
X131910187Y-73494404D01*
X131914606Y-73499312D01*
X131914609Y-73499316D01*
X131973599Y-73564834D01*
X132021896Y-73618476D01*
X132027235Y-73622355D01*
X132027238Y-73622358D01*
X132088313Y-73666735D01*
X132156958Y-73716613D01*
X132309473Y-73784525D01*
X132472774Y-73819245D01*
X132556150Y-73819249D01*
X132556149Y-73822462D01*
X132556151Y-73822462D01*
X132556151Y-73819250D01*
X132556250Y-73819250D01*
X132849901Y-73819250D01*
X132850099Y-73819250D01*
X135678852Y-73819250D01*
X135727070Y-73828841D01*
X135767947Y-73856155D01*
X136487595Y-74575803D01*
X136514909Y-74616680D01*
X136524500Y-74664898D01*
X136524500Y-75025104D01*
X136507872Y-75087664D01*
X136462377Y-75133712D01*
X136400022Y-75151095D01*
X136337266Y-75135224D01*
X136290672Y-75090288D01*
X136215762Y-74966372D01*
X136215759Y-74966368D01*
X136211816Y-74959845D01*
X136090155Y-74838184D01*
X136040549Y-74808196D01*
X135949436Y-74753116D01*
X135949434Y-74753115D01*
X135942913Y-74749173D01*
X135877417Y-74728764D01*
X135785013Y-74699970D01*
X135785012Y-74699969D01*
X135778649Y-74697987D01*
X135772016Y-74697384D01*
X135772010Y-74697383D01*
X135710114Y-74691758D01*
X135710094Y-74691757D01*
X135707265Y-74691500D01*
X135704403Y-74691500D01*
X135195599Y-74691500D01*
X135195577Y-74691500D01*
X135192736Y-74691501D01*
X135189887Y-74691759D01*
X135189883Y-74691760D01*
X135127988Y-74697383D01*
X135127979Y-74697384D01*
X135121351Y-74697987D01*
X135114993Y-74699968D01*
X135114989Y-74699969D01*
X134964364Y-74746905D01*
X134964360Y-74746906D01*
X134957087Y-74749173D01*
X134950568Y-74753113D01*
X134950563Y-74753116D01*
X134816368Y-74834240D01*
X134816364Y-74834243D01*
X134809845Y-74838184D01*
X134804456Y-74843572D01*
X134804452Y-74843576D01*
X134693576Y-74954452D01*
X134693572Y-74954456D01*
X134688184Y-74959845D01*
X134684243Y-74966364D01*
X134684240Y-74966368D01*
X134603116Y-75100563D01*
X134603113Y-75100568D01*
X134599173Y-75107087D01*
X134596906Y-75114360D01*
X134596905Y-75114364D01*
X134549970Y-75264986D01*
X134547987Y-75271351D01*
X134547384Y-75277981D01*
X134547383Y-75277989D01*
X134541758Y-75339885D01*
X134541757Y-75339906D01*
X134541500Y-75342735D01*
X134541500Y-75345595D01*
X134541500Y-75345596D01*
X134541500Y-77054400D01*
X134541500Y-77054421D01*
X134541501Y-77057264D01*
X134541759Y-77060113D01*
X134541760Y-77060116D01*
X134547383Y-77122011D01*
X134547384Y-77122019D01*
X134547987Y-77128649D01*
X134549968Y-77135008D01*
X134549969Y-77135010D01*
X134574559Y-77213922D01*
X134599173Y-77292913D01*
X134603115Y-77299434D01*
X134603116Y-77299436D01*
X134668239Y-77407162D01*
X134688184Y-77440155D01*
X134693576Y-77445547D01*
X134734808Y-77486779D01*
X134767420Y-77543263D01*
X134767420Y-77608485D01*
X134734808Y-77664969D01*
X134641353Y-77758424D01*
X134607986Y-77782335D01*
X134568704Y-77794251D01*
X134479790Y-77805956D01*
X134479785Y-77805957D01*
X134471606Y-77807034D01*
X134469853Y-77807760D01*
X134411059Y-77807760D01*
X134409306Y-77807034D01*
X134401118Y-77805956D01*
X134312204Y-77794250D01*
X134272922Y-77782334D01*
X134239556Y-77758423D01*
X134084898Y-77603765D01*
X134074030Y-77591373D01*
X134070424Y-77586674D01*
X134054571Y-77566013D01*
X134048020Y-77560986D01*
X134048018Y-77560984D01*
X134022659Y-77541526D01*
X134022656Y-77541523D01*
X133934013Y-77473504D01*
X133934011Y-77473502D01*
X133927460Y-77468476D01*
X133919833Y-77465316D01*
X133919830Y-77465315D01*
X133787063Y-77410321D01*
X133787058Y-77410319D01*
X133779435Y-77407162D01*
X133771247Y-77406084D01*
X133758348Y-77404386D01*
X133660476Y-77391500D01*
X133660458Y-77391499D01*
X133628773Y-77387328D01*
X133620584Y-77386250D01*
X133588891Y-77390422D01*
X133572448Y-77391500D01*
X132240821Y-77391500D01*
X132183958Y-77377939D01*
X132139334Y-77340175D01*
X132116556Y-77286337D01*
X132120526Y-77228014D01*
X132149535Y-77134918D01*
X132152121Y-77121921D01*
X132157741Y-77060074D01*
X132158000Y-77054363D01*
X132158000Y-76470590D01*
X132154493Y-76457506D01*
X132141410Y-76454000D01*
X130358591Y-76454000D01*
X130345507Y-76457506D01*
X130342000Y-76470590D01*
X130342000Y-76807333D01*
X130325119Y-76870333D01*
X130279000Y-76916452D01*
X130216001Y-76933333D01*
X129977484Y-76933333D01*
X129977458Y-76933333D01*
X129975012Y-76933334D01*
X129972568Y-76933526D01*
X129972549Y-76933527D01*
X129944952Y-76935698D01*
X129944941Y-76935699D01*
X129938534Y-76936204D01*
X129932355Y-76937998D01*
X129932350Y-76938000D01*
X129790017Y-76979352D01*
X129790015Y-76979352D01*
X129782404Y-76981564D01*
X129775586Y-76985595D01*
X129775579Y-76985599D01*
X129729136Y-77013065D01*
X129664998Y-77030610D01*
X129600860Y-77013064D01*
X129554418Y-76985598D01*
X129554414Y-76985596D01*
X129547596Y-76981564D01*
X129498606Y-76967331D01*
X129397643Y-76937998D01*
X129397637Y-76937997D01*
X129391466Y-76936204D01*
X129385058Y-76935699D01*
X129385055Y-76935699D01*
X129357444Y-76933526D01*
X129357438Y-76933525D01*
X129354989Y-76933333D01*
X129352519Y-76933333D01*
X128957484Y-76933333D01*
X128957458Y-76933333D01*
X128955012Y-76933334D01*
X128952568Y-76933526D01*
X128952549Y-76933527D01*
X128924952Y-76935698D01*
X128924941Y-76935699D01*
X128918534Y-76936204D01*
X128912355Y-76937998D01*
X128912350Y-76938000D01*
X128770016Y-76979352D01*
X128770012Y-76979353D01*
X128762404Y-76981564D01*
X128755581Y-76985598D01*
X128755581Y-76985599D01*
X128723282Y-77004700D01*
X128671565Y-77021631D01*
X128617531Y-77015175D01*
X128600221Y-77009118D01*
X128600218Y-77009117D01*
X128593547Y-77006783D01*
X128586522Y-77005991D01*
X128586520Y-77005991D01*
X128457891Y-76991498D01*
X128401020Y-76970396D01*
X128360600Y-76925166D01*
X128345999Y-76866290D01*
X128345999Y-75929410D01*
X130342000Y-75929410D01*
X130345506Y-75942493D01*
X130358590Y-75946000D01*
X130979410Y-75946000D01*
X130992493Y-75942493D01*
X130996000Y-75929410D01*
X131504000Y-75929410D01*
X131507506Y-75942493D01*
X131520590Y-75946000D01*
X132141409Y-75946000D01*
X132154492Y-75942493D01*
X132157999Y-75929410D01*
X132157999Y-75345639D01*
X132157739Y-75339922D01*
X132152121Y-75278087D01*
X132149533Y-75265073D01*
X132102632Y-75114565D01*
X132096425Y-75100774D01*
X132015362Y-74966679D01*
X132006026Y-74954763D01*
X131895236Y-74843973D01*
X131883320Y-74834637D01*
X131749225Y-74753574D01*
X131735434Y-74747367D01*
X131584918Y-74700464D01*
X131571921Y-74697878D01*
X131517205Y-74692906D01*
X131507506Y-74695506D01*
X131504000Y-74708590D01*
X131504000Y-75929410D01*
X130996000Y-75929410D01*
X130996000Y-74708591D01*
X130992493Y-74695507D01*
X130982794Y-74692907D01*
X130928087Y-74697878D01*
X130915073Y-74700466D01*
X130764565Y-74747367D01*
X130750774Y-74753574D01*
X130616679Y-74834637D01*
X130604763Y-74843973D01*
X130493973Y-74954763D01*
X130484637Y-74966679D01*
X130403574Y-75100774D01*
X130397367Y-75114565D01*
X130350464Y-75265081D01*
X130347878Y-75278078D01*
X130342258Y-75339925D01*
X130342000Y-75345637D01*
X130342000Y-75929410D01*
X128345999Y-75929410D01*
X128345999Y-75890162D01*
X128345999Y-75886956D01*
X128335387Y-75783074D01*
X128279615Y-75614762D01*
X128273956Y-75605588D01*
X128204338Y-75492719D01*
X128186530Y-75463848D01*
X128127026Y-75404344D01*
X128094414Y-75347860D01*
X128094414Y-75282638D01*
X128127023Y-75226156D01*
X128433568Y-74919611D01*
X128445948Y-74908756D01*
X128464763Y-74894319D01*
X128464763Y-74894318D01*
X128471313Y-74889293D01*
X128495800Y-74857380D01*
X128497626Y-74858781D01*
X128497629Y-74858777D01*
X128495804Y-74857377D01*
X128505270Y-74845041D01*
X128568850Y-74762182D01*
X128630164Y-74614157D01*
X128642515Y-74520337D01*
X128660902Y-74469507D01*
X128698897Y-74431058D01*
X128749504Y-74412067D01*
X128806207Y-74403915D01*
X128937123Y-74344127D01*
X128951237Y-74331896D01*
X129004044Y-74304673D01*
X129063456Y-74304673D01*
X129116262Y-74331896D01*
X129130377Y-74344127D01*
X129261293Y-74403915D01*
X129367951Y-74419250D01*
X129435054Y-74419250D01*
X129439549Y-74419250D01*
X129546207Y-74403915D01*
X129677123Y-74344127D01*
X129691237Y-74331896D01*
X129744044Y-74304673D01*
X129803456Y-74304673D01*
X129856262Y-74331896D01*
X129870377Y-74344127D01*
X130001293Y-74403915D01*
X130107951Y-74419250D01*
X130175054Y-74419250D01*
X130179549Y-74419250D01*
X130286207Y-74403915D01*
X130417123Y-74344127D01*
X130525893Y-74249878D01*
X130603703Y-74128803D01*
X130644250Y-73990711D01*
X130644250Y-73846789D01*
X130633398Y-73809833D01*
X130630973Y-73748497D01*
X130657819Y-73693291D01*
X130707566Y-73657323D01*
X130768399Y-73649129D01*
X130832696Y-73656374D01*
X131013743Y-73635975D01*
X131185711Y-73575801D01*
X131339977Y-73478869D01*
X131468807Y-73350039D01*
X131561478Y-73202554D01*
X131614131Y-73155765D01*
X131683675Y-73144550D01*
X131748370Y-73172418D01*
G37*
%TD.AperFunction*%
%TA.AperFunction,Conductor*%
G36*
X108351329Y-77182231D02*
G01*
X108394060Y-77213922D01*
X108411471Y-77233776D01*
X108443913Y-77243232D01*
X108443855Y-77243429D01*
X108477149Y-77251192D01*
X108521383Y-77287493D01*
X108546943Y-77320803D01*
X108570871Y-77374545D01*
X108567793Y-77433293D01*
X108538379Y-77484240D01*
X108489042Y-77516280D01*
X108430536Y-77522430D01*
X108333832Y-77509699D01*
X108333808Y-77509697D01*
X108302123Y-77505526D01*
X108293934Y-77504448D01*
X108262241Y-77508620D01*
X108245798Y-77509698D01*
X105944499Y-77509698D01*
X105881499Y-77492817D01*
X105835380Y-77446698D01*
X105818499Y-77383698D01*
X105818499Y-77326000D01*
X105835380Y-77263000D01*
X105881499Y-77216881D01*
X105944499Y-77200000D01*
X106432092Y-77200000D01*
X106461508Y-77191425D01*
X106473906Y-77182231D01*
X106525907Y-77171000D01*
X108299328Y-77171000D01*
X108351329Y-77182231D01*
G37*
%TD.AperFunction*%
%TA.AperFunction,Conductor*%
G36*
X119986024Y-76818167D02*
G01*
X120039335Y-76849884D01*
X120156782Y-76967331D01*
X120189059Y-77022591D01*
X120190026Y-77086580D01*
X120159432Y-77142790D01*
X120105171Y-77176721D01*
X120050823Y-77193656D01*
X120013339Y-77199361D01*
X119975855Y-77193656D01*
X119909516Y-77172985D01*
X119863447Y-77147003D01*
X119832101Y-77104403D01*
X119821000Y-77052690D01*
X119821000Y-77010636D01*
X119822078Y-76994190D01*
X119825172Y-76970688D01*
X119826250Y-76962500D01*
X119825172Y-76954312D01*
X119825172Y-76946054D01*
X119826429Y-76946054D01*
X119832606Y-76893832D01*
X119868405Y-76843172D01*
X119924039Y-76815733D01*
X119986024Y-76818167D01*
G37*
%TD.AperFunction*%
%TA.AperFunction,Conductor*%
G36*
X109457187Y-75365431D02*
G01*
X109501920Y-75403637D01*
X109524433Y-75457987D01*
X109519817Y-75516634D01*
X109489079Y-75566793D01*
X109450089Y-75605782D01*
X109450085Y-75605786D01*
X109444481Y-75611391D01*
X109440445Y-75618215D01*
X109440443Y-75618218D01*
X109363825Y-75747771D01*
X109363822Y-75747776D01*
X109359789Y-75754597D01*
X109357578Y-75762205D01*
X109357577Y-75762209D01*
X109315165Y-75908193D01*
X109315163Y-75908199D01*
X109313372Y-75914367D01*
X109312941Y-75919832D01*
X109291242Y-75970655D01*
X109249428Y-76007444D01*
X109195839Y-76022613D01*
X109140946Y-76013199D01*
X109043465Y-75972821D01*
X109043460Y-75972819D01*
X109035837Y-75969662D01*
X109027649Y-75968584D01*
X109008111Y-75966012D01*
X108916878Y-75954000D01*
X108916860Y-75953999D01*
X108885175Y-75949828D01*
X108876986Y-75948750D01*
X108845293Y-75952922D01*
X108828850Y-75954000D01*
X106327161Y-75954000D01*
X106269958Y-75940267D01*
X106225225Y-75902061D01*
X106202712Y-75847711D01*
X106207328Y-75789064D01*
X106238065Y-75738905D01*
X106289260Y-75687710D01*
X106459885Y-75517084D01*
X106532932Y-75421889D01*
X106535961Y-75414575D01*
X106581957Y-75368579D01*
X106644958Y-75351698D01*
X109399984Y-75351698D01*
X109457187Y-75365431D01*
G37*
%TD.AperFunction*%
%TA.AperFunction,Conductor*%
G36*
X101932498Y-73832983D02*
G01*
X101977231Y-73871189D01*
X101999744Y-73925540D01*
X101995128Y-73984187D01*
X101964390Y-74034346D01*
X101914917Y-74083818D01*
X101866324Y-74114035D01*
X101809378Y-74119644D01*
X101733830Y-74109699D01*
X101733810Y-74109697D01*
X101702124Y-74105526D01*
X101702123Y-74105526D01*
X101693934Y-74104448D01*
X101662241Y-74108620D01*
X101645798Y-74109698D01*
X101439031Y-74109698D01*
X101422587Y-74108620D01*
X101390895Y-74104448D01*
X101382706Y-74105526D01*
X101382705Y-74105526D01*
X101351018Y-74109697D01*
X101351009Y-74109697D01*
X101351010Y-74109698D01*
X101251438Y-74122806D01*
X101240234Y-74124281D01*
X101240230Y-74124281D01*
X101232044Y-74125360D01*
X101224418Y-74128518D01*
X101224413Y-74128520D01*
X101091648Y-74183513D01*
X101091642Y-74183516D01*
X101084019Y-74186674D01*
X100988938Y-74259633D01*
X100988887Y-74259672D01*
X100988937Y-74259633D01*
X100988868Y-74259686D01*
X100988820Y-74259723D01*
X100963455Y-74279186D01*
X100963450Y-74279190D01*
X100956908Y-74284211D01*
X100956182Y-74285156D01*
X100926245Y-74306396D01*
X100885687Y-74318081D01*
X100815021Y-74326044D01*
X100815020Y-74326044D01*
X100807993Y-74326836D01*
X100801316Y-74329172D01*
X100801313Y-74329173D01*
X100642704Y-74384672D01*
X100642696Y-74384675D01*
X100636025Y-74387010D01*
X100630040Y-74390770D01*
X100630033Y-74390774D01*
X100487754Y-74480174D01*
X100487747Y-74480179D01*
X100481759Y-74483942D01*
X100476754Y-74488946D01*
X100476750Y-74488950D01*
X100357937Y-74607763D01*
X100357933Y-74607767D01*
X100352929Y-74612772D01*
X100349166Y-74618760D01*
X100349161Y-74618767D01*
X100259761Y-74761046D01*
X100259757Y-74761053D01*
X100255997Y-74767038D01*
X100253662Y-74773709D01*
X100253659Y-74773717D01*
X100198159Y-74932328D01*
X100198157Y-74932333D01*
X100195823Y-74939006D01*
X100195031Y-74946032D01*
X100195031Y-74946034D01*
X100189976Y-74990897D01*
X100175424Y-75120053D01*
X100195823Y-75301100D01*
X100198158Y-75307773D01*
X100198159Y-75307777D01*
X100253659Y-75466388D01*
X100253661Y-75466392D01*
X100255997Y-75473068D01*
X100259759Y-75479056D01*
X100259761Y-75479059D01*
X100288402Y-75524640D01*
X100306923Y-75577569D01*
X100300644Y-75633292D01*
X100270809Y-75680773D01*
X100233200Y-75718381D01*
X100172716Y-75751993D01*
X100103603Y-75748597D01*
X100046706Y-75709217D01*
X100019184Y-75645729D01*
X100016623Y-75626275D01*
X100016623Y-75626274D01*
X100014904Y-75613215D01*
X99953590Y-75465190D01*
X99880543Y-75369994D01*
X99880540Y-75369991D01*
X99856053Y-75338079D01*
X99833472Y-75320752D01*
X99830685Y-75318613D01*
X99818295Y-75307746D01*
X99140588Y-74630039D01*
X99129720Y-74617647D01*
X99125979Y-74612772D01*
X99118473Y-74602989D01*
X99115288Y-74598838D01*
X99115287Y-74598837D01*
X99110261Y-74592287D01*
X99103710Y-74587260D01*
X99103708Y-74587258D01*
X99078349Y-74567800D01*
X99078346Y-74567797D01*
X98989703Y-74499778D01*
X98989701Y-74499776D01*
X98983150Y-74494750D01*
X98975523Y-74491590D01*
X98975520Y-74491589D01*
X98842753Y-74436595D01*
X98842748Y-74436593D01*
X98835125Y-74433436D01*
X98826941Y-74432358D01*
X98826940Y-74432358D01*
X98815730Y-74430882D01*
X98716159Y-74417774D01*
X98716158Y-74417774D01*
X98716150Y-74417773D01*
X98684464Y-74413602D01*
X98684463Y-74413602D01*
X98676274Y-74412524D01*
X98671043Y-74413212D01*
X98632900Y-74406915D01*
X98596697Y-74387564D01*
X98530986Y-74337141D01*
X98530983Y-74337139D01*
X98524437Y-74332116D01*
X98522057Y-74331130D01*
X98477964Y-74287037D01*
X98474919Y-74281764D01*
X98409469Y-74196466D01*
X98404042Y-74190278D01*
X98248109Y-74034346D01*
X98217371Y-73984186D01*
X98212755Y-73925539D01*
X98235268Y-73871189D01*
X98280001Y-73832983D01*
X98337204Y-73819250D01*
X101875295Y-73819250D01*
X101932498Y-73832983D01*
G37*
%TD.AperFunction*%
%TA.AperFunction,Conductor*%
G36*
X120091500Y-73836131D02*
G01*
X120137619Y-73882250D01*
X120154500Y-73945250D01*
X120154500Y-74591910D01*
X120158350Y-74606279D01*
X120177818Y-74625747D01*
X120207652Y-74673227D01*
X120213931Y-74728949D01*
X120202772Y-74827991D01*
X120198884Y-74862500D01*
X120199676Y-74869529D01*
X120213931Y-74996051D01*
X120207652Y-75051773D01*
X120177819Y-75099252D01*
X120158351Y-75118719D01*
X120154501Y-75133090D01*
X120154501Y-75428000D01*
X120137620Y-75491000D01*
X120091501Y-75537119D01*
X120028501Y-75554000D01*
X118856985Y-75554000D01*
X118798108Y-75539398D01*
X118752878Y-75498977D01*
X118736323Y-75454359D01*
X118734015Y-75454886D01*
X118732438Y-75447981D01*
X118731647Y-75440953D01*
X118671473Y-75268985D01*
X118574541Y-75114719D01*
X118445711Y-74985889D01*
X118439717Y-74982123D01*
X118439715Y-74982121D01*
X118297436Y-74892721D01*
X118297433Y-74892719D01*
X118291445Y-74888957D01*
X118284769Y-74886621D01*
X118284765Y-74886619D01*
X118126154Y-74831119D01*
X118126150Y-74831118D01*
X118119477Y-74828783D01*
X117938430Y-74808384D01*
X117931401Y-74809176D01*
X117764411Y-74827991D01*
X117764409Y-74827991D01*
X117757383Y-74828783D01*
X117750710Y-74831117D01*
X117750705Y-74831119D01*
X117638114Y-74870517D01*
X117578885Y-74876351D01*
X117523586Y-74854349D01*
X117484555Y-74809420D01*
X117470499Y-74751588D01*
X117470499Y-73945250D01*
X117487380Y-73882250D01*
X117533499Y-73836131D01*
X117596499Y-73819250D01*
X120028500Y-73819250D01*
X120091500Y-73836131D01*
G37*
%TD.AperFunction*%
%TA.AperFunction,Conductor*%
G36*
X125787750Y-73050999D02*
G01*
X125787751Y-73198999D01*
X125770870Y-73262000D01*
X125724751Y-73308119D01*
X125661751Y-73325000D01*
X125174160Y-73325000D01*
X125160657Y-73328935D01*
X125158517Y-73342834D01*
X125162822Y-73375532D01*
X125167060Y-73391351D01*
X125179504Y-73421393D01*
X125189059Y-73472609D01*
X125177078Y-73523312D01*
X125145608Y-73564834D01*
X125068417Y-73631720D01*
X125068413Y-73631724D01*
X125061607Y-73637622D01*
X125056737Y-73645199D01*
X125056735Y-73645202D01*
X124988668Y-73751117D01*
X124983797Y-73758697D01*
X124981258Y-73767340D01*
X124981258Y-73767343D01*
X124949171Y-73876625D01*
X124943250Y-73896789D01*
X124943250Y-73905798D01*
X124943250Y-74012915D01*
X124926369Y-74075915D01*
X124880250Y-74122034D01*
X124817250Y-74138915D01*
X123764453Y-74138915D01*
X123748009Y-74137837D01*
X123716317Y-74133665D01*
X123708128Y-74134743D01*
X123708127Y-74134743D01*
X123676440Y-74138914D01*
X123676431Y-74138914D01*
X123676432Y-74138915D01*
X123576860Y-74152023D01*
X123565656Y-74153498D01*
X123565652Y-74153498D01*
X123557466Y-74154577D01*
X123549840Y-74157735D01*
X123549835Y-74157737D01*
X123417070Y-74212730D01*
X123417064Y-74212733D01*
X123409441Y-74215891D01*
X123314245Y-74288938D01*
X123314242Y-74288940D01*
X123314203Y-74288969D01*
X123314175Y-74288991D01*
X123288876Y-74308404D01*
X123288872Y-74308407D01*
X123282330Y-74313428D01*
X123277309Y-74319970D01*
X123277303Y-74319977D01*
X123262866Y-74338791D01*
X123252002Y-74351178D01*
X122835594Y-74767586D01*
X122785435Y-74798324D01*
X122726788Y-74802940D01*
X122672438Y-74780427D01*
X122634232Y-74735694D01*
X122620499Y-74678491D01*
X122620499Y-73945250D01*
X122637380Y-73882250D01*
X122683499Y-73836131D01*
X122746499Y-73819250D01*
X123030750Y-73819250D01*
X123031250Y-73819250D01*
X123114732Y-73819255D01*
X123278050Y-73784550D01*
X123430583Y-73716646D01*
X123565664Y-73618512D01*
X123677389Y-73494436D01*
X123760875Y-73349842D01*
X123812472Y-73191050D01*
X123818065Y-73137829D01*
X123838917Y-73080541D01*
X123884223Y-73039749D01*
X123943376Y-73025000D01*
X125091660Y-73025000D01*
X125780783Y-73025000D01*
X125787750Y-73050999D01*
G37*
%TD.AperFunction*%
%TA.AperFunction,Conductor*%
G36*
X114941500Y-73836131D02*
G01*
X114987619Y-73882250D01*
X115004500Y-73945250D01*
X115004500Y-74671561D01*
X114990767Y-74728764D01*
X114952561Y-74773497D01*
X114898211Y-74796010D01*
X114839564Y-74791394D01*
X114789405Y-74760656D01*
X114063094Y-74034345D01*
X114032356Y-73984186D01*
X114027740Y-73925539D01*
X114050253Y-73871189D01*
X114094986Y-73832983D01*
X114152189Y-73819250D01*
X114878500Y-73819250D01*
X114941500Y-73836131D01*
G37*
%TD.AperFunction*%
%TD*%
M02*
