%TF.GenerationSoftware,KiCad,Pcbnew,(6.0.10)*%
%TF.CreationDate,2023-03-18T11:22:51-05:00*%
%TF.ProjectId,Piggyback_2_0,50696767-7962-4616-936b-5f325f302e6b,rev?*%
%TF.SameCoordinates,Original*%
%TF.FileFunction,Soldermask,Top*%
%TF.FilePolarity,Negative*%
%FSLAX46Y46*%
G04 Gerber Fmt 4.6, Leading zero omitted, Abs format (unit mm)*
G04 Created by KiCad (PCBNEW (6.0.10)) date 2023-03-18 11:22:51*
%MOMM*%
%LPD*%
G01*
G04 APERTURE LIST*
%ADD10C,3.987800*%
%ADD11C,1.750000*%
%ADD12R,1.700000X1.700000*%
%ADD13C,0.500000*%
%ADD14C,0.650000*%
%ADD15O,1.000000X1.600000*%
%ADD16O,1.000000X2.100000*%
G04 APERTURE END LIST*
D10*
%TO.C,SW2*%
X89693750Y-68262500D03*
D11*
X84613750Y-68262500D03*
X94773750Y-68262500D03*
%TD*%
D10*
%TO.C,SW12*%
X89693750Y-106362500D03*
D11*
X94773750Y-106362500D03*
X84613750Y-106362500D03*
%TD*%
%TO.C,SW5*%
X141763750Y-68262500D03*
D10*
X146843750Y-68262500D03*
D11*
X151923750Y-68262500D03*
%TD*%
%TO.C,SW9*%
X122713750Y-87312500D03*
X132873750Y-87312500D03*
D10*
X127793750Y-87312500D03*
%TD*%
D11*
%TO.C,SW14*%
X122713750Y-106362500D03*
X132873750Y-106362500D03*
D10*
X127793750Y-106362500D03*
%TD*%
D12*
%TO.C,J1*%
X136525000Y-93662500D03*
X136525000Y-91122500D03*
X136525000Y-88582500D03*
X136525000Y-86042500D03*
X136525000Y-83502500D03*
X136525000Y-80962500D03*
%TD*%
D11*
%TO.C,SW15*%
X151923750Y-106362500D03*
D10*
X146843750Y-106362500D03*
D11*
X141763750Y-106362500D03*
%TD*%
%TO.C,SW7*%
X94773750Y-87312500D03*
X84613750Y-87312500D03*
D10*
X89693750Y-87312500D03*
%TD*%
D11*
%TO.C,SW10*%
X151923750Y-87312500D03*
D10*
X146843750Y-87312500D03*
D11*
X141763750Y-87312500D03*
%TD*%
D10*
%TO.C,SW11*%
X70643750Y-106362500D03*
D11*
X65563750Y-106362500D03*
X75723750Y-106362500D03*
%TD*%
%TO.C,SW3*%
X103663750Y-68262500D03*
D10*
X108743750Y-68262500D03*
D11*
X113823750Y-68262500D03*
%TD*%
%TO.C,SW1*%
X65563750Y-68262500D03*
X75723750Y-68262500D03*
D10*
X70643750Y-68262500D03*
%TD*%
%TO.C,SW8*%
X108743750Y-87312500D03*
D11*
X103663750Y-87312500D03*
X113823750Y-87312500D03*
%TD*%
D10*
%TO.C,SW6*%
X70643750Y-87312500D03*
D11*
X75723750Y-87312500D03*
X65563750Y-87312500D03*
%TD*%
%TO.C,SW13*%
X113823750Y-106362500D03*
D10*
X108743750Y-106362500D03*
D11*
X103663750Y-106362500D03*
%TD*%
D13*
%TO.C,REF\u002A\u002A*%
X126923750Y-73968750D03*
X129403750Y-73918750D03*
X126183750Y-73968750D03*
X128663750Y-73918750D03*
X130143750Y-73918750D03*
X125443750Y-73968750D03*
%TD*%
D12*
%TO.C,J5*%
X80962500Y-80962500D03*
X80962500Y-83502500D03*
X80962500Y-86042500D03*
X80962500Y-88582500D03*
X80962500Y-91122500D03*
X80962500Y-93662500D03*
%TD*%
%TO.C,J2*%
X82068750Y-96043750D03*
X84608750Y-96043750D03*
X87148750Y-96043750D03*
X89688750Y-96043750D03*
X92228750Y-96043750D03*
X94768750Y-96043750D03*
X97308750Y-96043750D03*
X99848750Y-96043750D03*
X102388750Y-96043750D03*
X104928750Y-96043750D03*
X107468750Y-96043750D03*
X110008750Y-96043750D03*
X112548750Y-96043750D03*
X115088750Y-96043750D03*
X117628750Y-96043750D03*
X120168750Y-96043750D03*
X122708750Y-96043750D03*
X125248750Y-96043750D03*
X127788750Y-96043750D03*
X130328750Y-96043750D03*
X132868750Y-96043750D03*
X135408750Y-96043750D03*
%TD*%
D14*
%TO.C,J3*%
X124903750Y-70068750D03*
X130683750Y-70068750D03*
D15*
X123473750Y-66418750D03*
D16*
X123473750Y-70598750D03*
D15*
X132113750Y-66418750D03*
D16*
X132113750Y-70598750D03*
%TD*%
M02*
