%TF.GenerationSoftware,KiCad,Pcbnew,(6.0.10)*%
%TF.CreationDate,2023-03-18T11:22:51-05:00*%
%TF.ProjectId,Piggyback_2_0,50696767-7962-4616-936b-5f325f302e6b,rev?*%
%TF.SameCoordinates,Original*%
%TF.FileFunction,Soldermask,Bot*%
%TF.FilePolarity,Negative*%
%FSLAX46Y46*%
G04 Gerber Fmt 4.6, Leading zero omitted, Abs format (unit mm)*
G04 Created by KiCad (PCBNEW (6.0.10)) date 2023-03-18 11:22:51*
%MOMM*%
%LPD*%
G01*
G04 APERTURE LIST*
G04 Aperture macros list*
%AMRoundRect*
0 Rectangle with rounded corners*
0 $1 Rounding radius*
0 $2 $3 $4 $5 $6 $7 $8 $9 X,Y pos of 4 corners*
0 Add a 4 corners polygon primitive as box body*
4,1,4,$2,$3,$4,$5,$6,$7,$8,$9,$2,$3,0*
0 Add four circle primitives for the rounded corners*
1,1,$1+$1,$2,$3*
1,1,$1+$1,$4,$5*
1,1,$1+$1,$6,$7*
1,1,$1+$1,$8,$9*
0 Add four rect primitives between the rounded corners*
20,1,$1+$1,$2,$3,$4,$5,0*
20,1,$1+$1,$4,$5,$6,$7,0*
20,1,$1+$1,$6,$7,$8,$9,0*
20,1,$1+$1,$8,$9,$2,$3,0*%
%AMRotRect*
0 Rectangle, with rotation*
0 The origin of the aperture is its center*
0 $1 length*
0 $2 width*
0 $3 Rotation angle, in degrees counterclockwise*
0 Add horizontal line*
21,1,$1,$2,0,0,$3*%
G04 Aperture macros list end*
%ADD10C,3.987800*%
%ADD11C,1.750000*%
%ADD12C,2.300000*%
%ADD13R,1.700000X1.700000*%
%ADD14C,0.500000*%
%ADD15R,0.900000X1.700000*%
%ADD16RoundRect,0.100000X-0.100000X0.130000X-0.100000X-0.130000X0.100000X-0.130000X0.100000X0.130000X0*%
%ADD17RotRect,1.150000X1.000000X45.000000*%
%ADD18RoundRect,0.100000X0.021213X0.162635X-0.162635X-0.021213X-0.021213X-0.162635X0.162635X0.021213X0*%
%ADD19RoundRect,0.100000X0.100000X-0.130000X0.100000X0.130000X-0.100000X0.130000X-0.100000X-0.130000X0*%
%ADD20RoundRect,0.100000X-0.021213X-0.162635X0.162635X0.021213X0.021213X0.162635X-0.162635X-0.021213X0*%
%ADD21RoundRect,0.150000X-0.587500X-0.150000X0.587500X-0.150000X0.587500X0.150000X-0.587500X0.150000X0*%
%ADD22RoundRect,0.135000X-0.135000X-0.185000X0.135000X-0.185000X0.135000X0.185000X-0.135000X0.185000X0*%
%ADD23RoundRect,0.125000X-0.250000X-0.475000X0.250000X-0.475000X0.250000X0.475000X-0.250000X0.475000X0*%
%ADD24RoundRect,0.100000X-0.250000X-0.400000X0.250000X-0.400000X0.250000X0.400000X-0.250000X0.400000X0*%
%ADD25C,0.650000*%
%ADD26R,0.600000X1.450000*%
%ADD27R,0.300000X1.450000*%
%ADD28O,1.000000X1.600000*%
%ADD29O,1.000000X2.100000*%
%ADD30RoundRect,0.100000X0.162635X-0.021213X-0.021213X0.162635X-0.162635X0.021213X0.021213X-0.162635X0*%
%ADD31R,0.900000X1.200000*%
%ADD32RoundRect,0.150000X0.150000X-0.650000X0.150000X0.650000X-0.150000X0.650000X-0.150000X-0.650000X0*%
%ADD33RoundRect,0.006000X0.359210X-0.226274X-0.226274X0.359210X-0.359210X0.226274X0.226274X-0.359210X0*%
%ADD34RoundRect,0.020000X0.339411X0.226274X0.226274X0.339411X-0.339411X-0.226274X-0.226274X-0.339411X0*%
%ADD35RotRect,3.100000X3.100000X135.000000*%
%ADD36RoundRect,0.250000X0.375000X0.625000X-0.375000X0.625000X-0.375000X-0.625000X0.375000X-0.625000X0*%
%ADD37RoundRect,0.100000X-0.130000X-0.100000X0.130000X-0.100000X0.130000X0.100000X-0.130000X0.100000X0*%
%ADD38RoundRect,0.150000X0.150000X-0.475000X0.150000X0.475000X-0.150000X0.475000X-0.150000X-0.475000X0*%
%ADD39RoundRect,0.100000X0.130000X0.100000X-0.130000X0.100000X-0.130000X-0.100000X0.130000X-0.100000X0*%
%ADD40RoundRect,0.140000X0.021213X-0.219203X0.219203X-0.021213X-0.021213X0.219203X-0.219203X0.021213X0*%
G04 APERTURE END LIST*
D10*
%TO.C,SW2*%
X89693750Y-68262500D03*
D11*
X84613750Y-68262500D03*
X94773750Y-68262500D03*
D12*
X85883750Y-65722500D03*
X92233750Y-63182500D03*
%TD*%
D10*
%TO.C,SW12*%
X89693750Y-106362500D03*
D11*
X94773750Y-106362500D03*
X84613750Y-106362500D03*
D12*
X85883750Y-103822500D03*
X92233750Y-101282500D03*
%TD*%
D11*
%TO.C,SW5*%
X141763750Y-68262500D03*
D10*
X146843750Y-68262500D03*
D11*
X151923750Y-68262500D03*
D12*
X143033750Y-65722500D03*
X149383750Y-63182500D03*
%TD*%
D11*
%TO.C,SW9*%
X122713750Y-87312500D03*
X132873750Y-87312500D03*
D10*
X127793750Y-87312500D03*
D12*
X123983750Y-84772500D03*
X130333750Y-82232500D03*
%TD*%
D11*
%TO.C,SW14*%
X122713750Y-106362500D03*
X132873750Y-106362500D03*
D10*
X127793750Y-106362500D03*
D12*
X123983750Y-103822500D03*
X130333750Y-101282500D03*
%TD*%
D13*
%TO.C,J1*%
X136525000Y-93662500D03*
X136525000Y-91122500D03*
X136525000Y-88582500D03*
X136525000Y-86042500D03*
X136525000Y-83502500D03*
X136525000Y-80962500D03*
%TD*%
D11*
%TO.C,SW15*%
X151923750Y-106362500D03*
D10*
X146843750Y-106362500D03*
D11*
X141763750Y-106362500D03*
D12*
X143033750Y-103822500D03*
X149383750Y-101282500D03*
%TD*%
D11*
%TO.C,SW7*%
X94773750Y-87312500D03*
X84613750Y-87312500D03*
D10*
X89693750Y-87312500D03*
D12*
X85883750Y-84772500D03*
X92233750Y-82232500D03*
%TD*%
D11*
%TO.C,SW10*%
X151923750Y-87312500D03*
D10*
X146843750Y-87312500D03*
D11*
X141763750Y-87312500D03*
D12*
X143033750Y-84772500D03*
X149383750Y-82232500D03*
%TD*%
D10*
%TO.C,SW11*%
X70643750Y-106362500D03*
D11*
X65563750Y-106362500D03*
X75723750Y-106362500D03*
D12*
X66833750Y-103822500D03*
X73183750Y-101282500D03*
%TD*%
D11*
%TO.C,SW3*%
X103663750Y-68262500D03*
D10*
X108743750Y-68262500D03*
D11*
X113823750Y-68262500D03*
D12*
X104933750Y-65722500D03*
X111283750Y-63182500D03*
%TD*%
D11*
%TO.C,SW1*%
X65563750Y-68262500D03*
X75723750Y-68262500D03*
D10*
X70643750Y-68262500D03*
D12*
X66833750Y-65722500D03*
X73183750Y-63182500D03*
%TD*%
D10*
%TO.C,SW8*%
X108743750Y-87312500D03*
D11*
X103663750Y-87312500D03*
X113823750Y-87312500D03*
D12*
X104933750Y-84772500D03*
X111283750Y-82232500D03*
%TD*%
D10*
%TO.C,SW6*%
X70643750Y-87312500D03*
D11*
X75723750Y-87312500D03*
X65563750Y-87312500D03*
D12*
X66833750Y-84772500D03*
X73183750Y-82232500D03*
%TD*%
D11*
%TO.C,SW13*%
X113823750Y-106362500D03*
D10*
X108743750Y-106362500D03*
D11*
X103663750Y-106362500D03*
D12*
X104933750Y-103822500D03*
X111283750Y-101282500D03*
%TD*%
D14*
%TO.C,REF\u002A\u002A*%
X126923750Y-73968750D03*
X129403750Y-73918750D03*
X126183750Y-73968750D03*
X128663750Y-73918750D03*
X130143750Y-73918750D03*
X125443750Y-73968750D03*
%TD*%
D13*
%TO.C,J5*%
X80962500Y-80962500D03*
X80962500Y-83502500D03*
X80962500Y-86042500D03*
X80962500Y-88582500D03*
X80962500Y-91122500D03*
X80962500Y-93662500D03*
%TD*%
D15*
%TO.C,SWR1*%
X82437500Y-76200000D03*
X85837500Y-76200000D03*
%TD*%
D16*
%TO.C,R8*%
X130175000Y-75880000D03*
X130175000Y-76520000D03*
%TD*%
D17*
%TO.C,Y1*%
X91755057Y-89817494D03*
X92992494Y-88580057D03*
X93982443Y-89570006D03*
X92745006Y-90807443D03*
%TD*%
D18*
%TO.C,C8*%
X95026274Y-84173726D03*
X94573726Y-84626274D03*
%TD*%
D19*
%TO.C,R3*%
X87312500Y-76520000D03*
X87312500Y-75880000D03*
%TD*%
D20*
%TO.C,C5*%
X102573726Y-75632524D03*
X103026274Y-75179976D03*
%TD*%
%TO.C,R4*%
X104573726Y-75026274D03*
X105026274Y-74573726D03*
%TD*%
D21*
%TO.C,U2*%
X110556434Y-78068198D03*
X110556434Y-76168198D03*
X112431434Y-77118198D03*
%TD*%
D22*
%TO.C,R7*%
X129269076Y-77761833D03*
X130289076Y-77761833D03*
%TD*%
D20*
%TO.C,R6*%
X92642476Y-86745024D03*
X93095024Y-86292476D03*
%TD*%
D13*
%TO.C,J2*%
X82068750Y-96043750D03*
X84608750Y-96043750D03*
X87148750Y-96043750D03*
X89688750Y-96043750D03*
X92228750Y-96043750D03*
X94768750Y-96043750D03*
X97308750Y-96043750D03*
X99848750Y-96043750D03*
X102388750Y-96043750D03*
X104928750Y-96043750D03*
X107468750Y-96043750D03*
X110008750Y-96043750D03*
X112548750Y-96043750D03*
X115088750Y-96043750D03*
X117628750Y-96043750D03*
X120168750Y-96043750D03*
X122708750Y-96043750D03*
X125248750Y-96043750D03*
X127788750Y-96043750D03*
X130328750Y-96043750D03*
X132868750Y-96043750D03*
X135408750Y-96043750D03*
%TD*%
D23*
%TO.C,EZ1*%
X117012500Y-78362500D03*
D24*
X121762500Y-74362500D03*
D23*
X118212500Y-78362500D03*
X119412500Y-78362500D03*
D24*
X115862500Y-74362500D03*
D23*
X120612500Y-78362500D03*
%TD*%
D19*
%TO.C,C16*%
X122233397Y-81813692D03*
X122233397Y-81173692D03*
%TD*%
D25*
%TO.C,J3*%
X124903750Y-70068750D03*
X130683750Y-70068750D03*
D26*
X124543750Y-71513750D03*
X125343750Y-71513750D03*
D27*
X126543750Y-71513750D03*
X127543750Y-71513750D03*
X128043750Y-71513750D03*
X129043750Y-71513750D03*
D26*
X130243750Y-71513750D03*
X131043750Y-71513750D03*
X131043750Y-71513750D03*
X130243750Y-71513750D03*
D27*
X129543750Y-71513750D03*
X128543750Y-71513750D03*
X127043750Y-71513750D03*
X126043750Y-71513750D03*
D26*
X125343750Y-71513750D03*
X124543750Y-71513750D03*
D28*
X123473750Y-66418750D03*
D29*
X123473750Y-70598750D03*
D28*
X132113750Y-66418750D03*
D29*
X132113750Y-70598750D03*
%TD*%
D30*
%TO.C,C6*%
X91507524Y-91507524D03*
X91054976Y-91054976D03*
%TD*%
D31*
%TO.C,D1*%
X100868750Y-90487500D03*
X97568750Y-90487500D03*
%TD*%
%TO.C,D2*%
X110393750Y-90487500D03*
X107093750Y-90487500D03*
%TD*%
D16*
%TO.C,C2*%
X109112684Y-76798198D03*
X109112684Y-77438198D03*
%TD*%
D31*
%TO.C,D3*%
X129443750Y-90487500D03*
X126143750Y-90487500D03*
%TD*%
D32*
%TO.C,U4*%
X120779126Y-88728552D03*
X119509126Y-88728552D03*
X118239126Y-88728552D03*
X116969126Y-88728552D03*
X116969126Y-81528552D03*
X118239126Y-81528552D03*
X119509126Y-81528552D03*
X120779126Y-81528552D03*
%TD*%
D33*
%TO.C,U1*%
X104279889Y-81552934D03*
X103997047Y-81835777D03*
X103714204Y-82118620D03*
X103431361Y-82401462D03*
X103148519Y-82684305D03*
X102865676Y-82967148D03*
X102582833Y-83249990D03*
X102299990Y-83532833D03*
X102017148Y-83815676D03*
X101734305Y-84098519D03*
X101451462Y-84381361D03*
X101168620Y-84664204D03*
X100885777Y-84947047D03*
X100602934Y-85229889D03*
D34*
X99422066Y-85229889D03*
X99139223Y-84947047D03*
X98856380Y-84664204D03*
X98573538Y-84381361D03*
X98290695Y-84098519D03*
X98007852Y-83815676D03*
X97725010Y-83532833D03*
X97442167Y-83249990D03*
X97159324Y-82967148D03*
X96876481Y-82684305D03*
X96593639Y-82401462D03*
X96310796Y-82118620D03*
X96027953Y-81835777D03*
X95745111Y-81552934D03*
D33*
X95745111Y-80372066D03*
X96027953Y-80089223D03*
X96310796Y-79806380D03*
X96593639Y-79523538D03*
X96876481Y-79240695D03*
X97159324Y-78957852D03*
X97442167Y-78675010D03*
X97725010Y-78392167D03*
X98007852Y-78109324D03*
X98290695Y-77826481D03*
X98573538Y-77543639D03*
X98856380Y-77260796D03*
X99139223Y-76977953D03*
X99422066Y-76695111D03*
D34*
X100602934Y-76695111D03*
X100885777Y-76977953D03*
X101168620Y-77260796D03*
X101451462Y-77543639D03*
X101734305Y-77826481D03*
X102017148Y-78109324D03*
X102299990Y-78392167D03*
X102582833Y-78675010D03*
X102865676Y-78957852D03*
X103148519Y-79240695D03*
X103431361Y-79523538D03*
X103714204Y-79806380D03*
X103997047Y-80089223D03*
X104279889Y-80372066D03*
D35*
X100012500Y-80962500D03*
%TD*%
D30*
%TO.C,C10*%
X95426274Y-78026274D03*
X94973726Y-77573726D03*
%TD*%
D20*
%TO.C,C3*%
X101973726Y-75026274D03*
X102426274Y-74573726D03*
%TD*%
D36*
%TO.C,F1*%
X127212500Y-76562500D03*
X124412500Y-76562500D03*
%TD*%
D15*
%TO.C,SWR2*%
X131650000Y-76200000D03*
X135050000Y-76200000D03*
%TD*%
D16*
%TO.C,C1*%
X113875184Y-76798198D03*
X113875184Y-77438198D03*
%TD*%
D37*
%TO.C,C7*%
X105080000Y-77400000D03*
X105720000Y-77400000D03*
%TD*%
D18*
%TO.C,C15*%
X94682524Y-91054976D03*
X94229976Y-91507524D03*
%TD*%
D20*
%TO.C,R5*%
X105386226Y-75588774D03*
X105838774Y-75136226D03*
%TD*%
D37*
%TO.C,R1*%
X125886250Y-73125000D03*
X126526250Y-73125000D03*
%TD*%
D20*
%TO.C,C12*%
X105973726Y-81626274D03*
X106426274Y-81173726D03*
%TD*%
D38*
%TO.C,U3*%
X126362500Y-81293198D03*
X125412500Y-81293198D03*
X124462500Y-81293198D03*
X124462500Y-78943198D03*
X125412500Y-78943198D03*
X126362500Y-78943198D03*
%TD*%
D39*
%TO.C,R2*%
X129701250Y-73125000D03*
X129061250Y-73125000D03*
%TD*%
D40*
%TO.C,C4*%
X103660589Y-77057609D03*
X104339411Y-76378787D03*
%TD*%
D18*
%TO.C,C9*%
X95626274Y-84773726D03*
X95173726Y-85226274D03*
%TD*%
D30*
%TO.C,C11*%
X98238774Y-75026274D03*
X97786226Y-74573726D03*
%TD*%
M02*
