%TF.GenerationSoftware,KiCad,Pcbnew,(5.99.0-12112-g0cd8a4d846)*%
%TF.CreationDate,2021-10-21T21:26:21-04:00*%
%TF.ProjectId,Piggyback_1_0_PCB,50696767-7962-4616-936b-5f315f305f50,rev?*%
%TF.SameCoordinates,Original*%
%TF.FileFunction,Copper,L2,Bot*%
%TF.FilePolarity,Positive*%
%FSLAX46Y46*%
G04 Gerber Fmt 4.6, Leading zero omitted, Abs format (unit mm)*
G04 Created by KiCad (PCBNEW (5.99.0-12112-g0cd8a4d846)) date 2021-10-21 21:26:21*
%MOMM*%
%LPD*%
G01*
G04 APERTURE LIST*
%TA.AperFunction,ComponentPad*%
%ADD10O,1.700000X1.700000*%
%TD*%
%TA.AperFunction,ComponentPad*%
%ADD11C,1.700000*%
%TD*%
%TA.AperFunction,ComponentPad*%
%ADD12O,3.000000X1.700000*%
%TD*%
%TA.AperFunction,ComponentPad*%
%ADD13O,1.700000X3.000000*%
%TD*%
%TA.AperFunction,ViaPad*%
%ADD14C,0.500000*%
%TD*%
%TA.AperFunction,Conductor*%
%ADD15C,0.200000*%
%TD*%
G04 APERTURE END LIST*
D10*
%TO.P,J12,4,Pin_4*%
%TO.N,D5*%
X60473750Y-88106250D03*
%TO.P,J12,3,Pin_3*%
%TO.N,D7*%
X63013750Y-88106250D03*
%TO.P,J12,2,Pin_2*%
%TO.N,D6*%
X65553750Y-88106250D03*
D11*
%TO.P,J12,1,Pin_1*%
%TO.N,D4*%
X68093750Y-88106250D03*
%TD*%
D10*
%TO.P,J7,4,Pin_4*%
%TO.N,F4*%
X92868750Y-69998750D03*
%TO.P,J7,3,Pin_3*%
%TO.N,F1*%
X92868750Y-72538750D03*
%TO.P,J7,2,Pin_2*%
%TO.N,F0*%
X92868750Y-75078750D03*
D11*
%TO.P,J7,1,Pin_1*%
%TO.N,E6*%
X92868750Y-77618750D03*
%TD*%
D10*
%TO.P,J5,4,Pin_4*%
%TO.N,AREF*%
X97631250Y-77638750D03*
%TO.P,J5,3,Pin_3*%
%TO.N,F7*%
X97631250Y-75098750D03*
%TO.P,J5,2,Pin_2*%
%TO.N,F6*%
X97631250Y-72558750D03*
D11*
%TO.P,J5,1,Pin_1*%
%TO.N,F5*%
X97631250Y-70018750D03*
%TD*%
D10*
%TO.P,J3,4,Pin_4*%
%TO.N,B3*%
X78581250Y-77638750D03*
%TO.P,J3,3,Pin_3*%
%TO.N,B7*%
X78581250Y-75098750D03*
%TO.P,J3,2,Pin_2*%
%TO.N,B2*%
X78581250Y-72558750D03*
D11*
%TO.P,J3,1,Pin_1*%
%TO.N,B1*%
X78581250Y-70018750D03*
%TD*%
D12*
%TO.P,J4,8,Pin_8*%
%TO.N,AREF*%
X97415000Y-77638750D03*
%TO.P,J4,7,Pin_7*%
%TO.N,E6*%
X93075000Y-77638750D03*
%TO.P,J4,6,Pin_6*%
%TO.N,F7*%
X97415000Y-75098750D03*
%TO.P,J4,5,Pin_5*%
%TO.N,F0*%
X93075000Y-75098750D03*
%TO.P,J4,4,Pin_4*%
%TO.N,F6*%
X97415000Y-72558750D03*
%TO.P,J4,3,Pin_3*%
%TO.N,F1*%
X93075000Y-72558750D03*
%TO.P,J4,2,Pin_2*%
%TO.N,F5*%
X97415000Y-70018750D03*
%TO.P,J4,1,Pin_1*%
%TO.N,F4*%
X93075000Y-70018750D03*
%TD*%
D10*
%TO.P,J9,4,Pin_4*%
%TO.N,D+*%
X110976250Y-83343750D03*
%TO.P,J9,3,Pin_3*%
%TO.N,GND*%
X108436250Y-83343750D03*
%TO.P,J9,2,Pin_2*%
X105896250Y-83343750D03*
D11*
%TO.P,J9,1,Pin_1*%
%TO.N,C6*%
X103356250Y-83343750D03*
%TD*%
D10*
%TO.P,J8,4,Pin_4*%
%TO.N,D0*%
X68113750Y-83343750D03*
%TO.P,J8,3,Pin_3*%
%TO.N,D3*%
X65573750Y-83343750D03*
%TO.P,J8,2,Pin_2*%
%TO.N,D2*%
X63033750Y-83343750D03*
D11*
%TO.P,J8,1,Pin_1*%
%TO.N,D1*%
X60493750Y-83343750D03*
%TD*%
D10*
%TO.P,J6,4,Pin_4*%
%TO.N,B0*%
X73818750Y-69998750D03*
%TO.P,J6,3,Pin_3*%
%TO.N,B6*%
X73818750Y-72538750D03*
%TO.P,J6,2,Pin_2*%
%TO.N,B5*%
X73818750Y-75078750D03*
D11*
%TO.P,J6,1,Pin_1*%
%TO.N,B4*%
X73818750Y-77618750D03*
%TD*%
D13*
%TO.P,J10,8,Pin_8*%
%TO.N,D0*%
X68113750Y-83560000D03*
%TO.P,J10,7,Pin_7*%
%TO.N,D4*%
X68113750Y-87900000D03*
%TO.P,J10,6,Pin_6*%
%TO.N,D3*%
X65573750Y-83560000D03*
%TO.P,J10,5,Pin_5*%
%TO.N,D6*%
X65573750Y-87900000D03*
%TO.P,J10,4,Pin_4*%
%TO.N,D2*%
X63033750Y-83560000D03*
%TO.P,J10,3,Pin_3*%
%TO.N,D7*%
X63033750Y-87900000D03*
%TO.P,J10,2,Pin_2*%
%TO.N,D1*%
X60493750Y-83560000D03*
%TO.P,J10,1,Pin_1*%
%TO.N,D5*%
X60493750Y-87900000D03*
%TD*%
D10*
%TO.P,J13,4,Pin_4*%
%TO.N,C7*%
X103336250Y-88106250D03*
%TO.P,J13,3,Pin_3*%
%TO.N,VCC*%
X105876250Y-88106250D03*
%TO.P,J13,2,Pin_2*%
X108416250Y-88106250D03*
D11*
%TO.P,J13,1,Pin_1*%
%TO.N,D-*%
X110956250Y-88106250D03*
%TD*%
D12*
%TO.P,J2,8,Pin_8*%
%TO.N,B3*%
X78365000Y-77638750D03*
%TO.P,J2,7,Pin_7*%
%TO.N,B4*%
X74025000Y-77638750D03*
%TO.P,J2,6,Pin_6*%
%TO.N,B7*%
X78365000Y-75098750D03*
%TO.P,J2,5,Pin_5*%
%TO.N,B5*%
X74025000Y-75098750D03*
%TO.P,J2,4,Pin_4*%
%TO.N,B2*%
X78365000Y-72558750D03*
%TO.P,J2,3,Pin_3*%
%TO.N,B6*%
X74025000Y-72558750D03*
%TO.P,J2,2,Pin_2*%
%TO.N,B1*%
X78365000Y-70018750D03*
%TO.P,J2,1,Pin_1*%
%TO.N,B0*%
X74025000Y-70018750D03*
%TD*%
D13*
%TO.P,J11,8,Pin_8*%
%TO.N,D+*%
X110976250Y-83560000D03*
%TO.P,J11,7,Pin_7*%
%TO.N,D-*%
X110976250Y-87900000D03*
%TO.P,J11,6,Pin_6*%
%TO.N,GND*%
X108436250Y-83560000D03*
%TO.P,J11,5,Pin_5*%
%TO.N,VCC*%
X108436250Y-87900000D03*
%TO.P,J11,4,Pin_4*%
%TO.N,GND*%
X105896250Y-83560000D03*
%TO.P,J11,3,Pin_3*%
%TO.N,VCC*%
X105896250Y-87900000D03*
%TO.P,J11,2,Pin_2*%
%TO.N,C6*%
X103356250Y-83560000D03*
%TO.P,J11,1,Pin_1*%
%TO.N,C7*%
X103356250Y-87900000D03*
%TD*%
D14*
%TO.N,RESET*%
X73756903Y-83287541D03*
%TO.N,GND*%
X74167597Y-82737404D03*
X76725000Y-81598750D03*
X95445000Y-80718750D03*
X72956250Y-80830000D03*
X97956250Y-82130000D03*
X95159732Y-83452455D03*
X70385707Y-82811829D03*
X92545000Y-79618750D03*
X97856250Y-86430000D03*
X101069063Y-86523749D03*
X83975000Y-83343750D03*
X84675000Y-78943750D03*
X90556250Y-84830000D03*
X93851082Y-86106082D03*
X77695000Y-82718750D03*
X100956250Y-84530000D03*
X85276330Y-82009919D03*
%TO.N,+5V*%
X93845000Y-86818750D03*
X77795000Y-87543750D03*
X79775000Y-80443750D03*
X92545000Y-86818750D03*
X87745000Y-86818750D03*
X83275000Y-78943750D03*
X96045000Y-83318750D03*
X70595000Y-84618750D03*
X88207500Y-86256250D03*
X79875000Y-86843750D03*
X88145000Y-79730000D03*
X81175000Y-87743750D03*
X77795000Y-82018750D03*
X86775000Y-78943750D03*
%TO.N,RESET*%
X78395000Y-81718750D03*
%TO.N,D++*%
X85375000Y-78943750D03*
X90575000Y-84143750D03*
%TO.N,D--*%
X86075000Y-78943750D03*
X90975000Y-83543750D03*
%TO.N,UCAP*%
X90275000Y-80443750D03*
X83975000Y-78943750D03*
%TO.N,AREF*%
X88945000Y-81118750D03*
X94045000Y-84018750D03*
%TO.N,F5*%
X93745000Y-81518750D03*
%TO.N,F6*%
X93745000Y-82218750D03*
%TO.N,F7*%
X93745000Y-82918750D03*
%TO.N,C7*%
X86775000Y-87743750D03*
%TO.N,C6*%
X86075000Y-87743750D03*
%TO.N,B6*%
X75295000Y-79718750D03*
X85375000Y-87743750D03*
%TO.N,B5*%
X74495000Y-79818750D03*
X84675000Y-87743750D03*
%TO.N,B4*%
X83975000Y-87743750D03*
%TO.N,D7*%
X83275000Y-87743750D03*
%TO.N,D6*%
X82575000Y-87743750D03*
%TO.N,D4*%
X81875000Y-87743750D03*
%TO.N,D5*%
X77593750Y-85630000D03*
%TO.N,D3*%
X73093750Y-85130000D03*
X78393750Y-85330000D03*
%TO.N,D2*%
X77893750Y-84630000D03*
X72293750Y-85130000D03*
%TO.N,D1*%
X78793750Y-84330000D03*
X71493750Y-85130000D03*
%TO.N,D0*%
X79727691Y-83842783D03*
%TO.N,B0*%
X82575000Y-78943750D03*
%TO.N,B2*%
X81175000Y-78943750D03*
%TO.N,B1*%
X81875000Y-78943750D03*
%TD*%
D15*
%TO.N,RESET*%
X73793750Y-83324388D02*
X73756903Y-83287541D01*
X73793750Y-83330000D02*
X73793750Y-83324388D01*
%TO.N,GND*%
X82275000Y-86043750D02*
X83375000Y-87143750D01*
X84675000Y-78943750D02*
X89975000Y-84243750D01*
X102667500Y-85718750D02*
X102145000Y-85718750D01*
X94345000Y-79618750D02*
X95445000Y-80718750D01*
X93851082Y-86106082D02*
X95159732Y-84797432D01*
X75883750Y-83330000D02*
X76495000Y-82718750D01*
X97856250Y-86430000D02*
X98556250Y-85730000D01*
X95159732Y-84797432D02*
X95159732Y-83452455D01*
X74275000Y-81543750D02*
X76075000Y-81543750D01*
X76075000Y-81543750D02*
X76075000Y-81634151D01*
X74893750Y-83330000D02*
X75883750Y-83330000D01*
X82275000Y-86043750D02*
X81275000Y-85043750D01*
X76495000Y-82718750D02*
X77695000Y-82718750D01*
X92545000Y-79618750D02*
X94345000Y-79618750D01*
X102145000Y-85718750D02*
X100956250Y-84530000D01*
X76075000Y-81634151D02*
X76051004Y-81658147D01*
X98556250Y-85730000D02*
X102656250Y-85730000D01*
X89975000Y-84243750D02*
X89975000Y-84248750D01*
X89975000Y-84248750D02*
X90556250Y-84830000D01*
X76075000Y-81543750D02*
X77375000Y-81543750D01*
X107177500Y-85718750D02*
X102667500Y-85718750D01*
X102656250Y-85730000D02*
X102667500Y-85718750D01*
%TO.N,+5V*%
X77795000Y-82018750D02*
X77600000Y-82018750D01*
X86775000Y-78948750D02*
X86775000Y-78943750D01*
X80275000Y-86843750D02*
X81175000Y-87743750D01*
X88207500Y-86256250D02*
X82395000Y-80443750D01*
X72970000Y-82243750D02*
X70595000Y-84618750D01*
X90945000Y-79318750D02*
X92545000Y-80918750D01*
X88145000Y-79730000D02*
X87556250Y-79730000D01*
X96045000Y-84618750D02*
X96045000Y-83318750D01*
X79175000Y-87543750D02*
X79875000Y-86843750D01*
X77375000Y-82243750D02*
X72970000Y-82243750D01*
X79875000Y-86843750D02*
X80275000Y-86843750D01*
X93845000Y-86818750D02*
X96045000Y-84618750D01*
X77600000Y-82018750D02*
X77375000Y-82243750D01*
X88145000Y-79730000D02*
X88145000Y-79718750D01*
X88745000Y-85718750D02*
X88207500Y-86256250D01*
X88145000Y-79718750D02*
X88545000Y-79318750D01*
X94645000Y-84618750D02*
X93545000Y-85718750D01*
X92545000Y-80918750D02*
X92545000Y-82718750D01*
X93285322Y-83459072D02*
X94385322Y-83459072D01*
X92545000Y-86818750D02*
X87745000Y-86818750D01*
X93545000Y-85718750D02*
X88745000Y-85718750D01*
X79775000Y-80443750D02*
X82395000Y-80443750D01*
X88545000Y-79318750D02*
X90945000Y-79318750D01*
X92545000Y-82718750D02*
X93285322Y-83459072D01*
X77795000Y-87543750D02*
X79175000Y-87543750D01*
X87556250Y-79730000D02*
X86775000Y-78948750D01*
X94385322Y-83459072D02*
X94645000Y-83718750D01*
X81775000Y-80443750D02*
X83275000Y-78943750D01*
X94645000Y-83718750D02*
X94645000Y-84618750D01*
%TO.N,VCC*%
X105896250Y-87000000D02*
X108436250Y-87000000D01*
%TO.N,RESET*%
X74295000Y-83818750D02*
X76095000Y-83818750D01*
X78495000Y-81818750D02*
X78395000Y-81718750D01*
X76095000Y-83818750D02*
X76695000Y-83218750D01*
X78495000Y-82818750D02*
X78495000Y-81818750D01*
X78095000Y-83218750D02*
X78495000Y-82818750D01*
X76695000Y-83218750D02*
X78095000Y-83218750D01*
X73895000Y-83418750D02*
X74295000Y-83818750D01*
X73882500Y-83418750D02*
X73793750Y-83330000D01*
X73895000Y-83418750D02*
X73882500Y-83418750D01*
%TO.N,D++*%
X90575000Y-84143750D02*
X85375000Y-78943750D01*
%TO.N,D--*%
X90675000Y-83543750D02*
X86075000Y-78943750D01*
X90975000Y-83543750D02*
X90675000Y-83543750D01*
%TO.N,UCAP*%
X91256250Y-85330000D02*
X91575000Y-85011250D01*
X91575000Y-81743750D02*
X90275000Y-80443750D01*
X91575000Y-85011250D02*
X91575000Y-81743750D01*
X89775000Y-84743750D02*
X89775000Y-85048750D01*
X83975000Y-78943750D02*
X89775000Y-84743750D01*
X90056250Y-85330000D02*
X91256250Y-85330000D01*
X89775000Y-85048750D02*
X90056250Y-85330000D01*
%TO.N,AREF*%
X92945000Y-84018750D02*
X94045000Y-84018750D01*
X92045000Y-83118750D02*
X92945000Y-84018750D01*
X89645000Y-80118750D02*
X89945000Y-79818750D01*
X92045000Y-81318750D02*
X92045000Y-83118750D01*
X88945000Y-81118750D02*
X89645000Y-80418750D01*
X89945000Y-79818750D02*
X90545000Y-79818750D01*
X89645000Y-80418750D02*
X89645000Y-80118750D01*
X90545000Y-79818750D02*
X92045000Y-81318750D01*
%TO.N,F5*%
X96445000Y-80318750D02*
X94845000Y-78718750D01*
X93745000Y-81518750D02*
X95945000Y-81518750D01*
X94845000Y-78718750D02*
X94845000Y-71688750D01*
X95945000Y-81518750D02*
X96445000Y-81018750D01*
X94845000Y-71688750D02*
X96515000Y-70018750D01*
X96445000Y-81018750D02*
X96445000Y-80318750D01*
%TO.N,F6*%
X96845000Y-81218750D02*
X96845000Y-80118750D01*
X95245000Y-73828750D02*
X96515000Y-72558750D01*
X95245000Y-78518750D02*
X95245000Y-73828750D01*
X95845000Y-82218750D02*
X96845000Y-81218750D01*
X93745000Y-82218750D02*
X95845000Y-82218750D01*
X96845000Y-80118750D02*
X95245000Y-78518750D01*
%TO.N,F7*%
X97245000Y-81418750D02*
X97245000Y-79918750D01*
X95745000Y-82918750D02*
X97245000Y-81418750D01*
X95645000Y-75968750D02*
X96515000Y-75098750D01*
X93745000Y-82918750D02*
X95745000Y-82918750D01*
X97245000Y-79918750D02*
X95645000Y-78318750D01*
X95645000Y-78318750D02*
X95645000Y-75968750D01*
%TO.N,C7*%
X86775000Y-87743750D02*
X86800000Y-87718750D01*
X102637500Y-87718750D02*
X103356250Y-87000000D01*
X86800000Y-87718750D02*
X102637500Y-87718750D01*
%TO.N,C6*%
X102386250Y-84460000D02*
X103356250Y-84460000D01*
X100645000Y-82718750D02*
X102386250Y-84460000D01*
X87145000Y-87218750D02*
X87245000Y-87318750D01*
X86600000Y-87218750D02*
X87145000Y-87218750D01*
X86075000Y-87743750D02*
X86600000Y-87218750D01*
X87245000Y-87318750D02*
X94345000Y-87318750D01*
X94345000Y-87318750D02*
X98945000Y-82718750D01*
X98945000Y-82718750D02*
X100645000Y-82718750D01*
%TO.N,B6*%
X85375000Y-86843750D02*
X85375000Y-87743750D01*
X78850000Y-80318750D02*
X75995000Y-80318750D01*
X75395000Y-79718750D02*
X75295000Y-79718750D01*
X78850000Y-80318750D02*
X85375000Y-86843750D01*
X75995000Y-80318750D02*
X75395000Y-79718750D01*
%TO.N,B5*%
X80575000Y-82843750D02*
X80575000Y-82598750D01*
X84675000Y-86943750D02*
X80575000Y-82843750D01*
X84675000Y-87743750D02*
X84675000Y-86943750D01*
X75395000Y-80718750D02*
X74495000Y-79818750D01*
X80575000Y-82598750D02*
X78695000Y-80718750D01*
X78695000Y-80718750D02*
X75395000Y-80718750D01*
%TO.N,B4*%
X73795000Y-80318750D02*
X74595000Y-81118750D01*
X83975000Y-87043750D02*
X83975000Y-87743750D01*
X80095000Y-83163750D02*
X83975000Y-87043750D01*
X74595000Y-81118750D02*
X78495000Y-81118750D01*
X74925000Y-78288750D02*
X73795000Y-79418750D01*
X80095000Y-82718750D02*
X80095000Y-83163750D01*
X78495000Y-81118750D02*
X80095000Y-82718750D01*
X73795000Y-79418750D02*
X73795000Y-80318750D01*
%TO.N,D7*%
X69550000Y-86218750D02*
X78500000Y-86218750D01*
X63033750Y-87000000D02*
X64303750Y-85730000D01*
X64303750Y-85730000D02*
X69061250Y-85730000D01*
X79175000Y-85543750D02*
X81075000Y-85543750D01*
X69061250Y-85730000D02*
X69550000Y-86218750D01*
X81075000Y-85543750D02*
X83275000Y-87743750D01*
X78500000Y-86218750D02*
X79175000Y-85543750D01*
%TO.N,D6*%
X66448750Y-86125000D02*
X65573750Y-87000000D01*
X78700000Y-86618750D02*
X69387500Y-86618750D01*
X80775000Y-85943750D02*
X79375000Y-85943750D01*
X82575000Y-87743750D02*
X80775000Y-85943750D01*
X69387500Y-86618750D02*
X68893750Y-86125000D01*
X68893750Y-86125000D02*
X66448750Y-86125000D01*
X79375000Y-85943750D02*
X78700000Y-86618750D01*
%TO.N,D4*%
X79575000Y-86343750D02*
X80475000Y-86343750D01*
X68132500Y-87018750D02*
X78900000Y-87018750D01*
X78900000Y-87018750D02*
X79575000Y-86343750D01*
X80475000Y-86343750D02*
X81875000Y-87743750D01*
%TO.N,D5*%
X62163750Y-85330000D02*
X60493750Y-87000000D01*
X77593750Y-85630000D02*
X77405000Y-85818750D01*
X69782500Y-85818750D02*
X69293750Y-85330000D01*
X69293750Y-85330000D02*
X62163750Y-85330000D01*
X77405000Y-85818750D02*
X69782500Y-85818750D01*
%TO.N,D3*%
X78182500Y-85118750D02*
X77295000Y-85118750D01*
X73382500Y-85418750D02*
X73093750Y-85130000D01*
X76995000Y-85418750D02*
X73382500Y-85418750D01*
X78393750Y-85330000D02*
X78182500Y-85118750D01*
X77295000Y-85118750D02*
X76995000Y-85418750D01*
%TO.N,D2*%
X76795000Y-85018750D02*
X73695000Y-85018750D01*
X77183750Y-84630000D02*
X76795000Y-85018750D01*
X77893750Y-84630000D02*
X77183750Y-84630000D01*
X73295000Y-84618750D02*
X72805000Y-84618750D01*
X72805000Y-84618750D02*
X72293750Y-85130000D01*
X73695000Y-85018750D02*
X73295000Y-84618750D01*
%TO.N,D1*%
X77095000Y-84118750D02*
X76595000Y-84618750D01*
X73895000Y-84618750D02*
X73495000Y-84218750D01*
X78793750Y-84330000D02*
X78582500Y-84118750D01*
X76595000Y-84618750D02*
X73895000Y-84618750D01*
X78582500Y-84118750D02*
X77095000Y-84118750D01*
X72405000Y-84218750D02*
X71493750Y-85130000D01*
X73495000Y-84218750D02*
X72405000Y-84218750D01*
%TO.N,D0*%
X76395000Y-84218750D02*
X76995000Y-83618750D01*
X69036250Y-84460000D02*
X69995000Y-85418750D01*
X73695000Y-83818750D02*
X74095000Y-84218750D01*
X79503658Y-83618750D02*
X79727691Y-83842783D01*
X76995000Y-83618750D02*
X79503658Y-83618750D01*
X70495000Y-85418750D02*
X72095000Y-83818750D01*
X72095000Y-83818750D02*
X73695000Y-83818750D01*
X68113750Y-84460000D02*
X69036250Y-84460000D01*
X74095000Y-84218750D02*
X76395000Y-84218750D01*
X69995000Y-85418750D02*
X70495000Y-85418750D01*
%TO.N,B0*%
X82575000Y-78943750D02*
X81575000Y-79943750D01*
X75795000Y-79418750D02*
X75795000Y-70888750D01*
X81575000Y-79943750D02*
X76320000Y-79943750D01*
X75795000Y-70888750D02*
X74925000Y-70018750D01*
X76320000Y-79943750D02*
X75795000Y-79418750D01*
%TO.N,B2*%
X76595000Y-73428750D02*
X77465000Y-72558750D01*
X76595000Y-78518750D02*
X76595000Y-73428750D01*
X77020000Y-78943750D02*
X76595000Y-78518750D01*
X81175000Y-78943750D02*
X77020000Y-78943750D01*
%TO.N,B1*%
X81875000Y-78943750D02*
X81300000Y-79518750D01*
X76195000Y-71288750D02*
X77465000Y-70018750D01*
X81300000Y-79518750D02*
X76795000Y-79518750D01*
X76195000Y-78918750D02*
X76195000Y-71288750D01*
X76795000Y-79518750D02*
X76195000Y-78918750D01*
%TD*%
%TA.AperFunction,Conductor*%
%TO.N,GND*%
G36*
X100494784Y-83138935D02*
G01*
X100515426Y-83155569D01*
X101342023Y-83982165D01*
X102147908Y-84788050D01*
X102167646Y-84798107D01*
X102184236Y-84808274D01*
X102202160Y-84821296D01*
X102223227Y-84828141D01*
X102241202Y-84835586D01*
X102252249Y-84841215D01*
X102252251Y-84841216D01*
X102260946Y-84845646D01*
X102282844Y-84849114D01*
X102301740Y-84853651D01*
X102322817Y-84860499D01*
X102343861Y-84860499D01*
X102410900Y-84880184D01*
X102443216Y-84910307D01*
X102494194Y-84978574D01*
X102494198Y-84978578D01*
X102497599Y-84983133D01*
X102501769Y-84986988D01*
X102501772Y-84986991D01*
X102542910Y-85025018D01*
X102652869Y-85126663D01*
X102657678Y-85129697D01*
X102657679Y-85129698D01*
X102821149Y-85232840D01*
X102831696Y-85239495D01*
X103028090Y-85317848D01*
X103033671Y-85318958D01*
X103033674Y-85318959D01*
X103097116Y-85331578D01*
X103235475Y-85359099D01*
X103241162Y-85359173D01*
X103241167Y-85359174D01*
X103441216Y-85361793D01*
X103441221Y-85361793D01*
X103446904Y-85361867D01*
X103452508Y-85360904D01*
X103452509Y-85360904D01*
X103649700Y-85327021D01*
X103649703Y-85327020D01*
X103655297Y-85326059D01*
X103853675Y-85252873D01*
X103859190Y-85249592D01*
X104030510Y-85147668D01*
X104030513Y-85147666D01*
X104035394Y-85144762D01*
X104194369Y-85005345D01*
X104197888Y-85000881D01*
X104197891Y-85000878D01*
X104268593Y-84911192D01*
X104325274Y-84839292D01*
X104403533Y-84690546D01*
X104452168Y-84640382D01*
X104520203Y-84624476D01*
X104586037Y-84647877D01*
X104626329Y-84697352D01*
X104703219Y-84868039D01*
X104708314Y-84877193D01*
X104831146Y-85059645D01*
X104837709Y-85067807D01*
X104989538Y-85226964D01*
X104997366Y-85233889D01*
X105173850Y-85365197D01*
X105182731Y-85370703D01*
X105378817Y-85470399D01*
X105388496Y-85474329D01*
X105598571Y-85539559D01*
X105608791Y-85541806D01*
X105624576Y-85543898D01*
X105638518Y-85541737D01*
X105642250Y-85528761D01*
X105642250Y-83831831D01*
X105633692Y-83802687D01*
X105633691Y-83732817D01*
X105671465Y-83674038D01*
X105735020Y-83645012D01*
X105752669Y-83643750D01*
X106036311Y-83643750D01*
X106103350Y-83663435D01*
X106149105Y-83716239D01*
X106159049Y-83785397D01*
X106157477Y-83794108D01*
X106150250Y-83827330D01*
X106150250Y-85526477D01*
X106154160Y-85539794D01*
X106164602Y-85541296D01*
X106282751Y-85516506D01*
X106292785Y-85513496D01*
X106497365Y-85432703D01*
X106506736Y-85428052D01*
X106694781Y-85313942D01*
X106703238Y-85307775D01*
X106869368Y-85163616D01*
X106876665Y-85156111D01*
X107016132Y-84986020D01*
X107022060Y-84977394D01*
X107057687Y-84914806D01*
X107107958Y-84866282D01*
X107176483Y-84852640D01*
X107241505Y-84878211D01*
X107268312Y-84906898D01*
X107371146Y-85059644D01*
X107377709Y-85067807D01*
X107529538Y-85226964D01*
X107537366Y-85233889D01*
X107713850Y-85365197D01*
X107722731Y-85370703D01*
X107918817Y-85470399D01*
X107928496Y-85474329D01*
X108138571Y-85539559D01*
X108148791Y-85541806D01*
X108164576Y-85543898D01*
X108178518Y-85541737D01*
X108182250Y-85528761D01*
X108182250Y-83831831D01*
X108173692Y-83802687D01*
X108173691Y-83732817D01*
X108211465Y-83674038D01*
X108275020Y-83645012D01*
X108292669Y-83643750D01*
X108566250Y-83643750D01*
X108633289Y-83663435D01*
X108679044Y-83716239D01*
X108690250Y-83767750D01*
X108690250Y-85526477D01*
X108694160Y-85539794D01*
X108704602Y-85541296D01*
X108822751Y-85516506D01*
X108832785Y-85513496D01*
X109037365Y-85432703D01*
X109046736Y-85428052D01*
X109234781Y-85313942D01*
X109243238Y-85307775D01*
X109409368Y-85163616D01*
X109416665Y-85156111D01*
X109556132Y-84986020D01*
X109562057Y-84977399D01*
X109670874Y-84786233D01*
X109675258Y-84776745D01*
X109702243Y-84702405D01*
X109743621Y-84646105D01*
X109808868Y-84621113D01*
X109877269Y-84635363D01*
X109930013Y-84689869D01*
X109991085Y-84813710D01*
X110117599Y-84983133D01*
X110121769Y-84986988D01*
X110121772Y-84986991D01*
X110162910Y-85025018D01*
X110272869Y-85126663D01*
X110277678Y-85129697D01*
X110277679Y-85129698D01*
X110441149Y-85232840D01*
X110451696Y-85239495D01*
X110648090Y-85317848D01*
X110653671Y-85318958D01*
X110653674Y-85318959D01*
X110717116Y-85331578D01*
X110855475Y-85359099D01*
X110861162Y-85359173D01*
X110861167Y-85359174D01*
X111061216Y-85361793D01*
X111061221Y-85361793D01*
X111066904Y-85361867D01*
X111072508Y-85360904D01*
X111072509Y-85360904D01*
X111269700Y-85327021D01*
X111269703Y-85327020D01*
X111275297Y-85326059D01*
X111372757Y-85290104D01*
X111442466Y-85285369D01*
X111503670Y-85319072D01*
X111536936Y-85380515D01*
X111531206Y-85451482D01*
X111490421Y-85556091D01*
X111468489Y-85722677D01*
X111469309Y-85730105D01*
X111469309Y-85730107D01*
X111478132Y-85810026D01*
X111486927Y-85889686D01*
X111489493Y-85896698D01*
X111489494Y-85896702D01*
X111530938Y-86009952D01*
X111535491Y-86079673D01*
X111501627Y-86140788D01*
X111440098Y-86173893D01*
X111368543Y-86167738D01*
X111304410Y-86142152D01*
X111298829Y-86141042D01*
X111298826Y-86141041D01*
X111200717Y-86121526D01*
X111097025Y-86100901D01*
X111091338Y-86100827D01*
X111091333Y-86100826D01*
X110891284Y-86098207D01*
X110891279Y-86098207D01*
X110885596Y-86098133D01*
X110879992Y-86099096D01*
X110879991Y-86099096D01*
X110682800Y-86132979D01*
X110682797Y-86132980D01*
X110677203Y-86133941D01*
X110478825Y-86207127D01*
X110473947Y-86210029D01*
X110473945Y-86210030D01*
X110301990Y-86312332D01*
X110301987Y-86312334D01*
X110297106Y-86315238D01*
X110138131Y-86454655D01*
X110134612Y-86459119D01*
X110134609Y-86459122D01*
X110117032Y-86481419D01*
X110007226Y-86620708D01*
X109908773Y-86807836D01*
X109907087Y-86813267D01*
X109907085Y-86813271D01*
X109855232Y-86980266D01*
X109846070Y-87009773D01*
X109829101Y-87153140D01*
X109801675Y-87217398D01*
X109743859Y-87256629D01*
X109674011Y-87258375D01*
X109614307Y-87222081D01*
X109583703Y-87159271D01*
X109582482Y-87149909D01*
X109572851Y-87045100D01*
X109572331Y-87039440D01*
X109514936Y-86835931D01*
X109507704Y-86821265D01*
X109477122Y-86759253D01*
X109421415Y-86646290D01*
X109294901Y-86476867D01*
X109290731Y-86473012D01*
X109290728Y-86473009D01*
X109209476Y-86397901D01*
X109139631Y-86333337D01*
X109086824Y-86300018D01*
X108965613Y-86223539D01*
X108965611Y-86223538D01*
X108960804Y-86220505D01*
X108764410Y-86142152D01*
X108758829Y-86141042D01*
X108758826Y-86141041D01*
X108660717Y-86121526D01*
X108557025Y-86100901D01*
X108551338Y-86100827D01*
X108551333Y-86100826D01*
X108351284Y-86098207D01*
X108351279Y-86098207D01*
X108345596Y-86098133D01*
X108339992Y-86099096D01*
X108339991Y-86099096D01*
X108142800Y-86132979D01*
X108142797Y-86132980D01*
X108137203Y-86133941D01*
X107938825Y-86207127D01*
X107933947Y-86210029D01*
X107933945Y-86210030D01*
X107761990Y-86312332D01*
X107761987Y-86312334D01*
X107757106Y-86315238D01*
X107598131Y-86454655D01*
X107521180Y-86552268D01*
X107464218Y-86592728D01*
X107423801Y-86599500D01*
X106908638Y-86599500D01*
X106841599Y-86579815D01*
X106809283Y-86549692D01*
X106758306Y-86481425D01*
X106758298Y-86481416D01*
X106754901Y-86476867D01*
X106750731Y-86473012D01*
X106750728Y-86473009D01*
X106669476Y-86397901D01*
X106599631Y-86333337D01*
X106546824Y-86300018D01*
X106425613Y-86223539D01*
X106425611Y-86223538D01*
X106420804Y-86220505D01*
X106224410Y-86142152D01*
X106218829Y-86141042D01*
X106218826Y-86141041D01*
X106120717Y-86121526D01*
X106017025Y-86100901D01*
X106011338Y-86100827D01*
X106011333Y-86100826D01*
X105811284Y-86098207D01*
X105811279Y-86098207D01*
X105805596Y-86098133D01*
X105799992Y-86099096D01*
X105799991Y-86099096D01*
X105602800Y-86132979D01*
X105602797Y-86132980D01*
X105597203Y-86133941D01*
X105398825Y-86207127D01*
X105393947Y-86210029D01*
X105393945Y-86210030D01*
X105221990Y-86312332D01*
X105221987Y-86312334D01*
X105217106Y-86315238D01*
X105058131Y-86454655D01*
X105054612Y-86459119D01*
X105054609Y-86459122D01*
X105037032Y-86481419D01*
X104927226Y-86620708D01*
X104828773Y-86807836D01*
X104827087Y-86813267D01*
X104827085Y-86813271D01*
X104775232Y-86980266D01*
X104766070Y-87009773D01*
X104749101Y-87153140D01*
X104721675Y-87217398D01*
X104663859Y-87256629D01*
X104594011Y-87258375D01*
X104534307Y-87222081D01*
X104503703Y-87159271D01*
X104502482Y-87149909D01*
X104492851Y-87045100D01*
X104492331Y-87039440D01*
X104434936Y-86835931D01*
X104427704Y-86821265D01*
X104397122Y-86759253D01*
X104341415Y-86646290D01*
X104214901Y-86476867D01*
X104210731Y-86473012D01*
X104210728Y-86473009D01*
X104129476Y-86397901D01*
X104059631Y-86333337D01*
X104006824Y-86300018D01*
X103885613Y-86223539D01*
X103885611Y-86223538D01*
X103880804Y-86220505D01*
X103684410Y-86142152D01*
X103678829Y-86141042D01*
X103678826Y-86141041D01*
X103580717Y-86121526D01*
X103477025Y-86100901D01*
X103471338Y-86100827D01*
X103471333Y-86100826D01*
X103271284Y-86098207D01*
X103271279Y-86098207D01*
X103265596Y-86098133D01*
X103259992Y-86099096D01*
X103259991Y-86099096D01*
X103062800Y-86132979D01*
X103062797Y-86132980D01*
X103057203Y-86133941D01*
X102858825Y-86207127D01*
X102853947Y-86210029D01*
X102853945Y-86210030D01*
X102681990Y-86312332D01*
X102681987Y-86312334D01*
X102677106Y-86315238D01*
X102518131Y-86454655D01*
X102514612Y-86459119D01*
X102514609Y-86459122D01*
X102497032Y-86481419D01*
X102387226Y-86620708D01*
X102288773Y-86807836D01*
X102287087Y-86813267D01*
X102287085Y-86813271D01*
X102235232Y-86980266D01*
X102226070Y-87009773D01*
X102225402Y-87015418D01*
X102225401Y-87015422D01*
X102216733Y-87088662D01*
X102205750Y-87181455D01*
X102205750Y-87194250D01*
X102186065Y-87261289D01*
X102133261Y-87307044D01*
X102081750Y-87318250D01*
X95211255Y-87318250D01*
X95144216Y-87298565D01*
X95098461Y-87245761D01*
X95088517Y-87176603D01*
X95117542Y-87113047D01*
X95123574Y-87106569D01*
X99074573Y-83155569D01*
X99135896Y-83122084D01*
X99162254Y-83119250D01*
X100427745Y-83119250D01*
X100494784Y-83138935D01*
G37*
%TD.AperFunction*%
%TA.AperFunction,Conductor*%
G36*
X82244784Y-80863935D02*
G01*
X82265426Y-80880569D01*
X84940589Y-83555731D01*
X87516726Y-86131868D01*
X87550211Y-86193191D01*
X87545227Y-86262883D01*
X87503355Y-86318816D01*
X87476506Y-86334107D01*
X87467375Y-86337889D01*
X87352379Y-86426129D01*
X87347435Y-86432572D01*
X87313446Y-86476867D01*
X87264139Y-86541125D01*
X87208670Y-86675041D01*
X87207609Y-86683102D01*
X87204010Y-86710436D01*
X87175743Y-86774333D01*
X87117418Y-86812803D01*
X87081071Y-86818250D01*
X86536567Y-86818250D01*
X86515893Y-86824968D01*
X86515501Y-86825095D01*
X86496576Y-86829639D01*
X86474696Y-86833104D01*
X86466003Y-86837533D01*
X86465998Y-86837535D01*
X86454952Y-86843163D01*
X86436981Y-86850607D01*
X86425192Y-86854438D01*
X86415910Y-86857454D01*
X86408017Y-86863189D01*
X86397987Y-86870476D01*
X86381397Y-86880642D01*
X86361658Y-86890700D01*
X86339091Y-86913267D01*
X86091932Y-87160425D01*
X86030609Y-87193910D01*
X86020437Y-87195683D01*
X85981910Y-87200756D01*
X85931291Y-87207420D01*
X85928986Y-87208375D01*
X85861741Y-87206773D01*
X85803880Y-87167610D01*
X85776377Y-87103381D01*
X85775500Y-87088662D01*
X85775500Y-86812231D01*
X85775499Y-86812225D01*
X85775499Y-86780317D01*
X85768651Y-86759240D01*
X85764114Y-86740344D01*
X85760646Y-86718446D01*
X85754935Y-86707236D01*
X85750586Y-86698702D01*
X85743140Y-86680725D01*
X85740595Y-86672890D01*
X85736296Y-86659660D01*
X85723274Y-86641736D01*
X85713107Y-86625146D01*
X85707480Y-86614103D01*
X85703050Y-86605408D01*
X82885680Y-83788038D01*
X80153574Y-81055931D01*
X80120089Y-80994608D01*
X80125073Y-80924916D01*
X80166945Y-80868983D01*
X80232409Y-80844566D01*
X80241255Y-80844250D01*
X82177745Y-80844250D01*
X82244784Y-80863935D01*
G37*
%TD.AperFunction*%
%TA.AperFunction,Conductor*%
G36*
X83686999Y-79417395D02*
G01*
X83690925Y-79419661D01*
X83697375Y-79424611D01*
X83704888Y-79427723D01*
X83823777Y-79476968D01*
X83823779Y-79476969D01*
X83831291Y-79480080D01*
X83839351Y-79481141D01*
X83839354Y-79481142D01*
X83920437Y-79491817D01*
X83984334Y-79520084D01*
X83991932Y-79527075D01*
X89338181Y-84873324D01*
X89371666Y-84934647D01*
X89374500Y-84961005D01*
X89374500Y-85112183D01*
X89380191Y-85129698D01*
X89381345Y-85133249D01*
X89385889Y-85152175D01*
X89389354Y-85174056D01*
X89385599Y-85174651D01*
X89387080Y-85225720D01*
X89351026Y-85285569D01*
X89288339Y-85316425D01*
X89267140Y-85318250D01*
X88681567Y-85318250D01*
X88663582Y-85324094D01*
X88660501Y-85325095D01*
X88641576Y-85329639D01*
X88619696Y-85333104D01*
X88611001Y-85337534D01*
X88611002Y-85337534D01*
X88599954Y-85343163D01*
X88581979Y-85350609D01*
X88560911Y-85357454D01*
X88553019Y-85363188D01*
X88553017Y-85363189D01*
X88542988Y-85370476D01*
X88526401Y-85380641D01*
X88506658Y-85390700D01*
X88484095Y-85413263D01*
X88484091Y-85413266D01*
X88295181Y-85602176D01*
X88233858Y-85635661D01*
X88164166Y-85630677D01*
X88119819Y-85602176D01*
X82739074Y-80221431D01*
X82705589Y-80160108D01*
X82710573Y-80090416D01*
X82739074Y-80046069D01*
X83258068Y-79527075D01*
X83319391Y-79493590D01*
X83329563Y-79491817D01*
X83410646Y-79481142D01*
X83410649Y-79481141D01*
X83418709Y-79480080D01*
X83426221Y-79476969D01*
X83426223Y-79476968D01*
X83545112Y-79427723D01*
X83552625Y-79424611D01*
X83559075Y-79419661D01*
X83563001Y-79417395D01*
X83630901Y-79400924D01*
X83686999Y-79417395D01*
G37*
%TD.AperFunction*%
%TA.AperFunction,Conductor*%
G36*
X90346951Y-84645146D02*
G01*
X90358588Y-84649966D01*
X90423777Y-84676968D01*
X90423779Y-84676969D01*
X90431291Y-84680080D01*
X90439351Y-84681141D01*
X90439354Y-84681142D01*
X90450135Y-84682561D01*
X90514032Y-84710827D01*
X90552503Y-84769152D01*
X90553334Y-84839017D01*
X90516262Y-84898240D01*
X90453056Y-84928019D01*
X90433950Y-84929500D01*
X90299500Y-84929500D01*
X90232461Y-84909815D01*
X90186706Y-84857011D01*
X90175500Y-84805500D01*
X90175500Y-84759707D01*
X90195185Y-84692668D01*
X90247989Y-84646913D01*
X90317147Y-84636969D01*
X90346951Y-84645146D01*
G37*
%TD.AperFunction*%
%TA.AperFunction,Conductor*%
G36*
X91093834Y-84511173D02*
G01*
X91149767Y-84553045D01*
X91174184Y-84618509D01*
X91174500Y-84627355D01*
X91174500Y-84793995D01*
X91154815Y-84861034D01*
X91138181Y-84881676D01*
X91126676Y-84893181D01*
X91065353Y-84926666D01*
X91038995Y-84929500D01*
X90716050Y-84929500D01*
X90649011Y-84909815D01*
X90603256Y-84857011D01*
X90593312Y-84787853D01*
X90622337Y-84724297D01*
X90681115Y-84686523D01*
X90699865Y-84682561D01*
X90710646Y-84681142D01*
X90710649Y-84681141D01*
X90718709Y-84680080D01*
X90726221Y-84676969D01*
X90726223Y-84676968D01*
X90830938Y-84633594D01*
X90852625Y-84624611D01*
X90918582Y-84574000D01*
X90961178Y-84541315D01*
X90967621Y-84536371D01*
X90967989Y-84536851D01*
X91024142Y-84506189D01*
X91093834Y-84511173D01*
G37*
%TD.AperFunction*%
%TA.AperFunction,Conductor*%
G36*
X95448110Y-83338935D02*
G01*
X95493865Y-83391739D01*
X95504010Y-83427064D01*
X95508670Y-83462459D01*
X95564139Y-83596375D01*
X95569087Y-83602823D01*
X95569089Y-83602827D01*
X95618875Y-83667709D01*
X95644070Y-83732878D01*
X95644500Y-83743196D01*
X95644500Y-84401495D01*
X95624815Y-84468534D01*
X95608181Y-84489176D01*
X95238190Y-84859167D01*
X95176867Y-84892652D01*
X95107175Y-84887668D01*
X95051242Y-84845796D01*
X95026825Y-84780332D01*
X95031239Y-84744150D01*
X95030646Y-84744056D01*
X95034111Y-84722175D01*
X95038655Y-84703249D01*
X95042485Y-84691461D01*
X95045500Y-84682183D01*
X95045500Y-83655317D01*
X95038655Y-83634251D01*
X95034111Y-83615325D01*
X95032172Y-83603083D01*
X95030646Y-83593446D01*
X95026217Y-83584753D01*
X95026215Y-83584748D01*
X95020587Y-83573702D01*
X95013143Y-83555731D01*
X95009312Y-83543942D01*
X95006296Y-83534660D01*
X94993274Y-83516736D01*
X94983090Y-83500113D01*
X94982784Y-83499512D01*
X94969909Y-83430839D01*
X94996204Y-83366106D01*
X95053323Y-83325866D01*
X95093286Y-83319250D01*
X95381071Y-83319250D01*
X95448110Y-83338935D01*
G37*
%TD.AperFunction*%
%TA.AperFunction,Conductor*%
G36*
X73313834Y-79612944D02*
G01*
X73369767Y-79654816D01*
X73394184Y-79720280D01*
X73394500Y-79729126D01*
X73394500Y-80382183D01*
X73397515Y-80391461D01*
X73401345Y-80403249D01*
X73405889Y-80422174D01*
X73409354Y-80444054D01*
X73413783Y-80452747D01*
X73413785Y-80452752D01*
X73419413Y-80463798D01*
X73426857Y-80481769D01*
X73427791Y-80484643D01*
X73433704Y-80502840D01*
X73446728Y-80520766D01*
X73456892Y-80537352D01*
X73466950Y-80557092D01*
X73489513Y-80579655D01*
X73489516Y-80579659D01*
X74334091Y-81424234D01*
X74334095Y-81424237D01*
X74356658Y-81446800D01*
X74376401Y-81456859D01*
X74392988Y-81467024D01*
X74403017Y-81474311D01*
X74403019Y-81474312D01*
X74410911Y-81480046D01*
X74420190Y-81483061D01*
X74431978Y-81486891D01*
X74449954Y-81494337D01*
X74469696Y-81504396D01*
X74491576Y-81507861D01*
X74510501Y-81512405D01*
X74531567Y-81519250D01*
X77232942Y-81519250D01*
X77299981Y-81538935D01*
X77345736Y-81591739D01*
X77355680Y-81660897D01*
X77331318Y-81718736D01*
X77328670Y-81722187D01*
X77317975Y-81734382D01*
X77245426Y-81806931D01*
X77184103Y-81840416D01*
X77157745Y-81843250D01*
X72938481Y-81843250D01*
X72938477Y-81843251D01*
X72906567Y-81843251D01*
X72885490Y-81850099D01*
X72866594Y-81854636D01*
X72844696Y-81858104D01*
X72836001Y-81862534D01*
X72835999Y-81862535D01*
X72824952Y-81868164D01*
X72806977Y-81875609D01*
X72785910Y-81882454D01*
X72778013Y-81888191D01*
X72778014Y-81888191D01*
X72767987Y-81895476D01*
X72751397Y-81905642D01*
X72731658Y-81915700D01*
X72709091Y-81938267D01*
X70611932Y-84035425D01*
X70550609Y-84068910D01*
X70540437Y-84070683D01*
X70459354Y-84081358D01*
X70459351Y-84081359D01*
X70451291Y-84082420D01*
X70443779Y-84085531D01*
X70443777Y-84085532D01*
X70377702Y-84112901D01*
X70317375Y-84137889D01*
X70202379Y-84226129D01*
X70197435Y-84232572D01*
X70145136Y-84300729D01*
X70114139Y-84341125D01*
X70109429Y-84352496D01*
X70066571Y-84455967D01*
X70058670Y-84475041D01*
X70047206Y-84562120D01*
X70040187Y-84615430D01*
X70011920Y-84679326D01*
X69953596Y-84717797D01*
X69883731Y-84718628D01*
X69829567Y-84686925D01*
X69716643Y-84574000D01*
X69300569Y-84157926D01*
X69267084Y-84096603D01*
X69264250Y-84070245D01*
X69264250Y-83611376D01*
X69283935Y-83544337D01*
X69300569Y-83523695D01*
X73182819Y-79641445D01*
X73244142Y-79607960D01*
X73313834Y-79612944D01*
G37*
%TD.AperFunction*%
%TA.AperFunction,Conductor*%
G36*
X97430663Y-78808935D02*
G01*
X97451305Y-78825569D01*
X100732305Y-82106569D01*
X100765790Y-82167892D01*
X100760806Y-82237584D01*
X100718934Y-82293517D01*
X100653470Y-82317934D01*
X100644624Y-82318250D01*
X98913481Y-82318250D01*
X98913477Y-82318251D01*
X98881567Y-82318251D01*
X98860490Y-82325099D01*
X98841594Y-82329636D01*
X98819696Y-82333104D01*
X98811001Y-82337534D01*
X98810999Y-82337535D01*
X98799952Y-82343164D01*
X98781977Y-82350609D01*
X98760910Y-82357454D01*
X98753013Y-82363191D01*
X98753014Y-82363191D01*
X98742987Y-82370476D01*
X98726397Y-82380642D01*
X98706658Y-82390700D01*
X96657181Y-84440177D01*
X96595858Y-84473662D01*
X96526166Y-84468678D01*
X96470233Y-84426806D01*
X96445816Y-84361342D01*
X96445500Y-84352496D01*
X96445500Y-83743196D01*
X96465185Y-83676157D01*
X96471125Y-83667709D01*
X96520911Y-83602827D01*
X96520913Y-83602823D01*
X96525861Y-83596375D01*
X96554693Y-83526767D01*
X96578218Y-83469973D01*
X96578219Y-83469971D01*
X96581330Y-83462459D01*
X96600250Y-83318750D01*
X96581330Y-83175041D01*
X96575858Y-83161829D01*
X96528972Y-83048636D01*
X96525861Y-83041125D01*
X96445812Y-82936803D01*
X96420618Y-82871635D01*
X96434656Y-82803190D01*
X96456507Y-82773636D01*
X97550483Y-81679659D01*
X97573050Y-81657092D01*
X97583108Y-81637353D01*
X97593274Y-81620763D01*
X97600559Y-81610736D01*
X97606296Y-81602840D01*
X97613141Y-81581773D01*
X97620586Y-81563798D01*
X97626215Y-81552751D01*
X97626216Y-81552749D01*
X97630646Y-81544054D01*
X97634114Y-81522156D01*
X97638651Y-81503260D01*
X97645499Y-81482183D01*
X97645499Y-81450275D01*
X97645500Y-81450269D01*
X97645500Y-79855317D01*
X97638655Y-79834251D01*
X97634111Y-79815325D01*
X97632172Y-79803083D01*
X97630646Y-79793446D01*
X97620587Y-79773704D01*
X97613141Y-79755728D01*
X97609311Y-79743940D01*
X97606296Y-79734661D01*
X97593274Y-79716737D01*
X97583109Y-79700151D01*
X97573050Y-79680408D01*
X97550487Y-79657845D01*
X97550484Y-79657841D01*
X96893574Y-79000931D01*
X96860089Y-78939608D01*
X96865073Y-78869916D01*
X96906945Y-78813983D01*
X96972409Y-78789566D01*
X96981255Y-78789250D01*
X97363624Y-78789250D01*
X97430663Y-78808935D01*
G37*
%TD.AperFunction*%
%TA.AperFunction,Conductor*%
G36*
X76489766Y-82663935D02*
G01*
X76535521Y-82716739D01*
X76545465Y-82785897D01*
X76516440Y-82849453D01*
X76495615Y-82868566D01*
X76492989Y-82870474D01*
X76476397Y-82880642D01*
X76456658Y-82890700D01*
X76434091Y-82913267D01*
X75965426Y-83381931D01*
X75904103Y-83415416D01*
X75877745Y-83418250D01*
X74512254Y-83418250D01*
X74445215Y-83398565D01*
X74424573Y-83381931D01*
X74339183Y-83296541D01*
X74305698Y-83235218D01*
X74303925Y-83225045D01*
X74301239Y-83204645D01*
X74293233Y-83143832D01*
X74237764Y-83009916D01*
X74163037Y-82912530D01*
X74154468Y-82901363D01*
X74149524Y-82894920D01*
X74143081Y-82889976D01*
X74143077Y-82889972D01*
X74112651Y-82866625D01*
X74071449Y-82810197D01*
X74067294Y-82740451D01*
X74101507Y-82679531D01*
X74163224Y-82646779D01*
X74188138Y-82644250D01*
X76422727Y-82644250D01*
X76489766Y-82663935D01*
G37*
%TD.AperFunction*%
%TA.AperFunction,Conductor*%
G36*
X77774574Y-82571311D02*
G01*
X77791316Y-82578717D01*
X77796676Y-82575273D01*
X77815423Y-82571311D01*
X77868554Y-82564316D01*
X77937588Y-82575081D01*
X77989844Y-82621461D01*
X78008730Y-82688729D01*
X77988250Y-82755530D01*
X77972420Y-82774936D01*
X77965425Y-82781931D01*
X77904102Y-82815416D01*
X77877744Y-82818250D01*
X77831611Y-82818250D01*
X77796336Y-82807892D01*
X77777495Y-82816769D01*
X77758389Y-82818250D01*
X77647271Y-82818250D01*
X77580232Y-82798565D01*
X77534477Y-82745761D01*
X77524533Y-82676603D01*
X77553558Y-82613047D01*
X77574379Y-82593938D01*
X77577016Y-82592022D01*
X77593599Y-82581860D01*
X77612908Y-82572021D01*
X77685384Y-82559569D01*
X77774574Y-82571311D01*
G37*
%TD.AperFunction*%
%TA.AperFunction,Conductor*%
G36*
X94398879Y-78670135D02*
G01*
X94438385Y-78727763D01*
X94444500Y-78766222D01*
X94444500Y-78782183D01*
X94447515Y-78791461D01*
X94451345Y-78803249D01*
X94455889Y-78822174D01*
X94459354Y-78844054D01*
X94463783Y-78852747D01*
X94463785Y-78852752D01*
X94469413Y-78863798D01*
X94476857Y-78881769D01*
X94477583Y-78884002D01*
X94483704Y-78902840D01*
X94496728Y-78920766D01*
X94506892Y-78937352D01*
X94516950Y-78957092D01*
X94539513Y-78979655D01*
X94539516Y-78979659D01*
X96008181Y-80448324D01*
X96041666Y-80509647D01*
X96044500Y-80536005D01*
X96044500Y-80801495D01*
X96024815Y-80868534D01*
X96008181Y-80889176D01*
X95815426Y-81081931D01*
X95754103Y-81115416D01*
X95727745Y-81118250D01*
X94169446Y-81118250D01*
X94102407Y-81098565D01*
X94093959Y-81092625D01*
X94029077Y-81042839D01*
X94029072Y-81042836D01*
X94022625Y-81037889D01*
X93924660Y-80997311D01*
X93896223Y-80985532D01*
X93896221Y-80985531D01*
X93888709Y-80982420D01*
X93745000Y-80963500D01*
X93601291Y-80982420D01*
X93593779Y-80985531D01*
X93593777Y-80985532D01*
X93565340Y-80997311D01*
X93467375Y-81037889D01*
X93460928Y-81042836D01*
X93384062Y-81101818D01*
X93352379Y-81126129D01*
X93264139Y-81241125D01*
X93208670Y-81375041D01*
X93198766Y-81450269D01*
X93192439Y-81498325D01*
X93185033Y-81515067D01*
X93188477Y-81520426D01*
X93192439Y-81539175D01*
X93208670Y-81662459D01*
X93264139Y-81796375D01*
X93269089Y-81802825D01*
X93271355Y-81806751D01*
X93287826Y-81874651D01*
X93271355Y-81930749D01*
X93269089Y-81934675D01*
X93264139Y-81941125D01*
X93261027Y-81948638D01*
X93255905Y-81961005D01*
X93208670Y-82075041D01*
X93196446Y-82167892D01*
X93192439Y-82198325D01*
X93185033Y-82215067D01*
X93188477Y-82220426D01*
X93192439Y-82239175D01*
X93208670Y-82362459D01*
X93211781Y-82369971D01*
X93211782Y-82369973D01*
X93245497Y-82451368D01*
X93264139Y-82496375D01*
X93269089Y-82502825D01*
X93271355Y-82506751D01*
X93287826Y-82574651D01*
X93271355Y-82630748D01*
X93269086Y-82634678D01*
X93264139Y-82641125D01*
X93261224Y-82648163D01*
X93210829Y-82696216D01*
X93142222Y-82709441D01*
X93077357Y-82683474D01*
X93066326Y-82673683D01*
X92981819Y-82589176D01*
X92948334Y-82527853D01*
X92945500Y-82501495D01*
X92945500Y-82255361D01*
X92955858Y-82220086D01*
X92946981Y-82201245D01*
X92945500Y-82182139D01*
X92945500Y-81555361D01*
X92955858Y-81520086D01*
X92946981Y-81501245D01*
X92945500Y-81482139D01*
X92945500Y-80855317D01*
X92938655Y-80834251D01*
X92934111Y-80815325D01*
X92932172Y-80803083D01*
X92930646Y-80793446D01*
X92920587Y-80773704D01*
X92913141Y-80755728D01*
X92909311Y-80743940D01*
X92906296Y-80734661D01*
X92893274Y-80716737D01*
X92883109Y-80700151D01*
X92873050Y-80680408D01*
X92850487Y-80657845D01*
X92850484Y-80657841D01*
X91285574Y-79092931D01*
X91252089Y-79031608D01*
X91257073Y-78961916D01*
X91298945Y-78905983D01*
X91364409Y-78881566D01*
X91373255Y-78881250D01*
X92816243Y-78881250D01*
X92828047Y-78881827D01*
X92838968Y-78884990D01*
X92873041Y-78882039D01*
X92876818Y-78881712D01*
X92887517Y-78881250D01*
X92896655Y-78881250D01*
X92903294Y-78880014D01*
X92915294Y-78878380D01*
X92933948Y-78876764D01*
X92938903Y-78876335D01*
X92950310Y-78875347D01*
X92960598Y-78870318D01*
X92964045Y-78869362D01*
X92967365Y-78868081D01*
X92978620Y-78865985D01*
X92988365Y-78859978D01*
X92988368Y-78859977D01*
X93008542Y-78847541D01*
X93019138Y-78841703D01*
X93050716Y-78826267D01*
X93058502Y-78817873D01*
X93063142Y-78814427D01*
X93071977Y-78808438D01*
X93073156Y-78807711D01*
X93138252Y-78789250D01*
X93778641Y-78789250D01*
X93935560Y-78774831D01*
X94139069Y-78717436D01*
X94265656Y-78655010D01*
X94334488Y-78643014D01*
X94398879Y-78670135D01*
G37*
%TD.AperFunction*%
%TA.AperFunction,Conductor*%
G36*
X84771725Y-78763435D02*
G01*
X84817480Y-78816239D01*
X84827625Y-78883936D01*
X84820187Y-78940429D01*
X84791920Y-79004326D01*
X84733595Y-79042796D01*
X84663730Y-79043627D01*
X84609567Y-79011924D01*
X84558325Y-78960682D01*
X84524840Y-78899359D01*
X84523069Y-78889202D01*
X84522377Y-78883951D01*
X84533134Y-78814915D01*
X84579507Y-78762653D01*
X84645314Y-78743750D01*
X84704686Y-78743750D01*
X84771725Y-78763435D01*
G37*
%TD.AperFunction*%
%TD*%
%TA.AperFunction,NonConductor*%
G36*
X111439888Y-62232185D02*
G01*
X111485643Y-62284989D01*
X111495587Y-62354147D01*
X111493053Y-62366841D01*
X111490421Y-62373591D01*
X111468489Y-62540177D01*
X111486927Y-62707186D01*
X111489493Y-62714198D01*
X111489494Y-62714202D01*
X111542100Y-62857953D01*
X111544670Y-62864975D01*
X111638384Y-63004436D01*
X111643916Y-63009469D01*
X111643917Y-63009471D01*
X111733838Y-63091293D01*
X111770174Y-63150971D01*
X111768478Y-63220820D01*
X111731899Y-63276448D01*
X111648070Y-63349578D01*
X111551455Y-63487046D01*
X111490421Y-63643591D01*
X111468489Y-63810177D01*
X111486927Y-63977186D01*
X111489493Y-63984198D01*
X111489494Y-63984202D01*
X111542100Y-64127953D01*
X111544670Y-64134975D01*
X111638384Y-64274436D01*
X111643916Y-64279469D01*
X111643917Y-64279471D01*
X111733838Y-64361293D01*
X111770174Y-64420971D01*
X111768478Y-64490820D01*
X111731899Y-64546448D01*
X111648070Y-64619578D01*
X111551455Y-64757046D01*
X111490421Y-64913591D01*
X111468489Y-65080177D01*
X111486927Y-65247186D01*
X111489493Y-65254198D01*
X111489494Y-65254202D01*
X111542100Y-65397953D01*
X111544670Y-65404975D01*
X111638384Y-65544436D01*
X111643916Y-65549469D01*
X111643917Y-65549471D01*
X111733838Y-65631293D01*
X111770174Y-65690971D01*
X111768478Y-65760820D01*
X111731899Y-65816448D01*
X111648070Y-65889578D01*
X111551455Y-66027046D01*
X111490421Y-66183591D01*
X111468489Y-66350177D01*
X111486927Y-66517186D01*
X111489493Y-66524198D01*
X111489494Y-66524202D01*
X111542100Y-66667953D01*
X111544670Y-66674975D01*
X111638384Y-66814436D01*
X111643916Y-66819469D01*
X111643917Y-66819471D01*
X111733838Y-66901293D01*
X111770174Y-66960971D01*
X111768478Y-67030820D01*
X111731899Y-67086448D01*
X111648070Y-67159578D01*
X111551455Y-67297046D01*
X111490421Y-67453591D01*
X111468489Y-67620177D01*
X111486927Y-67787186D01*
X111489495Y-67794202D01*
X111490110Y-67795883D01*
X111490195Y-67797191D01*
X111491203Y-67801487D01*
X111490487Y-67801655D01*
X111494664Y-67865604D01*
X111460802Y-67926720D01*
X111399274Y-67959826D01*
X111373663Y-67962500D01*
X97683757Y-67962500D01*
X97671953Y-67961923D01*
X97661032Y-67958760D01*
X97626959Y-67961711D01*
X97623182Y-67962038D01*
X97612483Y-67962500D01*
X97603345Y-67962500D01*
X97596706Y-67963736D01*
X97584706Y-67965370D01*
X97566052Y-67966986D01*
X97561097Y-67967415D01*
X97549690Y-67968403D01*
X97539402Y-67973432D01*
X97535955Y-67974388D01*
X97532635Y-67975669D01*
X97521380Y-67977765D01*
X97511635Y-67983772D01*
X97511632Y-67983773D01*
X97491458Y-67996209D01*
X97480862Y-68002047D01*
X97449284Y-68017483D01*
X97441499Y-68025875D01*
X97438640Y-68027999D01*
X97435992Y-68030400D01*
X97426243Y-68036409D01*
X97404973Y-68064381D01*
X97397176Y-68073656D01*
X97381065Y-68091023D01*
X97381064Y-68091025D01*
X97373279Y-68099417D01*
X97369036Y-68110051D01*
X97367125Y-68113074D01*
X97365524Y-68116258D01*
X97358596Y-68125369D01*
X97355412Y-68136364D01*
X97348822Y-68159121D01*
X97344886Y-68170583D01*
X97331865Y-68203220D01*
X97331250Y-68209493D01*
X97331250Y-68212531D01*
X97331102Y-68215553D01*
X97330978Y-68215547D01*
X97330673Y-68221796D01*
X97327510Y-68232718D01*
X97327925Y-68237514D01*
X97303403Y-68298314D01*
X97287646Y-68314851D01*
X97279221Y-68322201D01*
X97265320Y-68334328D01*
X97251862Y-68353477D01*
X97197210Y-68397005D01*
X97127699Y-68404076D01*
X97065399Y-68372444D01*
X97048223Y-68352410D01*
X97043788Y-68345958D01*
X97043787Y-68345956D01*
X97039552Y-68339795D01*
X96914099Y-68228021D01*
X96907492Y-68224523D01*
X96907488Y-68224520D01*
X96805678Y-68170615D01*
X96765606Y-68149398D01*
X96659349Y-68122708D01*
X96609895Y-68110286D01*
X96609894Y-68110286D01*
X96602645Y-68108465D01*
X96514557Y-68108004D01*
X96442098Y-68107624D01*
X96442097Y-68107624D01*
X96434625Y-68107585D01*
X96271244Y-68146810D01*
X96264601Y-68150238D01*
X96264600Y-68150239D01*
X96231305Y-68167424D01*
X96121936Y-68223873D01*
X95995320Y-68334328D01*
X95981862Y-68353477D01*
X95927210Y-68397005D01*
X95857699Y-68404076D01*
X95795399Y-68372444D01*
X95778223Y-68352410D01*
X95773788Y-68345958D01*
X95773787Y-68345956D01*
X95769552Y-68339795D01*
X95644099Y-68228021D01*
X95637492Y-68224523D01*
X95637488Y-68224520D01*
X95535678Y-68170615D01*
X95495606Y-68149398D01*
X95389349Y-68122708D01*
X95339895Y-68110286D01*
X95339894Y-68110286D01*
X95332645Y-68108465D01*
X95244557Y-68108004D01*
X95172098Y-68107624D01*
X95172097Y-68107624D01*
X95164625Y-68107585D01*
X95001244Y-68146810D01*
X94994601Y-68150238D01*
X94994600Y-68150239D01*
X94961305Y-68167424D01*
X94851936Y-68223873D01*
X94725320Y-68334328D01*
X94711862Y-68353477D01*
X94657210Y-68397005D01*
X94587699Y-68404076D01*
X94525399Y-68372444D01*
X94508223Y-68352410D01*
X94503788Y-68345958D01*
X94503787Y-68345956D01*
X94499552Y-68339795D01*
X94374099Y-68228021D01*
X94367492Y-68224523D01*
X94367488Y-68224520D01*
X94265678Y-68170615D01*
X94225606Y-68149398D01*
X94119349Y-68122708D01*
X94069895Y-68110286D01*
X94069894Y-68110286D01*
X94062645Y-68108465D01*
X93974557Y-68108004D01*
X93902098Y-68107624D01*
X93902097Y-68107624D01*
X93894625Y-68107585D01*
X93731244Y-68146810D01*
X93724601Y-68150238D01*
X93724600Y-68150239D01*
X93691305Y-68167424D01*
X93581936Y-68223873D01*
X93455320Y-68334328D01*
X93441862Y-68353477D01*
X93387210Y-68397005D01*
X93317699Y-68404076D01*
X93255399Y-68372444D01*
X93238223Y-68352410D01*
X93233788Y-68345958D01*
X93233787Y-68345956D01*
X93229552Y-68339795D01*
X93209801Y-68322197D01*
X93172843Y-68262907D01*
X93168815Y-68241014D01*
X93168750Y-68240310D01*
X93168750Y-68234595D01*
X93167514Y-68227956D01*
X93165879Y-68215951D01*
X93165857Y-68215691D01*
X93162847Y-68180940D01*
X93157818Y-68170652D01*
X93156862Y-68167205D01*
X93155581Y-68163885D01*
X93153485Y-68152630D01*
X93147478Y-68142885D01*
X93147477Y-68142882D01*
X93135041Y-68122708D01*
X93129203Y-68112112D01*
X93113767Y-68080534D01*
X93105375Y-68072749D01*
X93103251Y-68069890D01*
X93100850Y-68067242D01*
X93094841Y-68057493D01*
X93066863Y-68036218D01*
X93057594Y-68028426D01*
X93057518Y-68028355D01*
X93054425Y-68025486D01*
X93040227Y-68012315D01*
X93040225Y-68012314D01*
X93031833Y-68004529D01*
X93021199Y-68000286D01*
X93018176Y-67998375D01*
X93014992Y-67996774D01*
X93005881Y-67989846D01*
X92984916Y-67983775D01*
X92972129Y-67980072D01*
X92960667Y-67976136D01*
X92936162Y-67966359D01*
X92936159Y-67966358D01*
X92928030Y-67963115D01*
X92921757Y-67962500D01*
X92918719Y-67962500D01*
X92915697Y-67962352D01*
X92915703Y-67962228D01*
X92909453Y-67961923D01*
X92898532Y-67958760D01*
X92864459Y-67961711D01*
X92860682Y-67962038D01*
X92849983Y-67962500D01*
X78628808Y-67962500D01*
X78616860Y-67961918D01*
X78605885Y-67958746D01*
X78594481Y-67959739D01*
X78594479Y-67959739D01*
X78568156Y-67962032D01*
X78557397Y-67962500D01*
X78548345Y-67962500D01*
X78542724Y-67963547D01*
X78542721Y-67963547D01*
X78541587Y-67963758D01*
X78529653Y-67965385D01*
X78505955Y-67967449D01*
X78505953Y-67967450D01*
X78494548Y-67968443D01*
X78484262Y-67973477D01*
X78480886Y-67974415D01*
X78477638Y-67975668D01*
X78466380Y-67977765D01*
X78456634Y-67983773D01*
X78456628Y-67983775D01*
X78436367Y-67996264D01*
X78425811Y-68002084D01*
X78394165Y-68017571D01*
X78386381Y-68025971D01*
X78383579Y-68028054D01*
X78380992Y-68030400D01*
X78371243Y-68036409D01*
X78349904Y-68064471D01*
X78342159Y-68073690D01*
X78318200Y-68099542D01*
X78313965Y-68110171D01*
X78312095Y-68113132D01*
X78310521Y-68116261D01*
X78303596Y-68125369D01*
X78300413Y-68136362D01*
X78300412Y-68136363D01*
X78293795Y-68159214D01*
X78289886Y-68170610D01*
X78276836Y-68203365D01*
X78276224Y-68209638D01*
X78276225Y-68212671D01*
X78276079Y-68215697D01*
X78275958Y-68215691D01*
X78275656Y-68221853D01*
X78272510Y-68232718D01*
X78273182Y-68240481D01*
X78247939Y-68303079D01*
X78232185Y-68319616D01*
X78215320Y-68334328D01*
X78201862Y-68353477D01*
X78147210Y-68397005D01*
X78077699Y-68404076D01*
X78015399Y-68372444D01*
X77998223Y-68352410D01*
X77993788Y-68345958D01*
X77993787Y-68345956D01*
X77989552Y-68339795D01*
X77864099Y-68228021D01*
X77857492Y-68224523D01*
X77857488Y-68224520D01*
X77755678Y-68170615D01*
X77715606Y-68149398D01*
X77609349Y-68122708D01*
X77559895Y-68110286D01*
X77559894Y-68110286D01*
X77552645Y-68108465D01*
X77464557Y-68108004D01*
X77392098Y-68107624D01*
X77392097Y-68107624D01*
X77384625Y-68107585D01*
X77221244Y-68146810D01*
X77214601Y-68150238D01*
X77214600Y-68150239D01*
X77181305Y-68167424D01*
X77071936Y-68223873D01*
X76945320Y-68334328D01*
X76931862Y-68353477D01*
X76877210Y-68397005D01*
X76807699Y-68404076D01*
X76745399Y-68372444D01*
X76728223Y-68352410D01*
X76723788Y-68345958D01*
X76723787Y-68345956D01*
X76719552Y-68339795D01*
X76594099Y-68228021D01*
X76587492Y-68224523D01*
X76587488Y-68224520D01*
X76485678Y-68170615D01*
X76445606Y-68149398D01*
X76339349Y-68122708D01*
X76289895Y-68110286D01*
X76289894Y-68110286D01*
X76282645Y-68108465D01*
X76194557Y-68108004D01*
X76122098Y-68107624D01*
X76122097Y-68107624D01*
X76114625Y-68107585D01*
X75951244Y-68146810D01*
X75944601Y-68150238D01*
X75944600Y-68150239D01*
X75911305Y-68167424D01*
X75801936Y-68223873D01*
X75675320Y-68334328D01*
X75661862Y-68353477D01*
X75607210Y-68397005D01*
X75537699Y-68404076D01*
X75475399Y-68372444D01*
X75458223Y-68352410D01*
X75453788Y-68345958D01*
X75453787Y-68345956D01*
X75449552Y-68339795D01*
X75324099Y-68228021D01*
X75317492Y-68224523D01*
X75317488Y-68224520D01*
X75215678Y-68170615D01*
X75175606Y-68149398D01*
X75069349Y-68122708D01*
X75019895Y-68110286D01*
X75019894Y-68110286D01*
X75012645Y-68108465D01*
X74924557Y-68108004D01*
X74852098Y-68107624D01*
X74852097Y-68107624D01*
X74844625Y-68107585D01*
X74681244Y-68146810D01*
X74674601Y-68150238D01*
X74674600Y-68150239D01*
X74641305Y-68167424D01*
X74531936Y-68223873D01*
X74405320Y-68334328D01*
X74391862Y-68353477D01*
X74337210Y-68397005D01*
X74267699Y-68404076D01*
X74205399Y-68372444D01*
X74188223Y-68352410D01*
X74183788Y-68345957D01*
X74183783Y-68345952D01*
X74179552Y-68339795D01*
X74154353Y-68317343D01*
X74117394Y-68258051D01*
X74113738Y-68238203D01*
X74113736Y-68234450D01*
X74112517Y-68227920D01*
X74110870Y-68215849D01*
X74110857Y-68215691D01*
X74109085Y-68195234D01*
X74108835Y-68192344D01*
X74108834Y-68192342D01*
X74107847Y-68180940D01*
X74102819Y-68170654D01*
X74101843Y-68167135D01*
X74100534Y-68163746D01*
X74098432Y-68152492D01*
X74080029Y-68122669D01*
X74074154Y-68112010D01*
X74063797Y-68090822D01*
X74063794Y-68090818D01*
X74058767Y-68080534D01*
X74050372Y-68072747D01*
X74048200Y-68069822D01*
X74045757Y-68067131D01*
X74039742Y-68057383D01*
X74030621Y-68050454D01*
X74011839Y-68036186D01*
X74002518Y-68028355D01*
X73985229Y-68012317D01*
X73985226Y-68012315D01*
X73976833Y-68004529D01*
X73966195Y-68000285D01*
X73963113Y-67998337D01*
X73959865Y-67996705D01*
X73950749Y-67989780D01*
X73917092Y-67980051D01*
X73905584Y-67976103D01*
X73873030Y-67963115D01*
X73866757Y-67962500D01*
X73863717Y-67962500D01*
X73860697Y-67962352D01*
X73860703Y-67962227D01*
X73854360Y-67961918D01*
X73843385Y-67958746D01*
X73831981Y-67959739D01*
X73831979Y-67959739D01*
X73805656Y-67962032D01*
X73794897Y-67962500D01*
X60067125Y-67962500D01*
X60000086Y-67942815D01*
X59954331Y-67890011D01*
X59944387Y-67820853D01*
X59946090Y-67812548D01*
X59947721Y-67808492D01*
X59971396Y-67642145D01*
X59971549Y-67627500D01*
X59951363Y-67460694D01*
X59891971Y-67303518D01*
X59887738Y-67297359D01*
X59887736Y-67297355D01*
X59801034Y-67171203D01*
X59796802Y-67165045D01*
X59791223Y-67160074D01*
X59791221Y-67160072D01*
X59706619Y-67084695D01*
X59669659Y-67025401D01*
X59670623Y-66955538D01*
X59708576Y-66897822D01*
X59781313Y-66835699D01*
X59781318Y-66835694D01*
X59787002Y-66830839D01*
X59803253Y-66808224D01*
X59880691Y-66700456D01*
X59885050Y-66694390D01*
X59895678Y-66667953D01*
X59944935Y-66545424D01*
X59944936Y-66545419D01*
X59947721Y-66538492D01*
X59971396Y-66372145D01*
X59971549Y-66357500D01*
X59951363Y-66190694D01*
X59891971Y-66033518D01*
X59887738Y-66027359D01*
X59887736Y-66027355D01*
X59801034Y-65901203D01*
X59796802Y-65895045D01*
X59791223Y-65890074D01*
X59791221Y-65890072D01*
X59706619Y-65814695D01*
X59669659Y-65755401D01*
X59670623Y-65685538D01*
X59708576Y-65627822D01*
X59781313Y-65565699D01*
X59781318Y-65565694D01*
X59787002Y-65560839D01*
X59803253Y-65538224D01*
X59880691Y-65430456D01*
X59885050Y-65424390D01*
X59895678Y-65397953D01*
X59944935Y-65275424D01*
X59944936Y-65275419D01*
X59947721Y-65268492D01*
X59971396Y-65102145D01*
X59971549Y-65087500D01*
X59951363Y-64920694D01*
X59891971Y-64763518D01*
X59887738Y-64757359D01*
X59887736Y-64757355D01*
X59801034Y-64631203D01*
X59796802Y-64625045D01*
X59791223Y-64620074D01*
X59791221Y-64620072D01*
X59706619Y-64544695D01*
X59669659Y-64485401D01*
X59670623Y-64415538D01*
X59708576Y-64357822D01*
X59781313Y-64295699D01*
X59781318Y-64295694D01*
X59787002Y-64290839D01*
X59803253Y-64268224D01*
X59880691Y-64160456D01*
X59885050Y-64154390D01*
X59895678Y-64127953D01*
X59944935Y-64005424D01*
X59944936Y-64005419D01*
X59947721Y-63998492D01*
X59971396Y-63832145D01*
X59971549Y-63817500D01*
X59951363Y-63650694D01*
X59891971Y-63493518D01*
X59887738Y-63487359D01*
X59887736Y-63487355D01*
X59801034Y-63361203D01*
X59796802Y-63355045D01*
X59791223Y-63350074D01*
X59791221Y-63350072D01*
X59706619Y-63274695D01*
X59669659Y-63215401D01*
X59670623Y-63145538D01*
X59708576Y-63087822D01*
X59781313Y-63025699D01*
X59781318Y-63025694D01*
X59787002Y-63020839D01*
X59803253Y-62998224D01*
X59880691Y-62890456D01*
X59885050Y-62884390D01*
X59895678Y-62857953D01*
X59944935Y-62735424D01*
X59944936Y-62735419D01*
X59947721Y-62728492D01*
X59971396Y-62562145D01*
X59971549Y-62547500D01*
X59951363Y-62380694D01*
X59948719Y-62373698D01*
X59946937Y-62366442D01*
X59950105Y-62365664D01*
X59945953Y-62310613D01*
X59979200Y-62249160D01*
X60040393Y-62215437D01*
X60067221Y-62212500D01*
X111372849Y-62212500D01*
X111439888Y-62232185D01*
G37*
%TD.AperFunction*%
%TA.AperFunction,NonConductor*%
G36*
X76607464Y-69453036D02*
G01*
X76647422Y-69510352D01*
X76650050Y-69580172D01*
X76645015Y-69595685D01*
X76607152Y-69690590D01*
X76565901Y-69897975D01*
X76565827Y-69903662D01*
X76565826Y-69903667D01*
X76565432Y-69933784D01*
X76563133Y-70109404D01*
X76564096Y-70115008D01*
X76564096Y-70115009D01*
X76588159Y-70255047D01*
X76580112Y-70324451D01*
X76553632Y-70363726D01*
X76282679Y-70634678D01*
X76221358Y-70668162D01*
X76151666Y-70663178D01*
X76107319Y-70634677D01*
X76100487Y-70627845D01*
X76100484Y-70627841D01*
X75835804Y-70363161D01*
X75802319Y-70301838D01*
X75801868Y-70251289D01*
X75822988Y-70145109D01*
X75824099Y-70139525D01*
X75824494Y-70109404D01*
X75826793Y-69933784D01*
X75826793Y-69933779D01*
X75826867Y-69928096D01*
X75825904Y-69922491D01*
X75792021Y-69725300D01*
X75792020Y-69725297D01*
X75791059Y-69719703D01*
X75778368Y-69685302D01*
X75745098Y-69595119D01*
X75740363Y-69525410D01*
X75774066Y-69464207D01*
X75835509Y-69430941D01*
X75905182Y-69436175D01*
X75920591Y-69443223D01*
X75937571Y-69452442D01*
X76046070Y-69480906D01*
X76092866Y-69493183D01*
X76092868Y-69493183D01*
X76100094Y-69495079D01*
X76182281Y-69496370D01*
X76260627Y-69497601D01*
X76260630Y-69497601D01*
X76268097Y-69497718D01*
X76275378Y-69496050D01*
X76275382Y-69496050D01*
X76424588Y-69461877D01*
X76424589Y-69461877D01*
X76431879Y-69460207D01*
X76474129Y-69438957D01*
X76542862Y-69426421D01*
X76607464Y-69453036D01*
G37*
%TD.AperFunction*%
%TA.AperFunction,NonConductor*%
G36*
X75348879Y-71050135D02*
G01*
X75388385Y-71107763D01*
X75394500Y-71146222D01*
X75394500Y-71431833D01*
X75374815Y-71498872D01*
X75322011Y-71544627D01*
X75252853Y-71554571D01*
X75212767Y-71541572D01*
X75117164Y-71491273D01*
X75111733Y-71489587D01*
X75111729Y-71489585D01*
X74920660Y-71430257D01*
X74915227Y-71428570D01*
X74771860Y-71411601D01*
X74707602Y-71384175D01*
X74668371Y-71326359D01*
X74666625Y-71256511D01*
X74702919Y-71196807D01*
X74765729Y-71166203D01*
X74775091Y-71164982D01*
X74848721Y-71158216D01*
X74885560Y-71154831D01*
X75089069Y-71097436D01*
X75215656Y-71035010D01*
X75284488Y-71023014D01*
X75348879Y-71050135D01*
G37*
%TD.AperFunction*%
%TA.AperFunction,NonConductor*%
G36*
X95657464Y-69453036D02*
G01*
X95697422Y-69510352D01*
X95700050Y-69580172D01*
X95695015Y-69595685D01*
X95657152Y-69690590D01*
X95615901Y-69897975D01*
X95615827Y-69903662D01*
X95615826Y-69903667D01*
X95615432Y-69933784D01*
X95613133Y-70109404D01*
X95614096Y-70115008D01*
X95614096Y-70115009D01*
X95638159Y-70255046D01*
X95630112Y-70324450D01*
X95603631Y-70363726D01*
X94539516Y-71427841D01*
X94539513Y-71427845D01*
X94516950Y-71450408D01*
X94512520Y-71459103D01*
X94506894Y-71470145D01*
X94496728Y-71486734D01*
X94483704Y-71504660D01*
X94480689Y-71513939D01*
X94480551Y-71514210D01*
X94432575Y-71565005D01*
X94364754Y-71581798D01*
X94312333Y-71567650D01*
X94167164Y-71491273D01*
X94161733Y-71489587D01*
X94161729Y-71489585D01*
X93970660Y-71430257D01*
X93965227Y-71428570D01*
X93821860Y-71411601D01*
X93757602Y-71384175D01*
X93718371Y-71326359D01*
X93716625Y-71256511D01*
X93752919Y-71196807D01*
X93815729Y-71166203D01*
X93825091Y-71164982D01*
X93898721Y-71158216D01*
X93935560Y-71154831D01*
X94139069Y-71097436D01*
X94328710Y-71003915D01*
X94498133Y-70877401D01*
X94501988Y-70873231D01*
X94501991Y-70873228D01*
X94561298Y-70809069D01*
X94641663Y-70722131D01*
X94652686Y-70704661D01*
X94751461Y-70548113D01*
X94751462Y-70548111D01*
X94754495Y-70543304D01*
X94832848Y-70346910D01*
X94837316Y-70324451D01*
X94872988Y-70145109D01*
X94874099Y-70139525D01*
X94874494Y-70109404D01*
X94876793Y-69933784D01*
X94876793Y-69933779D01*
X94876867Y-69928096D01*
X94875904Y-69922491D01*
X94842021Y-69725300D01*
X94842020Y-69725297D01*
X94841059Y-69719703D01*
X94828368Y-69685302D01*
X94795098Y-69595119D01*
X94790363Y-69525410D01*
X94824066Y-69464207D01*
X94885509Y-69430941D01*
X94955182Y-69436175D01*
X94970591Y-69443223D01*
X94987571Y-69452442D01*
X95096070Y-69480906D01*
X95142866Y-69493183D01*
X95142868Y-69493183D01*
X95150094Y-69495079D01*
X95232281Y-69496370D01*
X95310627Y-69497601D01*
X95310630Y-69497601D01*
X95318097Y-69497718D01*
X95325378Y-69496050D01*
X95325382Y-69496050D01*
X95474588Y-69461877D01*
X95474589Y-69461877D01*
X95481879Y-69460207D01*
X95524129Y-69438957D01*
X95592862Y-69426421D01*
X95657464Y-69453036D01*
G37*
%TD.AperFunction*%
%TA.AperFunction,NonConductor*%
G36*
X77136845Y-71015812D02*
G01*
X77151247Y-71022256D01*
X77272836Y-71086227D01*
X77278267Y-71087913D01*
X77278271Y-71087915D01*
X77342193Y-71107763D01*
X77474773Y-71148930D01*
X77618140Y-71165899D01*
X77682398Y-71193325D01*
X77721629Y-71251141D01*
X77723375Y-71320989D01*
X77687081Y-71380693D01*
X77624271Y-71411297D01*
X77614909Y-71412518D01*
X77541279Y-71419284D01*
X77504440Y-71422669D01*
X77300931Y-71480064D01*
X77111290Y-71573585D01*
X76941867Y-71700099D01*
X76938012Y-71704269D01*
X76938009Y-71704272D01*
X76922887Y-71720631D01*
X76816121Y-71836131D01*
X76810556Y-71842151D01*
X76750595Y-71878018D01*
X76680761Y-71875774D01*
X76623227Y-71836131D01*
X76596259Y-71771675D01*
X76595500Y-71757980D01*
X76595500Y-71506005D01*
X76615185Y-71438966D01*
X76631819Y-71418324D01*
X77005830Y-71044313D01*
X77067153Y-71010828D01*
X77136845Y-71015812D01*
G37*
%TD.AperFunction*%
%TA.AperFunction,NonConductor*%
G36*
X96186845Y-71015812D02*
G01*
X96201247Y-71022256D01*
X96322836Y-71086227D01*
X96328267Y-71087913D01*
X96328271Y-71087915D01*
X96392193Y-71107763D01*
X96524773Y-71148930D01*
X96668140Y-71165899D01*
X96732398Y-71193325D01*
X96771629Y-71251141D01*
X96773375Y-71320989D01*
X96737081Y-71380693D01*
X96674271Y-71411297D01*
X96664909Y-71412518D01*
X96591279Y-71419284D01*
X96554440Y-71422669D01*
X96350931Y-71480064D01*
X96161290Y-71573585D01*
X95991867Y-71700099D01*
X95988012Y-71704269D01*
X95988009Y-71704272D01*
X95972887Y-71720631D01*
X95848337Y-71855369D01*
X95845303Y-71860178D01*
X95845302Y-71860179D01*
X95833045Y-71879606D01*
X95735505Y-72034196D01*
X95657152Y-72230590D01*
X95615901Y-72437975D01*
X95615827Y-72443662D01*
X95615826Y-72443667D01*
X95613207Y-72643716D01*
X95613133Y-72649404D01*
X95614096Y-72655008D01*
X95614096Y-72655009D01*
X95638159Y-72795047D01*
X95630112Y-72864451D01*
X95603631Y-72903727D01*
X95457181Y-73050177D01*
X95395858Y-73083662D01*
X95326166Y-73078678D01*
X95270233Y-73036806D01*
X95245816Y-72971342D01*
X95245500Y-72962496D01*
X95245500Y-71906005D01*
X95265185Y-71838966D01*
X95281819Y-71818324D01*
X96055830Y-71044313D01*
X96117153Y-71010828D01*
X96186845Y-71015812D01*
G37*
%TD.AperFunction*%
%TA.AperFunction,NonConductor*%
G36*
X77177233Y-73575928D02*
G01*
X77272836Y-73626227D01*
X77278267Y-73627913D01*
X77278271Y-73627915D01*
X77342193Y-73647763D01*
X77474773Y-73688930D01*
X77618140Y-73705899D01*
X77682398Y-73733325D01*
X77721629Y-73791141D01*
X77723375Y-73860989D01*
X77687081Y-73920693D01*
X77624271Y-73951297D01*
X77614909Y-73952518D01*
X77541279Y-73959284D01*
X77504440Y-73962669D01*
X77300931Y-74020064D01*
X77295834Y-74022578D01*
X77295833Y-74022578D01*
X77174344Y-74082490D01*
X77105512Y-74094486D01*
X77041121Y-74067365D01*
X77001615Y-74009737D01*
X76995500Y-73971278D01*
X76995500Y-73685667D01*
X77015185Y-73618628D01*
X77067989Y-73572873D01*
X77137147Y-73562929D01*
X77177233Y-73575928D01*
G37*
%TD.AperFunction*%
%TA.AperFunction,NonConductor*%
G36*
X75348879Y-73590135D02*
G01*
X75388385Y-73647763D01*
X75394500Y-73686222D01*
X75394500Y-73971833D01*
X75374815Y-74038872D01*
X75322011Y-74084627D01*
X75252853Y-74094571D01*
X75212767Y-74081572D01*
X75117164Y-74031273D01*
X75111733Y-74029587D01*
X75111729Y-74029585D01*
X74920660Y-73970257D01*
X74915227Y-73968570D01*
X74771860Y-73951601D01*
X74707602Y-73924175D01*
X74668371Y-73866359D01*
X74666625Y-73796511D01*
X74702919Y-73736807D01*
X74765729Y-73706203D01*
X74775091Y-73704982D01*
X74848721Y-73698216D01*
X74885560Y-73694831D01*
X75089069Y-73637436D01*
X75215656Y-73575010D01*
X75284488Y-73563014D01*
X75348879Y-73590135D01*
G37*
%TD.AperFunction*%
%TA.AperFunction,NonConductor*%
G36*
X94398879Y-73590135D02*
G01*
X94438385Y-73647763D01*
X94444500Y-73686222D01*
X94444500Y-73971833D01*
X94424815Y-74038872D01*
X94372011Y-74084627D01*
X94302853Y-74094571D01*
X94262767Y-74081572D01*
X94167164Y-74031273D01*
X94161733Y-74029587D01*
X94161729Y-74029585D01*
X93970660Y-73970257D01*
X93965227Y-73968570D01*
X93821860Y-73951601D01*
X93757602Y-73924175D01*
X93718371Y-73866359D01*
X93716625Y-73796511D01*
X93752919Y-73736807D01*
X93815729Y-73706203D01*
X93825091Y-73704982D01*
X93898721Y-73698216D01*
X93935560Y-73694831D01*
X94139069Y-73637436D01*
X94265656Y-73575010D01*
X94334488Y-73563014D01*
X94398879Y-73590135D01*
G37*
%TD.AperFunction*%
%TA.AperFunction,NonConductor*%
G36*
X96186845Y-73555812D02*
G01*
X96201247Y-73562256D01*
X96202688Y-73563014D01*
X96322836Y-73626227D01*
X96328267Y-73627913D01*
X96328271Y-73627915D01*
X96392193Y-73647763D01*
X96524773Y-73688930D01*
X96668140Y-73705899D01*
X96732398Y-73733325D01*
X96771629Y-73791141D01*
X96773375Y-73860989D01*
X96737081Y-73920693D01*
X96674271Y-73951297D01*
X96664909Y-73952518D01*
X96591279Y-73959284D01*
X96554440Y-73962669D01*
X96350931Y-74020064D01*
X96161290Y-74113585D01*
X95991867Y-74240099D01*
X95988012Y-74244269D01*
X95988009Y-74244272D01*
X95972887Y-74260631D01*
X95866121Y-74376131D01*
X95860556Y-74382151D01*
X95800595Y-74418018D01*
X95730761Y-74415774D01*
X95673227Y-74376131D01*
X95646259Y-74311675D01*
X95645500Y-74297980D01*
X95645500Y-74046005D01*
X95665185Y-73978966D01*
X95681819Y-73958324D01*
X96055830Y-73584313D01*
X96117153Y-73550828D01*
X96186845Y-73555812D01*
G37*
%TD.AperFunction*%
%TA.AperFunction,NonConductor*%
G36*
X77177233Y-76115928D02*
G01*
X77272836Y-76166227D01*
X77278267Y-76167913D01*
X77278271Y-76167915D01*
X77342193Y-76187763D01*
X77474773Y-76228930D01*
X77618140Y-76245899D01*
X77682398Y-76273325D01*
X77721629Y-76331141D01*
X77723375Y-76400989D01*
X77687081Y-76460693D01*
X77624271Y-76491297D01*
X77614909Y-76492518D01*
X77541279Y-76499284D01*
X77504440Y-76502669D01*
X77300931Y-76560064D01*
X77295834Y-76562578D01*
X77295833Y-76562578D01*
X77174344Y-76622490D01*
X77105512Y-76634486D01*
X77041121Y-76607365D01*
X77001615Y-76549737D01*
X76995500Y-76511278D01*
X76995500Y-76225667D01*
X77015185Y-76158628D01*
X77067989Y-76112873D01*
X77137147Y-76102929D01*
X77177233Y-76115928D01*
G37*
%TD.AperFunction*%
%TA.AperFunction,NonConductor*%
G36*
X96227233Y-76115928D02*
G01*
X96322836Y-76166227D01*
X96328267Y-76167913D01*
X96328271Y-76167915D01*
X96392193Y-76187763D01*
X96524773Y-76228930D01*
X96668140Y-76245899D01*
X96732398Y-76273325D01*
X96771629Y-76331141D01*
X96773375Y-76400989D01*
X96737081Y-76460693D01*
X96674271Y-76491297D01*
X96664909Y-76492518D01*
X96591279Y-76499284D01*
X96554440Y-76502669D01*
X96350931Y-76560064D01*
X96345834Y-76562578D01*
X96345833Y-76562578D01*
X96224344Y-76622490D01*
X96155512Y-76634486D01*
X96091121Y-76607365D01*
X96051615Y-76549737D01*
X96045500Y-76511278D01*
X96045500Y-76225667D01*
X96065185Y-76158628D01*
X96117989Y-76112873D01*
X96187147Y-76102929D01*
X96227233Y-76115928D01*
G37*
%TD.AperFunction*%
%TA.AperFunction,NonConductor*%
G36*
X94398879Y-76130135D02*
G01*
X94438385Y-76187763D01*
X94444500Y-76226222D01*
X94444500Y-76511833D01*
X94424815Y-76578872D01*
X94372011Y-76624627D01*
X94302853Y-76634571D01*
X94262767Y-76621572D01*
X94167164Y-76571273D01*
X94161733Y-76569587D01*
X94161729Y-76569585D01*
X93970660Y-76510257D01*
X93965227Y-76508570D01*
X93821860Y-76491601D01*
X93757602Y-76464175D01*
X93718371Y-76406359D01*
X93716625Y-76336511D01*
X93752919Y-76276807D01*
X93815729Y-76246203D01*
X93825091Y-76244982D01*
X93898721Y-76238216D01*
X93935560Y-76234831D01*
X94139069Y-76177436D01*
X94265656Y-76115010D01*
X94334488Y-76103014D01*
X94398879Y-76130135D01*
G37*
%TD.AperFunction*%
%TA.AperFunction,NonConductor*%
G36*
X75348879Y-76130135D02*
G01*
X75388385Y-76187763D01*
X75394500Y-76226222D01*
X75394500Y-76511833D01*
X75374815Y-76578872D01*
X75322011Y-76624627D01*
X75252853Y-76634571D01*
X75212767Y-76621572D01*
X75117164Y-76571273D01*
X75111733Y-76569587D01*
X75111729Y-76569585D01*
X74920660Y-76510257D01*
X74915227Y-76508570D01*
X74771860Y-76491601D01*
X74707602Y-76464175D01*
X74668371Y-76406359D01*
X74666625Y-76336511D01*
X74702919Y-76276807D01*
X74765729Y-76246203D01*
X74775091Y-76244982D01*
X74848721Y-76238216D01*
X74885560Y-76234831D01*
X75089069Y-76177436D01*
X75215656Y-76115010D01*
X75284488Y-76103014D01*
X75348879Y-76130135D01*
G37*
%TD.AperFunction*%
%TA.AperFunction,NonConductor*%
G36*
X88183785Y-78900935D02*
G01*
X88229540Y-78953739D01*
X88239484Y-79022897D01*
X88210459Y-79086453D01*
X88204427Y-79092931D01*
X88148977Y-79148381D01*
X88087654Y-79181866D01*
X88077482Y-79183639D01*
X88067881Y-79184903D01*
X88001291Y-79193670D01*
X87993779Y-79196781D01*
X87993777Y-79196782D01*
X87934404Y-79221375D01*
X87867375Y-79249139D01*
X87860924Y-79254089D01*
X87826000Y-79280886D01*
X87760831Y-79306080D01*
X87692386Y-79292041D01*
X87662833Y-79270191D01*
X87485574Y-79092931D01*
X87452089Y-79031608D01*
X87457073Y-78961916D01*
X87498945Y-78905983D01*
X87564409Y-78881566D01*
X87573255Y-78881250D01*
X88116746Y-78881250D01*
X88183785Y-78900935D01*
G37*
%TD.AperFunction*%
%TA.AperFunction,NonConductor*%
G36*
X75348879Y-78670135D02*
G01*
X75388385Y-78727763D01*
X75394500Y-78766222D01*
X75394500Y-79041656D01*
X75374815Y-79108695D01*
X75322011Y-79154450D01*
X75286687Y-79164594D01*
X75237942Y-79171012D01*
X75159354Y-79181358D01*
X75159351Y-79181359D01*
X75151291Y-79182420D01*
X75143779Y-79185531D01*
X75143777Y-79185532D01*
X75057244Y-79221375D01*
X75017375Y-79237889D01*
X75010928Y-79242836D01*
X74902744Y-79325849D01*
X74837575Y-79351043D01*
X74773147Y-79336628D01*
X74772625Y-79337889D01*
X74765388Y-79334891D01*
X74765386Y-79334891D01*
X74765116Y-79334779D01*
X74765113Y-79334777D01*
X74710470Y-79312144D01*
X74656066Y-79268304D01*
X74634001Y-79202010D01*
X74651280Y-79134310D01*
X74670241Y-79109902D01*
X75029471Y-78750672D01*
X75078616Y-78721866D01*
X75078290Y-78721016D01*
X75083439Y-78719039D01*
X75083490Y-78719009D01*
X75089069Y-78717436D01*
X75094169Y-78714921D01*
X75094174Y-78714919D01*
X75215656Y-78655010D01*
X75284488Y-78643014D01*
X75348879Y-78670135D01*
G37*
%TD.AperFunction*%
%TA.AperFunction,NonConductor*%
G36*
X89263754Y-79738935D02*
G01*
X89309509Y-79791739D01*
X89319453Y-79860897D01*
X89307218Y-79899509D01*
X89306911Y-79900112D01*
X89296728Y-79916734D01*
X89283704Y-79934660D01*
X89280687Y-79943946D01*
X89276857Y-79955731D01*
X89269413Y-79973702D01*
X89263785Y-79984748D01*
X89263783Y-79984753D01*
X89259354Y-79993446D01*
X89256087Y-80014072D01*
X89255889Y-80015325D01*
X89251345Y-80034251D01*
X89244500Y-80055317D01*
X89244500Y-80201496D01*
X89224815Y-80268535D01*
X89208181Y-80289177D01*
X88961932Y-80535425D01*
X88900609Y-80568910D01*
X88890437Y-80570683D01*
X88809354Y-80581358D01*
X88809351Y-80581359D01*
X88801291Y-80582420D01*
X88793779Y-80585531D01*
X88793777Y-80585532D01*
X88703407Y-80622964D01*
X88667375Y-80637889D01*
X88660928Y-80642836D01*
X88565883Y-80715767D01*
X88500714Y-80740961D01*
X88432269Y-80726923D01*
X88402715Y-80705072D01*
X88332421Y-80634778D01*
X88179550Y-80481908D01*
X88146066Y-80420586D01*
X88151050Y-80350895D01*
X88192921Y-80294961D01*
X88251045Y-80271289D01*
X88264784Y-80269480D01*
X88288709Y-80266330D01*
X88296221Y-80263219D01*
X88296223Y-80263218D01*
X88415114Y-80213972D01*
X88415113Y-80213972D01*
X88422625Y-80210861D01*
X88517236Y-80138263D01*
X88531178Y-80127565D01*
X88537621Y-80122621D01*
X88625861Y-80007625D01*
X88670394Y-79900112D01*
X88678218Y-79881223D01*
X88678219Y-79881221D01*
X88681330Y-79873709D01*
X88683752Y-79855317D01*
X88687471Y-79827065D01*
X88715738Y-79763168D01*
X88774062Y-79724697D01*
X88810410Y-79719250D01*
X89196715Y-79719250D01*
X89263754Y-79738935D01*
G37*
%TD.AperFunction*%
%TA.AperFunction,NonConductor*%
G36*
X89886363Y-80846294D02*
G01*
X89918516Y-80864100D01*
X89997375Y-80924611D01*
X90004887Y-80927722D01*
X90004886Y-80927722D01*
X90123777Y-80976968D01*
X90123779Y-80976969D01*
X90131291Y-80980080D01*
X90139351Y-80981141D01*
X90139354Y-80981142D01*
X90220437Y-80991817D01*
X90284334Y-81020084D01*
X90291932Y-81027075D01*
X91138181Y-81873324D01*
X91171666Y-81934647D01*
X91174500Y-81961005D01*
X91174500Y-82873370D01*
X91154815Y-82940409D01*
X91102011Y-82986164D01*
X91034314Y-82996309D01*
X90983059Y-82989561D01*
X90975000Y-82988500D01*
X90831291Y-83007420D01*
X90823779Y-83010531D01*
X90823777Y-83010532D01*
X90818580Y-83012685D01*
X90749111Y-83020154D01*
X90683447Y-82985805D01*
X89358678Y-81661035D01*
X89325193Y-81599712D01*
X89330177Y-81530020D01*
X89347983Y-81497867D01*
X89420914Y-81402822D01*
X89425861Y-81396375D01*
X89481330Y-81262459D01*
X89493067Y-81173313D01*
X89521334Y-81109416D01*
X89528325Y-81101818D01*
X89755348Y-80874795D01*
X89816671Y-80841310D01*
X89886363Y-80846294D01*
G37*
%TD.AperFunction*%
%TA.AperFunction,NonConductor*%
G36*
X79100703Y-82291292D02*
G01*
X79107181Y-82297324D01*
X79658181Y-82848324D01*
X79691666Y-82909647D01*
X79694500Y-82936005D01*
X79694500Y-83094790D01*
X79674815Y-83161829D01*
X79622011Y-83207584D01*
X79567091Y-83215080D01*
X79567091Y-83218250D01*
X78943286Y-83218250D01*
X78876247Y-83198565D01*
X78830492Y-83145761D01*
X78820548Y-83076603D01*
X78832784Y-83037988D01*
X78833090Y-83037387D01*
X78843274Y-83020763D01*
X78856296Y-83002840D01*
X78863141Y-82981773D01*
X78870586Y-82963798D01*
X78876215Y-82952751D01*
X78876216Y-82952749D01*
X78880646Y-82944054D01*
X78884114Y-82922156D01*
X78888651Y-82903260D01*
X78895499Y-82882183D01*
X78895499Y-82850275D01*
X78895500Y-82850269D01*
X78895500Y-82385005D01*
X78915185Y-82317966D01*
X78967989Y-82272211D01*
X79037147Y-82262267D01*
X79100703Y-82291292D01*
G37*
%TD.AperFunction*%
%TA.AperFunction,NonConductor*%
G36*
X73392707Y-82663935D02*
G01*
X73438462Y-82716739D01*
X73448406Y-82785897D01*
X73419381Y-82849453D01*
X73401155Y-82866625D01*
X73370729Y-82889972D01*
X73370725Y-82889976D01*
X73364282Y-82894920D01*
X73359338Y-82901363D01*
X73350769Y-82912530D01*
X73276042Y-83009916D01*
X73272931Y-83017427D01*
X73240887Y-83094790D01*
X73220573Y-83143832D01*
X73201653Y-83287541D01*
X73202591Y-83294668D01*
X73183029Y-83361289D01*
X73130225Y-83407044D01*
X73078714Y-83418250D01*
X72661254Y-83418250D01*
X72594215Y-83398565D01*
X72548460Y-83345761D01*
X72538516Y-83276603D01*
X72567541Y-83213047D01*
X72573573Y-83206569D01*
X73099573Y-82680569D01*
X73160896Y-82647084D01*
X73187254Y-82644250D01*
X73325668Y-82644250D01*
X73392707Y-82663935D01*
G37*
%TD.AperFunction*%
%TA.AperFunction,NonConductor*%
G36*
X64395693Y-84237919D02*
G01*
X64426297Y-84300729D01*
X64427518Y-84310091D01*
X64434223Y-84383062D01*
X64437669Y-84420560D01*
X64495064Y-84624069D01*
X64497578Y-84629166D01*
X64497578Y-84629167D01*
X64557490Y-84750656D01*
X64569486Y-84819488D01*
X64542365Y-84883879D01*
X64484737Y-84923385D01*
X64446278Y-84929500D01*
X64160667Y-84929500D01*
X64093628Y-84909815D01*
X64047873Y-84857011D01*
X64037929Y-84787853D01*
X64050928Y-84747767D01*
X64101227Y-84652164D01*
X64103109Y-84646105D01*
X64162243Y-84455660D01*
X64163930Y-84450227D01*
X64180899Y-84306860D01*
X64208325Y-84242602D01*
X64266141Y-84203371D01*
X64335989Y-84201625D01*
X64395693Y-84237919D01*
G37*
%TD.AperFunction*%
%TA.AperFunction,NonConductor*%
G36*
X66935693Y-84237919D02*
G01*
X66966297Y-84300729D01*
X66967518Y-84310091D01*
X66974223Y-84383062D01*
X66977669Y-84420560D01*
X67035064Y-84624069D01*
X67037578Y-84629166D01*
X67037578Y-84629167D01*
X67097490Y-84750656D01*
X67109486Y-84819488D01*
X67082365Y-84883879D01*
X67024737Y-84923385D01*
X66986278Y-84929500D01*
X66700667Y-84929500D01*
X66633628Y-84909815D01*
X66587873Y-84857011D01*
X66577929Y-84787853D01*
X66590928Y-84747767D01*
X66641227Y-84652164D01*
X66643109Y-84646105D01*
X66702243Y-84455660D01*
X66703930Y-84450227D01*
X66720899Y-84306860D01*
X66748325Y-84242602D01*
X66806141Y-84203371D01*
X66875989Y-84201625D01*
X66935693Y-84237919D01*
G37*
%TD.AperFunction*%
%TA.AperFunction,NonConductor*%
G36*
X80396414Y-84037004D02*
G01*
X80420823Y-84055966D01*
X81315417Y-84950560D01*
X81348902Y-85011883D01*
X81343918Y-85081575D01*
X81302046Y-85137508D01*
X81236582Y-85161925D01*
X81200400Y-85157511D01*
X81200306Y-85158104D01*
X81180503Y-85154968D01*
X81178424Y-85154639D01*
X81159499Y-85150095D01*
X81159107Y-85149968D01*
X81138433Y-85143250D01*
X79111567Y-85143250D01*
X79090893Y-85149968D01*
X79090501Y-85150095D01*
X79071576Y-85154639D01*
X79069497Y-85154968D01*
X79059330Y-85156578D01*
X79059329Y-85156578D01*
X79049696Y-85158104D01*
X79042591Y-85161724D01*
X78973736Y-85163691D01*
X78913904Y-85127610D01*
X78890700Y-85091218D01*
X78877721Y-85059883D01*
X78877721Y-85059882D01*
X78874611Y-85052375D01*
X78869664Y-85045928D01*
X78869197Y-85045119D01*
X78852727Y-84977218D01*
X78875581Y-84911192D01*
X78930503Y-84868003D01*
X78934266Y-84866750D01*
X78937459Y-84866330D01*
X78951537Y-84860499D01*
X79063864Y-84813972D01*
X79063863Y-84813972D01*
X79071375Y-84810861D01*
X79111161Y-84780332D01*
X79179928Y-84727565D01*
X79186371Y-84722621D01*
X79274611Y-84607625D01*
X79296556Y-84554645D01*
X79326968Y-84481223D01*
X79326969Y-84481221D01*
X79330080Y-84473709D01*
X79332457Y-84455660D01*
X79333927Y-84444490D01*
X79362194Y-84380593D01*
X79420519Y-84342123D01*
X79490384Y-84341292D01*
X79504304Y-84346110D01*
X79583982Y-84379113D01*
X79727691Y-84398033D01*
X79871400Y-84379113D01*
X79878912Y-84376002D01*
X79878914Y-84376001D01*
X79997805Y-84326755D01*
X79997804Y-84326755D01*
X80005316Y-84323644D01*
X80044999Y-84293194D01*
X80113869Y-84240348D01*
X80120312Y-84235404D01*
X80208552Y-84120408D01*
X80218582Y-84096194D01*
X80262421Y-84041792D01*
X80328715Y-84019726D01*
X80396414Y-84037004D01*
G37*
%TD.AperFunction*%
%TA.AperFunction,NonConductor*%
G36*
X92180703Y-83821292D02*
G01*
X92187181Y-83827324D01*
X92415824Y-84055966D01*
X92706658Y-84346800D01*
X92726396Y-84356857D01*
X92742986Y-84367024D01*
X92760910Y-84380046D01*
X92781977Y-84386891D01*
X92799952Y-84394336D01*
X92810999Y-84399965D01*
X92811001Y-84399966D01*
X92819696Y-84404396D01*
X92841594Y-84407864D01*
X92860490Y-84412401D01*
X92881567Y-84419249D01*
X92913477Y-84419249D01*
X92913481Y-84419250D01*
X93620554Y-84419250D01*
X93687593Y-84438935D01*
X93696041Y-84444875D01*
X93760923Y-84494661D01*
X93760927Y-84494663D01*
X93767375Y-84499611D01*
X93783256Y-84506189D01*
X93900241Y-84554645D01*
X93954645Y-84598485D01*
X93976710Y-84664779D01*
X93959431Y-84732479D01*
X93940470Y-84756887D01*
X93415426Y-85281931D01*
X93354103Y-85315416D01*
X93327745Y-85318250D01*
X92070417Y-85318250D01*
X92003378Y-85298565D01*
X91957623Y-85245761D01*
X91947679Y-85176603D01*
X91954539Y-85154968D01*
X91953199Y-85154533D01*
X91956215Y-85145250D01*
X91960646Y-85136554D01*
X91964111Y-85114675D01*
X91968653Y-85095756D01*
X91972485Y-85083963D01*
X91972485Y-85083961D01*
X91975500Y-85074683D01*
X91975500Y-83915005D01*
X91995185Y-83847966D01*
X92047989Y-83802211D01*
X92117147Y-83792267D01*
X92180703Y-83821292D01*
G37*
%TD.AperFunction*%
%TA.AperFunction,NonConductor*%
G36*
X61855693Y-84237919D02*
G01*
X61886297Y-84300729D01*
X61887518Y-84310091D01*
X61894223Y-84383062D01*
X61897669Y-84420560D01*
X61955064Y-84624069D01*
X61957578Y-84629166D01*
X61957578Y-84629167D01*
X62042374Y-84801116D01*
X62054370Y-84869948D01*
X62027249Y-84934339D01*
X61988025Y-84965986D01*
X61979661Y-84968704D01*
X61966076Y-84978574D01*
X61961738Y-84981726D01*
X61945151Y-84991891D01*
X61925408Y-85001950D01*
X61902845Y-85024513D01*
X61902841Y-85024516D01*
X60838161Y-86089196D01*
X60776838Y-86122681D01*
X60726290Y-86123132D01*
X60614525Y-86100901D01*
X60608838Y-86100827D01*
X60608833Y-86100826D01*
X60408784Y-86098207D01*
X60408779Y-86098207D01*
X60403096Y-86098133D01*
X60397492Y-86099096D01*
X60397491Y-86099096D01*
X60200300Y-86132979D01*
X60200297Y-86132980D01*
X60194703Y-86133941D01*
X60166730Y-86144261D01*
X60059341Y-86183879D01*
X59989632Y-86188614D01*
X59928428Y-86154911D01*
X59895163Y-86093469D01*
X59901371Y-86021292D01*
X59944933Y-85912931D01*
X59944936Y-85912920D01*
X59947721Y-85905992D01*
X59971396Y-85739645D01*
X59971549Y-85725000D01*
X59960135Y-85630677D01*
X59952262Y-85565619D01*
X59952261Y-85565615D01*
X59951363Y-85558194D01*
X59905889Y-85437850D01*
X59900606Y-85368180D01*
X59933828Y-85306714D01*
X59995007Y-85272967D01*
X60067833Y-85278847D01*
X60165590Y-85317848D01*
X60171171Y-85318958D01*
X60171174Y-85318959D01*
X60234616Y-85331578D01*
X60372975Y-85359099D01*
X60378662Y-85359173D01*
X60378667Y-85359174D01*
X60578716Y-85361793D01*
X60578721Y-85361793D01*
X60584404Y-85361867D01*
X60590008Y-85360904D01*
X60590009Y-85360904D01*
X60787200Y-85327021D01*
X60787203Y-85327020D01*
X60792797Y-85326059D01*
X60991175Y-85252873D01*
X60996690Y-85249592D01*
X61168010Y-85147668D01*
X61168013Y-85147666D01*
X61172894Y-85144762D01*
X61331869Y-85005345D01*
X61335388Y-85000881D01*
X61335391Y-85000878D01*
X61406093Y-84911192D01*
X61462774Y-84839292D01*
X61561227Y-84652164D01*
X61563109Y-84646105D01*
X61622243Y-84455660D01*
X61623930Y-84450227D01*
X61640899Y-84306860D01*
X61668325Y-84242602D01*
X61726141Y-84203371D01*
X61795989Y-84201625D01*
X61855693Y-84237919D01*
G37*
%TD.AperFunction*%
%TA.AperFunction,NonConductor*%
G36*
X92254057Y-86138935D02*
G01*
X92299812Y-86191739D01*
X92309756Y-86260897D01*
X92280731Y-86324453D01*
X92262505Y-86341626D01*
X92196041Y-86392626D01*
X92130872Y-86417820D01*
X92120554Y-86418250D01*
X88911255Y-86418250D01*
X88844216Y-86398565D01*
X88798461Y-86345761D01*
X88788517Y-86276603D01*
X88817542Y-86213047D01*
X88823574Y-86206569D01*
X88874574Y-86155569D01*
X88935897Y-86122084D01*
X88962255Y-86119250D01*
X92187018Y-86119250D01*
X92254057Y-86138935D01*
G37*
%TD.AperFunction*%
%TA.AperFunction,NonConductor*%
G36*
X93554057Y-86138935D02*
G01*
X93599812Y-86191739D01*
X93609756Y-86260897D01*
X93580731Y-86324453D01*
X93562506Y-86341625D01*
X93452379Y-86426129D01*
X93447435Y-86432572D01*
X93413446Y-86476867D01*
X93364139Y-86541125D01*
X93331175Y-86620708D01*
X93309561Y-86672890D01*
X93265721Y-86727294D01*
X93199427Y-86749359D01*
X93131727Y-86732080D01*
X93084116Y-86680943D01*
X93080439Y-86672890D01*
X93058825Y-86620708D01*
X93025861Y-86541125D01*
X92976554Y-86476867D01*
X92942565Y-86432572D01*
X92937621Y-86426129D01*
X92827495Y-86341626D01*
X92786293Y-86285198D01*
X92782138Y-86215452D01*
X92816351Y-86154531D01*
X92878068Y-86121779D01*
X92902982Y-86119250D01*
X93487018Y-86119250D01*
X93554057Y-86138935D01*
G37*
%TD.AperFunction*%
%TA.AperFunction,NonConductor*%
G36*
X67056502Y-86545185D02*
G01*
X67102257Y-86597989D01*
X67112201Y-86667147D01*
X67099203Y-86707233D01*
X67046273Y-86807836D01*
X67044587Y-86813267D01*
X67044585Y-86813271D01*
X66992732Y-86980266D01*
X66983570Y-87009773D01*
X66966601Y-87153140D01*
X66939175Y-87217398D01*
X66881359Y-87256629D01*
X66811511Y-87258375D01*
X66751807Y-87222081D01*
X66721203Y-87159271D01*
X66719982Y-87149909D01*
X66710351Y-87045100D01*
X66709831Y-87039440D01*
X66652436Y-86835931D01*
X66645204Y-86821265D01*
X66614622Y-86759253D01*
X66587544Y-86704343D01*
X66575547Y-86635512D01*
X66602669Y-86571121D01*
X66660297Y-86531615D01*
X66698756Y-86525500D01*
X66989463Y-86525500D01*
X67056502Y-86545185D01*
G37*
%TD.AperFunction*%
%TA.AperFunction,NonConductor*%
G36*
X64842838Y-86150185D02*
G01*
X64888593Y-86202989D01*
X64898537Y-86272147D01*
X64869512Y-86335703D01*
X64857558Y-86347728D01*
X64735631Y-86454655D01*
X64732112Y-86459119D01*
X64732109Y-86459122D01*
X64714532Y-86481419D01*
X64604726Y-86620708D01*
X64506273Y-86807836D01*
X64504587Y-86813267D01*
X64504585Y-86813271D01*
X64452732Y-86980266D01*
X64443570Y-87009773D01*
X64426601Y-87153140D01*
X64399175Y-87217398D01*
X64341359Y-87256629D01*
X64271511Y-87258375D01*
X64211807Y-87222081D01*
X64181203Y-87159271D01*
X64179982Y-87149909D01*
X64170351Y-87045100D01*
X64169831Y-87039440D01*
X64112436Y-86835931D01*
X64105204Y-86821265D01*
X64096101Y-86802808D01*
X64036727Y-86682408D01*
X64024730Y-86613578D01*
X64051852Y-86549187D01*
X64060258Y-86539885D01*
X64433323Y-86166819D01*
X64494646Y-86133334D01*
X64521004Y-86130500D01*
X64775799Y-86130500D01*
X64842838Y-86150185D01*
G37*
%TD.AperFunction*%
%TA.AperFunction,NonConductor*%
G36*
X63504534Y-85750185D02*
G01*
X63550289Y-85802989D01*
X63560233Y-85872147D01*
X63531208Y-85935703D01*
X63525176Y-85942181D01*
X63378161Y-86089196D01*
X63316838Y-86122681D01*
X63266290Y-86123132D01*
X63154525Y-86100901D01*
X63148838Y-86100827D01*
X63148833Y-86100826D01*
X62948784Y-86098207D01*
X62948779Y-86098207D01*
X62943096Y-86098133D01*
X62937492Y-86099096D01*
X62937491Y-86099096D01*
X62740300Y-86132979D01*
X62740297Y-86132980D01*
X62734703Y-86133941D01*
X62536325Y-86207127D01*
X62531447Y-86210029D01*
X62531445Y-86210030D01*
X62359490Y-86312332D01*
X62359487Y-86312334D01*
X62354606Y-86315238D01*
X62195631Y-86454655D01*
X62192112Y-86459119D01*
X62192109Y-86459122D01*
X62174532Y-86481419D01*
X62064726Y-86620708D01*
X61966273Y-86807836D01*
X61964587Y-86813267D01*
X61964585Y-86813271D01*
X61912732Y-86980266D01*
X61903570Y-87009773D01*
X61886601Y-87153140D01*
X61859175Y-87217398D01*
X61801359Y-87256629D01*
X61731511Y-87258375D01*
X61671807Y-87222081D01*
X61641203Y-87159271D01*
X61639982Y-87149909D01*
X61630351Y-87045100D01*
X61629831Y-87039440D01*
X61572436Y-86835931D01*
X61565204Y-86821265D01*
X61556101Y-86802808D01*
X61496727Y-86682408D01*
X61484730Y-86613578D01*
X61511852Y-86549187D01*
X61520258Y-86539885D01*
X62293324Y-85766819D01*
X62354647Y-85733334D01*
X62381005Y-85730500D01*
X63437495Y-85730500D01*
X63504534Y-85750185D01*
G37*
%TD.AperFunction*%
%TA.AperFunction,NonConductor*%
G36*
X80237263Y-87372406D02*
G01*
X80459426Y-87594569D01*
X80492911Y-87655892D01*
X80487927Y-87725584D01*
X80446055Y-87781517D01*
X80380591Y-87805934D01*
X80371745Y-87806250D01*
X79778255Y-87806250D01*
X79711216Y-87786565D01*
X79665461Y-87733761D01*
X79655517Y-87664603D01*
X79684542Y-87601047D01*
X79690574Y-87594569D01*
X79858068Y-87427075D01*
X79919391Y-87393590D01*
X79929563Y-87391817D01*
X80010646Y-87381142D01*
X80010649Y-87381141D01*
X80018709Y-87380080D01*
X80102132Y-87345526D01*
X80171599Y-87338057D01*
X80237263Y-87372406D01*
G37*
%TD.AperFunction*%
%TA.AperFunction,NonConductor*%
G36*
X77183850Y-87438935D02*
G01*
X77229605Y-87491739D01*
X77240191Y-87540400D01*
X77239750Y-87543750D01*
X77240811Y-87551809D01*
X77240811Y-87551810D01*
X77255853Y-87666065D01*
X77245087Y-87735100D01*
X77198707Y-87787356D01*
X77132914Y-87806250D01*
X69388250Y-87806250D01*
X69321211Y-87786565D01*
X69275456Y-87733761D01*
X69264250Y-87682250D01*
X69264250Y-87543250D01*
X69283935Y-87476211D01*
X69336739Y-87430456D01*
X69388250Y-87419250D01*
X77116811Y-87419250D01*
X77183850Y-87438935D01*
G37*
%TD.AperFunction*%
%TA.AperFunction,NonConductor*%
G36*
X117113039Y-62232185D02*
G01*
X117158794Y-62284989D01*
X117170000Y-62336500D01*
X117170000Y-87682250D01*
X117150315Y-87749289D01*
X117097511Y-87795044D01*
X117046000Y-87806250D01*
X112738075Y-87806250D01*
X112671036Y-87786565D01*
X112655587Y-87774833D01*
X112602119Y-87727195D01*
X112565159Y-87667902D01*
X112566123Y-87598038D01*
X112604076Y-87540322D01*
X112676813Y-87478199D01*
X112676818Y-87478194D01*
X112682502Y-87473339D01*
X112713317Y-87430456D01*
X112776191Y-87342956D01*
X112780550Y-87336890D01*
X112803551Y-87279674D01*
X112840435Y-87187924D01*
X112840436Y-87187919D01*
X112843221Y-87180992D01*
X112866896Y-87014645D01*
X112867049Y-87000000D01*
X112856553Y-86913267D01*
X112847762Y-86840619D01*
X112847761Y-86840615D01*
X112846863Y-86833194D01*
X112787471Y-86676018D01*
X112783238Y-86669859D01*
X112783236Y-86669855D01*
X112700303Y-86549187D01*
X112692302Y-86537545D01*
X112686723Y-86532574D01*
X112686721Y-86532572D01*
X112602119Y-86457195D01*
X112565159Y-86397901D01*
X112566123Y-86328038D01*
X112604076Y-86270322D01*
X112676813Y-86208199D01*
X112676818Y-86208194D01*
X112682502Y-86203339D01*
X112690838Y-86191739D01*
X112764522Y-86089196D01*
X112780550Y-86066890D01*
X112797698Y-86024234D01*
X112840435Y-85917924D01*
X112840436Y-85917919D01*
X112843221Y-85910992D01*
X112866896Y-85744645D01*
X112867049Y-85730000D01*
X112855633Y-85635661D01*
X112847762Y-85570619D01*
X112847761Y-85570615D01*
X112846863Y-85563194D01*
X112787471Y-85406018D01*
X112783238Y-85399859D01*
X112783236Y-85399855D01*
X112702189Y-85281931D01*
X112692302Y-85267545D01*
X112686723Y-85262574D01*
X112686721Y-85262572D01*
X112602119Y-85187195D01*
X112565159Y-85127901D01*
X112566123Y-85058038D01*
X112604076Y-85000322D01*
X112676813Y-84938199D01*
X112676818Y-84938194D01*
X112682502Y-84933339D01*
X112711739Y-84892652D01*
X112770511Y-84810861D01*
X112780550Y-84796890D01*
X112793188Y-84765453D01*
X112840435Y-84647924D01*
X112840436Y-84647919D01*
X112843221Y-84640992D01*
X112846257Y-84619664D01*
X112861697Y-84511173D01*
X112866896Y-84474645D01*
X112867049Y-84460000D01*
X112860924Y-84409389D01*
X112847762Y-84300619D01*
X112847761Y-84300615D01*
X112846863Y-84293194D01*
X112787471Y-84136018D01*
X112783238Y-84129859D01*
X112783236Y-84129855D01*
X112696534Y-84003703D01*
X112692302Y-83997545D01*
X112686723Y-83992574D01*
X112686721Y-83992572D01*
X112602119Y-83917195D01*
X112565159Y-83857901D01*
X112566123Y-83788038D01*
X112604076Y-83730322D01*
X112676813Y-83668199D01*
X112676818Y-83668194D01*
X112682502Y-83663339D01*
X112688267Y-83655317D01*
X112776191Y-83532956D01*
X112780550Y-83526890D01*
X112790365Y-83502475D01*
X112840435Y-83377924D01*
X112840436Y-83377919D01*
X112843221Y-83370992D01*
X112847784Y-83338935D01*
X112863688Y-83227183D01*
X112866896Y-83204645D01*
X112867049Y-83190000D01*
X112866457Y-83185107D01*
X112847762Y-83030619D01*
X112847761Y-83030615D01*
X112846863Y-83023194D01*
X112787471Y-82866018D01*
X112783238Y-82859859D01*
X112783236Y-82859855D01*
X112696534Y-82733703D01*
X112692302Y-82727545D01*
X112566849Y-82615771D01*
X112560242Y-82612273D01*
X112560238Y-82612270D01*
X112460702Y-82559569D01*
X112418356Y-82537148D01*
X112332112Y-82515485D01*
X112307541Y-82509313D01*
X112247317Y-82473889D01*
X112215805Y-82411530D01*
X112213750Y-82389049D01*
X112213750Y-68427985D01*
X112233435Y-68360946D01*
X112286239Y-68315191D01*
X112310066Y-68307115D01*
X112348492Y-68298314D01*
X112404629Y-68285457D01*
X112554736Y-68209961D01*
X112575360Y-68192347D01*
X112625646Y-68149398D01*
X112682502Y-68100839D01*
X112689556Y-68091023D01*
X112755714Y-67998953D01*
X112780550Y-67964390D01*
X112791178Y-67937953D01*
X112840435Y-67815424D01*
X112840436Y-67815419D01*
X112843221Y-67808492D01*
X112866896Y-67642145D01*
X112867049Y-67627500D01*
X112846863Y-67460694D01*
X112787471Y-67303518D01*
X112783238Y-67297359D01*
X112783236Y-67297355D01*
X112696534Y-67171203D01*
X112692302Y-67165045D01*
X112686723Y-67160074D01*
X112686721Y-67160072D01*
X112602119Y-67084695D01*
X112565159Y-67025401D01*
X112566123Y-66955538D01*
X112604076Y-66897822D01*
X112676813Y-66835699D01*
X112676818Y-66835694D01*
X112682502Y-66830839D01*
X112698753Y-66808224D01*
X112776191Y-66700456D01*
X112780550Y-66694390D01*
X112791178Y-66667953D01*
X112840435Y-66545424D01*
X112840436Y-66545419D01*
X112843221Y-66538492D01*
X112866896Y-66372145D01*
X112867049Y-66357500D01*
X112846863Y-66190694D01*
X112787471Y-66033518D01*
X112783238Y-66027359D01*
X112783236Y-66027355D01*
X112696534Y-65901203D01*
X112692302Y-65895045D01*
X112686723Y-65890074D01*
X112686721Y-65890072D01*
X112602119Y-65814695D01*
X112565159Y-65755401D01*
X112566123Y-65685538D01*
X112604076Y-65627822D01*
X112676813Y-65565699D01*
X112676818Y-65565694D01*
X112682502Y-65560839D01*
X112698753Y-65538224D01*
X112776191Y-65430456D01*
X112780550Y-65424390D01*
X112791178Y-65397953D01*
X112840435Y-65275424D01*
X112840436Y-65275419D01*
X112843221Y-65268492D01*
X112866896Y-65102145D01*
X112867049Y-65087500D01*
X112846863Y-64920694D01*
X112787471Y-64763518D01*
X112783238Y-64757359D01*
X112783236Y-64757355D01*
X112696534Y-64631203D01*
X112692302Y-64625045D01*
X112686723Y-64620074D01*
X112686721Y-64620072D01*
X112602119Y-64544695D01*
X112565159Y-64485401D01*
X112566123Y-64415538D01*
X112604076Y-64357822D01*
X112676813Y-64295699D01*
X112676818Y-64295694D01*
X112682502Y-64290839D01*
X112698753Y-64268224D01*
X112776191Y-64160456D01*
X112780550Y-64154390D01*
X112791178Y-64127953D01*
X112840435Y-64005424D01*
X112840436Y-64005419D01*
X112843221Y-63998492D01*
X112866896Y-63832145D01*
X112867049Y-63817500D01*
X112846863Y-63650694D01*
X112787471Y-63493518D01*
X112783238Y-63487359D01*
X112783236Y-63487355D01*
X112696534Y-63361203D01*
X112692302Y-63355045D01*
X112686723Y-63350074D01*
X112686721Y-63350072D01*
X112602119Y-63274695D01*
X112565159Y-63215401D01*
X112566123Y-63145538D01*
X112604076Y-63087822D01*
X112676813Y-63025699D01*
X112676818Y-63025694D01*
X112682502Y-63020839D01*
X112698753Y-62998224D01*
X112776191Y-62890456D01*
X112780550Y-62884390D01*
X112791178Y-62857953D01*
X112840435Y-62735424D01*
X112840436Y-62735419D01*
X112843221Y-62728492D01*
X112866896Y-62562145D01*
X112867049Y-62547500D01*
X112846863Y-62380694D01*
X112844219Y-62373698D01*
X112842437Y-62366442D01*
X112845605Y-62365664D01*
X112841453Y-62310613D01*
X112874700Y-62249160D01*
X112935893Y-62215437D01*
X112962721Y-62212500D01*
X117046000Y-62212500D01*
X117113039Y-62232185D01*
G37*
%TD.AperFunction*%
%TA.AperFunction,NonConductor*%
G36*
X58544388Y-62232185D02*
G01*
X58590143Y-62284989D01*
X58600087Y-62354147D01*
X58597553Y-62366841D01*
X58594921Y-62373591D01*
X58572989Y-62540177D01*
X58591427Y-62707186D01*
X58593993Y-62714198D01*
X58593994Y-62714202D01*
X58646600Y-62857953D01*
X58649170Y-62864975D01*
X58742884Y-63004436D01*
X58748416Y-63009469D01*
X58748417Y-63009471D01*
X58838338Y-63091293D01*
X58874674Y-63150971D01*
X58872978Y-63220820D01*
X58836399Y-63276448D01*
X58752570Y-63349578D01*
X58655955Y-63487046D01*
X58594921Y-63643591D01*
X58572989Y-63810177D01*
X58591427Y-63977186D01*
X58593993Y-63984198D01*
X58593994Y-63984202D01*
X58646600Y-64127953D01*
X58649170Y-64134975D01*
X58742884Y-64274436D01*
X58748416Y-64279469D01*
X58748417Y-64279471D01*
X58838338Y-64361293D01*
X58874674Y-64420971D01*
X58872978Y-64490820D01*
X58836399Y-64546448D01*
X58752570Y-64619578D01*
X58655955Y-64757046D01*
X58594921Y-64913591D01*
X58572989Y-65080177D01*
X58591427Y-65247186D01*
X58593993Y-65254198D01*
X58593994Y-65254202D01*
X58646600Y-65397953D01*
X58649170Y-65404975D01*
X58742884Y-65544436D01*
X58748416Y-65549469D01*
X58748417Y-65549471D01*
X58838338Y-65631293D01*
X58874674Y-65690971D01*
X58872978Y-65760820D01*
X58836399Y-65816448D01*
X58752570Y-65889578D01*
X58655955Y-66027046D01*
X58594921Y-66183591D01*
X58572989Y-66350177D01*
X58591427Y-66517186D01*
X58593993Y-66524198D01*
X58593994Y-66524202D01*
X58646600Y-66667953D01*
X58649170Y-66674975D01*
X58742884Y-66814436D01*
X58748416Y-66819469D01*
X58748417Y-66819471D01*
X58838338Y-66901293D01*
X58874674Y-66960971D01*
X58872978Y-67030820D01*
X58836399Y-67086448D01*
X58752570Y-67159578D01*
X58655955Y-67297046D01*
X58594921Y-67453591D01*
X58572989Y-67620177D01*
X58591427Y-67787186D01*
X58593993Y-67794198D01*
X58593994Y-67794202D01*
X58646600Y-67937953D01*
X58649170Y-67944975D01*
X58742884Y-68084436D01*
X58748416Y-68089469D01*
X58748417Y-68089471D01*
X58834086Y-68167424D01*
X58867159Y-68197518D01*
X58873724Y-68201082D01*
X58873726Y-68201084D01*
X58987590Y-68262907D01*
X59014821Y-68277692D01*
X59133716Y-68308883D01*
X59193566Y-68344934D01*
X59224424Y-68407621D01*
X59226250Y-68428824D01*
X59226250Y-82384329D01*
X59206565Y-82451368D01*
X59153761Y-82497123D01*
X59131199Y-82504902D01*
X59092427Y-82514211D01*
X59035765Y-82527814D01*
X59035762Y-82527815D01*
X59028494Y-82529560D01*
X59021851Y-82532988D01*
X59021850Y-82532989D01*
X58970352Y-82559569D01*
X58879186Y-82606623D01*
X58873555Y-82611535D01*
X58873554Y-82611536D01*
X58862993Y-82620749D01*
X58752570Y-82717078D01*
X58655955Y-82854546D01*
X58594921Y-83011091D01*
X58572989Y-83177677D01*
X58573809Y-83185105D01*
X58573809Y-83185107D01*
X58584228Y-83279482D01*
X58591427Y-83344686D01*
X58593993Y-83351698D01*
X58593994Y-83351702D01*
X58646600Y-83495453D01*
X58649170Y-83502475D01*
X58742884Y-83641936D01*
X58748416Y-83646969D01*
X58748417Y-83646971D01*
X58838338Y-83728793D01*
X58874674Y-83788471D01*
X58872978Y-83858320D01*
X58836399Y-83913948D01*
X58752570Y-83987078D01*
X58655955Y-84124546D01*
X58594921Y-84281091D01*
X58572989Y-84447677D01*
X58573809Y-84455105D01*
X58573809Y-84455107D01*
X58583327Y-84541315D01*
X58591427Y-84614686D01*
X58593993Y-84621698D01*
X58593994Y-84621702D01*
X58646600Y-84765453D01*
X58649170Y-84772475D01*
X58742884Y-84911936D01*
X58748416Y-84916969D01*
X58748417Y-84916971D01*
X58838338Y-84998793D01*
X58874674Y-85058471D01*
X58872978Y-85128320D01*
X58836399Y-85183948D01*
X58752570Y-85257078D01*
X58655955Y-85394546D01*
X58594921Y-85551091D01*
X58572989Y-85717677D01*
X58573809Y-85725105D01*
X58573809Y-85725107D01*
X58583184Y-85810026D01*
X58591427Y-85884686D01*
X58593993Y-85891698D01*
X58593994Y-85891702D01*
X58646600Y-86035453D01*
X58649170Y-86042475D01*
X58742884Y-86181936D01*
X58748416Y-86186969D01*
X58748417Y-86186971D01*
X58838338Y-86268793D01*
X58874674Y-86328471D01*
X58872978Y-86398320D01*
X58836399Y-86453948D01*
X58752570Y-86527078D01*
X58655955Y-86664546D01*
X58594921Y-86821091D01*
X58572989Y-86987677D01*
X58573809Y-86995105D01*
X58573809Y-86995107D01*
X58584138Y-87088662D01*
X58591427Y-87154686D01*
X58593993Y-87161698D01*
X58593994Y-87161702D01*
X58646600Y-87305453D01*
X58649170Y-87312475D01*
X58742884Y-87451936D01*
X58748416Y-87456969D01*
X58748417Y-87456971D01*
X58838338Y-87538793D01*
X58874674Y-87598471D01*
X58872978Y-87668320D01*
X58836399Y-87723949D01*
X58777085Y-87775692D01*
X58713626Y-87804928D01*
X58695570Y-87806250D01*
X54394000Y-87806250D01*
X54326961Y-87786565D01*
X54281206Y-87733761D01*
X54270000Y-87682250D01*
X54270000Y-62336500D01*
X54289685Y-62269461D01*
X54342489Y-62223706D01*
X54394000Y-62212500D01*
X58477349Y-62212500D01*
X58544388Y-62232185D01*
G37*
%TD.AperFunction*%
M02*
