%TF.GenerationSoftware,KiCad,Pcbnew,(5.99.0-12112-g0cd8a4d846)*%
%TF.CreationDate,2021-10-21T21:26:21-04:00*%
%TF.ProjectId,Piggyback_1_0_PCB,50696767-7962-4616-936b-5f315f305f50,rev?*%
%TF.SameCoordinates,Original*%
%TF.FileFunction,Soldermask,Top*%
%TF.FilePolarity,Negative*%
%FSLAX46Y46*%
G04 Gerber Fmt 4.6, Leading zero omitted, Abs format (unit mm)*
G04 Created by KiCad (PCBNEW (5.99.0-12112-g0cd8a4d846)) date 2021-10-21 21:26:21*
%MOMM*%
%LPD*%
G01*
G04 APERTURE LIST*
G04 Aperture macros list*
%AMRoundRect*
0 Rectangle with rounded corners*
0 $1 Rounding radius*
0 $2 $3 $4 $5 $6 $7 $8 $9 X,Y pos of 4 corners*
0 Add a 4 corners polygon primitive as box body*
4,1,4,$2,$3,$4,$5,$6,$7,$8,$9,$2,$3,0*
0 Add four circle primitives for the rounded corners*
1,1,$1+$1,$2,$3*
1,1,$1+$1,$4,$5*
1,1,$1+$1,$6,$7*
1,1,$1+$1,$8,$9*
0 Add four rect primitives between the rounded corners*
20,1,$1+$1,$2,$3,$4,$5,0*
20,1,$1+$1,$4,$5,$6,$7,0*
20,1,$1+$1,$6,$7,$8,$9,0*
20,1,$1+$1,$8,$9,$2,$3,0*%
G04 Aperture macros list end*
%ADD10C,0.787400*%
%ADD11R,1.000000X1.150000*%
%ADD12RoundRect,0.140000X0.170000X-0.140000X0.170000X0.140000X-0.170000X0.140000X-0.170000X-0.140000X0*%
%ADD13RoundRect,0.140000X0.140000X0.170000X-0.140000X0.170000X-0.140000X-0.170000X0.140000X-0.170000X0*%
%ADD14RoundRect,0.140000X-0.140000X-0.170000X0.140000X-0.170000X0.140000X0.170000X-0.140000X0.170000X0*%
%ADD15RoundRect,0.135000X0.135000X0.185000X-0.135000X0.185000X-0.135000X-0.185000X0.135000X-0.185000X0*%
%ADD16RoundRect,0.135000X-0.185000X0.135000X-0.185000X-0.135000X0.185000X-0.135000X0.185000X0.135000X0*%
%ADD17R,0.650000X1.050000*%
%ADD18RoundRect,0.250000X-0.625000X0.375000X-0.625000X-0.375000X0.625000X-0.375000X0.625000X0.375000X0*%
%ADD19O,1.700000X1.700000*%
%ADD20C,1.700000*%
%ADD21R,0.650000X1.060000*%
%ADD22O,3.000000X1.700000*%
%ADD23O,1.700000X3.000000*%
%ADD24R,5.200000X5.200000*%
%ADD25RoundRect,0.062500X-0.375000X0.062500X-0.375000X-0.062500X0.375000X-0.062500X0.375000X0.062500X0*%
%ADD26RoundRect,0.062500X-0.475000X0.062500X-0.475000X-0.062500X0.475000X-0.062500X0.475000X0.062500X0*%
%ADD27RoundRect,0.062500X-0.062500X0.375000X-0.062500X-0.375000X0.062500X-0.375000X0.062500X0.375000X0*%
%ADD28RoundRect,0.062500X-0.062500X0.475000X-0.062500X-0.475000X0.062500X-0.475000X0.062500X0.475000X0*%
G04 APERTURE END LIST*
D10*
%TO.C,REF\u002A\u002A*%
X59272250Y-63817500D03*
X59272250Y-62547500D03*
X59272250Y-65087500D03*
X59272250Y-66357500D03*
X59272250Y-67627500D03*
%TD*%
%TO.C,REF\u002A\u002A*%
X112167750Y-66357500D03*
X112167750Y-67627500D03*
X112167750Y-65087500D03*
X112167750Y-63817500D03*
X112167750Y-62547500D03*
%TD*%
%TO.C,REF\u002A\u002A*%
X112167750Y-87000000D03*
X112167750Y-88270000D03*
X112167750Y-85730000D03*
X112167750Y-84460000D03*
X112167750Y-83190000D03*
%TD*%
%TO.C,REF\u002A\u002A*%
X59272250Y-84455000D03*
X59272250Y-83185000D03*
X59272250Y-85725000D03*
X59272250Y-86995000D03*
X59272250Y-88265000D03*
%TD*%
%TO.C,REF\u002A\u002A*%
X96515000Y-68802250D03*
X97785000Y-68802250D03*
X95245000Y-68802250D03*
X93975000Y-68802250D03*
X92705000Y-68802250D03*
%TD*%
%TO.C,REF\u002A\u002A*%
X73655000Y-68802250D03*
X74925000Y-68802250D03*
X78735000Y-68802250D03*
X77465000Y-68802250D03*
X76195000Y-68802250D03*
%TD*%
D11*
%TO.C,Y1*%
X75175000Y-84218750D03*
X75175000Y-82468750D03*
X76575000Y-82468750D03*
X76575000Y-84218750D03*
%TD*%
D12*
%TO.C,C8*%
X93175000Y-86363750D03*
X93175000Y-87323750D03*
%TD*%
D13*
%TO.C,C1*%
X75295000Y-85743750D03*
X76255000Y-85743750D03*
%TD*%
%TO.C,C4*%
X78245000Y-86843750D03*
X79205000Y-86843750D03*
%TD*%
%TO.C,C2*%
X75295000Y-80943750D03*
X76255000Y-80943750D03*
%TD*%
%TO.C,C5*%
X78173459Y-79908459D03*
X79133459Y-79908459D03*
%TD*%
D14*
%TO.C,C6*%
X89755000Y-79843750D03*
X88795000Y-79843750D03*
%TD*%
%TO.C,C3*%
X91855000Y-80043750D03*
X90895000Y-80043750D03*
%TD*%
D15*
%TO.C,R1*%
X75265000Y-87143750D03*
X76285000Y-87143750D03*
%TD*%
D16*
%TO.C,R4*%
X91075000Y-87353750D03*
X91075000Y-86333750D03*
%TD*%
D17*
%TO.C,SW1*%
X73306250Y-82550000D03*
X73306250Y-86700000D03*
X71156250Y-82550000D03*
X71156250Y-86700000D03*
%TD*%
D18*
%TO.C,F1*%
X99218750Y-87125000D03*
X99218750Y-84325000D03*
%TD*%
D16*
%TO.C,R3*%
X93175000Y-85153750D03*
X93175000Y-84133750D03*
%TD*%
%TO.C,R2*%
X91975000Y-85153750D03*
X91975000Y-84133750D03*
%TD*%
D14*
%TO.C,C7*%
X89755000Y-86843750D03*
X88795000Y-86843750D03*
%TD*%
D19*
%TO.C,J12*%
X60473750Y-88106250D03*
X63013750Y-88106250D03*
X65553750Y-88106250D03*
D20*
X68093750Y-88106250D03*
%TD*%
D21*
%TO.C,U1*%
X95093750Y-84430000D03*
X96043750Y-84430000D03*
X96993750Y-84430000D03*
X96993750Y-86630000D03*
X96043750Y-86630000D03*
X95093750Y-86630000D03*
%TD*%
D19*
%TO.C,J7*%
X92868750Y-69998750D03*
X92868750Y-72538750D03*
X92868750Y-75078750D03*
D20*
X92868750Y-77618750D03*
%TD*%
D19*
%TO.C,J5*%
X97631250Y-77638750D03*
X97631250Y-75098750D03*
X97631250Y-72558750D03*
D20*
X97631250Y-70018750D03*
%TD*%
D19*
%TO.C,J3*%
X78581250Y-77638750D03*
X78581250Y-75098750D03*
X78581250Y-72558750D03*
D20*
X78581250Y-70018750D03*
%TD*%
D22*
%TO.C,J4*%
X97415000Y-77638750D03*
X93075000Y-77638750D03*
X97415000Y-75098750D03*
X93075000Y-75098750D03*
X97415000Y-72558750D03*
X93075000Y-72558750D03*
X97415000Y-70018750D03*
X93075000Y-70018750D03*
%TD*%
D19*
%TO.C,J9*%
X110976250Y-83343750D03*
X108436250Y-83343750D03*
X105896250Y-83343750D03*
D20*
X103356250Y-83343750D03*
%TD*%
D19*
%TO.C,J8*%
X68113750Y-83343750D03*
X65573750Y-83343750D03*
X63033750Y-83343750D03*
D20*
X60493750Y-83343750D03*
%TD*%
D19*
%TO.C,J6*%
X73818750Y-69998750D03*
X73818750Y-72538750D03*
X73818750Y-75078750D03*
D20*
X73818750Y-77618750D03*
%TD*%
D23*
%TO.C,J10*%
X68113750Y-83560000D03*
X68113750Y-87900000D03*
X65573750Y-83560000D03*
X65573750Y-87900000D03*
X63033750Y-83560000D03*
X63033750Y-87900000D03*
X60493750Y-83560000D03*
X60493750Y-87900000D03*
%TD*%
D19*
%TO.C,J13*%
X103336250Y-88106250D03*
X105876250Y-88106250D03*
X108416250Y-88106250D03*
D20*
X110956250Y-88106250D03*
%TD*%
D22*
%TO.C,J2*%
X78365000Y-77638750D03*
X74025000Y-77638750D03*
X78365000Y-75098750D03*
X74025000Y-75098750D03*
X78365000Y-72558750D03*
X74025000Y-72558750D03*
X78365000Y-70018750D03*
X74025000Y-70018750D03*
%TD*%
D24*
%TO.C,U2*%
X83975000Y-83343750D03*
D25*
X87212500Y-80843750D03*
D26*
X87312500Y-81343750D03*
X87312500Y-81843750D03*
X87312500Y-82343750D03*
X87312500Y-82843750D03*
X87312500Y-83343750D03*
X87312500Y-83843750D03*
X87312500Y-84343750D03*
X87312500Y-84843750D03*
X87312500Y-85343750D03*
D25*
X87212500Y-85843750D03*
D27*
X86475000Y-86581250D03*
D28*
X85975000Y-86681250D03*
X85475000Y-86681250D03*
X84975000Y-86681250D03*
X84475000Y-86681250D03*
X83975000Y-86681250D03*
X83475000Y-86681250D03*
X82975000Y-86681250D03*
X82475000Y-86681250D03*
X81975000Y-86681250D03*
D27*
X81475000Y-86581250D03*
D25*
X80737500Y-85843750D03*
D26*
X80637500Y-85343750D03*
X80637500Y-84843750D03*
X80637500Y-84343750D03*
X80637500Y-83843750D03*
X80637500Y-83343750D03*
X80637500Y-82843750D03*
X80637500Y-82343750D03*
X80637500Y-81843750D03*
X80637500Y-81343750D03*
D25*
X80737500Y-80843750D03*
D27*
X81475000Y-80106250D03*
D28*
X81975000Y-80006250D03*
X82475000Y-80006250D03*
X82975000Y-80006250D03*
X83475000Y-80006250D03*
X83975000Y-80006250D03*
X84475000Y-80006250D03*
X84975000Y-80006250D03*
X85475000Y-80006250D03*
X85975000Y-80006250D03*
D27*
X86475000Y-80106250D03*
%TD*%
D23*
%TO.C,J11*%
X110976250Y-83560000D03*
X110976250Y-87900000D03*
X108436250Y-83560000D03*
X108436250Y-87900000D03*
X105896250Y-83560000D03*
X105896250Y-87900000D03*
X103356250Y-83560000D03*
X103356250Y-87900000D03*
%TD*%
M02*
